<?xml version="1.0" encoding="utf-8"?>
<!-- Generator: Adobe Illustrator 24.1.2, SVG Export Plug-In . SVG Version: 6.00 Build 0)  -->
<svg version="1.1" id="Calque_1" xmlns="http://www.w3.org/2000/svg" xmlns:xlink="http://www.w3.org/1999/xlink" x="0px" y="0px"
	 viewBox="0 0 1920 1080" style="enable-background:new 0 0 1920 1080;" xml:space="preserve">
<style type="text/css">
	.st0{fill:#432918;}
	.st1{opacity:0.5;}
	.st2{fill:#2D1807;}
	.st3{fill:#936037;}
	.st4{fill:#B17F4A;}
	.st5{fill:url(#SVGID_1_);}
	.st6{opacity:0.25;}
	.st7{display:none;}
	.st8{display:inline;fill:#008D36;}
	.st9{fill:#1D7AC0;}
	.st10{fill:#36A9E1;}
	.st11{opacity:0.35;fill:#2D2E83;stroke:#00A4BC;stroke-miterlimit:10;enable-background:new    ;}
</style>
<g id="TABLE_V2">
	<g>
		<g>
			<path class="st0" d="M1295,895H625c-196.1,0-355-158.9-355-355l0,0c0-196.1,158.9-355,355-355h670c196.1,0,355,158.9,355,355l0,0
				C1650,736.1,1491.1,895,1295,895z"/>
		</g>
	</g>
	<g>
		<g>
			<path class="st0" d="M1295,895H625c-196.1,0-355-158.9-355-355l0,0c0-196.1,158.9-355,355-355h670c196.1,0,355,158.9,355,355l0,0
				C1650,736.1,1491.1,895,1295,895z"/>
		</g>
		<g class="st1">
			<path class="st2" d="M1295,895H625c-196.1,0-355-158.9-355-355l0,0c0-196.1,158.9-355,355-355h670c196.1,0,355,158.9,355,355l0,0
				C1650,736.1,1491.1,895,1295,895z"/>
		</g>
	</g>
	<path class="st3" d="M1295,875H625c-185,0-335-150-335-335l0,0c0-185,150-335,335-335h670c185,0,335,150,335,335l0,0
		C1630,725,1480,875,1295,875z"/>
	<path class="st4" d="M1300,865H620c-176.7,0-320-143.3-320-320v-10c0-176.7,143.3-320,320-320h680c176.7,0,320,143.3,320,320v10
		C1620,721.7,1476.7,865,1300,865z"/>
	<path class="st4" d="M1295,865H625c-179.5,0-325-145.5-325-325l0,0c0-179.5,145.5-325,325-325h670c179.5,0,325,145.5,325,325l0,0
		C1620,719.5,1474.5,865,1295,865z"/>
	<g>
		<g>

				<radialGradient id="SVGID_1_" cx="960" cy="537.5591" r="515.4731" gradientTransform="matrix(1 0 0 -1 0 1077.5591)" gradientUnits="userSpaceOnUse">
				<stop  offset="0" style="stop-color:#1D7AC0"/>
				<stop  offset="0.8464" style="stop-color:#21449E"/>
			</radialGradient>
			<path class="st5" d="M1295,860H625c-176.7,0-320-143.3-320-320l0,0c0-176.7,143.3-320,320-320h670c176.7,0,320,143.3,320,320l0,0
				C1615,716.7,1471.7,860,1295,860z"/>
		</g>
		<g class="st6">
			<path d="M1295,860H625c-176.7,0-320-143.3-320-320l0,0c0-176.7,143.3-320,320-320h670c176.7,0,320,143.3,320,320l0,0
				C1615,716.7,1471.7,860,1295,860z"/>
		</g>
	</g>
	<g class="st7">
		<path class="st8" d="M1295,846h-8v-2h8.5v2H1295z M1279,846h-8v-2h8V846z M1263.1,846h-8v-2h8V846z M1247.1,846h-8v-2h8V846z
			 M1231.1,846h-8v-2h8V846z M1215.2,846h-8v-2h8V846z M1199.2,846h-8v-2h8V846z M1183.3,846h-8v-2h8V846z M1167.3,846h-8v-2h8V846z
			 M1151.3,846h-8v-2h8V846z M1135.4,846h-8v-2h8V846z M1119.4,846h-8v-2h8V846z M1103.4,846h-8v-2h8V846z M1087.5,846h-8v-2h8V846z
			 M1071.5,846h-8v-2h8V846z M1055.6,846h-8v-2h8V846z M1039.6,846h-8v-2h8V846z M1023.6,846h-8v-2h8V846z M1007.7,846h-8v-2h8V846z
			 M991.7,846h-8v-2h8V846z M975.7,846h-8v-2h8V846z M959.8,846h-8v-2h8V846z M943.8,846h-8v-2h8V846z M927.9,846h-8v-2h8V846z
			 M911.9,846h-8v-2h8V846z M895.9,846h-8v-2h8V846z M880,846h-8v-2h8V846z M864,846h-8v-2h8V846z M848,846h-8v-2h8V846z M832.1,846
			h-8v-2h8V846z M816.1,846h-8v-2h8V846z M800.1,846h-8v-2h8V846z M784.2,846h-8v-2h8V846z M768.2,846h-8v-2h8V846z M752.3,846h-8
			v-2h8V846z M736.3,846h-8v-2h8V846z M720.3,846h-8v-2h8V846z M704.4,846h-8v-2h8V846z M688.4,846h-8v-2h8V846z M672.4,846h-8v-2h8
			V846z M656.5,846h-8v-2h8V846z M640.5,846h-8v-2h8V846z M624.6,846c-2.7,0-5.4,0-8-0.1l0.1-2c2.6,0.1,5.3,0.1,8,0.1L624.6,846z
			 M1303.6,845.9l-0.1-2c2.6-0.1,5.3-0.2,7.9-0.3l0.1,2C1308.9,845.7,1306.2,845.8,1303.6,845.9z M608.6,845.6
			c-2.7-0.1-5.4-0.3-8-0.5l0.2-2c2.6,0.2,5.3,0.4,7.9,0.5L608.6,845.6z M1319.6,845l-0.2-2c2.6-0.2,5.3-0.5,7.9-0.7l0.2,2
			C1324.9,844.6,1322.2,844.8,1319.6,845z M592.6,844.3c-2.6-0.3-5.3-0.6-7.9-0.9l0.3-2c2.6,0.3,5.3,0.7,7.9,0.9L592.6,844.3z
			 M1335.5,843.3l-0.3-2c2.6-0.3,5.3-0.7,7.9-1.1l0.3,2C1340.8,842.6,1338.1,843,1335.5,843.3z M576.7,842.2
			c-2.6-0.4-5.3-0.9-7.9-1.4l0.4-2c2.6,0.5,5.2,0.9,7.8,1.3L576.7,842.2z M1351.3,840.8l-0.4-2c2.6-0.5,5.2-1,7.8-1.6l0.4,2
			C1356.6,839.8,1353.9,840.3,1351.3,840.8z M561,839.3c-2.6-0.6-5.2-1.2-7.8-1.8l0.5-1.9c2.5,0.6,5.2,1.2,7.8,1.8L561,839.3z
			 M1366.9,837.5l-0.5-1.9c2.6-0.6,5.2-1.3,7.7-2l0.5,1.9C1372.1,836.2,1369.5,836.9,1366.9,837.5z M545.4,835.5
			c-2.6-0.7-5.2-1.4-7.7-2.2l0.6-1.9c2.5,0.7,5.1,1.5,7.7,2.2L545.4,835.5z M1382.4,833.3l-0.6-1.9c2.5-0.8,5.1-1.6,7.6-2.4l0.6,1.9
			C1387.5,831.8,1385,832.6,1382.4,833.3z M530.1,831c-2.5-0.8-5.1-1.7-7.6-2.6l0.7-1.9c2.5,0.9,5.1,1.8,7.6,2.6L530.1,831z
			 M1397.6,828.4l-0.7-1.9c2.5-0.9,5-1.8,7.5-2.8l0.7,1.9C1402.7,826.5,1400.1,827.5,1397.6,828.4z M514.9,825.6c-2.5-1-5-2-7.5-3
			l0.8-1.8c2.5,1,5,2,7.4,3L514.9,825.6z M1412.5,822.6l-0.8-1.8c2.4-1,4.9-2.1,7.3-3.1l0.8,1.8
			C1417.4,820.5,1415,821.6,1412.5,822.6z M500.1,819.4c-2.4-1.1-4.9-2.2-7.3-3.4l0.9-1.8c2.4,1.1,4.8,2.3,7.2,3.4L500.1,819.4z
			 M1427.1,816.1l-0.9-1.8c2.4-1.1,4.8-2.3,7.1-3.5l0.9,1.8C1431.9,813.8,1429.5,814.9,1427.1,816.1z M485.6,812.5
			c-2.4-1.2-4.7-2.5-7.1-3.8l1-1.8c2.3,1.3,4.7,2.5,7,3.7L485.6,812.5z M1441.3,808.8l-1-1.8c2.3-1.3,4.6-2.6,6.9-3.9l1,1.7
			C1446,806.2,1443.6,807.6,1441.3,808.8z M471.6,804.8c-2.3-1.3-4.6-2.7-6.9-4.1l1-1.7c2.3,1.4,4.6,2.8,6.8,4.1L471.6,804.8z
			 M1455.1,800.8l-1-1.7c2.2-1.4,4.5-2.8,6.7-4.2l1.1,1.7C1459.7,798,1457.4,799.4,1455.1,800.8z M457.9,796.4
			c-2.2-1.4-4.4-2.9-6.7-4.5l1.1-1.6c2.2,1.5,4.4,3,6.6,4.4L457.9,796.4z M1468.5,792.1l-1.1-1.6c2.2-1.5,4.3-3,6.5-4.6l1.2,1.6
			C1472.9,789,1470.7,790.6,1468.5,792.1z M444.7,787.3c-2.2-1.6-4.3-3.2-6.4-4.8l1.2-1.6c2.1,1.6,4.2,3.2,6.4,4.8L444.7,787.3z
			 M1481.5,782.7l-1.2-1.6c2.1-1.6,4.2-3.3,6.2-4.9l1.3,1.6C1485.7,779.4,1483.5,781,1481.5,782.7z M432,777.5
			c-2.1-1.7-4.1-3.4-6.1-5.1l1.3-1.5c2,1.7,4.1,3.4,6.1,5.1L432,777.5z M1493.9,772.6l-1.3-1.5c2-1.7,4-3.5,6-5.2l1.3,1.5
			C1497.9,769.1,1495.9,770.9,1493.9,772.6z M419.9,767.1c-2-1.8-3.9-3.6-5.9-5.4l1.4-1.4c1.9,1.8,3.9,3.6,5.8,5.4L419.9,767.1z
			 M1505.8,761.9l-1.4-1.4c1.9-1.8,3.8-3.7,5.7-5.6l1.4,1.4C1509.6,758.1,1507.7,760,1505.8,761.9z M408.3,756
			c-1.9-1.9-3.7-3.8-5.6-5.7l1.5-1.4c1.8,1.9,3.7,3.8,5.5,5.7L408.3,756z M1517.1,750.5l-1.5-1.4c1.8-1.9,3.6-3.9,5.4-5.8l1.5,1.3
			C1520.7,746.6,1518.9,748.6,1517.1,750.5z M397.3,744.4c-1.8-2-3.5-4-5.3-6l1.5-1.3c1.7,2,3.5,4,5.2,6L397.3,744.4z M1527.8,738.6
			l-1.5-1.3c1.7-2,3.4-4.1,5.1-6.1l1.6,1.3C1531.2,734.5,1529.5,736.6,1527.8,738.6z M386.9,732.2c-1.7-2.1-3.3-4.2-4.9-6.3l1.6-1.2
			c1.6,2.1,3.3,4.2,4.9,6.2L386.9,732.2z M1537.9,726.2l-1.6-1.2c1.6-2.1,3.2-4.2,4.8-6.4l1.6,1.2
			C1541.1,721.9,1539.5,724.1,1537.9,726.2z M377.2,719.5c-1.6-2.2-3.1-4.3-4.6-6.5l1.6-1.1c1.5,2.2,3,4.4,4.6,6.5L377.2,719.5z
			 M1547.3,713.2l-1.6-1.1c1.5-2.2,3-4.4,4.4-6.6l1.7,1.1C1550.3,708.8,1548.8,711,1547.3,713.2z M368.1,706.4
			c-1.4-2.2-2.9-4.5-4.3-6.8l1.7-1c1.4,2.2,2.8,4.5,4.2,6.7L368.1,706.4z M1556,699.8l-1.7-1c1.4-2.3,2.8-4.6,4.1-6.8l1.7,1
			C1558.8,695.2,1557.4,697.5,1556,699.8z M359.8,692.7c-1.3-2.3-2.6-4.6-3.9-7l1.8-1c1.3,2.3,2.6,4.7,3.9,6.9L359.8,692.7z
			 M1564,685.9l-1.8-1c1.3-2.3,2.5-4.7,3.7-7.1l1.8,0.9C1566.6,681.2,1565.3,683.5,1564,685.9z M352.2,678.7
			c-1.2-2.4-2.4-4.8-3.5-7.2l1.8-0.9c1.1,2.4,2.3,4.8,3.5,7.1L352.2,678.7z M1571.3,671.6l-1.8-0.9c1.1-2.4,2.3-4.8,3.3-7.2l1.8,0.8
			C1573.6,666.7,1572.5,669.2,1571.3,671.6z M345.3,664.3c-1.1-2.4-2.1-4.9-3.1-7.3l1.8-0.8c1,2.4,2.1,4.9,3.1,7.3L345.3,664.3z
			 M1577.9,656.9l-1.8-0.8c1-2.4,2-4.9,3-7.4l1.9,0.7C1579.9,652,1578.9,654.5,1577.9,656.9z M339.2,649.5c-0.9-2.5-1.9-5-2.8-7.5
			l1.9-0.7c0.9,2.5,1.8,5,2.7,7.5L339.2,649.5z M1583.6,641.9l-1.9-0.7c0.9-2.5,1.7-5,2.6-7.6l1.9,0.6
			C1585.4,636.9,1584.5,639.4,1583.6,641.9z M333.8,634.4c-0.8-2.5-1.6-5.1-2.4-7.6l1.9-0.6c0.7,2.5,1.5,5.1,2.4,7.6L333.8,634.4z
			 M1588.5,626.7l-1.9-0.6c0.7-2.5,1.5-5.1,2.1-7.7l1.9,0.5C1590,621.5,1589.3,624.1,1588.5,626.7z M329.3,619.1
			c-0.7-2.6-1.3-5.2-2-7.8l1.9-0.5c0.6,2.6,1.3,5.2,1.9,7.7L329.3,619.1z M1592.7,611.2l-1.9-0.5c0.6-2.6,1.2-5.2,1.7-7.8l2,0.4
			C1593.9,606,1593.3,608.6,1592.7,611.2z M325.6,603.5c-0.5-2.6-1.1-5.2-1.5-7.9l2-0.4c0.5,2.6,1,5.2,1.5,7.8L325.6,603.5z
			 M1596,595.5l-2-0.4c0.5-2.6,0.9-5.2,1.3-7.8l2,0.3C1596.9,590.3,1596.4,592.9,1596,595.5z M322.7,587.7c-0.4-2.6-0.8-5.3-1.1-7.9
			l2-0.3c0.3,2.6,0.7,5.3,1.1,7.9L322.7,587.7z M1598.4,579.7l-2-0.3c0.3-2.6,0.6-5.3,0.9-7.9l2,0.2
			C1599.1,574.4,1598.8,577.1,1598.4,579.7z M320.6,571.9c-0.3-2.6-0.5-5.3-0.7-8l2-0.2c0.2,2.6,0.4,5.3,0.7,7.9L320.6,571.9z
			 M1600.1,563.8l-2-0.2c0.2-2.6,0.4-5.3,0.5-7.9l2,0.1C1600.5,558.5,1600.3,561.1,1600.1,563.8z M319.4,555.9
			c-0.1-2.7-0.2-5.4-0.3-8l2-0.1c0.1,2.6,0.2,5.3,0.3,7.9L319.4,555.9z M1600.9,547.8l-2-0.1c0.1-2.6,0.1-5.2,0.1-7.8v-0.2h2v0.2
			C1601,542.6,1601,545.2,1600.9,547.8z M321,539.9h-2c0-2.7,0-5.3,0.1-8l2,0.1C321,534.6,321,537.3,321,539.9z M1598.9,531.9
			c-0.1-2.6-0.2-5.3-0.3-7.9l2-0.1c0.1,2.7,0.2,5.3,0.3,8H1598.9z M321.4,524l-2-0.1c0.1-2.7,0.3-5.3,0.5-8l2,0.2
			C321.7,518.7,321.6,521.4,321.4,524z M1598.1,516c-0.2-2.6-0.5-5.3-0.7-7.9l2-0.2c0.3,2.6,0.5,5.3,0.7,8L1598.1,516z M322.6,508.1
			l-2-0.2c0.3-2.6,0.6-5.3,0.9-8l2,0.3C323.2,502.9,322.9,505.5,322.6,508.1z M1596.4,500.1c-0.3-2.6-0.7-5.3-1.1-7.9l2-0.3
			c0.4,2.6,0.8,5.3,1.1,7.9L1596.4,500.1z M324.7,492.4l-2-0.3c0.4-2.6,0.9-5.3,1.3-7.9l2,0.4C325.6,487.1,325.1,489.8,324.7,492.4z
			 M1593.9,484.4c-0.5-2.6-1-5.2-1.5-7.8l2-0.4c0.6,2.6,1.1,5.2,1.6,7.9L1593.9,484.4z M327.6,476.7l-2-0.4c0.5-2.6,1.1-5.2,1.8-7.8
			l1.9,0.5C328.7,471.5,328.1,474.2,327.6,476.7z M1590.6,468.9c-0.6-2.6-1.3-5.2-2-7.7l1.9-0.5c0.7,2.6,1.3,5.2,2,7.8L1590.6,468.9
			z M331.3,461.3l-1.9-0.5c0.7-2.6,1.4-5.2,2.2-7.7l1.9,0.6C332.7,456.1,332,458.7,331.3,461.3z M1586.5,453.5
			c-0.8-2.5-1.5-5.1-2.4-7.6l1.9-0.6c0.8,2.5,1.6,5.1,2.4,7.6L1586.5,453.5z M335.8,446l-1.9-0.6c0.8-2.5,1.7-5.1,2.6-7.6l1.9,0.7
			C337.5,441,336.6,443.5,335.8,446z M1581.6,438.4c-0.9-2.5-1.8-5-2.8-7.5l1.9-0.7c1,2.5,1.9,5,2.8,7.5L1581.6,438.4z M341.1,431
			l-1.9-0.7c1-2.5,2-5,3-7.5l1.8,0.8C343.1,426,342.1,428.5,341.1,431z M1575.9,423.6c-1-2.4-2.1-4.9-3.1-7.3l1.8-0.8
			c1.1,2.4,2.1,4.9,3.2,7.3L1575.9,423.6z M347.3,416.2l-1.8-0.8c1.1-2.4,2.2-4.9,3.4-7.3l1.8,0.9
			C349.5,411.4,348.3,413.8,347.3,416.2z M1569.4,409.1c-1.1-2.4-2.3-4.8-3.5-7.1l1.8-0.9c1.2,2.4,2.4,4.8,3.5,7.2L1569.4,409.1z
			 M354.1,401.9l-1.8-0.9c1.2-2.4,2.5-4.8,3.7-7.1l1.8,1C356.6,397.1,355.3,399.5,354.1,401.9z M1562.2,395
			c-1.3-2.3-2.6-4.6-3.9-6.9l1.7-1c1.3,2.3,2.6,4.6,3.9,7L1562.2,395z M361.8,387.9l-1.7-1c1.3-2.3,2.7-4.6,4.1-6.9l1.7,1
			C364.4,383.3,363.1,385.6,361.8,387.9z M1554.3,381.2c-1.4-2.3-2.8-4.5-4.2-6.7l1.7-1.1c1.4,2.2,2.9,4.5,4.3,6.8L1554.3,381.2z
			 M370.1,374.3l-1.7-1.1c1.4-2.2,2.9-4.5,4.5-6.7l1.6,1.1C373,369.9,371.5,372.1,370.1,374.3z M1545.6,367.9
			c-1.5-2.2-3-4.3-4.6-6.5l1.6-1.2c1.6,2.2,3.1,4.3,4.6,6.5L1545.6,367.9z M379.1,361.2l-1.6-1.2c1.6-2.2,3.2-4.3,4.8-6.4l1.6,1.2
			C382.3,356.9,380.7,359,379.1,361.2z M1536.3,355.1c-1.6-2.1-3.3-4.2-4.9-6.2l1.6-1.3c1.7,2.1,3.3,4.2,5,6.3L1536.3,355.1z
			 M388.8,348.6l-1.6-1.3c1.7-2.1,3.4-4.1,5.1-6.2l1.5,1.3C392.2,344.5,390.5,346.5,388.8,348.6z M1526.3,342.7c-1.7-2-3.5-4-5.2-6
			l1.5-1.3c1.8,2,3.6,4,5.3,6L1526.3,342.7z M399.2,336.5l-1.5-1.3c1.8-2,3.6-4,5.4-5.9l1.4,1.4C402.8,332.5,401,334.5,399.2,336.5z
			 M1515.7,330.9c-1.8-1.9-3.7-3.8-5.5-5.7l1.4-1.4c1.9,1.9,3.7,3.8,5.6,5.7L1515.7,330.9z M410.1,324.9l-1.4-1.4
			c1.9-1.9,3.8-3.8,5.7-5.6l1.4,1.5C413.9,321.2,412,323.1,410.1,324.9z M1504.4,319.6c-1.9-1.8-3.9-3.6-5.8-5.4l1.3-1.5
			c2,1.8,4,3.6,5.9,5.4L1504.4,319.6z M421.7,314l-1.3-1.5c2-1.8,4-3.5,6-5.3l1.3,1.5C425.6,310.5,423.6,312.2,421.7,314z
			 M1492.6,309c-2-1.7-4.1-3.4-6.1-5.1l1.3-1.6c2.1,1.7,4.1,3.4,6.2,5.1L1492.6,309z M433.8,303.7l-1.3-1.6c2.1-1.7,4.2-3.3,6.3-5
			l1.2,1.6C437.9,300.4,435.8,302,433.8,303.7z M1480.3,298.9c-2.1-1.6-4.2-3.2-6.4-4.8l1.2-1.6c2.2,1.6,4.3,3.2,6.4,4.8
			L1480.3,298.9z M446.4,294l-1.2-1.6c2.1-1.6,4.3-3.1,6.5-4.6l1.1,1.6C450.7,290.9,448.5,292.4,446.4,294z M1467.4,289.6
			c-2.2-1.5-4.4-3-6.6-4.4l1.1-1.7c2.2,1.5,4.5,3,6.7,4.5L1467.4,289.6z M459.4,285l-1.1-1.7c2.2-1.4,4.5-2.9,6.8-4.3l1,1.7
			C463.9,282.1,461.7,283.6,459.4,285z M1454,280.9c-2.3-1.4-4.6-2.8-6.8-4.1l1-1.7c2.3,1.3,4.6,2.7,6.9,4.1L1454,280.9z M473,276.7
			l-1-1.7c2.3-1.3,4.6-2.6,7-3.9l1,1.8C477.6,274.1,475.3,275.4,473,276.7z M1440.3,272.9c-2.3-1.3-4.7-2.5-7-3.7l0.9-1.8
			c2.4,1.2,4.7,2.5,7.1,3.7L1440.3,272.9z M486.9,269.1l-0.9-1.8c2.4-1.2,4.8-2.4,7.2-3.5l0.9,1.8
			C491.7,266.7,489.3,267.9,486.9,269.1z M1426.1,265.6c-2.4-1.1-4.8-2.3-7.2-3.3l0.8-1.8c2.4,1.1,4.9,2.2,7.3,3.4L1426.1,265.6z
			 M501.2,262.3l-0.8-1.8c2.4-1.1,4.9-2.1,7.3-3.2l0.8,1.8C506.1,260.1,503.6,261.2,501.2,262.3z M1411.5,259.1c-2.4-1-4.9-2-7.4-3
			l0.7-1.9c2.5,1,5,2,7.5,3L1411.5,259.1z M515.9,256.2l-0.7-1.9c2.5-1,5-1.9,7.5-2.8l0.7,1.9C520.8,254.3,518.3,255.2,515.9,256.2z
			 M1396.6,253.4c-2.5-0.9-5-1.7-7.6-2.6l0.6-1.9c2.5,0.8,5.1,1.7,7.6,2.6L1396.6,253.4z M530.8,250.9l-0.6-1.9
			c2.5-0.8,5.1-1.6,7.6-2.4l0.6,1.9C535.9,249.3,533.4,250,530.8,250.9z M1381.5,248.5c-2.5-0.7-5.1-1.5-7.7-2.2l0.5-1.9
			c2.6,0.7,5.2,1.4,7.7,2.2L1381.5,248.5z M546.1,246.3l-0.5-1.9c2.6-0.7,5.2-1.4,7.8-2l0.5,1.9C551.2,245,548.6,245.7,546.1,246.3z
			 M1366.1,244.4c-2.6-0.6-5.2-1.2-7.8-1.8l0.4-2c2.6,0.6,5.2,1.1,7.8,1.8L1366.1,244.4z M561.6,242.6l-0.4-2
			c2.6-0.6,5.2-1.1,7.9-1.6l0.4,2C566.8,241.6,564.1,242.1,561.6,242.6z M1350.5,241.1c-2.6-0.5-5.2-0.9-7.8-1.3l0.3-2
			c2.6,0.4,5.3,0.9,7.9,1.4L1350.5,241.1z M577.2,239.7l-0.3-2c2.6-0.4,5.3-0.8,7.9-1.1l0.3,2C582.5,238.9,579.8,239.3,577.2,239.7z
			 M1334.8,238.6c-2.6-0.3-5.3-0.7-7.9-0.9l0.2-2c2.6,0.3,5.3,0.6,8,0.9L1334.8,238.6z M593,237.7l-0.2-2c2.6-0.3,5.3-0.5,8-0.7
			l0.2,2C598.3,237.1,595.6,237.4,593,237.7z M1319,236.9c-2.6-0.2-5.3-0.4-7.9-0.5l0.1-2c2.7,0.1,5.3,0.3,8,0.5L1319,236.9z
			 M608.8,236.4l-0.1-2c2.7-0.1,5.3-0.2,8-0.3l0.1,2C614.1,236.2,611.5,236.3,608.8,236.4z M1303.1,236.1c-2.6-0.1-5.3-0.1-8-0.1v-2
			c2.7,0,5.3,0,8,0.1V236.1z M1287.2,236h-8v-2h8V236z M1271.2,236h-8v-2h8V236z M1255.3,236h-8v-2h8V236z M1239.3,236h-8v-2h8V236z
			 M1223.3,236h-8v-2h8V236z M1207.4,236h-8v-2h8V236z M1191.4,236h-8v-2h8V236z M1175.5,236h-8v-2h8V236z M1159.5,236h-8v-2h8V236z
			 M1143.5,236h-8v-2h8V236z M1127.6,236h-8v-2h8V236z M1111.6,236h-8v-2h8V236z M1095.6,236h-8v-2h8V236z M1079.7,236h-8v-2h8V236z
			 M1063.7,236h-8v-2h8V236z M1047.8,236h-8v-2h8V236z M1031.8,236h-8v-2h8V236z M1015.8,236h-8v-2h8V236z M999.9,236h-8v-2h8V236z
			 M983.9,236h-8v-2h8V236z M967.9,236h-8v-2h8V236z M952,236h-8v-2h8V236z M936,236h-8v-2h8V236z M920,236h-8v-2h8V236z M904.1,236
			h-8v-2h8V236z M888.1,236h-8v-2h8V236z M872.2,236h-8v-2h8V236z M856.2,236h-8v-2h8V236z M840.2,236h-8v-2h8V236z M824.3,236h-8
			v-2h8V236z M808.3,236h-8v-2h8V236z M792.3,236h-8v-2h8V236z M776.4,236h-8v-2h8V236z M760.4,236h-8v-2h8V236z M744.5,236h-8v-2h8
			V236z M728.5,236h-8v-2h8V236z M712.5,236h-8v-2h8V236z M696.6,236h-8v-2h8V236z M680.6,236h-8v-2h8V236z M664.6,236h-8v-2h8V236z
			 M648.7,236h-8v-2h8V236z M632.7,236h-8v-2h8V236z"/>
	</g>
	<g>
		<path class="st9" d="M1491.2,343.8c-52.4-52.4-122.1-81.3-196.2-81.3H625c-74.1,0-143.8,28.9-196.2,81.3S347.5,465.9,347.5,540
			s28.9,143.8,81.3,196.2s122.1,81.3,196.2,81.3h491.8v-5H625c-72.8,0-141.2-28.3-192.7-79.8S352.5,612.8,352.5,540
			s28.3-141.2,79.8-192.7s119.9-79.8,192.7-79.8h670c72.8,0,141.2,28.3,192.7,79.8s79.8,119.9,79.8,192.7s-28.3,141.2-79.8,192.7
			s-119.9,79.8-192.7,79.8h-6.7v5h6.7c74.1,0,143.8-28.9,196.2-81.3c52.4-52.4,81.3-122.1,81.3-196.2S1543.6,396.2,1491.2,343.8z"/>
	</g>
	<g>
		<path class="st9" d="M1129.6,806.6h2.5l1.2,12.9l0,0l1.2-12.9h2.9l1.2,12.9l0,0l1.2-12.9h2.3l-1.7,16.8h-3.3l-1.2-11.3l0,0
			l-1.2,11.3h-3.5L1129.6,806.6z"/>
		<path class="st9" d="M1144.5,806.6h2.5l1.2,12.9l0,0l1.2-12.9h2.9l1.2,12.9l0,0l1.2-12.9h2.3l-1.7,16.8h-3.3l-1.2-11.3l0,0
			l-1.2,11.3h-3.5L1144.5,806.6z"/>
		<path class="st9" d="M1159.5,806.6h2.5l1.2,12.9l0,0l1.2-12.9h2.9l1.2,12.9l0,0l1.2-12.9h2.3l-1.7,16.8h-3.3l-1.2-11.3l0,0
			l-1.2,11.3h-3.5L1159.5,806.6z"/>
		<path class="st9" d="M1174.3,820.9h2.5v2.5h-2.5V820.9z"/>
		<path class="st9" d="M1180.2,806.6h2.6v7.1l3.4-7.1h2.6l-3.1,6.2l3.2,10.6h-2.8l-2.2-7.5l-1.1,2.1v5.3h-2.6V806.6z"/>
		<path class="st9" d="M1191.6,806.6h2.6v16.8h-2.6V806.6z"/>
		<path class="st9" d="M1197.6,806.6h2.6V821h4.3v2.4h-7L1197.6,806.6L1197.6,806.6z"/>
		<path class="st9" d="M1207.3,806.6h2.6V821h4.3v2.4h-7L1207.3,806.6L1207.3,806.6z"/>
		<path class="st9" d="M1214.8,813.8h5.3v2.4h-5.3V813.8z"/>
		<path class="st9" d="M1223.4,809h-2.8v-2.4h8.1v2.4h-2.8v14.4h-2.6V809H1223.4z"/>
		<path class="st9" d="M1231.6,806.6h2.6v16.8h-2.6V806.6z"/>
		<path class="st9" d="M1237.6,806.6h2.6V821h4.3v2.4h-7L1237.6,806.6L1237.6,806.6z"/>
		<path class="st9" d="M1247.5,809h-2.8v-2.4h8.1v2.4h-2.8v14.4h-2.6V809H1247.5z"/>
		<path class="st9" d="M1253.8,820.9h2.5v2.5h-2.5V820.9z"/>
		<path class="st9" d="M1259.8,806.6h7v2.4h-4.3v4.7h3.4v2.4h-3.4v7.3h-2.6L1259.8,806.6L1259.8,806.6z"/>
		<path class="st9" d="M1269.4,806.6h3.9c2.7,0,3.9,1.3,3.9,3.9v1c0,1.7-0.6,2.8-1.7,3.3l0,0c1.3,0.4,1.7,1.7,1.7,3.5v2.9
			c0,0.8,0,1.4,0.3,2h-2.7c-0.1-0.4-0.2-0.7-0.2-2.1V818c0-1.6-0.5-2.1-1.7-2.1h-0.9v7.2h-2.6L1269.4,806.6L1269.4,806.6z
			 M1273,813.8c1,0,1.6-0.4,1.6-1.8v-1.3c0-1.2-0.4-1.7-1.3-1.7h-1.2v4.8H1273z"/>
	</g>
</g>
<g id="LOGO_V2">
	<g class="st7">
		<path class="st8" d="M1146.9,647.3l-0.9-0.5c0,0.1-0.1,0.1-0.1,0.2c-1.1-1.5-2.1-2.9-3.2-4.4l-0.8,0.6c1.1,1.6,2.3,3.2,3.5,4.8
			c-1.1,1.9-2.3,3.8-3.4,5.7l0.8,0.5c1.1-1.8,2.2-3.6,3.2-5.4c0.2,0.3,0.4,0.6,0.6,0.8l0.8-0.6c-0.3-0.4-0.6-0.8-0.9-1.2
			C1146.7,647.7,1146.8,647.5,1146.9,647.3z"/>
		<path class="st8" d="M1133.5,413.8c1.6,2.1,3.1,4.3,4.6,6.5l0.8-0.6c-1.5-2.2-3-4.4-4.6-6.6L1133.5,413.8z"/>
		<path class="st8" d="M861.4,731.6c2.4,1.2,4.8,2.4,7.2,3.5l0.4-0.9c-2.4-1.1-4.8-2.3-7.2-3.5L861.4,731.6z"/>
		<path class="st8" d="M1153.5,632.7c-1.1,2.4-2.4,4.8-3.6,7.1l0.9,0.5c1.2-2.4,2.5-4.8,3.6-7.2L1153.5,632.7z"/>
		<path class="st8" d="M1153.8,448l0.9-0.4c-1.1-2.4-2.3-4.8-3.6-7.2l-0.9,0.5C1151.5,443.2,1152.7,445.6,1153.8,448z"/>
		<path class="st8" d="M891.5,335.6l0.3,0.9c2.5-0.8,5.1-1.6,7.6-2.4l-0.3-1C896.6,333.9,894.1,334.8,891.5,335.6z"/>
		<path class="st8" d="M922.6,327.7l0.2,1c2.6-0.5,5.3-0.9,7.9-1.2l-0.1-1C927.9,326.9,925.2,327.3,922.6,327.7z"/>
		<path class="st8" d="M1123,679.4l0.8,0.7c1.7-2,3.4-4.1,5.1-6.2l-0.8-0.6C1126.5,675.3,1124.8,677.4,1123,679.4z"/>
		<path class="st8" d="M906.9,331.1l0.2,1c2.6-0.7,5.2-1.3,7.8-1.8l-0.2-1C912.1,329.8,909.5,330.4,906.9,331.1z"/>
		<path class="st8" d="M921.9,752.2c2.6,0.5,5.3,0.9,7.9,1.3l0.1-1c-2.6-0.4-5.3-0.8-7.9-1.3L921.9,752.2z"/>
		<path class="st8" d="M1133,666.9l0.8,0.6c1.6-2.1,3.1-4.4,4.6-6.6l-0.8-0.6C1136.1,662.6,1134.5,664.7,1133,666.9z"/>
		<path class="st8" d="M875.9,738.5c2.5,1,5,2.1,7.5,3l0.4-0.9c-2.5-0.9-5-1.9-7.4-3L875.9,738.5z"/>
		<path class="st8" d="M1173.9,555.9c-0.2,2.6-0.4,5.3-0.7,7.9l1,0.1c0.3-2.7,0.5-5.3,0.7-8H1173.9z"/>
		<path class="st8" d="M1167.5,485.4c0.7,2.6,1.3,5.2,1.9,7.8l1-0.2c-0.6-2.6-1.2-5.2-1.9-7.8L1167.5,485.4z"/>
		<path class="st8" d="M890.9,744.2c2.5,0.9,5.1,1.7,7.6,2.4l0.3-1c-2.5-0.8-5.1-1.6-7.6-2.4L890.9,744.2z"/>
		<path class="st8" d="M937.8,754.4c2.7,0.3,5.3,0.5,8,0.7l0.1-1c-2.6-0.2-5.3-0.4-8-0.7L937.8,754.4z"/>
		<path class="st8" d="M862.1,348l0.5,0.9c2.4-1.2,4.8-2.4,7.2-3.5l-0.4-0.9C866.9,345.6,864.4,346.8,862.1,348z"/>
		<path class="st8" d="M1170.8,579.7l1,0.2c0.5-2.6,0.9-5.3,1.3-7.9l-1-0.1C1171.8,574.4,1171.3,577.1,1170.8,579.7z"/>
		<path class="st8" d="M1167.3,595.2l1,0.3c0.7-2.6,1.3-5.2,1.9-7.8l-1-0.2C1168.6,590.1,1168,592.7,1167.3,595.2z"/>
		<path class="st8" d="M1157.1,455.3c1.1,2.4,2.1,4.9,3,7.4l0.9-0.4c-1-2.5-2-4.9-3-7.4L1157.1,455.3z"/>
		<path class="st8" d="M1156.8,625.4l0.9,0.4c1.1-2.5,2.1-5,3.1-7.4l-0.9-0.4C1158.9,620.5,1157.9,623,1156.8,625.4z"/>
		<path class="st8" d="M876.6,341.2l0.4,0.9c2.4-1,4.9-2,7.4-2.9l-0.4-0.9C881.5,339.2,879,340.2,876.6,341.2z"/>
		<path class="st8" d="M906.3,748.8c2.6,0.7,5.2,1.3,7.8,1.8l0.2-1c-2.6-0.6-5.2-1.2-7.8-1.8L906.3,748.8z"/>
		<path class="st8" d="M1032.2,742l0.3,0.9c2.5-0.9,5-1.8,7.5-2.8l-0.4-0.9C1037.2,740.2,1034.7,741.2,1032.2,742z"/>
		<path class="st8" d="M1017.6,333.3c2.5,0.7,5.1,1.5,7.6,2.3l0.3-1c-2.5-0.8-5.1-1.6-7.7-2.3L1017.6,333.3z"/>
		<path class="st8" d="M1032.8,338.2c2.5,0.9,5,1.9,7.5,2.9l0.4-0.9c-2.5-1-5-2-7.5-2.9L1032.8,338.2z"/>
		<path class="st8" d="M1047,736.1l0.4,0.9c2.4-1.1,4.9-2.2,7.2-3.4l-0.4-0.9C1051.8,733.9,1049.4,735.1,1047,736.1z"/>
		<path class="st8" d="M1047.7,344.2c2.4,1.1,4.9,2.2,7.2,3.4l0.4-0.9c-2.4-1.2-4.8-2.3-7.3-3.4L1047.7,344.2z"/>
		<path class="st8" d="M938.5,325.6l0.1,1c2.6-0.3,5.3-0.5,8-0.6l-0.1-1C943.8,325.1,941.1,325.3,938.5,325.6z"/>
		<path class="st8" d="M985.7,753l0.1,1c2.7-0.3,5.3-0.7,7.9-1.1l-0.2-1C991,752.3,988.3,752.7,985.7,753z"/>
		<path class="st8" d="M986.4,327.1c2.6,0.3,5.3,0.7,7.9,1.1l0.2-1c-2.6-0.4-5.3-0.8-7.9-1.1L986.4,327.1z"/>
		<path class="st8" d="M1061.3,729.1l0.5,0.9c2.3-1.3,4.7-2.6,7-3.9l-0.5-0.9C1066,726.6,1063.6,727.9,1061.3,729.1z"/>
		<path class="st8" d="M1002.1,329.6c2.6,0.5,5.2,1.1,7.8,1.7l0.2-1c-2.6-0.6-5.2-1.2-7.8-1.7L1002.1,329.6z"/>
		<path class="st8" d="M1001.5,750.5l0.2,1c2.6-0.5,5.2-1.1,7.8-1.7l-0.2-1C1006.7,749.4,1004.1,750,1001.5,750.5z"/>
		<path class="st8" d="M1017,746.8l0.3,1c2.6-0.7,5.1-1.5,7.7-2.3l-0.3-1C1022.1,745.4,1019.5,746.1,1017,746.8z"/>
		<path class="st8" d="M969.8,754.3v1c2.7-0.1,5.4-0.3,8-0.5l-0.1-1C975.1,754,972.5,754.2,969.8,754.3z"/>
		<path class="st8" d="M1101.3,378.6c2,1.7,4,3.6,5.9,5.4l0.7-0.7c-1.9-1.8-3.9-3.6-5.9-5.4L1101.3,378.6z"/>
		<path class="st8" d="M1062,351.3c2.3,1.3,4.7,2.6,7,3.9l0.5-0.9c-2.3-1.4-4.6-2.7-7-4L1062,351.3z"/>
		<path class="st8" d="M960.2,754.5c-2.1,0-4.3,0-6.4-0.1v1c2.1,0.1,4.3,0.1,6.4,0.1c0.5,0,1.1,0,1.6,0v-1
			C961.3,754.5,960.8,754.5,960.2,754.5z"/>
		<path class="st8" d="M1112.2,691.1l0.7,0.7c1.9-1.9,3.7-3.8,5.5-5.8l-0.7-0.7C1115.9,687.3,1114.1,689.2,1112.2,691.1z"/>
		<path class="st8" d="M954.5,324.6v1c2.6-0.1,5.3-0.1,8-0.1v-1C959.8,324.5,957.1,324.5,954.5,324.6z"/>
		<path class="st8" d="M1075.8,359.4c2.2,1.4,4.5,2.9,6.6,4.4l0.6-0.8c-2.2-1.5-4.4-3-6.7-4.5L1075.8,359.4z"/>
		<path class="st8" d="M1075,721.1l0.5,0.8c2.2-1.4,4.5-2.9,6.7-4.4l-0.6-0.8C1079.5,718.2,1077.3,719.7,1075,721.1z"/>
		<path class="st8" d="M1088.2,712l0.6,0.8c2.1-1.6,4.3-3.2,6.3-4.9l-0.6-0.8C1092.4,708.8,1090.3,710.4,1088.2,712z"/>
		<path class="st8" d="M1100.6,702l0.7,0.8c2-1.7,4-3.5,6-5.4l-0.7-0.7C1104.6,698.5,1102.6,700.3,1100.6,702z"/>
		<path class="st8" d="M970.5,325.8c2.6,0.1,5.3,0.3,8,0.5l0.1-1c-2.7-0.2-5.3-0.4-8-0.5L970.5,325.8z"/>
		<path class="st8" d="M1088.9,368.5c2.1,1.6,4.2,3.2,6.3,4.9l0.6-0.8c-2.1-1.7-4.2-3.3-6.3-4.9L1088.9,368.5z"/>
		<path class="st8" d="M750,496.1c0.5-2.6,1.1-5.2,1.8-7.8l-1-0.2c-0.6,2.6-1.2,5.2-1.8,7.8L750,496.1z"/>
		<path class="st8" d="M784.9,416.1l-0.8-0.6c-1.5,2.2-3.1,4.4-4.5,6.6l0.8,0.5C781.8,420.5,783.4,418.3,784.9,416.1z"/>
		<path class="st8" d="M761.7,458l-0.9-0.4c-1,2.5-2,5-2.9,7.5l0.9,0.3C759.7,462.9,760.7,460.4,761.7,458z"/>
		<path class="st8" d="M794.6,403.4l-0.8-0.6c-1.7,2-3.4,4.2-5,6.3l0.8,0.6C791.2,407.6,792.9,405.5,794.6,403.4z"/>
		<path class="st8" d="M745.5,540c0-1.4,0-2.9,0-4.3h-1c0,1.4,0,2.9,0,4.3c0,1.2,0,2.4,0,3.7h1C745.5,542.4,745.5,541.2,745.5,540z"
			/>
		<path class="st8" d="M746.3,567.6c0.3,2.6,0.7,5.3,1.2,7.9l1-0.2c-0.4-2.6-0.8-5.3-1.2-7.9L746.3,567.6z"/>
		<path class="st8" d="M745.8,551.6l-1,0.1c0.1,2.7,0.3,5.4,0.6,8l1-0.1C746.1,557,746,554.3,745.8,551.6z"/>
		<path class="st8" d="M848.1,355.8l0.5,0.9c2.3-1.4,4.6-2.7,6.9-4l-0.5-0.9C852.7,353.1,850.4,354.4,848.1,355.8z"/>
		<path class="st8" d="M746.4,519.7l-1-0.1c-0.2,2.6-0.5,5.3-0.6,8l1,0.1C746,525.1,746.2,522.4,746.4,519.7z"/>
		<path class="st8" d="M1175.4,548c0.1-2.7,0.1-5.4,0.1-8c0-2.5,0-4.9-0.1-7.4h-1c0.1,2.4,0.1,4.9,0.1,7.3c0,2.6,0,5.3-0.1,8
			L1175.4,548z"/>
		<path class="st8" d="M1174.2,516.6l-1,0.1c0.3,2.6,0.5,5.3,0.7,7.9l1-0.1C1174.8,522,1174.5,519.3,1174.2,516.6z"/>
		<path class="st8" d="M1173.2,508.7c-0.4-2.6-0.8-5.3-1.3-7.9l-1,0.2c0.5,2.6,0.9,5.3,1.3,7.9L1173.2,508.7z"/>
		<path class="st8" d="M746.3,511.7l1,0.1c0.3-2.6,0.7-5.3,1.2-7.9l-1-0.2C747.1,506.4,746.7,509.1,746.3,511.7z"/>
		<path class="st8" d="M1163.8,469.8l-0.9,0.3c0.9,2.5,1.7,5.1,2.5,7.6l1-0.3C1165.5,474.9,1164.7,472.3,1163.8,469.8z"/>
		<path class="st8" d="M1119.1,394.6c-1.8-2-3.6-3.9-5.5-5.8l-0.7,0.7c1.9,1.9,3.7,3.8,5.5,5.8L1119.1,394.6z"/>
		<path class="st8" d="M1162.6,610.5l0.9,0.3c0.9-2.5,1.7-5.1,2.5-7.6l-1-0.3C1164.3,605.5,1163.5,608,1162.6,610.5z"/>
		<path class="st8" d="M1129.5,406.9c-1.6-2.1-3.3-4.2-5.1-6.2l-0.8,0.6c1.7,2,3.4,4.1,5,6.2L1129.5,406.9z"/>
		<path class="st8" d="M1147.3,433.4c-1.3-2.3-2.7-4.6-4.1-6.9l-0.8,0.5c1.4,2.2,2.8,4.5,4.1,6.8L1147.3,433.4z"/>
		<path class="st8" d="M805.2,391.5l-0.7-0.7c-1.8,1.9-3.7,3.9-5.4,5.9l0.7,0.7C801.6,395.4,803.4,393.4,805.2,391.5z"/>
		<path class="st8" d="M822.1,374.4l0.6,0.8c2-1.7,4.1-3.4,6.2-5l-0.6-0.8C826.2,371,824.1,372.7,822.1,374.4z"/>
		<path class="st8" d="M821.4,705c2,1.7,4.1,3.4,6.2,5l0.6-0.8c-2.1-1.6-4.2-3.3-6.2-5L821.4,705z"/>
		<path class="st8" d="M810.2,385.1l0.7,0.7c1.9-1.8,3.9-3.7,5.8-5.4l-0.7-0.7C814,381.4,812.1,383.3,810.2,385.1z"/>
		<path class="st8" d="M809.5,694.2c1.9,1.9,3.9,3.7,5.8,5.5l0.7-0.7c-2-1.8-3.9-3.6-5.8-5.5L809.5,694.2z"/>
		<path class="st8" d="M834.7,364.6l0.6,0.8c2.2-1.5,4.4-3.1,6.6-4.5l-0.6-0.8C839.1,361.5,836.9,363.1,834.7,364.6z"/>
		<path class="st8" d="M847.4,723.8c2.3,1.4,4.6,2.8,6.9,4.1l0.5-0.9c-2.3-1.3-4.6-2.7-6.9-4.1L847.4,723.8z"/>
		<path class="st8" d="M834,714.9c2.2,1.6,4.4,3.1,6.6,4.6l0.6-0.8c-2.2-1.5-4.4-3-6.6-4.6L834,714.9z"/>
		<path class="st8" d="M798.4,682.6c1.8,2,3.6,4,5.4,5.9l0.7-0.7c-1.8-1.9-3.6-3.9-5.4-5.9L798.4,682.6z"/>
		<path class="st8" d="M763.7,629.1c1.1,2.4,2.3,4.8,3.4,7.2l0.9-0.4c-1.2-2.4-2.3-4.8-3.4-7.2L763.7,629.1z"/>
		<path class="st8" d="M764,450.2l0.9,0.4c1.1-2.4,2.3-4.8,3.5-7.2l-0.9-0.5C766.3,445.4,765.1,447.8,764,450.2z"/>
		<path class="st8" d="M771.3,435.9l0.9,0.5c0.7-1.3,1.5-2.6,2.2-4l0.3-0.3l-0.1-0.1c0.5-0.9,1-1.7,1.5-2.6l-0.9-0.5
			c-0.4,0.7-0.9,1.5-1.3,2.2c-1.4-1.8-2.8-3.6-4.2-5.3l-0.8,0.6c1.5,1.8,3,3.7,4.4,5.6C772.7,433.4,772,434.6,771.3,435.9z"/>
		<path class="st8" d="M752.9,480.3l1,0.3c0.7-2.5,1.5-5.1,2.3-7.6l-1-0.3C754.4,475.2,753.6,477.8,752.9,480.3z"/>
		<path class="st8" d="M751.6,591c-0.6-2.6-1.2-5.2-1.7-7.8l-1,0.2c0.5,2.6,1.1,5.2,1.8,7.8L751.6,591z"/>
		<path class="st8" d="M779.1,657.1c1.4,2.2,3,4.5,4.5,6.6l0.8-0.6c-1.5-2.2-3-4.4-4.5-6.6L779.1,657.1z"/>
		<path class="st8" d="M758.6,613.9l-0.9,0.3c0.9,2.5,1.9,5,2.9,7.5l0.9-0.4C760.5,618.9,759.5,616.4,758.6,613.9z"/>
		<path class="st8" d="M788.3,670.2c1.6,2.1,3.3,4.2,5,6.3l0.8-0.6c-1.7-2-3.3-4.2-4.9-6.3L788.3,670.2z"/>
		<path class="st8" d="M752.7,599c0.7,2.6,1.5,5.1,2.3,7.7l1-0.3c-0.8-2.5-1.6-5.1-2.3-7.6L752.7,599z"/>
		<path class="st8" d="M1111.4,521.8l-1-0.1c-0.3,2.6-0.5,5.3-0.6,8l1,0.1C1111,527.1,1111.2,524.4,1111.4,521.8z"/>
		<path class="st8" d="M1469.5,520.6c-0.3-2.7-0.6-5.3-1-8l-1,0.2c0.4,2.6,0.7,5.3,1,7.9L1469.5,520.6z"/>
		<path class="st8" d="M1178.7,399.2l-0.6-0.8c-2.1,1.7-4.2,3.4-6.2,5.1l0.7,0.8C1174.6,402.5,1176.6,400.8,1178.7,399.2z"/>
		<path class="st8" d="M1469.5,536.6h1c0-2.7-0.2-5.4-0.3-8l-1,0.1C1469.3,531.3,1469.4,534,1469.5,536.6z"/>
		<path class="st8" d="M1116.5,490.2c-0.7,2.6-1.4,5.2-2,7.8l1,0.2c0.6-2.6,1.3-5.2,2-7.7L1116.5,490.2z"/>
		<path class="st8" d="M1113.7,506l-1-0.2c-0.5,2.6-1,5.3-1.3,7.9l1,0.1C1112.8,511.2,1113.2,508.6,1113.7,506z"/>
		<path class="st8" d="M1124.7,467.5l0.9,0.4c1.1-2.4,2.2-4.9,3.4-7.2l-0.9-0.4C1126.9,462.7,1125.7,465.1,1124.7,467.5z"/>
		<path class="st8" d="M1166.7,409.6l-0.7-0.7c-1.9,1.8-3.9,3.7-5.7,5.6l0.7,0.7C1162.8,413.3,1164.7,411.4,1166.7,409.6z"/>
		<path class="st8" d="M1118.4,592.7c-0.8-2.5-1.5-5.1-2.2-7.7l-1,0.2c0.7,2.6,1.4,5.2,2.2,7.7L1118.4,592.7z"/>
		<path class="st8" d="M1265.5,361.2c-2.6,0.4-5.3,0.8-7.9,1.3l0.2,1c2.6-0.5,5.3-0.9,7.9-1.2L1265.5,361.2z"/>
		<path class="st8" d="M1383.6,693.2l0.5,0.9c2.3-1.4,4.5-2.8,6.7-4.3l-0.6-0.8C1388.1,690.4,1385.9,691.8,1383.6,693.2z"/>
		<path class="st8" d="M1388.2,388.5c-2.2-1.4-4.5-2.9-6.8-4.2l-0.5,0.9c2.3,1.3,4.6,2.8,6.8,4.2L1388.2,388.5z"/>
		<path class="st8" d="M1369.7,700.9l0.4,0.9c2.4-1.2,4.8-2.4,7.1-3.7l-0.5-0.9C1374.4,698.5,1372.1,699.7,1369.7,700.9z"/>
		<path class="st8" d="M1374.4,380.4c-2.4-1.2-4.8-2.5-7.2-3.6l-0.4,0.9c2.4,1.1,4.8,2.3,7.1,3.6L1374.4,380.4z"/>
		<path class="st8" d="M1297.5,359.7c-2.5-0.1-5-0.2-7.5-0.2h-0.5v1h0.5c2.5,0,5,0.1,7.4,0.2L1297.5,359.7z"/>
		<path class="st8" d="M1413.4,408.3c-1.9-1.8-4-3.6-6-5.4l-0.7,0.8c2,1.7,4,3.5,5.9,5.3L1413.4,408.3z"/>
		<path class="st8" d="M1401.3,397.8c-2.1-1.7-4.3-3.3-6.4-4.8l-0.6,0.8c2.1,1.5,4.3,3.1,6.4,4.8L1401.3,397.8z"/>
		<path class="st8" d="M1396.8,684.3l0.6,0.8c2.1-1.6,4.3-3.2,6.3-4.9l-0.6-0.8C1401.1,681.1,1399,682.7,1396.8,684.3z"/>
		<path class="st8" d="M1355.1,707.3l0.4,0.9c2.5-1,5-2,7.4-3.1l-0.4-0.9C1360.1,705.3,1357.6,706.4,1355.1,707.3z"/>
		<path class="st8" d="M1308.8,718.5l0.1,1c2.7-0.3,5.3-0.6,8-1l-0.1-1C1314.1,717.9,1311.4,718.3,1308.8,718.5z"/>
		<path class="st8" d="M1313.5,361c-2.6-0.3-5.3-0.6-8-0.9l-0.1,1c2.6,0.2,5.3,0.5,7.9,0.9L1313.5,361z"/>
		<path class="st8" d="M1329.3,363.8c-2.6-0.6-5.2-1.1-7.9-1.6l-0.2,1c2.6,0.5,5.2,1,7.8,1.6L1329.3,363.8z"/>
		<path class="st8" d="M1292.9,719.5v1c2.7,0,5.4-0.1,8-0.3l-0.1-1C1298.2,719.3,1295.5,719.4,1292.9,719.5z"/>
		<path class="st8" d="M1324.5,716.2l0.2,1c2.6-0.5,5.3-1.1,7.8-1.7l-0.2-1C1329.8,715.1,1327.2,715.7,1324.5,716.2z"/>
		<path class="st8" d="M1340,712.4l0.3,1c2.6-0.7,5.1-1.6,7.7-2.4l-0.3-0.9C1345.2,710.9,1342.6,711.7,1340,712.4z"/>
		<path class="st8" d="M1359.8,373.5c-2.5-1-5-2-7.5-2.9l-0.3,0.9c2.5,0.9,5,1.9,7.4,2.9L1359.8,373.5z"/>
		<path class="st8" d="M1344.8,367.9c-2.5-0.8-5.1-1.6-7.7-2.3l-0.3,1c2.6,0.7,5.1,1.4,7.7,2.2L1344.8,367.9z"/>
		<path class="st8" d="M1409.2,674.2l0.7,0.7c2-1.8,4-3.6,5.9-5.5l-0.7-0.7C1413.1,670.6,1411.2,672.5,1409.2,674.2z"/>
		<path class="st8" d="M1463.3,489.2c-0.8-2.6-1.6-5.1-2.4-7.6l-0.9,0.3c0.9,2.5,1.7,5.1,2.4,7.6L1463.3,489.2z"/>
		<path class="st8" d="M1458.1,474c-1-2.5-2-4.9-3.1-7.4l-0.9,0.4c1.1,2.4,2.1,4.9,3.1,7.3L1458.1,474z"/>
		<path class="st8" d="M1455.4,609.9l0.9,0.4c1-2.5,2-5,3-7.5l-0.9-0.3C1457.4,605,1456.4,607.5,1455.4,609.9z"/>
		<path class="st8" d="M1467.1,504.8c-0.5-2.6-1.1-5.2-1.7-7.8l-1,0.2c0.6,2.6,1.2,5.2,1.7,7.8L1467.1,504.8z"/>
		<path class="st8" d="M1110.5,540c0-0.8,0-1.5,0-2.3h-1c0,0.8,0,1.6,0,2.3c0,1.9,0,3.8,0.1,5.7h1
			C1110.5,543.8,1110.5,541.9,1110.5,540z"/>
		<path class="st8" d="M1469.5,540c0,2.7-0.1,5.3-0.2,8h1c0.1-2.7,0.2-5.3,0.2-8H1469.5z"/>
		<path class="st8" d="M1467.9,563.9l1,0.1c0.4-2.6,0.6-5.3,0.9-8l-1-0.1C1468.6,558.6,1468.3,561.2,1467.9,563.9z"/>
		<path class="st8" d="M1465.1,579.6l1,0.2c0.6-2.6,1.1-5.2,1.6-7.9l-1-0.2C1466.3,574.3,1465.7,577,1465.1,579.6z"/>
		<path class="st8" d="M1434.8,432.2c-1.6-2.1-3.2-4.3-4.9-6.3l-0.8,0.6c1.7,2.1,3.3,4.2,4.9,6.3L1434.8,432.2z"/>
		<path class="st8" d="M1424.6,419.8c-1.8-2-3.6-4-5.5-5.9l-0.7,0.7c1.9,1.9,3.7,3.9,5.4,5.8L1424.6,419.8z"/>
		<path class="st8" d="M1431.1,651l0.8,0.6c1.6-2.1,3.3-4.2,4.8-6.4l-0.8-0.6C1434.3,646.8,1432.7,649,1431.1,651z"/>
		<path class="st8" d="M1420.6,663.1l0.7,0.7c1.8-1.9,3.6-3.9,5.4-6l-0.8-0.7C1424.3,659.2,1422.5,661.2,1420.6,663.1z"/>
		<path class="st8" d="M1443.8,445.4c-1.4-2.3-2.9-4.5-4.4-6.7l-0.8,0.6c1.5,2.2,2.9,4.4,4.3,6.7L1443.8,445.4z"/>
		<path class="st8" d="M1451.6,459.4c-1.2-2.4-2.4-4.8-3.7-7.1l-0.9,0.5c1.3,2.3,2.5,4.7,3.7,7L1451.6,459.4z"/>
		<path class="st8" d="M1440.4,638.1l0.8,0.5c1.4-2.2,2.9-4.5,4.2-6.8l-0.9-0.5C1443.2,633.6,1441.8,635.9,1440.4,638.1z"/>
		<path class="st8" d="M1448.5,624.3l0.9,0.5c1.3-2.4,2.5-4.8,3.6-7.2l-0.9-0.4C1451,619.6,1449.8,622,1448.5,624.3z"/>
		<path class="st8" d="M1461,594.9l1,0.3c0.8-2.5,1.6-5.1,2.3-7.7l-1-0.3C1462.5,589.8,1461.8,592.4,1461,594.9z"/>
		<path class="st8" d="M1204.8,380.8c-2.3,1.3-4.7,2.6-7,3.9l0.5,0.9c2.3-1.4,4.6-2.7,6.9-3.9L1204.8,380.8z"/>
		<path class="st8" d="M1200.7,696.9c2.3,1.3,4.7,2.6,7.1,3.8l0.5-0.9c-2.4-1.2-4.7-2.5-7-3.8L1200.7,696.9z"/>
		<path class="st8" d="M1187.1,688.3c2.2,1.5,4.4,3,6.7,4.4l0.5-0.8c-2.2-1.4-4.5-2.9-6.7-4.4L1187.1,688.3z"/>
		<path class="st8" d="M1174.3,678.6c2,1.7,4.2,3.4,6.3,5l0.6-0.8c-2.1-1.6-4.2-3.3-6.2-5L1174.3,678.6z"/>
		<path class="st8" d="M1219.3,373.9c-2.4,1-4.9,2.2-7.3,3.3l0.4,0.9c2.4-1.1,4.8-2.2,7.2-3.3L1219.3,373.9z"/>
		<path class="st8" d="M1191.1,389c-2.2,1.5-4.4,3-6.6,4.5l0.6,0.8c2.1-1.6,4.4-3.1,6.6-4.5L1191.1,389z"/>
		<path class="st8" d="M1234.3,368.3c-2.5,0.8-5.1,1.7-7.6,2.6l0.4,0.9c2.5-0.9,5-1.8,7.5-2.6L1234.3,368.3z"/>
		<path class="st8" d="M1249.7,364c-2.6,0.6-5.2,1.3-7.8,2l0.3,1c2.5-0.7,5.2-1.4,7.7-1.9L1249.7,364z"/>
		<path class="st8" d="M1245.2,714.9c2.6,0.7,5.2,1.3,7.8,1.8l0.2-1c-2.6-0.5-5.2-1.1-7.8-1.8L1245.2,714.9z"/>
		<path class="st8" d="M1162.5,667.7c1.9,1.9,3.8,3.7,5.8,5.5l0.7-0.7c-2-1.8-3.9-3.6-5.8-5.5L1162.5,667.7z"/>
		<path class="st8" d="M1215,704.2c2.4,1.1,4.9,2.2,7.4,3.2l0.4-0.9c-2.5-1-4.9-2.1-7.3-3.2L1215,704.2z"/>
		<path class="st8" d="M1229.9,710.2c2.5,0.9,5.1,1.7,7.6,2.5l0.3-1c-2.5-0.8-5.1-1.6-7.6-2.5L1229.9,710.2z"/>
		<path class="st8" d="M1151.7,655.9c1.7,2,3.5,4.1,5.3,6l0.7-0.7c-1.8-2-3.6-4-5.3-6L1151.7,655.9z"/>
		<path class="st8" d="M1276.8,720c2.6,0.2,5.3,0.3,8,0.4v-1c-2.6-0.1-5.3-0.2-8-0.4V720z"/>
		<path class="st8" d="M1121.6,475c-1,2.5-1.9,5-2.7,7.6l0.9,0.3c0.8-2.5,1.8-5,2.7-7.5L1121.6,475z"/>
		<path class="st8" d="M1120.9,600.3l-0.9,0.3c0.9,2.5,1.9,5,2.9,7.5l0.9-0.4C1122.7,605.3,1121.8,602.8,1120.9,600.3z"/>
		<path class="st8" d="M1110,553.7c0.2,2.7,0.5,5.3,0.8,8l1-0.1c-0.3-2.6-0.6-5.3-0.8-7.9H1110z"/>
		<path class="st8" d="M1126,615.5c1.1,2.4,2.3,4.8,3.5,7.2l0.9-0.5c-1.2-2.4-2.4-4.8-3.5-7.2L1126,615.5z"/>
		<path class="st8" d="M1114.4,577.3c-0.5-2.6-1-5.2-1.5-7.8l-1,0.2c0.4,2.6,0.9,5.3,1.5,7.9L1114.4,577.3z"/>
		<path class="st8" d="M1137.5,636.5l0.8-0.5c-1.4-2.2-2.8-4.5-4.1-6.8l-0.9,0.5C1134.7,632,1136.1,634.3,1137.5,636.5z"/>
		<path class="st8" d="M1155.6,421.1l-0.7-0.7c-1.8,2-3.5,4.1-5.2,6.1l0.8,0.6C1152.1,425.1,1153.8,423.1,1155.6,421.1z"/>
		<path class="st8" d="M1135.8,446.2c-1.4,2.3-2.7,4.6-4,6.9l0.9,0.5c1.3-2.3,2.6-4.6,4-6.9L1135.8,446.2z"/>
		<path class="st8" d="M1281.5,359.7c-2.7,0.1-5.4,0.3-8,0.5l0.1,1c2.6-0.2,5.3-0.4,8-0.5L1281.5,359.7z"/>
		<path class="st8" d="M1144.7,432.9c-1.6,2.1-3.1,4.3-4.6,6.6l0.8,0.6c1.5-2.2,3-4.4,4.6-6.5L1144.7,432.9z"/>
		<path class="st8" d="M1260.9,718.2c2.6,0.4,5.3,0.8,7.9,1.1l0.1-1c-2.6-0.3-5.3-0.7-7.9-1.1L1260.9,718.2z"/>
		<path class="st8" d="M457.4,490.5l-1-0.3c-0.7,2.6-1.4,5.2-2,7.8l1,0.2C456,495.6,456.7,493,457.4,490.5z"/>
		<path class="st8" d="M451.9,569.6c0.4,2.6,0.9,5.3,1.5,7.9l1-0.2c-0.5-2.6-1-5.2-1.5-7.8L451.9,569.6z"/>
		<path class="st8" d="M450,553.7c0.2,2.7,0.5,5.3,0.8,8l1-0.1c-0.3-2.6-0.6-5.3-0.8-7.9H450z"/>
		<path class="st8" d="M450.5,540c0-0.8,0-1.5,0-2.3h-1c0,0.8,0,1.6,0,2.3c0,1.9,0,3.8,0.1,5.7h1C450.5,543.8,450.5,541.9,450.5,540
			z"/>
		<path class="st8" d="M475.7,446.2c-1.4,2.3-2.7,4.6-4,6.9l0.9,0.5c1.3-2.3,2.6-4.6,4-6.9L475.7,446.2z"/>
		<path class="st8" d="M466,615.5c1.1,2.4,2.3,4.8,3.5,7.2l0.9-0.5c-1.2-2.3-2.4-4.8-3.5-7.2L466,615.5z"/>
		<path class="st8" d="M468,460.3c-1.2,2.4-2.3,4.8-3.4,7.3l0.9,0.4c1.1-2.4,2.2-4.9,3.4-7.2L468,460.3z"/>
		<path class="st8" d="M451.4,521.8l-1-0.1c-0.3,2.6-0.5,5.3-0.6,8l1,0.1C450.9,527.1,451.1,524.4,451.4,521.8z"/>
		<path class="st8" d="M459.9,600.6c0.9,2.5,1.9,5,2.9,7.5l0.9-0.4c-1-2.5-2-5-2.8-7.5L459.9,600.6z"/>
		<path class="st8" d="M455.2,585.3c0.7,2.6,1.4,5.2,2.2,7.7l1-0.3c-0.8-2.5-1.5-5.1-2.2-7.7L455.2,585.3z"/>
		<path class="st8" d="M461.5,475c-1,2.5-1.9,5-2.7,7.6l0.9,0.3c0.8-2.5,1.8-5,2.7-7.5L461.5,475z"/>
		<path class="st8" d="M473.3,629.7c1.3,2.3,2.7,4.6,4.1,6.9l0.8-0.5c-1.4-2.2-2.8-4.5-4.1-6.8L473.3,629.7z"/>
		<path class="st8" d="M809.4,520.6c-0.3-2.6-0.6-5.3-1-8l-1,0.2c0.4,2.6,0.7,5.3,1,7.9L809.4,520.6z"/>
		<path class="st8" d="M800.8,481.5l-0.9,0.3c0.9,2.5,1.7,5.1,2.4,7.6l1-0.3C802.5,486.6,801.7,484.1,800.8,481.5z"/>
		<path class="st8" d="M453.7,506l-1-0.2c-0.5,2.6-0.9,5.3-1.3,7.9l1,0.1C452.8,511.2,453.2,508.6,453.7,506z"/>
		<path class="st8" d="M806.1,505l1-0.2c-0.5-2.6-1.1-5.2-1.7-7.8l-1,0.2C805,499.7,805.5,502.4,806.1,505z"/>
		<path class="st8" d="M810.3,548c0.1-2.7,0.2-5.3,0.2-8h-1c0,2.7-0.1,5.3-0.2,8H810.3z"/>
		<path class="st8" d="M809.1,528.7c0.2,2.6,0.3,5.3,0.3,8h1c0-2.7-0.2-5.4-0.3-8H809.1z"/>
		<path class="st8" d="M804.1,587.6l-1-0.3c-0.7,2.6-1.5,5.1-2.3,7.6l1,0.3C802.7,592.7,803.4,590.1,804.1,587.6z"/>
		<path class="st8" d="M753.4,408.3c-1.9-1.8-4-3.6-6-5.4l-0.7,0.8c2,1.7,4,3.5,5.9,5.3L753.4,408.3z"/>
		<path class="st8" d="M484.7,432.9c-1.6,2.1-3.1,4.3-4.6,6.6l0.8,0.6c1.5-2.2,3-4.4,4.6-6.5L484.7,432.9z"/>
		<path class="st8" d="M808.8,555.9c-0.2,2.6-0.5,5.3-0.9,7.9l1,0.1c0.4-2.6,0.6-5.3,0.9-8H808.8z"/>
		<path class="st8" d="M789.4,624.8c1.3-2.4,2.5-4.8,3.6-7.2l-0.9-0.4c-1.1,2.4-2.4,4.8-3.6,7.1L789.4,624.8z"/>
		<path class="st8" d="M764.6,419.8c-1.8-2-3.6-4-5.5-5.9l-0.7,0.7c1.9,1.9,3.7,3.9,5.4,5.8L764.6,419.8z"/>
		<path class="st8" d="M684.7,367.9c-2.5-0.8-5.1-1.6-7.7-2.3l-0.3,1c2.6,0.7,5.1,1.4,7.7,2.2L684.7,367.9z"/>
		<path class="st8" d="M481.9,643.2c1.5,2.2,3.1,4.4,4.7,6.5l0.8-0.6c-1.6-2.1-3.2-4.3-4.7-6.4L481.9,643.2z"/>
		<path class="st8" d="M695.1,707.3l0.4,0.9c2.5-1,5-2,7.4-3.1l-0.4-0.9C700,705.3,697.6,706.4,695.1,707.3z"/>
		<path class="st8" d="M728.2,388.5c-2.2-1.5-4.5-2.9-6.8-4.2l-0.5,0.9c2.3,1.3,4.6,2.8,6.8,4.2L728.2,388.5z"/>
		<path class="st8" d="M709.7,700.9l0.4,0.9c2.4-1.2,4.8-2.4,7.1-3.7l-0.5-0.9C714.4,698.5,712,699.7,709.7,700.9z"/>
		<path class="st8" d="M699.8,373.5c-2.5-1-5-2-7.5-2.9l-0.3,0.9c2.5,0.9,5,1.9,7.4,2.9L699.8,373.5z"/>
		<path class="st8" d="M669.2,363.8c-2.6-0.6-5.2-1.1-7.9-1.6l-0.2,1c2.6,0.5,5.2,1,7.8,1.6L669.2,363.8z"/>
		<path class="st8" d="M680,712.4l0.3,1c2.6-0.7,5.1-1.6,7.7-2.4l-0.3-0.9C685.1,710.9,682.6,711.7,680,712.4z"/>
		<path class="st8" d="M648.7,718.5l0.1,1c2.7-0.3,5.3-0.6,8-1l-0.1-1C654,717.9,651.4,718.3,648.7,718.5z"/>
		<path class="st8" d="M653.4,361c-2.6-0.3-5.3-0.6-8-0.9l-0.1,1c2.6,0.2,5.3,0.5,7.9,0.9L653.4,361z"/>
		<path class="st8" d="M664.5,716.2l0.2,1c2.6-0.5,5.3-1.1,7.8-1.7l-0.2-1C669.7,715.1,667.1,715.7,664.5,716.2z"/>
		<path class="st8" d="M775.8,644.7c-0.6,0.8-1.2,1.6-1.7,2.4c-0.8-1.4-1.6-2.8-2.3-4.1l-0.9,0.5c0.8,1.5,1.7,3,2.6,4.5
			c-0.8,1.1-1.6,2.1-2.4,3.1l0.8,0.6c0.7-0.9,1.5-1.9,2.2-2.8c0.3,0.5,0.6,1,0.9,1.5l0.9-0.5c-0.4-0.6-0.7-1.2-1.1-1.8
			c0.7-0.9,1.4-1.8,2-2.7L775.8,644.7z"/>
		<path class="st8" d="M723.6,693.2l0.5,0.9c2.3-1.4,4.5-2.8,6.7-4.3l-0.6-0.8C728.1,690.4,725.8,691.8,723.6,693.2z"/>
		<path class="st8" d="M741.2,397.8c-2.1-1.6-4.3-3.3-6.4-4.8l-0.6,0.8c2.2,1.5,4.3,3.1,6.4,4.8L741.2,397.8z"/>
		<path class="st8" d="M791.5,459.4c-1.2-2.4-2.4-4.8-3.7-7.1l-0.9,0.5c1.3,2.3,2.5,4.7,3.7,7L791.5,459.4z"/>
		<path class="st8" d="M783.7,445.4c-1.4-2.3-2.9-4.5-4.4-6.7l-0.8,0.6c1.5,2.2,2.9,4.4,4.3,6.7L783.7,445.4z"/>
		<path class="st8" d="M749.2,674.2l0.7,0.7c2-1.8,4-3.6,5.9-5.5l-0.7-0.7C753.1,670.6,751.1,672.5,749.2,674.2z"/>
		<path class="st8" d="M760.6,663.1l0.7,0.7c1.8-1.9,3.6-3.9,5.4-6l-0.8-0.7C764.2,659.2,762.4,661.2,760.6,663.1z"/>
		<path class="st8" d="M780.3,638.1l0.8,0.5c1.5-2.2,2.9-4.5,4.2-6.8l-0.9-0.5C783.2,633.6,781.8,635.9,780.3,638.1z"/>
		<path class="st8" d="M805.1,579.6l1,0.2c0.6-2.6,1.1-5.2,1.6-7.9l-1-0.2C806.2,574.3,805.7,577,805.1,579.6z"/>
		<path class="st8" d="M798,474c-1-2.5-2-5-3.1-7.4L794,467c1.1,2.4,2.1,4.9,3.1,7.3L798,474z"/>
		<path class="st8" d="M736.8,684.3l0.6,0.8c2.1-1.6,4.3-3.2,6.3-4.9l-0.6-0.8C741,681.1,738.9,682.7,736.8,684.3z"/>
		<path class="st8" d="M798.3,602.5c-0.9,2.5-1.9,5-3,7.4l0.9,0.4c1-2.5,2-5,3-7.5L798.3,602.5z"/>
		<path class="st8" d="M714.3,380.4c-2.4-1.2-4.8-2.5-7.2-3.6l-0.4,0.9c2.4,1.1,4.8,2.3,7.1,3.6L714.3,380.4z"/>
		<path class="st8" d="M531,389c-2.2,1.5-4.4,3-6.6,4.5l0.6,0.8c2.1-1.5,4.4-3.1,6.6-4.5L531,389z"/>
		<path class="st8" d="M527.1,688.3c2.2,1.5,4.4,3,6.7,4.4l0.5-0.8c-2.2-1.4-4.5-2.9-6.7-4.4L527.1,688.3z"/>
		<path class="st8" d="M632.8,719.5v1c2.7,0,5.4-0.1,8-0.3l-0.1-1C638.2,719.3,635.5,719.4,632.8,719.5z"/>
		<path class="st8" d="M540.6,696.9c2.3,1.3,4.7,2.6,7.1,3.8l0.5-0.9c-2.4-1.2-4.7-2.5-7-3.8L540.6,696.9z"/>
		<path class="st8" d="M544.8,380.8c-2.3,1.3-4.7,2.6-7,3.9l0.5,0.9c2.3-1.4,4.6-2.7,6.9-3.9L544.8,380.8z"/>
		<path class="st8" d="M514.3,678.6c2,1.7,4.1,3.4,6.3,5l0.6-0.8c-2.1-1.6-4.2-3.3-6.2-5L514.3,678.6z"/>
		<path class="st8" d="M494.8,420.4c-1.8,2-3.5,4.1-5.2,6.1l0.8,0.6c1.7-2.1,3.4-4.1,5.2-6.1L494.8,420.4z"/>
		<path class="st8" d="M518.1,398.4c-2.1,1.7-4.2,3.4-6.2,5.1l0.7,0.8c2-1.7,4.1-3.4,6.1-5.1L518.1,398.4z"/>
		<path class="st8" d="M491.6,655.9c1.7,2,3.5,4.1,5.3,6l0.7-0.7c-1.8-1.9-3.6-4-5.3-6L491.6,655.9z"/>
		<path class="st8" d="M502.5,667.7c1.9,1.9,3.8,3.7,5.8,5.5l0.7-0.7c-2-1.8-3.9-3.6-5.8-5.5L502.5,667.7z"/>
		<path class="st8" d="M506.6,409.6l-0.7-0.7c-1.9,1.8-3.9,3.7-5.7,5.6l0.7,0.7C502.8,413.3,504.7,411.4,506.6,409.6z"/>
		<path class="st8" d="M559.2,373.9c-2.4,1-4.9,2.2-7.3,3.3l0.4,0.9c2.4-1.1,4.8-2.2,7.2-3.3L559.2,373.9z"/>
		<path class="st8" d="M600.9,718.2c2.6,0.4,5.3,0.8,7.9,1.1l0.1-1c-2.6-0.3-5.3-0.7-7.9-1.1L600.9,718.2z"/>
		<path class="st8" d="M621.4,359.7c-2.7,0.1-5.4,0.3-8,0.5l0.1,1c2.6-0.2,5.3-0.4,8-0.5L621.4,359.7z"/>
		<path class="st8" d="M605.5,361.2c-2.6,0.4-5.3,0.8-7.9,1.3l0.2,1c2.6-0.5,5.3-0.9,7.9-1.2L605.5,361.2z"/>
		<path class="st8" d="M616.8,720c2.6,0.2,5.3,0.3,8,0.4v-1c-2.7-0.1-5.3-0.2-8-0.4V720z"/>
		<path class="st8" d="M554.9,704.2c2.4,1.1,4.9,2.2,7.4,3.2l0.4-0.9c-2.5-1-4.9-2.1-7.3-3.2L554.9,704.2z"/>
		<path class="st8" d="M637.5,359.7c-2.5-0.1-5-0.2-7.5-0.2h-0.5v1h0.5c2.5,0,5,0.1,7.4,0.2L637.5,359.7z"/>
		<path class="st8" d="M574.2,368.3c-2.5,0.8-5.1,1.7-7.6,2.6l0.4,0.9c2.5-0.9,5-1.8,7.5-2.6L574.2,368.3z"/>
		<path class="st8" d="M569.8,710.2c2.5,0.9,5.1,1.7,7.6,2.5l0.3-1c-2.5-0.8-5.1-1.6-7.6-2.5L569.8,710.2z"/>
		<path class="st8" d="M585.2,714.9c2.6,0.7,5.2,1.3,7.8,1.8l0.2-1c-2.6-0.5-5.2-1.1-7.8-1.8L585.2,714.9z"/>
		<path class="st8" d="M589.7,364c-2.6,0.6-5.2,1.3-7.8,2l0.3,1c2.5-0.7,5.1-1.4,7.7-1.9L589.7,364z"/>
	</g>
	<g>
		<path class="st10" d="M861.9,546.2l-3,5.6v18.7h-9.6v-60.9h9.6v26.5l12.5-26.5h9.6l-13.3,27.1l13.3,33.7h-9.8L861.9,546.2z"/>
		<path class="st10" d="M886,509.6h9.6v60.9H886V509.6z"/>
		<path class="st10" d="M901.3,509.6h9.6v52.2h14.5v8.7h-24L901.3,509.6L901.3,509.6z"/>
		<path class="st10" d="M1016.7,509.6h9.6v52.2h14.5v8.7h-24v-60.9H1016.7z"/>
		<path class="st10" d="M929.5,509.6h9.6v52.2h14.5v8.7h-24L929.5,509.6L929.5,509.6z"/>
		<path class="st10" d="M964.8,509.6h32.1v8.7h-11.3v52.2H976v-52.2h-11.3L964.8,509.6L964.8,509.6z"/>
		<path class="st10" d="M1036.8,509.6h32.1v8.7h-11.3v52.2h-9.6v-52.2h-11.3v-8.7H1036.8z"/>
		<path class="st10" d="M1001.4,509.6h9.6v60.9h-9.6V509.6z"/>
		<path class="st10" d="M811.4,510.5c0,0.1,0,0.1,0,0.2c-1.5,5.9-19.8,26.1-19.8,26.1s-8.4,10-2.4,18.2c8.7,10.6,19.3-0.2,19.3-0.2
			s0.4,0.4,0.6,1.4c-0.3,2.3-0.6,4.3-1.2,6c-0.3,0.7-0.7,1.5-1.1,2.3c-0.4,0.8-0.9,1.4-1.3,2c-1.6,1.8-4,3.1-7.4,3.9h13.4
			L811.4,510.5C811.4,510.5,811.4,510.5,811.4,510.5z"/>
		<path class="st10" d="M1109.3,552.4c4.5,3.8,9.1,7.1,14.9,7.5c7.1,0,12.9-6,12.9-13.5s-5.8-13.5-12.9-13.5c-3.4,0-6.4,1.6-9.3,3.4
			c2.9-3.7,4.7-7.8,5-12.4c0-7.5-5.8-13.5-12.9-13.5v60c5.4,0,10.7,0,14.3,0C1111.7,568.2,1110.1,562.5,1109.3,552.4z"/>
	</g>
</g>
<g id="POT_V2">
	<path class="st11" d="M1114.6,426H805.4c-5.7,0-10.4-4.7-10.4-10.4v-54.3c0-5.7,4.7-10.4,10.4-10.4h309.3c5.7,0,10.4,4.7,10.4,10.4
		v54.3C1125,421.4,1120.3,426,1114.6,426z"/>
</g>
</svg>
