<?xml version="1.0" encoding="utf-8"?>
<!-- Generator: Adobe Illustrator 24.1.2, SVG Export Plug-In . SVG Version: 6.00 Build 0)  -->
<svg version="1.1" id="Calque_1" xmlns="http://www.w3.org/2000/svg" xmlns:xlink="http://www.w3.org/1999/xlink" x="0px" y="0px"
	 viewBox="0 0 1920 1080" style="enable-background:new 0 0 1920 1080;" xml:space="preserve">
<style type="text/css">
	.st0{fill:#432918;}
	.st1{opacity:0.5;}
	.st2{fill:#2D1807;}
	.st3{fill:#936037;}
	.st4{fill:#B17F4A;}
	.st5{fill:url(#SVGID_1_);}
	.st6{fill:#008D36;}
	.st7{fill:#3AAA35;}
	.st8{fill:#006633;stroke:#008D36;stroke-miterlimit:10;}
</style>
<g id="TABLE_V2">
	<path class="st0" d="M625,185h670c196.1,0,355,158.9,355,355l0,0c0,196.1-158.9,355-355,355H625c-196.1,0-355-158.9-355-355l0,0
		C270,343.9,428.9,185,625,185z"/>
	<path class="st0" d="M625,185h670c196.1,0,355,158.9,355,355l0,0c0,196.1-158.9,355-355,355H625c-196.1,0-355-158.9-355-355l0,0
		C270,343.9,428.9,185,625,185z"/>
	<g>
		<g class="st1">
			<path class="st2" d="M625,185h670c196.1,0,355,158.9,355,355l0,0c0,196.1-158.9,355-355,355H625c-196.1,0-355-158.9-355-355l0,0
				C270,343.9,428.9,185,625,185z"/>
		</g>
	</g>
	<path class="st3" d="M625,205h670c185,0,335,150,335,335l0,0c0,185-150,335-335,335H625c-185,0-335-150-335-335l0,0
		C290,355,440,205,625,205z"/>
	<path class="st4" d="M620,215h680c176.7,0,320,143.3,320,320v10c0,176.7-143.3,320-320,320H620c-176.7,0-320-143.3-320-320v-10
		C300,358.3,443.3,215,620,215z"/>
	<path class="st4" d="M625,215h670c179.5,0,325,145.5,325,325l0,0c0,179.5-145.5,325-325,325H625c-179.5,0-325-145.5-325-325l0,0
		C300,360.5,445.5,215,625,215z"/>

		<radialGradient id="SVGID_1_" cx="970.5839" cy="-680.5231" r="630.8271" gradientTransform="matrix(0.9998 -2.188468e-02 1.450954e-02 0.6628 -0.5158 1012.2916)" gradientUnits="userSpaceOnUse">
		<stop  offset="0" style="stop-color:#008D36"/>
		<stop  offset="0.847" style="stop-color:#006633"/>
	</radialGradient>
	<path class="st5" d="M625,220h670c176.7,0,320,143.3,320,320l0,0c0,176.7-143.3,320-320,320H625c-176.7,0-320-143.3-320-320l0,0
		C305,363.3,448.3,220,625,220z"/>
	<path class="st6" d="M1491.2,343.8c-51.9-52.2-122.6-81.5-196.2-81.3H625c-153.3,0-277.5,124.2-277.5,277.5S471.7,817.5,625,817.5
		h491.8v-5H625c-150.5,0-272.5-122-272.5-272.5s122-272.5,272.5-272.5h670c150.5,0,272.5,122,272.5,272.5s-122,272.5-272.5,272.5
		h-6.7v5h6.7c153.3,0,277.5-124.2,277.5-277.5C1572.5,466.4,1543.3,395.8,1491.2,343.8z"/>
	<path class="st6" d="M1129.6,806.6h2.5l1.2,12.9l0,0l1.2-12.9h2.9l1.2,12.9l0,0l1.2-12.9h2.3l-1.7,16.8h-3.3l-1.2-11.3l0,0
		l-1.2,11.3h-3.5L1129.6,806.6z"/>
	<path class="st6" d="M1144.5,806.6h2.5l1.2,12.9l0,0l1.2-12.9h2.9l1.2,12.9l0,0l1.2-12.9h2.3l-1.7,16.8h-3.3l-1.2-11.3l0,0
		l-1.2,11.3h-3.5L1144.5,806.6z"/>
	<path class="st6" d="M1159.5,806.6h2.5l1.2,12.9l0,0l1.2-12.9h2.9l1.2,12.9l0,0l1.2-12.9h2.3l-1.7,16.8h-3.3l-1.2-11.3l0,0
		l-1.2,11.3h-3.5L1159.5,806.6z"/>
	<path class="st6" d="M1174.3,820.9h2.5v2.5h-2.5V820.9z"/>
	<path class="st6" d="M1180.2,806.6h2.6v7.1l3.4-7.1h2.6l-3.1,6.2l3.2,10.6h-2.8l-2.2-7.5l-1.1,2.1v5.3h-2.6V806.6z"/>
	<path class="st6" d="M1191.6,806.6h2.6v16.8h-2.6V806.6z"/>
	<path class="st6" d="M1197.6,806.6h2.6V821h4.3v2.4h-7L1197.6,806.6L1197.6,806.6z"/>
	<path class="st6" d="M1207.3,806.6h2.6V821h4.3v2.4h-7L1207.3,806.6L1207.3,806.6z"/>
	<path class="st6" d="M1214.8,813.8h5.3v2.4h-5.3V813.8z"/>
	<path class="st6" d="M1223.4,809h-2.8v-2.4h8.1v2.4h-2.8v14.4h-2.6L1223.4,809z"/>
	<path class="st6" d="M1231.6,806.6h2.6v16.8h-2.6V806.6z"/>
	<path class="st6" d="M1237.6,806.6h2.6V821h4.3v2.4h-7L1237.6,806.6L1237.6,806.6z"/>
	<path class="st6" d="M1247.5,809h-2.8v-2.4h8.1v2.4h-2.8v14.4h-2.6L1247.5,809z"/>
	<path class="st6" d="M1253.8,820.9h2.5v2.5h-2.5V820.9z"/>
	<path class="st6" d="M1259.8,806.6h7v2.4h-4.3v4.7h3.4v2.4h-3.4v7.3h-2.6L1259.8,806.6z"/>
	<path class="st6" d="M1269.4,806.6h3.9c2.7,0,3.9,1.3,3.9,3.9v1c0,1.7-0.6,2.8-1.7,3.3l0,0c1.3,0.4,1.8,1.7,1.8,3.5v2.9
		c0,0.7,0,1.4,0.3,2h-2.7c-0.2-0.7-0.3-1.4-0.2-2.1V818c0-1.6-0.5-2.1-1.7-2.1h-0.9v7.2h-2.6v-16.5H1269.4z M1273,813.8
		c1,0,1.6-0.4,1.6-1.8v-1.3c0-1.2-0.4-1.7-1.3-1.7h-1.2v4.8H1273z"/>
</g>
<g id="LOGO_V2">
	<path class="st7" d="M861.9,546.2l-3,5.6v18.7h-9.6v-60.9h9.6v26.5l12.5-26.5h9.6l-13.3,27.1l13.3,33.7h-9.8L861.9,546.2z"/>
	<path class="st7" d="M886,509.6h9.6v60.9H886V509.6z"/>
	<path class="st7" d="M901.3,509.6h9.6v52.2h14.5v8.7h-24L901.3,509.6L901.3,509.6z"/>
	<path class="st7" d="M1016.7,509.6h9.6v52.2h14.5v8.7h-24L1016.7,509.6z"/>
	<path class="st7" d="M929.5,509.6h9.6v52.2h14.5v8.7h-24L929.5,509.6L929.5,509.6z"/>
	<path class="st7" d="M964.8,509.6h32.1v8.7h-11.3v52.2H976v-52.2h-11.3L964.8,509.6L964.8,509.6z"/>
	<path class="st7" d="M1036.8,509.6h32.1v8.7h-11.3v52.2h-9.6v-52.2h-11.3v-8.7H1036.8z"/>
	<path class="st7" d="M1001.4,509.6h9.6v60.9h-9.6V509.6z"/>
	<path class="st7" d="M811.4,510.5c0,0.1,0,0.1,0,0.2c-1.5,5.9-19.8,26.1-19.8,26.1s-8.4,10-2.4,18.2c8.7,10.6,19.3-0.2,19.3-0.2
		c0.3,0.4,0.5,0.9,0.6,1.4c-0.2,2-0.6,4-1.2,6c-0.3,0.7-0.7,1.5-1.1,2.3c-0.4,0.7-0.8,1.4-1.3,2c-1.6,1.8-4,3.1-7.4,3.9h13.4
		L811.4,510.5L811.4,510.5z"/>
	<path class="st7" d="M1109.3,552.4c4.5,3.8,9.1,7.1,14.9,7.5c7.1,0,12.9-6,12.9-13.5s-5.8-13.5-12.9-13.5c-3.4,0-6.4,1.6-9.3,3.4
		c2.9-3.5,4.6-7.9,5-12.4c0-7.5-5.8-13.5-12.9-13.5v60h14.3C1111.7,568.2,1110.1,562.5,1109.3,552.4z"/>
</g>
<g id="POT_V2">
	<path class="st8" d="M805.4,351h309.3c5.7,0,10.4,4.6,10.4,10.4v54.3c0,5.7-4.6,10.4-10.4,10.4H805.4c-5.7,0-10.4-4.6-10.4-10.4
		v-54.3C795,355.6,799.6,351,805.4,351z"/>
</g>
</svg>
