<?xml version="1.0" encoding="utf-8"?>
<!-- Generator: Adobe Illustrator 24.1.2, SVG Export Plug-In . SVG Version: 6.00 Build 0)  -->
<svg version="1.2" baseProfile="tiny" id="Calque_1"
	 xmlns="http://www.w3.org/2000/svg" xmlns:xlink="http://www.w3.org/1999/xlink" x="0px" y="0px" viewBox="0 0 1020 1420"
	 overflow="visible" xml:space="preserve">
<g id="dos">
	<g>
		<image width="960" height="1360" xlink:href="ACF1CD5C.png"  transform="matrix(1 0 0 1 30 30)">
		</image>
	</g>
	<path fill="#FFFFFF" d="M880,0H140C63,0,0,63,0,140v1140c0,77,63,140,140,140h740c77,0,140-63,140-140V140C1020,63,957,0,880,0z
		 M970,1281.8c0,48.7-39.5,88.2-88.2,88.2l0,0H138.2c-48.7,0-88.2-39.5-88.2-88.2l0,0V138.2C50,89.5,89.5,50,138.2,50l0,0h743.6
		c48.7,0,88.2,39.5,88.2,88.2l0,0V1281.8z"/>
	<g>
		<image width="961" height="1360" xlink:href="ACF1CD5D.png"  transform="matrix(1 0 0 1 1078 30)">
		</image>
	</g>
	<polygon fill="#98161B" points="183.6,627.5 100.8,710 183.6,793.5 836.4,793.5 919.2,710 836.4,627.5 	"/>
	<path fill="#FFFFFF" d="M331.4,721l-5.3,9.9v33.4H309V655.7h17.1V703l22.3-47.3h17.1l-23.7,48.4l23.7,60.2H348L331.4,721z"/>
	<path fill="#FFFFFF" d="M374.4,655.7h17.1v108.6h-17.1V655.7z"/>
	<path fill="#FFFFFF" d="M401.7,655.7h17.1v93.1h25.8v15.5h-42.9V655.7z"/>
	<path fill="#FFFFFF" d="M607.6,655.7h17.1v93.1h25.8v15.5h-42.9L607.6,655.7z"/>
	<path fill="#FFFFFF" d="M452,655.7h17.1v93.1h25.8v15.5H452V655.7z"/>
	<path fill="#FFFFFF" d="M515,655.7h57.3v15.5h-20.1v93.1h-17.1v-93.1H515V655.7z"/>
	<path fill="#FFFFFF" d="M643.5,655.7h57.3v15.5h-20.1v93.1h-17.1v-93.1h-20.1L643.5,655.7L643.5,655.7z"/>
	<path fill="#FFFFFF" d="M580.3,655.7h17.1v108.6h-17.1V655.7z"/>
	<path fill="#FFFFFF" d="M241.2,657.3c0,0.1,0,0.2-0.1,0.3c-2.6,10.6-35.4,46.5-35.4,46.5s-15,17.8-4.3,32.6
		c15.5,18.9,34.4-0.4,34.4-0.4c0.6,0.7,0.9,1.6,1,2.6c-0.3,3.6-1,7.2-2.1,10.7c-0.6,1.3-1.2,2.6-2,4.1c-0.7,1.3-1.5,2.5-2.3,3.7
		c-2.9,3.2-7.1,5.5-13.2,6.9h23.9L241.2,657.3L241.2,657.3z"/>
	<path fill="#FFFFFF" d="M772.8,732.2c8,6.8,16.3,12.6,26.5,13.4c12.7,0,22.9-10.8,22.9-24.1s-10.3-24.1-22.9-24.1
		c-6.1,0-11.5,2.8-16.6,6.1c5.1-6.7,8.4-13.8,8.9-22.2c0-13.3-10.3-24.1-22.9-24.1v107.1h25.5C777.2,760.4,774.3,750.2,772.8,732.2z
		"/>
</g>
</svg>
