<?xml version="1.0" encoding="utf-8"?>
<!-- Generator: Adobe Illustrator 24.1.2, SVG Export Plug-In . SVG Version: 6.00 Build 0)  -->
<svg version="1.1" id="Calque_1" xmlns="http://www.w3.org/2000/svg" xmlns:xlink="http://www.w3.org/1999/xlink" x="0px" y="0px"
	 viewBox="0 0 1020 1420" style="enable-background:new 0 0 1020 1420;" xml:space="preserve">
<style type="text/css">
	.st0{fill:url(#SVGID_1_);}
	.st1{fill:#FFFFFF;}
	.st2{opacity:0.1;}
	.st3{clip-path:url(#SVGID_3_);}
	.st4{fill:#090A0D;}
</style>
<g id="cartes">
	<g id="carreau">

			<linearGradient id="SVGID_1_" gradientUnits="userSpaceOnUse" x1="510" y1="1420" x2="510" y2="0" gradientTransform="matrix(1 0 0 -1 0 1420)">
			<stop  offset="0" style="stop-color:#005484"/>
			<stop  offset="1" style="stop-color:#000013"/>
		</linearGradient>
		<path class="st0" d="M140,0h740c77.3,0,140,62.7,140,140v1140c0,77.3-62.7,140-140,140H140c-77.3,0-140-62.7-140-140V140
			C0,62.7,62.7,0,140,0z"/>
	</g>
</g>
<g id="index2">
	<path id="path6403-1" class="st1" d="M190,467c22,36.3,45.1,71.5,74,101.6c-28.9,30.1-52,65.4-74,101.6
		c-22-36.3-45.1-71.5-74-101.6C144.9,538.6,168,503.3,190,467z"/>
	<path class="st1" d="M41.4,387.2v-14.6c34.8,0,43.8-19.3,53.2-45.5l86.7-237h15.5l94,241.8c12.9,33.1,22.8,40.8,47.7,40.8v14.6
		H219.2v-14.6c32.2,0,33.9-3.4,33.9-15.9c0-9-12.5-43.4-24-68.3H127.7c-7.3,24-19.8,49.8-19.8,61.8c0,16.3,8.6,22.3,45.5,22.3v14.6
		L41.4,387.2z M222.2,270.4l-45.5-112.9l-42.9,112.9H222.2z"/>
</g>
<g id="fili">
	<g class="st2">
		<g>
			<defs>
				<path id="SVGID_2_" d="M140,0h740c77.3,0,140,62.7,140,140v1140c0,77.3-62.7,140-140,140H140c-77.3,0-140-62.7-140-140V140
					C0,62.7,62.7,0,140,0z"/>
			</defs>
			<clipPath id="SVGID_3_">
				<use xlink:href="#SVGID_2_"  style="overflow:visible;"/>
			</clipPath>
			<g class="st3">
				<path id="path6403-1-3" class="st1" d="M788.7,219.7c140.5,232,288.3,457.5,473,650.2C1077,1062.5,929.2,1288,788.7,1520
					c-140.5-232-288.3-457.5-473-650.2C500.4,677.2,648.2,451.7,788.7,219.7z"/>
			</g>
		</g>
	</g>
</g>
<g id="FAT_2">
	<path class="st4" d="M354.1,1210v-33.8c53.7-11.8,70.8-37.2,95.9-107.3l158.9-450.2h37.9l183.2,500.9c15,40.5,30.8,53.2,68,56.6
		v33.8H639.6v-33.8h28.6c37.2,0,42.9-10.1,42.9-27.9c0-11-3.6-22-7.9-33.8l-35.1-97.1H510.8l-22.9,66.7c-5.7,17.2-8.6,35.1-8.6,53.2
		c0,23.7,12.9,38.9,40.8,38.9h35.1v33.8L354.1,1210z M587.4,795.3l-60.8,178.2h125.9L587.4,795.3z"/>
	<path class="st1" d="M354.1,1190v-33.8c53.7-11.8,70.8-37.2,95.9-107.3l158.9-450.2h37.9l183.2,500.9c15,40.5,30.8,53.2,68,56.6
		v33.8H639.6v-33.8h28.6c37.2,0,42.9-10.1,42.9-27.9c0-11-3.6-22-7.9-33.8l-35.1-97.1H510.8l-22.9,66.7c-5.7,17.2-8.6,35.1-8.6,53.2
		c0,23.7,12.9,38.9,40.8,38.9h35.1v33.8H354.1z M587.4,775.3l-60.8,178.2h125.9L587.4,775.3z"/>
</g>
</svg>
