<?xml version="1.0" encoding="utf-8"?>
<!-- Generator: Adobe Illustrator 24.1.2, SVG Export Plug-In . SVG Version: 6.00 Build 0)  -->
<svg version="1.1" id="Calque_1" xmlns="http://www.w3.org/2000/svg" xmlns:xlink="http://www.w3.org/1999/xlink" x="0px" y="0px"
	 viewBox="0 0 1020 1420" style="enable-background:new 0 0 1020 1420;" xml:space="preserve">
<style type="text/css">
	.st0{fill:url(#SVGID_1_);}
	.st1{fill:#FFFFFF;}
	.st2{opacity:0.1;}
	.st3{clip-path:url(#SVGID_3_);}
	.st4{fill:#090A0D;}
</style>
<g id="cartes">
	<g id="carreau">

			<linearGradient id="SVGID_1_" gradientUnits="userSpaceOnUse" x1="510" y1="1420" x2="510" y2="0" gradientTransform="matrix(1 0 0 -1 0 1420)">
			<stop  offset="0" style="stop-color:#005484"/>
			<stop  offset="1" style="stop-color:#000013"/>
		</linearGradient>
		<path class="st0" d="M140,0h740c77.3,0,140,62.7,140,140v1140c0,77.3-62.7,140-140,140H140c-77.3,0-140-62.7-140-140V140
			C0,62.7,62.7,0,140,0z"/>
	</g>
</g>
<g id="index2">
	<path id="path6403-1" class="st1" d="M190,467c22,36.3,45.1,71.5,74,101.6c-28.9,30.1-52,65.4-74,101.6
		c-22-36.3-45.1-71.5-74-101.6C144.9,538.6,168,503.3,190,467z"/>
	<path class="st1" d="M287.9,90v14.6c-34.8,0-42.1,7.7-42.1,28.3v186.8c0,45.1-29.2,70.9-88,70.9c-42.5,0-65.7-27.5-65.7-58
		c0-17.6,10.7-35.6,28.8-35.6c19.3,0,29.2,6.9,29.2,25.3c0,15-11.2,25.3-23.2,25.3c-6.9,0-12.9-0.9-16.7-2.6
		c1.7,18.5,27.1,30.9,43.4,30.9c32.2,0,48.5-17.6,48.5-49.4V132.9c0-20.6-7.3-28.3-42.1-28.3V90L287.9,90z"/>
</g>
<g id="fili">
	<g class="st2">
		<g>
			<defs>
				<path id="SVGID_2_" d="M140,0h740c77.3,0,140,62.7,140,140v1140c0,77.3-62.7,140-140,140H140c-77.3,0-140-62.7-140-140V140
					C0,62.7,62.7,0,140,0z"/>
			</defs>
			<clipPath id="SVGID_3_">
				<use xlink:href="#SVGID_2_"  style="overflow:visible;"/>
			</clipPath>
			<g class="st3">
				<path id="path6403-1-3" class="st1" d="M788.7,219.7c140.5,232,288.3,457.5,473,650.2C1077,1062.5,929.2,1288,788.7,1520
					c-140.5-232-288.3-457.5-473-650.2C500.4,677.2,648.2,451.7,788.7,219.7z"/>
			</g>
		</g>
	</g>
</g>
<g id="FAT_2">
	<path class="st4" d="M756.2,1017.4c0,132.6-48.7,192.6-180.3,192.6c-88.7,0-147.4-59.1-147.4-132.6c0-51.5,23.6-92.1,69.4-92.1
		c32.2,0,65.1,22.8,65.1,71.8c0,36.3-20,66.7-53.7,66.7c-12.2,0-22.2-1.7-33.6-10.1c9.3,39.7,52.2,57.4,78.7,57.4
		c49.4,0,81.6-30.4,81.6-86.2V708.3c0-42.2-17.2-55.7-74.4-55.7v-33.8h261.9v33.8c-50.1,0-67.3,13.5-67.3,55.7L756.2,1017.4z"/>
	<path class="st1" d="M756.2,997.4c0,132.6-48.7,192.6-180.3,192.6c-88.7,0-147.4-59.1-147.4-132.6c0-51.5,23.6-92.1,69.4-92.1
		c32.2,0,65.1,22.8,65.1,71.8c0,36.3-20,66.7-53.7,66.7c-12.2,0-22.2-1.7-33.6-10.1c9.3,39.7,52.2,57.4,78.7,57.4
		c49.4,0,81.6-30.4,81.6-86.2V688.3c0-42.2-17.2-55.7-74.4-55.7v-33.8h261.9v33.8c-50.1,0-67.3,13.5-67.3,55.7L756.2,997.4z"/>
</g>
</svg>
