<?xml version="1.0" encoding="utf-8"?>
<!-- Generator: Adobe Illustrator 24.1.2, SVG Export Plug-In . SVG Version: 6.00 Build 0)  -->
<svg version="1.1" id="Calque_1" xmlns="http://www.w3.org/2000/svg" xmlns:xlink="http://www.w3.org/1999/xlink" x="0px" y="0px"
	 viewBox="0 0 1020 1420" style="enable-background:new 0 0 1020 1420;" xml:space="preserve">
<style type="text/css">
	.st0{fill:url(#SVGID_1_);}
	.st1{fill:#FFFFFF;}
	.st2{opacity:0.1;}
	.st3{clip-path:url(#SVGID_3_);}
	.st4{fill:#090A0D;}
</style>
<g id="cartes">
	<g id="carreau">

			<linearGradient id="SVGID_1_" gradientUnits="userSpaceOnUse" x1="510" y1="1420" x2="510" y2="0" gradientTransform="matrix(1 0 0 -1 0 1420)">
			<stop  offset="0" style="stop-color:#005484"/>
			<stop  offset="1" style="stop-color:#000013"/>
		</linearGradient>
		<path class="st0" d="M140,0h740c77.3,0,140,62.7,140,140v1140c0,77.3-62.7,140-140,140H140c-77.3,0-140-62.7-140-140V140
			C0,62.7,62.7,0,140,0z"/>
	</g>
</g>
<g id="index2">
	<path id="path6403-1" class="st1" d="M190,467c22,36.3,45.1,71.5,74,101.6c-28.9,30.1-52,65.4-74,101.6
		c-22-36.3-45.1-71.5-74-101.6C144.9,538.6,168,503.3,190,467z"/>
	<path class="st1" d="M311.7,379.4c0,42.1-18,72.1-56.7,72.1c-25.2,0-45.1-19.3-45.1-49c0-3,0.3-6,0.8-9c-4.5,0.4-7.9,1.3-10.9,1.7
		c-3,0-5.6,0.4-9.8,0.4c-72.1,0-122.5-73.4-122.5-152.9S117.9,90,190,90s122.5,73.4,122.5,152.9c0,57.5-26.3,111.7-68,136.6
		c2.6,18,7.5,42.1,27.4,42.1c19.2,0,27-23.6,29.3-42.1L311.7,379.4z M111.1,242.9c0,73.4,15,118.1,47.7,134l0.8-0.9
		c-5.6-5.6-13.5-16.3-13.5-35.2c0-26.6,19.9-41.2,41.3-41.2c31.2,0,44,23.6,52.6,62.3c19.2-19.8,28.9-60.1,28.9-119
		c0-93.2-24.8-138.3-78.9-138.3S111.1,149.7,111.1,242.9L111.1,242.9z M160.3,345.5c0,21,16.2,35.6,33.8,35.6
		c6.1,0,12.1-1.3,17.7-3.9c3-9.6,4.5-19.6,4.5-29.6c0-18.9-12-33.5-30.1-33.5C169.3,314.2,160.3,328.3,160.3,345.5z"/>
</g>
<g id="fili">
	<g class="st2">
		<g>
			<defs>
				<path id="SVGID_2_" d="M140,0h740c77.3,0,140,62.7,140,140v1140c0,77.3-62.7,140-140,140H140c-77.3,0-140-62.7-140-140V140
					C0,62.7,62.7,0,140,0z"/>
			</defs>
			<clipPath id="SVGID_3_">
				<use xlink:href="#SVGID_2_"  style="overflow:visible;"/>
			</clipPath>
			<g class="st3">
				<path id="path6403-1-3" class="st1" d="M788.7,219.7c140.5,232,288.3,457.5,473,650.2C1077,1062.5,929.2,1288,788.7,1520
					c-140.5-232-288.3-457.5-473-650.2C500.4,677.2,648.2,451.7,788.7,219.7z"/>
			</g>
		</g>
	</g>
</g>
<g id="FAT_2">
	<path class="st4" d="M877.2,1158.8c0,96.3-44.4,167.2-121.6,167.2c-68,0-104.5-40.5-107.3-121.6c-7.9,1.7-15,1.7-22.2,1.7
		c-135.2,0-251.2-138.5-251.2-300.7S490.8,604.7,626,604.7s251.2,138.5,251.2,300.7c0,114.9-58,217.9-140.2,267.7
		c15.7,37.2,30.1,56.6,57.2,56.6c35.8,0,48.7-30.4,50.1-70.9H877.2z M509.4,905.4c0,96.3,11.4,170.6,37.9,214.5h1.4v-8.4
		c0-58.3,25-99.7,76.6-99.7c45.1,0,74.4,29.6,94.5,74.3c15.7-44.8,22.9-105.6,22.9-180.8c0-162.2-32.9-261.8-116.6-261.8
		S509.4,743.2,509.4,905.4z M584.5,1108.1c0,32.1,17.9,59.1,46.5,59.1c6.9,0,13.7-1.4,20-4.2c1.4-8.4,5.7-43.9,5.7-54.9
		c0-38.9-15.7-54.1-35.8-54.1C598.8,1054,584.5,1076.8,584.5,1108.1z"/>
	<path class="st1" d="M877.2,1138.8c0,96.3-44.4,167.2-121.6,167.2c-68,0-104.5-40.5-107.3-121.6c-7.9,1.7-15,1.7-22.2,1.7
		c-135.2,0-251.2-138.5-251.2-300.7S490.8,584.7,626,584.7s251.2,138.5,251.2,300.7c0,114.9-58,217.9-140.2,267.7
		c15.7,37.2,30.1,56.6,57.2,56.6c35.8,0,48.7-30.4,50.1-70.9H877.2z M509.4,885.4c0,96.3,11.4,170.6,37.9,214.5h1.4v-8.4
		c0-58.3,25-99.7,76.6-99.7c45.1,0,74.4,29.6,94.5,74.3c15.7-44.8,22.9-105.6,22.9-180.8c0-162.2-32.9-261.8-116.6-261.8
		S509.4,723.2,509.4,885.4z M584.5,1088.1c0,32.1,17.9,59.1,46.5,59.1c6.9,0,13.7-1.4,20-4.2c1.4-8.4,5.7-43.9,5.7-54.9
		c0-38.9-15.7-54.1-35.8-54.1C598.8,1034,584.5,1056.8,584.5,1088.1z"/>
</g>
</svg>
