<?xml version="1.0" encoding="utf-8"?>
<!-- Generator: Adobe Illustrator 24.1.2, SVG Export Plug-In . SVG Version: 6.00 Build 0)  -->
<svg version="1.1" id="Calque_1" xmlns="http://www.w3.org/2000/svg" xmlns:xlink="http://www.w3.org/1999/xlink" x="0px" y="0px"
	 viewBox="0 0 1020 1420" style="enable-background:new 0 0 1020 1420;" xml:space="preserve">
<style type="text/css">
	.st0{fill:url(#SVGID_1_);}
	.st1{fill:#FFFFFF;}
	.st2{opacity:0.1;}
	.st3{clip-path:url(#SVGID_3_);}
	.st4{fill:#090A0D;}
</style>
<g id="cartes">
	<g id="carreau">

			<linearGradient id="SVGID_1_" gradientUnits="userSpaceOnUse" x1="510" y1="1420" x2="510" y2="0" gradientTransform="matrix(1 0 0 -1 0 1420)">
			<stop  offset="0" style="stop-color:#005484"/>
			<stop  offset="1" style="stop-color:#000013"/>
		</linearGradient>
		<path class="st0" d="M140,0h740c77.3,0,140,62.7,140,140v1140c0,77.3-62.7,140-140,140H140c-77.3,0-140-62.7-140-140V140
			C0,62.7,62.7,0,140,0z"/>
	</g>
</g>
<g id="index2">
	<path id="path6403-1" class="st1" d="M190,467c22,36.3,45.1,71.5,74,101.6c-28.9,30.1-52,65.4-74,101.6
		c-22-36.3-45.1-71.5-74-101.6C144.9,538.6,168,503.3,190,467z"/>
	<path class="st1" d="M97.7,185.3l4.3-95.3h180.4v18.9c-52.4,76.9-85.9,140-85.9,217.3c0,12,0.9,24.9,0.9,36.5
		c0,18.5-8.6,27.9-20.6,27.9c-17.2,0-24-11.2-24-35.2c0-77.7,62.7-168.3,103.9-230.2h-75.2c-43.8,0-64.8,12.9-69.6,60.1L97.7,185.3z
		"/>
</g>
<g id="fili">
	<g class="st2">
		<g>
			<defs>
				<path id="SVGID_2_" d="M140,0h740c77.3,0,140,62.7,140,140v1140c0,77.3-62.7,140-140,140H140c-77.3,0-140-62.7-140-140V140
					C0,62.7,62.7,0,140,0z"/>
			</defs>
			<clipPath id="SVGID_3_">
				<use xlink:href="#SVGID_2_"  style="overflow:visible;"/>
			</clipPath>
			<g class="st3">
				<path id="path6403-1-3" class="st1" d="M788.7,219.7c140.5,232,288.3,457.5,473,650.2C1077,1062.5,929.2,1288,788.7,1520
					c-140.5-232-288.3-457.5-473-650.2C500.4,677.2,648.2,451.7,788.7,219.7z"/>
			</g>
		</g>
	</g>
</g>
<g id="FAT_2">
	<path class="st4" d="M795.6,623.8v60.8c-68.7,123.3-128.8,211.2-128.8,430.8c0,62.5-14.3,94.6-57.2,94.6
		c-47.2,0-57.2-43.1-57.2-93.8c0-109,92.3-256.8,178.9-380.9H604.5c-72.3,0-113.8,32.9-120.9,114.9h-27.2l8.6-231.4L795.6,623.8z"/>
	<path class="st1" d="M795.6,603.8v60.8c-68.7,123.3-128.8,211.2-128.8,430.8c0,62.5-14.3,94.6-57.2,94.6
		c-47.2,0-57.2-43.1-57.2-93.8c0-109,92.3-256.8,178.9-380.9H604.5c-72.3,0-113.8,32.9-120.9,114.9h-27.2l8.6-231.4L795.6,603.8z"/>
</g>
</svg>
