<?xml version="1.0" encoding="utf-8"?>
<!-- Generator: Adobe Illustrator 24.1.2, SVG Export Plug-In . SVG Version: 6.00 Build 0)  -->
<svg version="1.1" id="Calque_1" xmlns="http://www.w3.org/2000/svg" xmlns:xlink="http://www.w3.org/1999/xlink" x="0px" y="0px"
	 viewBox="0 0 1020 1420" style="enable-background:new 0 0 1020 1420;" xml:space="preserve">
<style type="text/css">
	.st0{fill:url(#SVGID_1_);}
	.st1{fill:#FFFFFF;}
	.st2{opacity:0.1;}
	.st3{clip-path:url(#SVGID_3_);}
	.st4{fill:#090A0D;}
</style>
<g id="cartes">
	<g id="coeur">

			<linearGradient id="SVGID_1_" gradientUnits="userSpaceOnUse" x1="510" y1="1420" x2="510" y2="0" gradientTransform="matrix(1 0 0 -1 0 1420)">
			<stop  offset="0" style="stop-color:#98161B"/>
			<stop  offset="1" style="stop-color:#1D0000"/>
		</linearGradient>
		<path class="st0" d="M140,0h740c77.3,0,140,62.7,140,140v1140c0,77.3-62.7,140-140,140H140c-77.3,0-140-62.7-140-140V140
			C0,62.7,62.7,0,140,0z"/>
	</g>
</g>
<g id="index2">
	<path id="path9700-3-2" class="st1" d="M190,670.3c0,0,22.6-32.4,53.1-70.5c20.4-25.5,36.7-53.1,38.2-76.9
		c1.7-27.2-14.7-54.4-44.5-55.8c-29.8-1.3-41.9,21-46.8,39.3c-4.9-18.4-17-40.6-46.8-39.3c-29.8,1.3-46.3,28.6-44.5,55.8
		c1.5,23.8,17.8,51.4,38.2,76.9C167.4,637.9,190,670.3,190,670.3z"/>
	<path class="st1" d="M98.5,390.6c0-94,141.7-134,141.7-220.7c0-39.5-21.5-65.3-60.6-65.3c-33.5,0-58,21-61.4,54.5
		c4.3-2.1,8.6-4.7,15.5-4.7c11.6,0,22.3,6.9,22.3,24.9c0,12.5-9,24.9-25.3,24.9c-17.6,0-27.1-12.9-27.1-37.4
		c0-47.7,40.8-76.9,85.9-76.9c46.8,0,91,26.6,91,77.3c0,90.6-127.5,111.2-158,188.1h90.2c37.8,0,52.4-13.7,57.5-55h11.2l-3.4,90.2
		L98.5,390.6z"/>
</g>
<g id="fili">
	<g class="st2">
		<g>
			<defs>
				<path id="SVGID_2_" d="M140,0h740c77.3,0,140,62.7,140,140v1140c0,77.3-62.7,140-140,140H140c-77.3,0-140-62.7-140-140V140
					C0,62.7,62.7,0,140,0z"/>
			</defs>
			<clipPath id="SVGID_3_">
				<use xlink:href="#SVGID_2_"  style="overflow:visible;"/>
			</clipPath>
			<g class="st3">
				<path id="path9700-3-2-2" class="st1" d="M890,1520c0,0,133.5-191.4,313.5-416.4C1324,953,1420.3,790,1429.3,649.5
					c10.3-160.4-86.9-321.4-262.9-329.2C990.5,312.5,919.1,444,890,552.5C861,444,789.6,312.5,613.7,320.3
					c-176,7.8-273.2,168.8-262.9,329.2C359.7,790,456,953,576.5,1103.6C756.5,1328.6,890,1520,890,1520z"/>
			</g>
		</g>
	</g>
</g>
<g id="FAT_2">
	<path class="st4" d="M794.5,987l-10.7,223H457.5c0-18.6,3.6-61.7,9.3-72.6c116.6-223.8,206.8-244.9,206.8-367.4
		c0-59.1-28.6-107.3-82.3-107.3c-40.8,0-77.3,32.9-92.3,74.3l1.4,1.7c7.9-5.9,18.6-8.4,29.3-8.4c27.2,0,47.9,27,47.9,58.3
		c0,41.4-22.9,68.4-54.4,68.4c-37.9,0-60.1-36.3-60.1-79.4c0-103.9,85.9-158.8,165.3-158.8c86.6,0,159.6,58.3,159.6,161.3
		c0,157.9-155.3,162.2-264.8,313.4H655c83,0,104.5-30.4,113.1-106.4L794.5,987z"/>
	<path class="st1" d="M794.5,967l-10.7,223H457.5c0-18.6,3.6-61.7,9.3-72.6c116.6-223.8,206.8-244.9,206.8-367.4
		c0-59.1-28.6-107.3-82.3-107.3c-40.8,0-77.3,32.9-92.3,74.3l1.4,1.7c7.9-5.9,18.6-8.4,29.3-8.4c27.2,0,47.9,27,47.9,58.3
		c0,41.4-22.9,68.4-54.4,68.4c-37.9,0-60.1-36.3-60.1-79.4c0-103.9,85.9-158.8,165.3-158.8c86.6,0,159.6,58.3,159.6,161.3
		c0,157.9-155.3,162.2-264.8,313.4H655c83,0,104.5-30.4,113.1-106.4L794.5,967z"/>
</g>
</svg>
