<?xml version="1.0" encoding="utf-8"?>
<!-- Generator: Adobe Illustrator 24.1.2, SVG Export Plug-In . SVG Version: 6.00 Build 0)  -->
<svg version="1.1" id="Calque_1" xmlns="http://www.w3.org/2000/svg" xmlns:xlink="http://www.w3.org/1999/xlink" x="0px" y="0px"
	 viewBox="0 0 1020 1420" style="enable-background:new 0 0 1020 1420;" xml:space="preserve">
<style type="text/css">
	.st0{fill:url(#SVGID_1_);}
	.st1{fill:#FFFFFF;}
	.st2{opacity:0.1;}
	.st3{clip-path:url(#SVGID_3_);}
	.st4{fill:#090A0D;}
</style>
<g id="cartes">
	<g id="coeur">

			<linearGradient id="SVGID_1_" gradientUnits="userSpaceOnUse" x1="510" y1="1420" x2="510" y2="0" gradientTransform="matrix(1 0 0 -1 0 1420)">
			<stop  offset="0" style="stop-color:#98161B"/>
			<stop  offset="1" style="stop-color:#1D0000"/>
		</linearGradient>
		<path class="st0" d="M140,0h740c77.3,0,140,62.7,140,140v1140c0,77.3-62.7,140-140,140H140c-77.3,0-140-62.7-140-140V140
			C0,62.7,62.7,0,140,0z"/>
	</g>
</g>
<g id="index2">
	<path id="path9700-3-2" class="st1" d="M190,670.3c0,0,22.6-32.4,53.1-70.5c20.4-25.5,36.7-53.1,38.2-76.9
		c1.7-27.2-14.7-54.4-44.5-55.8c-29.8-1.3-41.9,21-46.8,39.3c-4.9-18.4-17-40.6-46.8-39.3c-29.8,1.3-46.3,28.6-44.5,55.8
		c1.5,23.8,17.8,51.4,38.2,76.9C167.4,637.9,190,670.3,190,670.3z"/>
	<path class="st1" d="M187.8,90c70,0,97.1,75.2,97.1,134.4c0,101.8-52.4,171.3-114.7,171.3c-39.9,0-68.7-21.9-68.7-55.4
		c0-20.6,10.3-31.3,25.8-31.3c14.6,0,24,9.9,24,24.9c0,14.6-9.4,23.2-20.2,23.2c-3.8,0.1-7.6-0.5-11.2-1.7
		c7.3,17.2,33.9,25.8,51.1,25.8c55.8,0,70-61,70-106.1c0-7.7-0.4-15.9-0.4-23.2h-0.9c-10.7,23.6-32.6,33.9-60.1,33.9
		c-50.7,0-84.6-46.8-84.6-90.6C95.1,140.2,129,90,187.8,90z M241.1,186.6c0-67.8-24-82-52.8-82s-52.8,14.2-52.8,82
		c0,69.1,24,84.6,52.8,84.6S241.1,255.8,241.1,186.6L241.1,186.6z"/>
</g>
<g id="fili">
	<g class="st2">
		<g>
			<defs>
				<path id="SVGID_2_" d="M140,0h740c77.3,0,140,62.7,140,140v1140c0,77.3-62.7,140-140,140H140c-77.3,0-140-62.7-140-140V140
					C0,62.7,62.7,0,140,0z"/>
			</defs>
			<clipPath id="SVGID_3_">
				<use xlink:href="#SVGID_2_"  style="overflow:visible;"/>
			</clipPath>
			<g class="st3">
				<path id="path9700-3-2-3" class="st1" d="M890,1520c0,0,133.5-191.4,313.5-416.4C1324,953,1420.3,790,1429.3,649.5
					c10.3-160.4-86.9-321.4-262.9-329.2C990.5,312.5,919.1,444,890,552.5C861,444,789.6,312.5,613.7,320.3
					c-176,7.8-273.2,168.8-262.9,329.2C359.7,790,456,953,576.5,1103.6C756.5,1328.6,890,1520,890,1520z"/>
			</g>
		</g>
	</g>
</g>
<g id="FAT_2">
	<path class="st4" d="M620.3,608.6c120.9,0,179.6,135.1,179.6,278.7c0,167.2-65.1,322.6-225.4,322.6c-68.7,0-115.9-41.4-115.9-100.5
		c0-39.7,23.6-68.4,58-68.4c26.5,0,52.2,27,52.2,57.4c0,43.9-20.8,59.1-52.2,59.1v1.7c10.7,8.4,31.5,16.9,53.7,16.9
		c83,0,109.5-65.9,109.5-152.9v-78.6h-1.4c-18.6,28.7-51.5,45.6-83,45.6c-84.4,0-143.1-79.4-143.1-175.7
		C452.1,699,518.7,608.6,620.3,608.6z M617.4,951.5c37.2,0,62.3-49.8,62.3-125c0-141.9-15.7-184.1-56.5-184.1s-50.8,50.7-50.8,146.1
		C572.3,916.1,589.5,951.5,617.4,951.5z"/>
	<path class="st1" d="M620.3,588.6c120.9,0,179.6,135.1,179.6,278.7c0,167.2-65.1,322.7-225.4,322.7c-68.7,0-115.9-41.4-115.9-100.5
		c0-39.7,23.6-68.4,58-68.4c26.5,0,52.2,27,52.2,57.4c0,43.9-20.8,59.1-52.2,59.1v1.7c10.7,8.4,31.5,16.9,53.7,16.9
		c83,0,109.5-65.9,109.5-152.9v-78.6h-1.4c-18.6,28.7-51.5,45.6-83,45.6c-84.4,0-143.1-79.4-143.1-175.7
		C452.1,679,518.7,588.6,620.3,588.6z M617.4,931.5c37.2,0,62.3-49.8,62.3-125c0-141.9-15.7-184.1-56.5-184.1s-50.8,50.7-50.8,146.1
		C572.3,896.1,589.5,931.5,617.4,931.5L617.4,931.5z"/>
</g>
</svg>
