<?xml version="1.0" encoding="utf-8"?>
<!-- Generator: Adobe Illustrator 24.1.2, SVG Export Plug-In . SVG Version: 6.00 Build 0)  -->
<svg version="1.1" id="Calque_1" xmlns="http://www.w3.org/2000/svg" xmlns:xlink="http://www.w3.org/1999/xlink" x="0px" y="0px"
	 viewBox="0 0 1020 1420" style="enable-background:new 0 0 1020 1420;" xml:space="preserve">
<style type="text/css">
	.st0{fill:url(#SVGID_1_);}
	.st1{fill:#FFFFFF;}
	.st2{opacity:0.1;}
	.st3{clip-path:url(#SVGID_3_);}
	.st4{fill:#090A0D;}
</style>
<g id="cartes">
	<g id="coeur">

			<linearGradient id="SVGID_1_" gradientUnits="userSpaceOnUse" x1="510" y1="1420" x2="510" y2="0" gradientTransform="matrix(1 0 0 -1 0 1420)">
			<stop  offset="0" style="stop-color:#98161B"/>
			<stop  offset="1" style="stop-color:#1D0000"/>
		</linearGradient>
		<path class="st0" d="M140,0h740c77.3,0,140,62.7,140,140v1140c0,77.3-62.7,140-140,140H140c-77.3,0-140-62.7-140-140V140
			C0,62.7,62.7,0,140,0z"/>
	</g>
</g>
<g id="index2">
	<path id="path9700-3-2" class="st1" d="M190,670.3c0,0,22.6-32.4,53.1-70.5c20.4-25.5,36.7-53.1,38.2-76.9
		c1.7-27.2-14.7-54.4-44.5-55.8c-29.8-1.3-41.9,21-46.8,39.3c-4.9-18.4-17-40.6-46.8-39.3c-29.8,1.3-46.3,28.6-44.5,55.8
		c1.5,23.8,17.8,51.4,38.2,76.9C167.4,637.9,190,670.3,190,670.3z"/>
	<path class="st1" d="M244.7,292.7h45.1v18.9h-45.1v28.3c0,24,10.3,33.5,36.1,33.5V388H160.6v-14.6c33.5,0,43.8-9.4,43.8-33.5v-28.4
		H90.1v-18.9L220.3,90h24.5V292.7z M204.4,292.7V141.5h-0.9l-96.2,151.2H204.4z"/>
</g>
<g id="fili">
	<g class="st2">
		<g>
			<defs>
				<path id="SVGID_2_" d="M140,0h740c77.3,0,140,62.7,140,140v1140c0,77.3-62.7,140-140,140H140c-77.3,0-140-62.7-140-140V140
					C0,62.7,62.7,0,140,0z"/>
			</defs>
			<clipPath id="SVGID_3_">
				<use xlink:href="#SVGID_2_"  style="overflow:visible;"/>
			</clipPath>
			<g class="st3">
				<path id="path9700-3-2-3" class="st1" d="M890,1520c0,0,133.5-191.4,313.5-416.4C1324,953,1420.3,790,1429.3,649.5
					c10.3-160.4-86.9-321.4-262.9-329.2C990.5,312.5,919.1,444,890,552.5C861,444,789.6,312.5,613.7,320.3
					c-176,7.8-273.2,168.8-262.9,329.2C359.7,790,456,953,576.5,1103.6C756.5,1328.6,890,1520,890,1520z"/>
			</g>
		</g>
	</g>
</g>
<g id="FAT_2">
	<path class="st4" d="M543,1210v-33.8c69.4-3.4,78-19.4,78-74.3v-40.5H439.2l2.9-52.4l232.6-390.2h56.5v393.6h81.6v49h-81.6v40.5
		c0,54.9,8.6,70.9,68.7,74.3v33.8L543,1210z M621,1012.3V780.9h-1.4l-138.8,231.4L621,1012.3z"/>
	<path class="st1" d="M543,1190v-33.8c69.4-3.4,78-19.4,78-74.3v-40.5H439.2l2.9-52.4l232.6-390.2h56.5v393.6h81.6v49h-81.6v40.5
		c0,54.9,8.6,70.9,68.7,74.3v33.8L543,1190z M621,992.3V760.9h-1.4L480.8,992.3H621z"/>
</g>
</svg>
