<?xml version="1.0" encoding="utf-8"?>
<!-- Generator: Adobe Illustrator 24.1.2, SVG Export Plug-In . SVG Version: 6.00 Build 0)  -->
<svg version="1.1" id="Calque_1" xmlns="http://www.w3.org/2000/svg" xmlns:xlink="http://www.w3.org/1999/xlink" x="0px" y="0px"
	 viewBox="0 0 1020 1420" style="enable-background:new 0 0 1020 1420;" xml:space="preserve">
<style type="text/css">
	.st0{fill:url(#SVGID_1_);}
	.st1{fill:#FFFFFF;}
	.st2{opacity:0.1;}
	.st3{clip-path:url(#SVGID_3_);}
	.st4{fill:#090A0D;}
</style>
<g id="cartes">
	<g id="coeur">

			<linearGradient id="SVGID_1_" gradientUnits="userSpaceOnUse" x1="510" y1="1420" x2="510" y2="0" gradientTransform="matrix(1 0 0 -1 0 1420)">
			<stop  offset="0" style="stop-color:#98161B"/>
			<stop  offset="1" style="stop-color:#1D0000"/>
		</linearGradient>
		<path class="st0" d="M140,0h740c77.3,0,140,62.7,140,140v1140c0,77.3-62.7,140-140,140H140c-77.3,0-140-62.7-140-140V140
			C0,62.7,62.7,0,140,0z"/>
	</g>
</g>
<g id="index2">
	<path id="path9700-3-2" class="st1" d="M190,670.3c0,0,22.6-32.4,53.1-70.5c20.4-25.5,36.7-53.1,38.2-76.9
		c1.7-27.2-14.7-54.4-44.5-55.8c-29.8-1.3-41.9,21-46.8,39.3c-4.9-18.4-17-40.6-46.8-39.3c-29.8,1.3-46.3,28.6-44.5,55.8
		c1.5,23.8,17.8,51.4,38.2,76.9C167.4,637.9,190,670.3,190,670.3z"/>
	<path class="st1" d="M125.6,220.1l0.9,0.9c13.3-15,33.9-23.6,59.7-23.6c51.5,0,96.2,37.8,96.2,93.6c0,56.7-55.4,102.2-111.7,102.2
		c-39.9,0-73-26.2-73-67.9c0-23.6,11.2-36.9,29.2-36.9c13.7,0,23.6,9.9,23.6,23.2c0,18-12,24.9-24,24.9c-4.6-0.1-9.2-1.2-13.3-3.4
		c0,32.2,27.5,45.5,56.3,45.5c49.8,0,72.6-35.2,72.6-82.9c0-40.8-18-83.7-66.1-83.7c-31.3,0-50.7,15.9-54.1,44.7
		c-0.9,6.9-3.4,9.4-8.6,9.4s-6.9-3-6.9-7.3c0-7.3,2.1-15,3-22.8l13.3-146c23.2,4.3,47.2,9.4,80.3,9.4c24,0,40.8-3,64-9.4
		c-7.7,39.5-59.3,49.8-87.2,49.8c-16.7,0-32.2-3.4-45.5-6.9L125.6,220.1z"/>
</g>
<g id="fili">
	<g class="st2">
		<g>
			<defs>
				<path id="SVGID_2_" d="M140,0h740c77.3,0,140,62.7,140,140v1140c0,77.3-62.7,140-140,140H140c-77.3,0-140-62.7-140-140V140
					C0,62.7,62.7,0,140,0z"/>
			</defs>
			<clipPath id="SVGID_3_">
				<use xlink:href="#SVGID_2_"  style="overflow:visible;"/>
			</clipPath>
			<g class="st3">
				<path id="path9700-3-2-3" class="st1" d="M890,1520c0,0,133.5-191.4,313.5-416.4C1324,953,1420.3,790,1429.3,649.5
					c10.3-160.4-86.9-321.4-262.9-329.2C990.5,312.5,919.1,444,890,552.5C861,444,789.6,312.5,613.7,320.3
					c-176,7.8-273.2,168.8-262.9,329.2C359.7,790,456,953,576.5,1103.6C756.5,1328.6,890,1520,890,1520z"/>
			</g>
		</g>
	</g>
</g>
<g id="FAT_2">
	<path class="st4" d="M504.7,618.7c47.2,11.8,94.5,20.3,143.1,20.3c39.4,0,83.7-4.2,120.2-20.3v16.9c0,84.5-68.7,126.7-153.1,126.7
		c-32.9,0-63.7-3.4-88-13.5L519,866.2c31.5-29.6,63-39.7,103-39.7c97.3,0,171.7,82.8,171.7,187.5c0,106.4-71.6,196-201.1,196
		c-66.5,0-134.5-49.8-134.5-128.4c0-46.5,22.9-82.8,60.8-82.8c36.5,0,53.7,27,53.7,60.8c0,37.2-23.6,59.1-53.7,59.1
		c-5.4-0.1-10.8-1.2-15.7-3.4l-1.4,1.7c12.9,32.1,47.2,59.1,79.4,59.1c60.8,0,92.3-64.2,92.3-174.8c0-81.9-30.1-130.9-75.8-130.9
		c-48.7,0-82.3,30.4-88,73.5c-2.1,16-7.2,25.3-17.2,25.3s-15.7-9.3-15.7-22.8c0-15.2,2.9-25.3,5.7-41.4L504.7,618.7z"/>
	<path class="st1" d="M504.7,598.7c47.2,11.8,94.5,20.3,143.1,20.3c39.4,0,83.7-4.2,120.2-20.3v16.9c0,84.5-68.7,126.7-153.1,126.7
		c-32.9,0-63.7-3.4-88-13.5L519,846.2c31.5-29.6,63-39.7,103-39.7c97.3,0,171.7,82.8,171.7,187.5c0,106.4-71.6,196-201.1,196
		c-66.5,0-134.5-49.8-134.5-128.4c0-46.5,22.9-82.8,60.8-82.8c36.5,0,53.7,27,53.7,60.8c0,37.2-23.6,59.1-53.7,59.1
		c-5.4-0.1-10.8-1.2-15.7-3.4l-1.4,1.7c12.9,32.1,47.2,59.1,79.4,59.1c60.8,0,92.3-64.2,92.3-174.8c0-81.9-30.1-130.9-75.8-130.9
		c-48.7,0-82.3,30.4-88,73.5c-2.1,16-7.2,25.3-17.2,25.3s-15.7-9.3-15.7-22.8c0-15.2,2.9-25.3,5.7-41.4L504.7,598.7z"/>
</g>
</svg>
