<?xml version="1.0" encoding="utf-8"?>
<!-- Generator: Adobe Illustrator 24.1.2, SVG Export Plug-In . SVG Version: 6.00 Build 0)  -->
<svg version="1.1" id="Calque_1" xmlns="http://www.w3.org/2000/svg" xmlns:xlink="http://www.w3.org/1999/xlink" x="0px" y="0px"
	 viewBox="0 0 1020 1420" style="enable-background:new 0 0 1020 1420;" xml:space="preserve">
<style type="text/css">
	.st0{fill:url(#SVGID_1_);}
	.st1{fill:#FFFFFF;}
	.st2{opacity:0.1;}
	.st3{clip-path:url(#SVGID_3_);}
	.st4{fill:#090A0D;}
</style>
<g id="cartes">
	<g id="coeur">

			<linearGradient id="SVGID_1_" gradientUnits="userSpaceOnUse" x1="510" y1="1409.431" x2="510" y2="-10.569" gradientTransform="matrix(1 0 0 -1 0 1420)">
			<stop  offset="0" style="stop-color:#98161B"/>
			<stop  offset="1" style="stop-color:#1D0000"/>
		</linearGradient>
		<path class="st0" d="M140,10.6h740c77.3,0,140,62.7,140,140v1140c0,77.3-62.7,140-140,140H140c-77.3,0-140-62.7-140-140v-1140
			C0,73.2,62.7,10.6,140,10.6z"/>
	</g>
</g>
<g id="index2">
	<path id="path9700-3-2" class="st1" d="M190,680.9c0,0,22.6-32.4,53.1-70.5c20.4-25.5,36.7-53.1,38.2-76.9
		c1.7-27.2-14.7-54.4-44.5-55.8c-29.8-1.3-41.9,21-46.8,39.3c-4.9-18.4-17-40.6-46.8-39.3c-29.8,1.3-46.3,28.6-44.5,55.8
		c1.5,23.8,17.8,51.4,38.2,76.9C167.4,648.5,190,680.9,190,680.9z"/>
	<path class="st1" d="M287,319.2c0,57.1-50.7,87.2-103.1,87.2c-44.7,0-91-25.8-91-75.2c0-36.9,34.4-62.3,64.8-75.6
		c-29.6-12.9-54.5-38.6-54.5-73.4c0-49.8,43.4-81.6,89.8-81.6c39.5,0,81.6,23.6,81.6,67.9c0,33.5-23.2,55.8-51.1,70.4
		C259.1,254.7,287,277.1,287,319.2z M185.7,391.7c35.2,0,66.1-21,66.1-58.4c0-44.7-43.8-58.8-79.9-71.3
		c-27.1,11.2-48.1,33.5-48.1,63.6C123.8,362.5,145.3,391.7,185.7,391.7z M210.2,232.4c24-9.4,36.1-31.3,36.1-56.7
		c0-33.5-20.2-60.6-56.3-60.6c-32.6,0-55.8,25.8-55.8,56.7C134.2,209.2,181.8,221.7,210.2,232.4L210.2,232.4z"/>
</g>
<g id="fili">
	<g class="st2">
		<g>
			<defs>
				<path id="SVGID_2_" d="M140,10.6h740c77.3,0,140,62.7,140,140v1140c0,77.3-62.7,140-140,140H140c-77.3,0-140-62.7-140-140v-1140
					C0,73.2,62.7,10.6,140,10.6z"/>
			</defs>
			<clipPath id="SVGID_3_">
				<use xlink:href="#SVGID_2_"  style="overflow:visible;"/>
			</clipPath>
			<g class="st3">
				<path id="path9700-3-2-3" class="st1" d="M890,1530.6c0,0,133.5-191.4,313.5-416.4c120.5-150.6,216.8-313.6,225.7-454.1
					c10.3-160.4-86.9-321.4-262.9-329.2C990.5,323.1,919.1,454.6,890,563C861,454.6,789.6,323.1,613.7,330.9
					c-176,7.8-273.2,168.8-262.9,329.2c9,140.4,105.3,303.5,225.7,454.1C756.5,1339.2,890,1530.6,890,1530.6z"/>
			</g>
		</g>
	</g>
</g>
<g id="FAT_2">
	<path class="st4" d="M447.8,1077.8c0-70.1,47.9-116.6,99.5-137.7c-56.5-31.3-83.7-73.5-83.7-148.7c0-103.9,81.6-172.3,163.9-172.3
		c70.8,0,155.3,42.2,155.3,140.2c0,63.3-39.4,104.7-88,120.8c64.4,34.6,109.5,74.3,109.5,164.7c0,108.1-81.6,175.7-190.3,175.7
		C525.1,1220.6,447.8,1164.8,447.8,1077.8z M593.8,973.1c-5.7-3.4-11.4-9.3-19.3-9.3c-15,0-49.4,40.5-49.4,101.4
		c0,76,37.2,121.6,93.7,121.6c37.9,0,80.9-33.8,80.9-91.2c0-45.6-17.9-67.6-59.4-93.8L593.8,973.1z M626.7,653
		c-37.9,0-70.1,33.8-70.1,79.4c0,61.7,44.4,92.1,109.5,128.4c28.6-21.1,43.6-63.3,43.6-102.2C709.7,696.9,681.1,653,626.7,653z"/>
	<path class="st1" d="M447.8,1057.8c0-70.1,47.9-116.6,99.5-137.7c-56.5-31.3-83.7-73.5-83.7-148.7c0-103.9,81.6-172.3,163.9-172.3
		c70.8,0,155.3,42.2,155.3,140.2c0,63.3-39.4,104.7-88,120.8c64.4,34.6,109.5,74.3,109.5,164.7c0,108.1-81.6,175.7-190.3,175.7
		C525.1,1200.6,447.8,1144.8,447.8,1057.8z M593.8,953.1c-5.7-3.4-11.4-9.3-19.3-9.3c-15,0-49.4,40.5-49.4,101.4
		c0,76,37.2,121.6,93.7,121.6c37.9,0,80.9-33.8,80.9-91.2c0-45.6-17.9-67.6-59.4-93.8L593.8,953.1z M626.7,633
		c-37.9,0-70.1,33.8-70.1,79.4c0,61.7,44.4,92.1,109.5,128.4c28.6-21.1,43.6-63.3,43.6-102.2C709.7,676.9,681.1,633,626.7,633
		L626.7,633z"/>
</g>
</svg>
