<?xml version="1.0" encoding="utf-8"?>
<!-- Generator: Adobe Illustrator 24.1.2, SVG Export Plug-In . SVG Version: 6.00 Build 0)  -->
<svg version="1.1" id="Calque_1" xmlns="http://www.w3.org/2000/svg" xmlns:xlink="http://www.w3.org/1999/xlink" x="0px" y="0px"
	 viewBox="0 0 1020 1420" style="enable-background:new 0 0 1020 1420;" xml:space="preserve">
<style type="text/css">
	.st0{fill:url(#SVGID_1_);}
	.st1{fill:#FFFFFF;}
	.st2{opacity:0.1;}
	.st3{clip-path:url(#SVGID_3_);}
	.st4{fill:#090A0D;}
</style>
<g id="cartes">
	<g id="coeur">

			<linearGradient id="SVGID_1_" gradientUnits="userSpaceOnUse" x1="510" y1="1420" x2="510" y2="0" gradientTransform="matrix(1 0 0 -1 0 1420)">
			<stop  offset="0" style="stop-color:#98161B"/>
			<stop  offset="1" style="stop-color:#1D0000"/>
		</linearGradient>
		<path class="st0" d="M140,0h740c77.3,0,140,62.7,140,140v1140c0,77.3-62.7,140-140,140H140c-77.3,0-140-62.7-140-140V140
			C0,62.7,62.7,0,140,0z"/>
	</g>
</g>
<g id="index2">
	<path id="path9700-3-2" class="st1" d="M190,670.3c0,0,22.6-32.4,53.1-70.5c20.4-25.5,36.7-53.1,38.2-76.9
		c1.7-27.2-14.7-54.4-44.5-55.8c-29.8-1.3-41.9,21-46.8,39.3c-4.9-18.4-17-40.6-46.8-39.3c-29.8,1.3-46.3,28.6-44.5,55.8
		c1.5,23.8,17.8,51.4,38.2,76.9C167.4,637.9,190,670.3,190,670.3z"/>
	<path class="st1" d="M192.1,395.8c-70,0-97.1-75.2-97.1-134.4C95.1,159.6,147.5,90,209.7,90c26.2,0,58.4,16.7,58.4,46.8
		c0,15-10.3,27.5-25.8,27.5c-14.6,0-24-9.9-24-24c0-13.3,8.2-22.3,19.8-22.3c2.4-0.1,4.9,0.1,7.3,0.4c-8.2-11.2-25.8-13.7-38.7-13.7
		c-35.2,0-56.7,32.6-61.8,64.4c-2.1,12.9-6,49.4-6,76.9h0.9c12.9-27.9,31.8-44.2,64.4-44.2c46.8,0,80.7,45.1,80.7,88.9
		C284.9,345.5,251,395.8,192.1,395.8z M138.9,300c0,55.8,24,81.2,52.8,81.2s52.8-14.2,52.8-81.2c0-70-24-83.7-52.8-83.7
		S138.9,242.9,138.9,300z"/>
</g>
<g id="fili">
	<g class="st2">
		<g>
			<defs>
				<path id="SVGID_2_" d="M140,0h740c77.3,0,140,62.7,140,140v1140c0,77.3-62.7,140-140,140H140c-77.3,0-140-62.7-140-140V140
					C0,62.7,62.7,0,140,0z"/>
			</defs>
			<clipPath id="SVGID_3_">
				<use xlink:href="#SVGID_2_"  style="overflow:visible;"/>
			</clipPath>
			<g class="st3">
				<path id="path9700-3-2-3" class="st1" d="M890,1520c0,0,133.5-191.4,313.5-416.4C1324,953,1420.3,790,1429.3,649.5
					c10.3-160.4-86.9-321.4-262.9-329.2C990.5,312.5,919.1,444,890,552.5C861,444,789.6,312.5,613.7,320.3
					c-176,7.8-273.2,168.8-262.9,329.2C359.7,790,456,953,576.5,1103.6C756.5,1328.6,890,1520,890,1520z"/>
			</g>
		</g>
	</g>
</g>
<g id="FAT_2">
	<path class="st4" d="M718.3,661v-1.7c-10.7-8.4-31.5-16.9-45.8-16.9c-77.3,0-102.3,81.1-102.3,231.4h1.4
		c18.6-28.7,54.4-45.6,87.3-45.6c85.9,0,143.1,79.4,143.1,175.7c0,115.7-60.1,206.1-168.9,206.1C508.7,1210,450,1088.4,450,931.3
		c0-168.9,89.4-322.6,211.8-322.6c67.3,0,114.5,41.4,114.5,100.5c0,39.7-23.6,68.4-58,68.4c-26.5,0-52.2-27-52.2-57.4
		C666.1,676.2,686.8,661,718.3,661z M636,867.1c-50.1,0-65.8,67.6-65.8,144.4c0,119.1,11.4,164.7,56.5,164.7s55.1-50.7,55.1-153.7
		C681.8,907.6,671.8,867.1,636,867.1L636,867.1z"/>
	<path class="st1" d="M718.3,641v-1.7c-10.7-8.4-31.5-16.9-45.8-16.9c-77.3,0-102.3,81.1-102.3,231.4h1.4
		c18.6-28.7,54.4-45.6,87.3-45.6c85.9,0,143.1,79.4,143.1,175.7c0,115.7-60.1,206.1-168.9,206.1C508.7,1190,450,1068.4,450,911.3
		c0-168.9,89.4-322.6,211.8-322.6c67.3,0,114.5,41.4,114.5,100.5c0,39.7-23.6,68.4-58,68.4c-26.5,0-52.2-27-52.2-57.4
		C666.1,656.2,686.8,641,718.3,641z M636,847.1c-50.1,0-65.8,67.6-65.8,144.4c0,119.1,11.4,164.7,56.5,164.7s55.1-50.7,55.1-153.7
		C681.8,887.6,671.8,847.1,636,847.1L636,847.1z"/>
</g>
</svg>
