<?xml version="1.0" encoding="utf-8"?>
<!-- Generator: Adobe Illustrator 24.1.2, SVG Export Plug-In . SVG Version: 6.00 Build 0)  -->
<svg version="1.1" id="Calque_1" xmlns="http://www.w3.org/2000/svg" xmlns:xlink="http://www.w3.org/1999/xlink" x="0px" y="0px"
	 viewBox="0 0 1020 1420" style="enable-background:new 0 0 1020 1420;" xml:space="preserve">
<style type="text/css">
	.st0{fill:url(#SVGID_1_);}
	.st1{fill:url(#SVGID_2_);}
	.st2{fill:#FFFFFF;}
	.st3{opacity:0.1;}
	.st4{clip-path:url(#SVGID_4_);}
	.st5{fill:#090A0D;}
</style>
<g id="cartes">
	<g id="pique">

			<linearGradient id="SVGID_1_" gradientUnits="userSpaceOnUse" x1="510" y1="1420" x2="510" y2="0" gradientTransform="matrix(1 0 0 -1 0 1420)">
			<stop  offset="0" style="stop-color:#4E515B"/>
			<stop  offset="0.9" style="stop-color:#090A0D"/>
		</linearGradient>
		<path class="st0" d="M140,0h740c77.3,0,140,62.7,140,140v1140c0,77.3-62.7,140-140,140H140c-77.3,0-140-62.7-140-140V140
			C0,62.7,62.7,0,140,0z"/>

			<linearGradient id="SVGID_2_" gradientUnits="userSpaceOnUse" x1="510" y1="1420" x2="510" y2="0" gradientTransform="matrix(1 0 0 -1 0 1420)">
			<stop  offset="0" style="stop-color:#4E515B"/>
			<stop  offset="0.9" style="stop-color:#090A0D"/>
		</linearGradient>
		<path class="st1" d="M140,0h740c77.3,0,140,62.7,140,140v1140c0,77.3-62.7,140-140,140H140c-77.3,0-140-62.7-140-140V140
			C0,62.7,62.7,0,140,0z"/>
	</g>
</g>
<g id="index2">
	<path id="path153-0-1-2-5-6-5-9-1-9" class="st2" d="M190,467c43.8,55.7,90.7,87.8,91.5,131.3c0.3,14.1-8.3,38-35,42.6
		c-17.3,3-41.2-9.6-41.7-35c0.1-5.1-6-4.9-6,2c0.8,20.1,7.9,43.4,19.9,62.4h-57.4c12-19,19.1-42.4,19.9-62.4c0.1-6.9-6-7.1-6-2
		c-0.5,25.4-24.4,38-41.7,35c-26.7-4.6-35.3-28.5-35-42.6C99.3,554.8,146.2,522.8,190,467L190,467z"/>
	<path class="st2" d="M98.5,390.6c0-94,141.7-134,141.7-220.7c0-39.5-21.5-65.3-60.6-65.3c-33.5,0-58,21-61.4,54.5
		c4.3-2.1,8.6-4.7,15.5-4.7c11.6,0,22.3,6.9,22.3,24.9c0,12.5-9,24.9-25.3,24.9c-17.6,0-27.1-12.9-27.1-37.4
		c0-47.7,40.8-76.9,85.9-76.9c46.8,0,91,26.6,91,77.3c0,90.6-127.5,111.2-158,188.1h90.2c37.8,0,52.4-13.7,57.5-55h11.2l-3.4,90.2
		L98.5,390.6z"/>
</g>
<g id="fili">
	<g class="st3">
		<g>
			<defs>
				<path id="SVGID_3_" d="M140,0h740c77.3,0,140,62.7,140,140v1140c0,77.3-62.7,140-140,140H140c-77.3,0-140-62.7-140-140V140
					C0,62.7,62.7,0,140,0z"/>
			</defs>
			<clipPath id="SVGID_4_">
				<use xlink:href="#SVGID_3_"  style="overflow:visible;"/>
			</clipPath>
			<g class="st4">
				<path id="path153-0-1-2-5-6-5-9-1-9-2" class="st2" d="M932.8,204.9c279.1,355,577.8,559.3,582.8,836.2
					c1.7,89.7-52.7,242.1-223,271.3c-110.5,18.8-262.6-60.9-265.8-222.9c0.6-32.3-38.3-31.4-37.9,12.8
					c5.2,127.8,50.6,276.6,126.8,397.7H750c76.2-121.1,121.6-269.9,126.8-397.7c0.6-44.2-38.4-45-37.9-12.8
					c-3.2,162-155.3,241.8-265.8,222.9c-170.3-29.2-224.7-181.6-223-271.3C355,764.2,653.7,559.9,932.8,204.9L932.8,204.9z"/>
			</g>
		</g>
	</g>
</g>
<g id="FAT_2">
	<path class="st5" d="M794.5,987l-10.7,223H457.5c0-18.6,3.6-61.7,9.3-72.6c116.6-223.8,206.8-244.9,206.8-367.4
		c0-59.1-28.6-107.3-82.3-107.3c-40.8,0-77.3,32.9-92.3,74.3l1.4,1.7c7.9-5.9,18.6-8.4,29.3-8.4c27.2,0,47.9,27,47.9,58.3
		c0,41.4-22.9,68.4-54.4,68.4c-37.9,0-60.1-36.3-60.1-79.4c0-103.9,85.9-158.8,165.3-158.8c86.6,0,159.6,58.3,159.6,161.3
		c0,157.9-155.3,162.2-264.8,313.4H655c83,0,104.5-30.4,113.1-106.4L794.5,987z"/>
	<path class="st2" d="M794.5,967l-10.7,223H457.5c0-18.6,3.6-61.7,9.3-72.6c116.6-223.8,206.8-244.9,206.8-367.4
		c0-59.1-28.6-107.3-82.3-107.3c-40.8,0-77.3,32.9-92.3,74.3l1.4,1.7c7.9-5.9,18.6-8.4,29.3-8.4c27.2,0,47.9,27,47.9,58.3
		c0,41.4-22.9,68.4-54.4,68.4c-37.9,0-60.1-36.3-60.1-79.4c0-103.9,85.9-158.8,165.3-158.8c86.6,0,159.6,58.3,159.6,161.3
		c0,157.9-155.3,162.2-264.8,313.4H655c83,0,104.5-30.4,113.1-106.4L794.5,967z"/>
</g>
</svg>
