<?xml version="1.0" encoding="utf-8"?>
<!-- Generator: Adobe Illustrator 24.1.2, SVG Export Plug-In . SVG Version: 6.00 Build 0)  -->
<svg version="1.1" id="Calque_1" xmlns="http://www.w3.org/2000/svg" xmlns:xlink="http://www.w3.org/1999/xlink" x="0px" y="0px"
	 viewBox="0 0 1020 1420" style="enable-background:new 0 0 1020 1420;" xml:space="preserve">
<style type="text/css">
	.st0{fill:url(#SVGID_1_);}
	.st1{fill:#FFFFFF;}
	.st2{opacity:0.1;}
	.st3{clip-path:url(#SVGID_3_);}
	.st4{fill:#090A0D;}
</style>
<g id="cartes">
	<g id="pique">

			<linearGradient id="SVGID_1_" gradientUnits="userSpaceOnUse" x1="510" y1="1420" x2="510" y2="0" gradientTransform="matrix(1 0 0 -1 0 1420)">
			<stop  offset="0" style="stop-color:#4E515B"/>
			<stop  offset="0.9" style="stop-color:#090A0D"/>
		</linearGradient>
		<path class="st0" d="M140,0h740c77.3,0,140,62.7,140,140v1140c0,77.3-62.7,140-140,140H140c-77.3,0-140-62.7-140-140V140
			C0,62.7,62.7,0,140,0z"/>
	</g>
</g>
<g id="index2">
	<path id="path153-0-1-2-5-6-5-9-1-9" class="st1" d="M190,467c43.8,55.7,90.7,87.8,91.5,131.3c0.3,14.1-8.3,38-35,42.6
		c-17.3,3-41.2-9.6-41.7-35c0.1-5.1-6-4.9-6,2c0.8,20.1,7.9,43.4,19.9,62.4h-57.4c12-19,19.1-42.4,19.9-62.4c0.1-6.9-6-7.1-6-2
		c-0.5,25.4-24.4,38-41.7,35c-26.7-4.6-35.3-28.5-35-42.6C99.3,554.8,146.2,522.8,190,467L190,467z"/>
	<path class="st1" d="M93.4,132.9c0-20.6-7.3-28.3-41.2-28.3V90h122v14.6c-29.6,0-36.9,7.7-36.9,28.3v120.2l92.8-104.8
		c12.5-13.7,18.9-21.5,18.9-33.1c0-8.2-11.6-10.7-35.2-10.7V90h108.2v14.6c-27.9,0-42.5,14.6-56.7,30.1l-67.9,73l82.9,134.4
		c12,19.8,19.8,28.8,47.7,28.8v14.6H209.7v-14.6c16.7,0,28.8-1.7,28.8-9.4c0-12.5-9.4-21.9-17.6-35.6l-51.5-84.6l-32.2,35.6v65.7
		c0,20.6,7.3,28.3,36.9,28.3v14.6h-122v-14.6c33.9,0,41.2-7.7,41.2-28.3L93.4,132.9z"/>
</g>
<g id="fili">
	<g class="st2">
		<g>
			<defs>
				<path id="SVGID_2_" d="M140,0h740c77.3,0,140,62.7,140,140v1140c0,77.3-62.7,140-140,140H140c-77.3,0-140-62.7-140-140V140
					C0,62.7,62.7,0,140,0z"/>
			</defs>
			<clipPath id="SVGID_3_">
				<use xlink:href="#SVGID_2_"  style="overflow:visible;"/>
			</clipPath>
			<g class="st3">
				<path id="path153-0-1-2-5-6-5-9-1-9-3" class="st1" d="M932.8,204.9c279.1,355,577.8,559.3,582.8,836.2
					c1.7,89.7-52.7,242.1-223,271.3c-110.5,18.8-262.6-60.9-265.8-222.9c0.6-32.3-38.3-31.4-37.9,12.8
					c5.2,127.8,50.6,276.6,126.8,397.7H750c76.2-121.1,121.6-269.9,126.8-397.7c0.6-44.2-38.4-45-37.9-12.8
					c-3.2,162-155.3,241.8-265.8,222.9c-170.3-29.2-224.7-181.6-223-271.3C355,764.2,653.7,559.9,932.8,204.9L932.8,204.9z"/>
			</g>
		</g>
	</g>
</g>
<g id="FAT_2">
	<path class="st4" d="M362,628.9h249v33.8c-41.5,0-58.7,13.5-58.7,55.7v180.8L701.9,726c10-11.8,15-24.5,15-38
		c0-15.2-7.2-25.3-35.1-25.3h-25v-33.8H870v33.8c-55.1,8.4-66.5,13.5-95.2,45.6L663.2,832.4l158.1,308.3
		c12.2,24.5,32.9,35.5,68.7,35.5v33.8H645.3v-33.8c26.5-3.4,40.1-8.4,40.1-19.4s-5.7-22.8-107.3-227.2l-25.8,27.9v163
		c0,42.2,17.2,55.7,51.5,55.7v33.8H362v-33.8c53,0,70.1-13.5,70.1-55.7v-402c0-42.2-17.2-55.7-70.1-55.7V628.9z"/>
	<path class="st1" d="M362,608.9h249v33.8c-41.5,0-58.7,13.5-58.7,55.7v180.8L701.9,706c10-11.8,15-24.5,15-38
		c0-15.2-7.2-25.3-35.1-25.3h-25v-33.8H870v33.8c-55.1,8.4-66.5,13.5-95.2,45.6L663.2,812.4l158.1,308.3
		c12.2,24.5,32.9,35.5,68.7,35.5v33.8H645.3v-33.8c26.5-3.4,40.1-8.4,40.1-19.4s-5.7-22.8-107.3-227.2l-25.8,27.9v163
		c0,42.2,17.2,55.7,51.5,55.7v33.8H362v-33.8c53,0,70.1-13.5,70.1-55.7v-402c0-42.2-17.2-55.7-70.1-55.7V608.9z"/>
</g>
</svg>
