<?xml version="1.0" encoding="utf-8"?>
<!-- Generator: Adobe Illustrator 24.1.2, SVG Export Plug-In . SVG Version: 6.00 Build 0)  -->
<svg version="1.1" id="Calque_1" xmlns="http://www.w3.org/2000/svg" xmlns:xlink="http://www.w3.org/1999/xlink" x="0px" y="0px"
	 viewBox="0 0 1020 1420" style="enable-background:new 0 0 1020 1420;" xml:space="preserve">
<style type="text/css">
	.st0{fill:url(#SVGID_1_);}
	.st1{fill:#FFFFFF;}
	.st2{opacity:0.1;}
	.st3{clip-path:url(#SVGID_3_);}
	.st4{fill:#090A0D;}
</style>
<g id="cartes">
	<g id="pique">

			<linearGradient id="SVGID_1_" gradientUnits="userSpaceOnUse" x1="510" y1="1420" x2="510" y2="0" gradientTransform="matrix(1 0 0 -1 0 1420)">
			<stop  offset="0" style="stop-color:#4E515B"/>
			<stop  offset="0.9" style="stop-color:#090A0D"/>
		</linearGradient>
		<path class="st0" d="M140,0h740c77.3,0,140,62.7,140,140v1140c0,77.3-62.7,140-140,140H140c-77.3,0-140-62.7-140-140V140
			C0,62.7,62.7,0,140,0z"/>
	</g>
</g>
<g id="index2">
	<path id="path153-0-1-2-5-6-5-9-1-9" class="st1" d="M190,467c43.8,55.7,90.7,87.8,91.5,131.3c0.3,14.1-8.3,38-35,42.6
		c-17.3,3-41.2-9.6-41.7-35c0.1-5.1-6-4.9-6,2c0.8,20.1,7.9,43.4,19.9,62.4h-57.4c12-19,19.1-42.4,19.9-62.4c0.1-6.9-6-7.1-6-2
		c-0.5,25.4-24.4,38-41.7,35c-26.7-4.6-35.3-28.5-35-42.6C99.3,554.8,146.2,522.8,190,467L190,467z"/>
	<path class="st1" d="M60.6,118.6c27,0,48.5-12.1,58.5-26h9.3v251.8c0,24.2,8.3,33.8,41.5,33.8v14.7H54.4v-14.7
		c33.2,0,41.5-9.5,41.5-33.8V152.3c0-13-6.9-19-35.3-19L60.6,118.6z"/>
	<path class="st1" d="M325.6,244c0,93.5-34.6,154-76.2,154s-76.2-60.6-76.2-154s34.6-154,76.2-154S325.6,150.6,325.6,244z
		 M290.3,244c0-105.1-13.8-139.3-40.8-139.3s-40.8,34.2-40.8,139.3s13.8,139.3,40.8,139.3S290.3,349.2,290.3,244L290.3,244z"/>
</g>
<g id="fili">
	<g class="st2">
		<g>
			<defs>
				<path id="SVGID_2_" d="M140,0h740c77.3,0,140,62.7,140,140v1140c0,77.3-62.7,140-140,140H140c-77.3,0-140-62.7-140-140V140
					C0,62.7,62.7,0,140,0z"/>
			</defs>
			<clipPath id="SVGID_3_">
				<use xlink:href="#SVGID_2_"  style="overflow:visible;"/>
			</clipPath>
			<g class="st3">
				<path id="path153-0-1-2-5-6-5-9-1-9-3" class="st1" d="M932.8,204.9c279.1,355,577.8,559.3,582.8,836.2
					c1.7,89.7-52.7,242.1-223,271.3c-110.5,18.8-262.6-60.9-265.8-222.9c0.6-32.3-38.3-31.4-37.9,12.8
					c5.2,127.8,50.6,276.6,126.8,397.7H750c76.2-121.1,121.6-269.9,126.8-397.7c0.6-44.2-38.4-45-37.9-12.8
					c-3.2,162-155.3,241.8-265.8,222.9c-170.3-29.2-224.7-181.6-223-271.3C355,764.2,653.7,559.9,932.8,204.9L932.8,204.9z"/>
			</g>
		</g>
	</g>
</g>
<g id="FAT_2">
	<path class="st4" d="M524,1091.7V613.7h-38.2c-35.1,33.8-56.1,45.6-124.5,47.3v38.9c60.4,0,67.8,6.8,67.8,43.9v348
		c0,54.9-7.4,70.9-80.7,74.3v33.8h255.7v-33.8C531.4,1162.7,524,1146.6,524,1091.7z"/>
	<path class="st4" d="M747.7,608.6c-96.7,0-155.9,126.7-155.9,300.7S651,1210,747.7,1210s155.9-126.7,155.9-300.7
		S844.5,608.6,747.7,608.6z M747.1,1176.2c-44.4,0-56.7-106.4-56.7-266.9s14.2-266.9,56.7-266.9c44.4,0,57.9,106.4,57.9,266.9
		S791.5,1176.2,747.1,1176.2L747.1,1176.2z"/>
	<path class="st1" d="M524,1071.7V593.7h-38.2c-35.1,33.8-56.1,45.6-124.5,47.3v38.9c60.4,0,67.8,6.8,67.8,43.9v348
		c0,54.9-7.4,70.9-80.7,74.3v33.8h255.7v-33.8C531.4,1142.7,524,1126.6,524,1071.7z"/>
	<path class="st1" d="M747.7,588.6c-96.7,0-155.9,126.7-155.9,300.7S651,1190,747.7,1190s155.9-126.7,155.9-300.7
		S844.5,588.6,747.7,588.6z M747.1,1156.2c-44.4,0-56.7-106.4-56.7-266.9s14.2-266.9,56.7-266.9c44.4,0,57.9,106.4,57.9,266.9
		S791.5,1156.2,747.1,1156.2z"/>
</g>
</svg>
