<?xml version="1.0" encoding="utf-8"?>
<!-- Generator: Adobe Illustrator 24.1.2, SVG Export Plug-In . SVG Version: 6.00 Build 0)  -->
<svg version="1.1" id="Calque_1" xmlns="http://www.w3.org/2000/svg" xmlns:xlink="http://www.w3.org/1999/xlink" x="0px" y="0px"
	 viewBox="0 0 1020 1420" style="enable-background:new 0 0 1020 1420;" xml:space="preserve">
<style type="text/css">
	.st0{fill:url(#SVGID_1_);}
	.st1{fill:#FFFFFF;}
	.st2{opacity:0.1;}
	.st3{clip-path:url(#SVGID_3_);}
	.st4{fill:#090A0D;}
</style>
<g id="cartes">
	<g id="pique">

			<linearGradient id="SVGID_1_" gradientUnits="userSpaceOnUse" x1="510" y1="1420" x2="510" y2="0" gradientTransform="matrix(1 0 0 -1 0 1420)">
			<stop  offset="0" style="stop-color:#4E515B"/>
			<stop  offset="0.9" style="stop-color:#090A0D"/>
		</linearGradient>
		<path class="st0" d="M140,0h740c77.3,0,140,62.7,140,140v1140c0,77.3-62.7,140-140,140H140c-77.3,0-140-62.7-140-140V140
			C0,62.7,62.7,0,140,0z"/>
	</g>
</g>
<g id="index2">
	<path id="path153-0-1-2-5-6-5-9-1-9" class="st1" d="M190,467c43.8,55.7,90.7,87.8,91.5,131.3c0.3,14.1-8.3,38-35,42.6
		c-17.3,3-41.2-9.6-41.7-35c0.1-5.1-6-4.9-6,2c0.8,20.1,7.9,43.4,19.9,62.4h-57.4c12-19,19.1-42.4,19.9-62.4c0.1-6.9-6-7.1-6-2
		c-0.5,25.4-24.4,38-41.7,35c-26.7-4.6-35.3-28.5-35-42.6C99.3,554.8,146.2,522.8,190,467L190,467z"/>
	<path class="st1" d="M41.4,387.2v-14.6c34.8,0,43.8-19.3,53.2-45.5l86.7-237h15.5l94,241.8c12.9,33.1,22.8,40.8,47.7,40.8v14.6
		H219.2v-14.6c32.2,0,33.9-3.4,33.9-15.9c0-9-12.5-43.4-24-68.3H127.7c-7.3,24-19.8,49.8-19.8,61.8c0,16.3,8.6,22.3,45.5,22.3v14.6
		L41.4,387.2z M222.2,270.4l-45.5-112.9l-42.9,112.9H222.2z"/>
</g>
<g id="fili">
	<g class="st2">
		<g>
			<defs>
				<path id="SVGID_2_" d="M140,0h740c77.3,0,140,62.7,140,140v1140c0,77.3-62.7,140-140,140H140c-77.3,0-140-62.7-140-140V140
					C0,62.7,62.7,0,140,0z"/>
			</defs>
			<clipPath id="SVGID_3_">
				<use xlink:href="#SVGID_2_"  style="overflow:visible;"/>
			</clipPath>
			<g class="st3">
				<path id="path153-0-1-2-5-6-5-9-1-9-3" class="st1" d="M932.8,204.9c279.1,355,577.8,559.3,582.8,836.2
					c1.7,89.7-52.7,242.1-223,271.3c-110.5,18.8-262.6-60.9-265.8-222.9c0.6-32.3-38.3-31.4-37.9,12.8
					c5.2,127.8,50.6,276.6,126.8,397.7H750c76.2-121.1,121.6-269.9,126.8-397.7c0.6-44.2-38.4-45-37.9-12.8
					c-3.2,162-155.3,241.8-265.8,222.9c-170.3-29.2-224.7-181.6-223-271.3C355,764.2,653.7,559.9,932.8,204.9L932.8,204.9z"/>
			</g>
		</g>
	</g>
</g>
<g id="FAT_2">
	<path class="st4" d="M354.1,1210v-33.8c53.7-11.8,70.8-37.2,95.9-107.3l158.9-450.2h37.9l183.2,500.9c15,40.5,30.8,53.2,68,56.6
		v33.8H639.6v-33.8h28.6c37.2,0,42.9-10.1,42.9-27.9c0-11-3.6-22-7.9-33.8l-35.1-97.1H510.8l-22.9,66.7c-5.7,17.2-8.6,35.1-8.6,53.2
		c0,23.7,12.9,38.9,40.8,38.9h35.1v33.8L354.1,1210z M587.4,795.3l-60.8,178.2h125.9L587.4,795.3z"/>
	<path class="st1" d="M354.1,1190v-33.8c53.7-11.8,70.8-37.2,95.9-107.3l158.9-450.2h37.9l183.2,500.9c15,40.5,30.8,53.2,68,56.6
		v33.8H639.6v-33.8h28.6c37.2,0,42.9-10.1,42.9-27.9c0-11-3.6-22-7.9-33.8l-35.1-97.1H510.8l-22.9,66.7c-5.7,17.2-8.6,35.1-8.6,53.2
		c0,23.7,12.9,38.9,40.8,38.9h35.1v33.8H354.1z M587.4,775.3l-60.8,178.2h125.9L587.4,775.3z"/>
</g>
</svg>
