<?xml version="1.0" encoding="utf-8"?>
<!-- Generator: Adobe Illustrator 24.1.2, SVG Export Plug-In . SVG Version: 6.00 Build 0)  -->
<svg version="1.1" id="Calque_1" xmlns="http://www.w3.org/2000/svg" xmlns:xlink="http://www.w3.org/1999/xlink" x="0px" y="0px"
	 viewBox="0 0 1020 1420" style="enable-background:new 0 0 1020 1420;" xml:space="preserve">
<style type="text/css">
	.st0{fill:url(#SVGID_1_);}
	.st1{fill:#FFFFFF;}
	.st2{opacity:0.1;}
	.st3{clip-path:url(#SVGID_3_);}
	.st4{fill:#090A0D;}
</style>
<g id="cartes">
	<g id="pique">

			<linearGradient id="SVGID_1_" gradientUnits="userSpaceOnUse" x1="510" y1="1420" x2="510" y2="0" gradientTransform="matrix(1 0 0 -1 0 1420)">
			<stop  offset="0" style="stop-color:#4E515B"/>
			<stop  offset="0.9" style="stop-color:#090A0D"/>
		</linearGradient>
		<path class="st0" d="M140,0h740c77.3,0,140,62.7,140,140v1140c0,77.3-62.7,140-140,140H140c-77.3,0-140-62.7-140-140V140
			C0,62.7,62.7,0,140,0z"/>
	</g>
</g>
<g id="index2">
	<path id="path153-0-1-2-5-6-5-9-1-9" class="st1" d="M190,467c43.8,55.7,90.7,87.8,91.5,131.3c0.3,14.1-8.3,38-35,42.6
		c-17.3,3-41.2-9.6-41.7-35c0.1-5.1-6-4.9-6,2c0.8,20.1,7.9,43.4,19.9,62.4h-57.4c12-19,19.1-42.4,19.9-62.4c0.1-6.9-6-7.1-6-2
		c-0.5,25.4-24.4,38-41.7,35c-26.7-4.6-35.3-28.5-35-42.6C99.3,554.8,146.2,522.8,190,467L190,467z"/>
	<path class="st1" d="M287,308.6c0,57.1-50.7,87.2-103.1,87.2c-44.7,0-91-25.8-91-75.2c0-36.9,34.4-62.3,64.8-75.6
		c-29.6-12.9-54.5-38.6-54.5-73.4c0-49.8,43.4-81.6,89.8-81.6c39.5,0,81.6,23.6,81.6,67.8c0,33.5-23.2,55.8-51.1,70.4
		C259.1,244.2,287,266.5,287,308.6z M185.7,381.2c35.2,0,66.1-21,66.1-58.4c0-44.7-43.8-58.8-79.9-71.3
		c-27.1,11.2-48.1,33.5-48.1,63.6C123.8,352,145.3,381.2,185.7,381.2z M210.2,221.8c24-9.4,36.1-31.3,36.1-56.7
		c0-33.5-20.2-60.6-56.3-60.6c-32.6,0-55.8,25.8-55.8,56.7C134.2,198.7,181.8,211.1,210.2,221.8L210.2,221.8z"/>
</g>
<g id="fili">
	<g class="st2">
		<g>
			<defs>
				<path id="SVGID_2_" d="M140,0h740c77.3,0,140,62.7,140,140v1140c0,77.3-62.7,140-140,140H140c-77.3,0-140-62.7-140-140V140
					C0,62.7,62.7,0,140,0z"/>
			</defs>
			<clipPath id="SVGID_3_">
				<use xlink:href="#SVGID_2_"  style="overflow:visible;"/>
			</clipPath>
			<g class="st3">
				<path id="path153-0-1-2-5-6-5-9-1-9-3" class="st1" d="M932.8,204.9c279.1,355,577.8,559.3,582.8,836.2
					c1.7,89.7-52.7,242.1-223,271.3c-110.5,18.8-262.6-60.9-265.8-222.9c0.6-32.3-38.3-31.4-37.9,12.8
					c5.2,127.8,50.6,276.6,126.8,397.7H750c76.2-121.1,121.6-269.9,126.8-397.7c0.6-44.2-38.4-45-37.9-12.8
					c-3.2,162-155.3,241.8-265.8,222.9c-170.3-29.2-224.7-181.6-223-271.3C355,764.2,653.7,559.9,932.8,204.9L932.8,204.9z"/>
			</g>
		</g>
	</g>
</g>
<g id="FAT_2">
	<path class="st4" d="M447.8,1067.2c0-70.1,47.9-116.6,99.5-137.7c-56.5-31.3-83.7-73.5-83.7-148.7c0-103.9,81.6-172.3,163.9-172.3
		c70.8,0,155.3,42.2,155.3,140.2c0,63.3-39.4,104.7-88,120.8c64.4,34.6,109.5,74.3,109.5,164.7c0,108.1-81.6,175.7-190.3,175.7
		C525.1,1210,447.8,1154.2,447.8,1067.2z M593.8,962.5c-5.7-3.4-11.4-9.3-19.3-9.3c-15,0-49.4,40.5-49.4,101.4
		c0,76,37.2,121.6,93.7,121.6c37.9,0,80.9-33.8,80.9-91.2c0-45.6-17.9-67.6-59.4-93.8L593.8,962.5z M626.7,642.4
		c-37.9,0-70.1,33.8-70.1,79.4c0,61.7,44.4,92.1,109.5,128.4c28.6-21.1,43.6-63.3,43.6-102.2C709.7,686.3,681.1,642.4,626.7,642.4
		L626.7,642.4z"/>
	<path class="st1" d="M447.8,1047.2c0-70.1,47.9-116.6,99.5-137.7c-56.5-31.3-83.7-73.5-83.7-148.7c0-103.9,81.6-172.3,163.9-172.3
		c70.8,0,155.3,42.2,155.3,140.2c0,63.3-39.4,104.7-88,120.8c64.4,34.6,109.5,74.3,109.5,164.7c0,108.1-81.6,175.7-190.3,175.7
		C525.1,1190,447.8,1134.2,447.8,1047.2z M593.8,942.5c-5.7-3.4-11.4-9.3-19.3-9.3c-15,0-49.4,40.5-49.4,101.4
		c0,76,37.2,121.6,93.7,121.6c37.9,0,80.9-33.8,80.9-91.2c0-45.6-17.9-67.6-59.4-93.8L593.8,942.5z M626.7,622.4
		c-37.9,0-70.1,33.8-70.1,79.4c0,61.7,44.4,92.1,109.5,128.4c28.6-21.1,43.6-63.3,43.6-102.2C709.7,666.3,681.1,622.4,626.7,622.4z"
		/>
</g>
</svg>
