<?xml version="1.0" encoding="utf-8"?>
<!-- Generator: Adobe Illustrator 24.1.2, SVG Export Plug-In . SVG Version: 6.00 Build 0)  -->
<svg version="1.1" id="Calque_1" xmlns="http://www.w3.org/2000/svg" xmlns:xlink="http://www.w3.org/1999/xlink" x="0px" y="0px"
	 viewBox="0 0 1020 1420" style="enable-background:new 0 0 1020 1420;" xml:space="preserve">
<style type="text/css">
	.st0{fill:url(#SVGID_1_);}
	.st1{fill:#FFFFFF;}
	.st2{opacity:0.1;}
	.st3{clip-path:url(#SVGID_3_);}
	.st4{fill:#090A0D;}
</style>
<g id="cartes">
	<g id="pique">

			<linearGradient id="SVGID_1_" gradientUnits="userSpaceOnUse" x1="510" y1="1420" x2="510" y2="0" gradientTransform="matrix(1 0 0 -1 0 1420)">
			<stop  offset="0" style="stop-color:#4E515B"/>
			<stop  offset="0.9" style="stop-color:#090A0D"/>
		</linearGradient>
		<path class="st0" d="M140,0h740c77.3,0,140,62.7,140,140v1140c0,77.3-62.7,140-140,140H140c-77.3,0-140-62.7-140-140V140
			C0,62.7,62.7,0,140,0z"/>
	</g>
</g>
<g id="index2">
	<path id="path153-0-1-2-5-6-5-9-1-9" class="st1" d="M190,467c43.8,55.7,90.7,87.8,91.5,131.3c0.3,14.1-8.3,38-35,42.6
		c-17.3,3-41.2-9.6-41.7-35c0.1-5.1-6-4.9-6,2c0.8,20.1,7.9,43.4,19.9,62.4h-57.4c12-19,19.1-42.4,19.9-62.4c0.1-6.9-6-7.1-6-2
		c-0.5,25.4-24.4,38-41.7,35c-26.7-4.6-35.3-28.5-35-42.6C99.3,554.8,146.2,522.8,190,467L190,467z"/>
	<path class="st1" d="M172.4,395.8c-39.5,0-78.6-21.5-78.6-67.4c0-22.3,10.7-38.2,30.5-38.2c14.6,0,24.9,11.2,24.9,24
		c0,13.3-11.2,24-23.2,24c-5.5-0.1-11-1.4-15.9-3.9c0.9,33.9,32.2,46.8,61.8,46.8c47.2,0,70.4-29.6,70.4-75.2
		c0-28.8-11.6-64-47.2-64c-9,0-18.5,2.6-27.1,2.6c-4.7,0-10.7-1.3-10.7-7.7c0-6,6.4-8.6,13.7-8.6c6.9,0,12,1.7,18.5,1.7
		c31.8,0,47.7-34.8,47.7-62.7c0-36.9-18.5-62.7-58-62.7c-27.9,0-57.1,12.5-60.1,43.8c3.9-2.3,8.4-3.5,12.9-3.4c12.5,0,21,9,21,22.8
		c0,15.9-10.7,25.3-25.3,25.3c-13.7,0-24.9-13.7-24.9-33.5c0-38.6,35.2-69.6,79.4-69.6c45.9,0,95.3,22.8,95.3,75.2
		c0,36.1-30.9,59.3-63.1,67.4v0.4c38.2,3.9,71.7,28.8,71.7,70C286.2,361,231.2,395.8,172.4,395.8z"/>
</g>
<g id="fili">
	<g class="st2">
		<g>
			<defs>
				<path id="SVGID_2_" d="M140,0h740c77.3,0,140,62.7,140,140v1140c0,77.3-62.7,140-140,140H140c-77.3,0-140-62.7-140-140V140
					C0,62.7,62.7,0,140,0z"/>
			</defs>
			<clipPath id="SVGID_3_">
				<use xlink:href="#SVGID_2_"  style="overflow:visible;"/>
			</clipPath>
			<g class="st3">
				<path id="path153-0-1-2-5-6-5-9-1-9-3" class="st1" d="M932.8,204.9c279.1,355,577.8,559.3,582.8,836.2
					c1.7,89.7-52.7,242.1-223,271.3c-110.5,18.8-262.6-60.9-265.8-222.9c0.6-32.3-38.3-31.4-37.9,12.8
					c5.2,127.8,50.6,276.6,126.8,397.7H750c76.2-121.1,121.6-269.9,126.8-397.7c0.6-44.2-38.4-45-37.9-12.8
					c-3.2,162-155.3,241.8-265.8,222.9c-170.3-29.2-224.7-181.6-223-271.3C355,764.2,653.7,559.9,932.8,204.9L932.8,204.9z"/>
			</g>
		</g>
	</g>
</g>
<g id="FAT_2">
	<path class="st4" d="M671.1,894.9c73.7,5.1,130.2,44.8,130.2,140.2S719.7,1210,606,1210c-93,0-155.3-55.7-155.3-137.7
		c0-44.8,29.3-83.6,63-83.6c35.8,0,57.2,28.7,57.2,63.3c0,43.1-22.9,61.7-51.5,61.7c-12.2,0-21.5-3.4-28.6-9.3
		c6.4,48.1,52.2,66.7,92.3,66.7c70.1,0,98-55.7,98-131.8c0-69.3-30.1-124.2-68-124.2c-17.9,0-32.2,5.9-45.1,5.9
		c-15.7,0-25.8-6.8-25.8-22c0-9.3,7.9-20.3,27.9-20.3c10.7,0,20.8,2.5,30.1,2.5c42.2,0,76.6-49.8,76.6-116.6s-32.9-112.3-82.3-112.3
		c-37.9,0-64.4,14.4-85.1,54.1l1.4,1.7c7.5-4.1,15.8-6.4,24.3-6.8c27.9,0,48.7,25.3,48.7,56.6c0,38-19.3,65-58,65
		c-31.5,0-56.5-27.9-56.5-73.5c0-94.6,83.7-141.1,154.6-141.1c93,0,167.4,64.2,167.4,149.5c0,83.6-55.8,127.5-120.2,136V894.9
		L671.1,894.9z"/>
	<path class="st1" d="M671.1,874.9c73.7,5.1,130.2,44.8,130.2,140.2S719.7,1190,606,1190c-93,0-155.3-55.7-155.3-137.7
		c0-44.8,29.3-83.6,63-83.6c35.8,0,57.2,28.7,57.2,63.3c0,43.1-22.9,61.7-51.5,61.7c-12.2,0-21.5-3.4-28.6-9.3
		c6.4,48.1,52.2,66.7,92.3,66.7c70.1,0,98-55.7,98-131.8c0-69.3-30.1-124.2-68-124.2c-17.9,0-32.2,5.9-45.1,5.9
		c-15.7,0-25.8-6.8-25.8-22c0-9.3,7.9-20.3,27.9-20.3c10.7,0,20.8,2.5,30.1,2.5c42.2,0,76.6-49.8,76.6-116.6s-32.9-112.3-82.3-112.3
		c-37.9,0-64.4,14.4-85.1,54.1l1.4,1.7c7.5-4.1,15.8-6.4,24.3-6.8c27.9,0,48.7,25.3,48.7,56.6c0,38-19.3,65-58,65
		c-31.5,0-56.5-27.9-56.5-73.5c0-94.6,83.7-141.1,154.6-141.1c93,0,167.4,64.2,167.4,149.5c0,83.6-55.8,127.5-120.2,136V874.9z"/>
</g>
</svg>
