<?xml version="1.0" encoding="utf-8"?>
<!-- Generator: Adobe Illustrator 24.1.2, SVG Export Plug-In . SVG Version: 6.00 Build 0)  -->
<svg version="1.1" id="Calque_1" xmlns="http://www.w3.org/2000/svg" xmlns:xlink="http://www.w3.org/1999/xlink" x="0px" y="0px"
	 viewBox="0 0 1020 1420" style="enable-background:new 0 0 1020 1420;" xml:space="preserve">
<style type="text/css">
	.st0{fill:url(#SVGID_1_);}
	.st1{fill:#FFFFFF;}
	.st2{opacity:0.1;}
	.st3{clip-path:url(#SVGID_3_);}
	.st4{fill:#090A0D;}
</style>
<g id="cartes">
	<g id="pique">

			<linearGradient id="SVGID_1_" gradientUnits="userSpaceOnUse" x1="510" y1="1420" x2="510" y2="0" gradientTransform="matrix(1 0 0 -1 0 1420)">
			<stop  offset="0" style="stop-color:#4E515B"/>
			<stop  offset="0.9" style="stop-color:#090A0D"/>
		</linearGradient>
		<path class="st0" d="M140,0h740c77.3,0,140,62.7,140,140v1140c0,77.3-62.7,140-140,140H140c-77.3,0-140-62.7-140-140V140
			C0,62.7,62.7,0,140,0z"/>
	</g>
</g>
<g id="index2">
	<path id="path153-0-1-2-5-6-5-9-1-9" class="st1" d="M190,467c43.8,55.7,90.7,87.8,91.5,131.3c0.3,14.1-8.3,38-35,42.6
		c-17.3,3-41.2-9.6-41.7-35c0.1-5.1-6-4.9-6,2c0.8,20.1,7.9,43.4,19.9,62.4h-57.4c12-19,19.1-42.4,19.9-62.4c0.1-6.9-6-7.1-6-2
		c-0.5,25.4-24.4,38-41.7,35c-26.7-4.6-35.3-28.5-35-42.6C99.3,554.8,146.2,522.8,190,467L190,467z"/>
	<path class="st1" d="M125.6,220.1l0.9,0.9c13.3-15,33.9-23.6,59.7-23.6c51.5,0,96.2,37.8,96.2,93.6c0,56.7-55.4,102.2-111.7,102.2
		c-39.9,0-73-26.2-73-67.9c0-23.6,11.2-36.9,29.2-36.9c13.7,0,23.6,9.9,23.6,23.2c0,18-12,24.9-24,24.9c-4.6-0.1-9.2-1.2-13.3-3.4
		c0,32.2,27.5,45.5,56.3,45.5c49.8,0,72.6-35.2,72.6-82.9c0-40.8-18-83.7-66.1-83.7c-31.3,0-50.7,15.9-54.1,44.7
		c-0.9,6.9-3.4,9.4-8.6,9.4s-6.9-3-6.9-7.3c0-7.3,2.1-15,3-22.8l13.3-146c23.2,4.3,47.2,9.4,80.3,9.4c24,0,40.8-3,64-9.4
		c-7.7,39.5-59.3,49.8-87.2,49.8c-16.7,0-32.2-3.4-45.5-6.9L125.6,220.1z"/>
</g>
<g id="fili">
	<g class="st2">
		<g>
			<defs>
				<path id="SVGID_2_" d="M140,0h740c77.3,0,140,62.7,140,140v1140c0,77.3-62.7,140-140,140H140c-77.3,0-140-62.7-140-140V140
					C0,62.7,62.7,0,140,0z"/>
			</defs>
			<clipPath id="SVGID_3_">
				<use xlink:href="#SVGID_2_"  style="overflow:visible;"/>
			</clipPath>
			<g class="st3">
				<path id="path153-0-1-2-5-6-5-9-1-9-3" class="st1" d="M932.8,204.9c279.1,355,577.8,559.3,582.8,836.2
					c1.7,89.7-52.7,242.1-223,271.3c-110.5,18.8-262.6-60.9-265.8-222.9c0.6-32.3-38.3-31.4-37.9,12.8
					c5.2,127.8,50.6,276.6,126.8,397.7H750c76.2-121.1,121.6-269.9,126.8-397.7c0.6-44.2-38.4-45-37.9-12.8
					c-3.2,162-155.3,241.8-265.8,222.9c-170.3-29.2-224.7-181.6-223-271.3C355,764.2,653.7,559.9,932.8,204.9L932.8,204.9z"/>
			</g>
		</g>
	</g>
</g>
<g id="FAT_2">
	<path class="st4" d="M504.7,618.7c47.2,11.8,94.5,20.3,143.1,20.3c39.4,0,83.7-4.2,120.2-20.3v16.9c0,84.5-68.7,126.7-153.1,126.7
		c-32.9,0-63.7-3.4-88-13.5L519,866.2c31.5-29.6,63-39.7,103-39.7c97.3,0,171.7,82.8,171.7,187.5c0,106.4-71.6,196-201.1,196
		c-66.5,0-134.5-49.8-134.5-128.4c0-46.5,22.9-82.8,60.8-82.8c36.5,0,53.7,27,53.7,60.8c0,37.2-23.6,59.1-53.7,59.1
		c-5.4-0.1-10.8-1.2-15.7-3.4l-1.4,1.7c12.9,32.1,47.2,59.1,79.4,59.1c60.8,0,92.3-64.2,92.3-174.8c0-81.9-30.1-130.9-75.8-130.9
		c-48.7,0-82.3,30.4-88,73.5c-2.1,16-7.2,25.3-17.2,25.3s-15.7-9.3-15.7-22.8c0-15.2,2.9-25.3,5.7-41.4L504.7,618.7z"/>
	<path class="st1" d="M504.7,598.7c47.2,11.8,94.5,20.3,143.1,20.3c39.4,0,83.7-4.2,120.2-20.3v16.9c0,84.5-68.7,126.7-153.1,126.7
		c-32.9,0-63.7-3.4-88-13.5L519,846.2c31.5-29.6,63-39.7,103-39.7c97.3,0,171.7,82.8,171.7,187.5c0,106.4-71.6,196-201.1,196
		c-66.5,0-134.5-49.8-134.5-128.4c0-46.5,22.9-82.8,60.8-82.8c36.5,0,53.7,27,53.7,60.8c0,37.2-23.6,59.1-53.7,59.1
		c-5.4-0.1-10.8-1.2-15.7-3.4l-1.4,1.7c12.9,32.1,47.2,59.1,79.4,59.1c60.8,0,92.3-64.2,92.3-174.8c0-81.9-30.1-130.9-75.8-130.9
		c-48.7,0-82.3,30.4-88,73.5c-2.1,16-7.2,25.3-17.2,25.3s-15.7-9.3-15.7-22.8c0-15.2,2.9-25.3,5.7-41.4L504.7,598.7z"/>
</g>
</svg>
