<?xml version="1.0" encoding="utf-8"?>
<!-- Generator: Adobe Illustrator 24.1.2, SVG Export Plug-In . SVG Version: 6.00 Build 0)  -->
<svg version="1.1" id="Calque_1" xmlns="http://www.w3.org/2000/svg" xmlns:xlink="http://www.w3.org/1999/xlink" x="0px" y="0px"
	 viewBox="0 0 1020 1420" style="enable-background:new 0 0 1020 1420;" xml:space="preserve">
<style type="text/css">
	.st0{fill:url(#SVGID_1_);}
	.st1{fill:#FFFFFF;}
	.st2{opacity:0.1;}
	.st3{clip-path:url(#SVGID_3_);}
	.st4{fill:#090A0D;}
</style>
<g id="cartes">
	<g id="trefle">

			<linearGradient id="SVGID_1_" gradientUnits="userSpaceOnUse" x1="510" y1="1420" x2="510" y2="0" gradientTransform="matrix(1 0 0 -1 0 1420)">
			<stop  offset="0" style="stop-color:#005539"/>
			<stop  offset="1" style="stop-color:#001205"/>
		</linearGradient>
		<path class="st0" d="M140,0h740c77.3,0,140,62.7,140,140v1140c0,77.3-62.7,140-140,140H140c-77.3,0-140-62.7-140-140V140
			C0,62.7,62.7,0,140,0z"/>
	</g>
</g>
<g id="index2">
	<path id="path147-6-9-8-7-0-5-0-8-3" class="st1" d="M190,467c-39.9,0.9-57.8,47.7-28.3,84c4.3,5.3,4.7,8.3-3.1,3.2
		c-19.9-13.8-58.1-4.7-60,37.6c-2.4,52.2,67.6,67.2,80.8,11.7c0.7-5.9,5.3-5.7,4.2,2.6c-1.2,22.5-8,43.6-17.3,64.2h47.5
		c-9.3-20.5-16.1-41.6-17.3-64.2c-1.1-8.3,3.5-8.4,4.2-2.6c13.2,55.5,83.2,40.4,80.8-11.7c-2-42.3-40.1-51.4-60-37.6
		c-7.9,5.1-7.4,2-3.1-3.2C247.8,514.7,229.9,467.9,190,467L190,467L190,467z"/>
	<path class="st1" d="M93.4,132.9c0-20.6-7.3-28.3-41.2-28.3V90h122v14.6c-29.6,0-36.9,7.7-36.9,28.3v120.2l92.8-104.8
		c12.5-13.7,18.9-21.5,18.9-33.1c0-8.2-11.6-10.7-35.2-10.7V90h108.2v14.6c-27.9,0-42.5,14.6-56.7,30.1l-67.9,73l82.9,134.4
		c12,19.8,19.8,28.8,47.7,28.8v14.6H209.7v-14.6c16.7,0,28.8-1.7,28.8-9.4c0-12.5-9.4-21.9-17.6-35.6l-51.5-84.6l-32.2,35.6v65.7
		c0,20.6,7.3,28.3,36.9,28.3v14.6h-122v-14.6c33.9,0,41.2-7.7,41.2-28.3L93.4,132.9z"/>
</g>
<g id="fili">
	<g class="st2">
		<g>
			<defs>
				<path id="SVGID_2_" d="M140,0h740c77.3,0,140,62.7,140,140v1140c0,77.3-62.7,140-140,140H140c-77.3,0-140-62.7-140-140V140
					C0,62.7,62.7,0,140,0z"/>
			</defs>
			<clipPath id="SVGID_3_">
				<use xlink:href="#SVGID_2_"  style="overflow:visible;"/>
			</clipPath>
			<g class="st3">
				<path id="path147-6-9-8-7-0-5-0-8-3-3" class="st1" d="M933.2,201.2c-255,5.8-369.4,304.5-180.5,536.5
					c27.4,33.8,30.2,53.3-20,20.8c-127.2-88.5-371-30.3-383.5,240.2c-15.4,333.3,432.2,429.3,516.2,74.9
					c4.4-37.4,33.6-36.5,26.6,16.5c-7.7,144-50.9,278.7-110.3,410h303.2c-59.4-131.3-102.7-265.9-110.3-410
					c-7-53.1,22.2-53.9,26.6-16.5c84,354.4,531.6,258.4,516.2-74.9c-12.5-270.5-256.3-328.6-383.5-240.2
					c-50.2,32.5-47.3,13.1-20-20.8c188.9-232,74.5-530.7-180.5-536.5L933.2,201.2L933.2,201.2z"/>
			</g>
		</g>
	</g>
</g>
<g id="FAT_2">
	<path class="st4" d="M362,628.9h249v33.8c-41.5,0-58.7,13.5-58.7,55.7v180.8L701.9,726c10-11.8,15-24.5,15-38
		c0-15.2-7.2-25.3-35.1-25.3h-25v-33.8H870v33.8c-55.1,8.4-66.5,13.5-95.2,45.6L663.2,832.4l158.1,308.3
		c12.2,24.5,32.9,35.5,68.7,35.5v33.8H645.3v-33.8c26.5-3.4,40.1-8.4,40.1-19.4s-5.7-22.8-107.3-227.2l-25.8,27.9v163
		c0,42.2,17.2,55.7,51.5,55.7v33.8H362v-33.8c53,0,70.1-13.5,70.1-55.7v-402c0-42.2-17.2-55.7-70.1-55.7V628.9z"/>
	<path class="st1" d="M362,608.9h249v33.8c-41.5,0-58.7,13.5-58.7,55.7v180.8L701.9,706c10-11.8,15-24.5,15-38
		c0-15.2-7.2-25.3-35.1-25.3h-25v-33.8H870v33.8c-55.1,8.4-66.5,13.5-95.2,45.6L663.2,812.4l158.1,308.3
		c12.2,24.5,32.9,35.5,68.7,35.5v33.8H645.3v-33.8c26.5-3.4,40.1-8.4,40.1-19.4s-5.7-22.8-107.3-227.2l-25.8,27.9v163
		c0,42.2,17.2,55.7,51.5,55.7v33.8H362v-33.8c53,0,70.1-13.5,70.1-55.7v-402c0-42.2-17.2-55.7-70.1-55.7V608.9z"/>
</g>
</svg>
