<?xml version="1.0" encoding="utf-8"?>
<!-- Generator: Adobe Illustrator 24.1.2, SVG Export Plug-In . SVG Version: 6.00 Build 0)  -->
<svg version="1.1" id="Calque_1" xmlns="http://www.w3.org/2000/svg" xmlns:xlink="http://www.w3.org/1999/xlink" x="0px" y="0px"
	 viewBox="0 0 1020 1420" style="enable-background:new 0 0 1020 1420;" xml:space="preserve">
<style type="text/css">
	.st0{fill:url(#SVGID_1_);}
	.st1{fill:#FFFFFF;}
	.st2{opacity:0.1;}
	.st3{clip-path:url(#SVGID_3_);}
	.st4{fill:#090A0D;}
</style>
<g id="cartes">
	<g id="trefle">

			<linearGradient id="SVGID_1_" gradientUnits="userSpaceOnUse" x1="510" y1="1420" x2="510" y2="0" gradientTransform="matrix(1 0 0 -1 0 1420)">
			<stop  offset="0" style="stop-color:#005539"/>
			<stop  offset="1" style="stop-color:#001205"/>
		</linearGradient>
		<path class="st0" d="M140,0h740c77.3,0,140,62.7,140,140v1140c0,77.3-62.7,140-140,140H140c-77.3,0-140-62.7-140-140V140
			C0,62.7,62.7,0,140,0z"/>
	</g>
</g>
<g id="index2">
	<path id="path147-6-9-8-7-0-5-0-8-3" class="st1" d="M190,467c-39.9,0.9-57.8,47.7-28.3,84c4.3,5.3,4.7,8.3-3.1,3.2
		c-19.9-13.8-58.1-4.7-60,37.6c-2.4,52.2,67.6,67.2,80.8,11.7c0.7-5.9,5.3-5.7,4.2,2.6c-1.2,22.5-8,43.6-17.3,64.2h47.5
		c-9.3-20.5-16.1-41.6-17.3-64.2c-1.1-8.3,3.5-8.4,4.2-2.6c13.2,55.5,83.2,40.4,80.8-11.7c-2-42.3-40.1-51.4-60-37.6
		c-7.9,5.1-7.4,2-3.1-3.2C247.8,514.7,229.9,467.9,190,467L190,467L190,467z"/>
	<path class="st1" d="M187.8,90c70,0,97.1,75.2,97.1,134.4c0,101.8-52.4,171.3-114.7,171.3c-39.9,0-68.7-21.9-68.7-55.4
		c0-20.6,10.3-31.3,25.8-31.3c14.6,0,24,9.9,24,24.9c0,14.6-9.4,23.2-20.2,23.2c-3.8,0.1-7.6-0.5-11.2-1.7
		c7.3,17.2,33.9,25.8,51.1,25.8c55.8,0,70-61,70-106.1c0-7.7-0.4-15.9-0.4-23.2h-0.9c-10.7,23.6-32.6,33.9-60.1,33.9
		c-50.7,0-84.6-46.8-84.6-90.6C95.1,140.2,129,90,187.8,90z M241.1,186.6c0-67.8-24-82-52.8-82s-52.8,14.2-52.8,82
		c0,69.1,24,84.6,52.8,84.6S241.1,255.8,241.1,186.6L241.1,186.6z"/>
</g>
<g id="fili">
	<g class="st2">
		<g>
			<defs>
				<path id="SVGID_2_" d="M140,0h740c77.3,0,140,62.7,140,140v1140c0,77.3-62.7,140-140,140H140c-77.3,0-140-62.7-140-140V140
					C0,62.7,62.7,0,140,0z"/>
			</defs>
			<clipPath id="SVGID_3_">
				<use xlink:href="#SVGID_2_"  style="overflow:visible;"/>
			</clipPath>
			<g class="st3">
				<path id="path147-6-9-8-7-0-5-0-8-3-3" class="st1" d="M933.2,201.2c-255,5.8-369.4,304.5-180.5,536.5
					c27.4,33.8,30.2,53.3-20,20.8c-127.2-88.5-371-30.3-383.5,240.2c-15.4,333.3,432.2,429.3,516.2,74.9
					c4.4-37.4,33.6-36.5,26.6,16.5c-7.7,144-50.9,278.7-110.3,410h303.2c-59.4-131.3-102.7-265.9-110.3-410
					c-7-53.1,22.2-53.9,26.6-16.5c84,354.4,531.6,258.4,516.2-74.9c-12.5-270.5-256.3-328.6-383.5-240.2
					c-50.2,32.5-47.3,13.1-20-20.8c188.9-232,74.5-530.7-180.5-536.5L933.2,201.2L933.2,201.2z"/>
			</g>
		</g>
	</g>
</g>
<g id="FAT_2">
	<path class="st4" d="M620.3,608.6c120.9,0,179.6,135.1,179.6,278.7c0,167.2-65.1,322.6-225.4,322.6c-68.7,0-115.9-41.4-115.9-100.5
		c0-39.7,23.6-68.4,58-68.4c26.5,0,52.2,27,52.2,57.4c0,43.9-20.8,59.1-52.2,59.1v1.7c10.7,8.4,31.5,16.9,53.7,16.9
		c83,0,109.5-65.9,109.5-152.9v-78.6h-1.4c-18.6,28.7-51.5,45.6-83,45.6c-84.4,0-143.1-79.4-143.1-175.7
		C452.1,699,518.7,608.6,620.3,608.6z M617.4,951.5c37.2,0,62.3-49.8,62.3-125c0-141.9-15.7-184.1-56.5-184.1s-50.8,50.7-50.8,146.1
		C572.3,916.1,589.5,951.5,617.4,951.5z"/>
	<path class="st1" d="M620.3,588.6c120.9,0,179.6,135.1,179.6,278.7c0,167.2-65.1,322.7-225.4,322.7c-68.7,0-115.9-41.4-115.9-100.5
		c0-39.7,23.6-68.4,58-68.4c26.5,0,52.2,27,52.2,57.4c0,43.9-20.8,59.1-52.2,59.1v1.7c10.7,8.4,31.5,16.9,53.7,16.9
		c83,0,109.5-65.9,109.5-152.9v-78.6h-1.4c-18.6,28.7-51.5,45.6-83,45.6c-84.4,0-143.1-79.4-143.1-175.7
		C452.1,679,518.7,588.6,620.3,588.6z M617.4,931.5c37.2,0,62.3-49.8,62.3-125c0-141.9-15.7-184.1-56.5-184.1s-50.8,50.7-50.8,146.1
		C572.3,896.1,589.5,931.5,617.4,931.5L617.4,931.5z"/>
</g>
</svg>
