<?xml version="1.0" encoding="utf-8"?>
<!-- Generator: Adobe Illustrator 24.1.2, SVG Export Plug-In . SVG Version: 6.00 Build 0)  -->
<svg version="1.1" id="Calque_1" xmlns="http://www.w3.org/2000/svg" xmlns:xlink="http://www.w3.org/1999/xlink" x="0px" y="0px"
	 viewBox="0 0 1020 1420" style="enable-background:new 0 0 1020 1420;" xml:space="preserve">
<style type="text/css">
	.st0{fill:url(#SVGID_1_);}
	.st1{fill:#FFFFFF;}
	.st2{opacity:0.1;}
	.st3{clip-path:url(#SVGID_5_);}
	.st4{fill:#090A0D;}
</style>
<g id="cartes">
	<g id="trefle">

			<linearGradient id="SVGID_1_" gradientUnits="userSpaceOnUse" x1="510" y1="1420" x2="510" y2="0" gradientTransform="matrix(1 0 0 -1 0 1420)">
			<stop  offset="0" style="stop-color:#005539"/>
			<stop  offset="1" style="stop-color:#001205"/>
		</linearGradient>
		<path class="st0" d="M140,0h740c77.3,0,140,62.7,140,140v1140c0,77.3-62.7,140-140,140H140c-77.3,0-140-62.7-140-140V140
			C0,62.7,62.7,0,140,0z"/>
	</g>
</g>
<g id="index2">
	<path id="path147-6-9-8-7-0-5-0-8-3" class="st1" d="M190,467c-39.9,0.9-57.8,47.7-28.3,84c4.3,5.3,4.7,8.3-3.1,3.2
		c-19.9-13.8-58.1-4.7-60,37.6c-2.4,52.2,67.6,67.2,80.8,11.7c0.7-5.9,5.3-5.7,4.2,2.6c-1.2,22.5-8,43.6-17.3,64.2h47.5
		c-9.3-20.5-16.1-41.6-17.3-64.2c-1.1-8.3,3.5-8.4,4.2-2.6c13.2,55.5,83.2,40.4,80.8-11.7c-2-42.3-40.1-51.4-60-37.6
		c-7.9,5.1-7.4,2-3.1-3.2C247.8,514.7,229.9,467.9,190,467L190,467L190,467z"/>
	<path class="st1" d="M60.6,118.6c27,0,48.5-12.1,58.5-26h9.3v251.8c0,24.2,8.3,33.8,41.5,33.8v14.7H54.4v-14.7
		c33.2,0,41.5-9.5,41.5-33.8V152.3c0-13-6.9-19-35.3-19L60.6,118.6z"/>
	<path class="st1" d="M325.6,244c0,93.5-34.6,154-76.2,154s-76.2-60.6-76.2-154s34.6-154,76.2-154S325.6,150.6,325.6,244z
		 M290.3,244c0-105.1-13.8-139.3-40.8-139.3s-40.8,34.2-40.8,139.3s13.8,139.3,40.8,139.3S290.3,349.2,290.3,244L290.3,244z"/>
</g>
<g id="fili">
	<g class="st2">
		<g>
			<defs>
				<path id="SVGID_2_" d="M-900,0h740C-82.7,0-20,62.7-20,140v1140c0,77.3-62.7,140-140,140h-740c-77.3,0-140-62.7-140-140V140
					C-1040,62.7-977.3,0-900,0z"/>
			</defs>
			<clipPath id="SVGID_3_">
				<use xlink:href="#SVGID_2_"  style="overflow:visible;"/>
			</clipPath>
		</g>
		<g>
			<defs>
				<path id="SVGID_4_" d="M140,0h740c77.3,0,140,62.7,140,140v1140c0,77.3-62.7,140-140,140H140c-77.3,0-140-62.7-140-140V140
					C0,62.7,62.7,0,140,0z"/>
			</defs>
			<clipPath id="SVGID_5_">
				<use xlink:href="#SVGID_4_"  style="overflow:visible;"/>
			</clipPath>
			<g class="st3">
				<path id="path147-6-9-8-7-0-5-0-8-3-3" class="st1" d="M933.2,201.2c-255,5.8-369.4,304.5-180.5,536.5
					c27.4,33.8,30.2,53.3-20,20.8c-127.2-88.5-371-30.3-383.5,240.2c-15.4,333.3,432.2,429.3,516.2,74.9
					c4.4-37.4,33.6-36.5,26.6,16.5c-7.7,144-50.9,278.7-110.3,410h303.2c-59.4-131.3-102.7-265.9-110.3-410
					c-7-53.1,22.2-53.9,26.6-16.5c84,354.4,531.6,258.4,516.2-74.9c-12.5-270.5-256.3-328.6-383.5-240.2
					c-50.2,32.5-47.3,13.1-20-20.8c188.9-232,74.5-530.7-180.5-536.5L933.2,201.2L933.2,201.2z"/>
			</g>
		</g>
	</g>
</g>
<g id="FAT_2">
	<path class="st4" d="M524,1091.7V613.7h-38.2c-35.1,33.8-56.1,45.6-124.5,47.3v38.9c60.4,0,67.8,6.8,67.8,43.9v348
		c0,54.9-7.4,70.9-80.7,74.3v33.8h255.7v-33.8C531.4,1162.7,524,1146.6,524,1091.7z"/>
	<path class="st4" d="M747.7,608.6c-96.7,0-155.9,126.7-155.9,300.7S651,1210,747.7,1210s155.9-126.7,155.9-300.7
		S844.5,608.6,747.7,608.6z M747.1,1176.2c-44.4,0-56.7-106.4-56.7-266.9s14.2-266.9,56.7-266.9c44.4,0,57.9,106.4,57.9,266.9
		S791.5,1176.2,747.1,1176.2L747.1,1176.2z"/>
	<path class="st1" d="M524,1071.7V593.7h-38.2c-35.1,33.8-56.1,45.6-124.5,47.3v38.9c60.4,0,67.8,6.8,67.8,43.9v348
		c0,54.9-7.4,70.9-80.7,74.3v33.8h255.7v-33.8C531.4,1142.7,524,1126.6,524,1071.7z"/>
	<path class="st1" d="M747.7,588.6c-96.7,0-155.9,126.7-155.9,300.7S651,1190,747.7,1190s155.9-126.7,155.9-300.7
		S844.5,588.6,747.7,588.6z M747.1,1156.2c-44.4,0-56.7-106.4-56.7-266.9s14.2-266.9,56.7-266.9c44.4,0,57.9,106.4,57.9,266.9
		S791.5,1156.2,747.1,1156.2z"/>
</g>
</svg>
