<?xml version="1.0" encoding="utf-8"?>
<!-- Generator: Adobe Illustrator 24.1.2, SVG Export Plug-In . SVG Version: 6.00 Build 0)  -->
<svg version="1.1" id="Calque_1" xmlns="http://www.w3.org/2000/svg" xmlns:xlink="http://www.w3.org/1999/xlink" x="0px" y="0px"
	 viewBox="0 0 1020 1420" style="enable-background:new 0 0 1020 1420;" xml:space="preserve">
<style type="text/css">
	.st0{fill:url(#SVGID_1_);}
	.st1{fill:#FFFFFF;}
	.st2{opacity:0.1;}
	.st3{clip-path:url(#SVGID_3_);}
	.st4{fill:#090A0D;}
</style>
<g id="cartes">
	<g id="trefle">

			<linearGradient id="SVGID_1_" gradientUnits="userSpaceOnUse" x1="510" y1="1420" x2="510" y2="0" gradientTransform="matrix(1 0 0 -1 0 1420)">
			<stop  offset="0" style="stop-color:#005539"/>
			<stop  offset="1" style="stop-color:#001205"/>
		</linearGradient>
		<path class="st0" d="M140,0h740c77.3,0,140,62.7,140,140v1140c0,77.3-62.7,140-140,140H140c-77.3,0-140-62.7-140-140V140
			C0,62.7,62.7,0,140,0z"/>
	</g>
</g>
<g id="index2">
	<path id="path147-6-9-8-7-0-5-0-8-3" class="st1" d="M190,467c-39.9,0.9-57.8,47.7-28.3,84c4.3,5.3,4.7,8.3-3.1,3.2
		c-19.9-13.8-58.1-4.7-60,37.6c-2.4,52.2,67.6,67.2,80.8,11.7c0.7-5.9,5.3-5.7,4.2,2.6c-1.2,22.5-8,43.6-17.3,64.2h47.5
		c-9.3-20.5-16.1-41.6-17.3-64.2c-1.1-8.3,3.5-8.4,4.2-2.6c13.2,55.5,83.2,40.4,80.8-11.7c-2-42.3-40.1-51.4-60-37.6
		c-7.9,5.1-7.4,2-3.1-3.2C247.8,514.7,229.9,467.9,190,467L190,467L190,467z"/>
	<path class="st1" d="M287.9,90v14.6c-34.8,0-42.1,7.7-42.1,28.3v186.8c0,45.1-29.2,70.9-88,70.9c-42.5,0-65.7-27.5-65.7-58
		c0-17.6,10.7-35.6,28.8-35.6c19.3,0,29.2,6.9,29.2,25.3c0,15-11.2,25.3-23.2,25.3c-6.9,0-12.9-0.9-16.7-2.6
		c1.7,18.5,27.1,30.9,43.4,30.9c32.2,0,48.5-17.6,48.5-49.4V132.9c0-20.6-7.3-28.3-42.1-28.3V90L287.9,90z"/>
</g>
<g id="fili">
	<g class="st2">
		<g>
			<defs>
				<path id="SVGID_2_" d="M140,0h740c77.3,0,140,62.7,140,140v1140c0,77.3-62.7,140-140,140H140c-77.3,0-140-62.7-140-140V140
					C0,62.7,62.7,0,140,0z"/>
			</defs>
			<clipPath id="SVGID_3_">
				<use xlink:href="#SVGID_2_"  style="overflow:visible;"/>
			</clipPath>
			<g class="st3">
				<path id="path147-6-9-8-7-0-5-0-8-3-3" class="st1" d="M933.2,201.2c-255,5.8-369.4,304.5-180.5,536.5
					c27.4,33.8,30.2,53.3-20,20.8c-127.2-88.5-371-30.3-383.5,240.2c-15.4,333.3,432.2,429.3,516.2,74.9
					c4.4-37.4,33.6-36.5,26.6,16.5c-7.7,144-50.9,278.7-110.3,410h303.2c-59.4-131.3-102.7-265.9-110.3-410
					c-7-53.1,22.2-53.9,26.6-16.5c84,354.4,531.6,258.4,516.2-74.9c-12.5-270.5-256.3-328.6-383.5-240.2
					c-50.2,32.5-47.3,13.1-20-20.8c188.9-232,74.5-530.7-180.5-536.5L933.2,201.2L933.2,201.2z"/>
			</g>
		</g>
	</g>
</g>
<g id="FAT_2">
	<path class="st4" d="M756.2,1017.4c0,132.6-48.7,192.6-180.3,192.6c-88.7,0-147.4-59.1-147.4-132.6c0-51.5,23.6-92.1,69.4-92.1
		c32.2,0,65.1,22.8,65.1,71.8c0,36.3-20,66.7-53.7,66.7c-12.2,0-22.2-1.7-33.6-10.1c9.3,39.7,52.2,57.4,78.7,57.4
		c49.4,0,81.6-30.4,81.6-86.2V708.3c0-42.2-17.2-55.7-74.4-55.7v-33.8h261.9v33.8c-50.1,0-67.3,13.5-67.3,55.7L756.2,1017.4z"/>
	<path class="st1" d="M756.2,997.4c0,132.6-48.7,192.6-180.3,192.6c-88.7,0-147.4-59.1-147.4-132.6c0-51.5,23.6-92.1,69.4-92.1
		c32.2,0,65.1,22.8,65.1,71.8c0,36.3-20,66.7-53.7,66.7c-12.2,0-22.2-1.7-33.6-10.1c9.3,39.7,52.2,57.4,78.7,57.4
		c49.4,0,81.6-30.4,81.6-86.2V688.3c0-42.2-17.2-55.7-74.4-55.7v-33.8h261.9v33.8c-50.1,0-67.3,13.5-67.3,55.7L756.2,997.4z"/>
</g>
</svg>
