<?xml version="1.0" encoding="utf-8"?>
<!-- Generator: Adobe Illustrator 24.1.2, SVG Export Plug-In . SVG Version: 6.00 Build 0)  -->
<svg version="1.1" id="Calque_1" xmlns="http://www.w3.org/2000/svg" xmlns:xlink="http://www.w3.org/1999/xlink" x="0px" y="0px"
	 viewBox="0 0 1020 1420" style="enable-background:new 0 0 1020 1420;" xml:space="preserve">
<style type="text/css">
	.st0{fill:url(#SVGID_1_);}
	.st1{fill:#FFFFFF;}
	.st2{opacity:0.1;}
	.st3{clip-path:url(#SVGID_3_);}
	.st4{fill:#090A0D;}
</style>
<g id="cartes">
	<g id="trefle">

			<linearGradient id="SVGID_1_" gradientUnits="userSpaceOnUse" x1="510" y1="1420" x2="510" y2="0" gradientTransform="matrix(1 0 0 -1 0 1420)">
			<stop  offset="0" style="stop-color:#005539"/>
			<stop  offset="1" style="stop-color:#001205"/>
		</linearGradient>
		<path class="st0" d="M140,0h740c77.3,0,140,62.7,140,140v1140c0,77.3-62.7,140-140,140H140c-77.3,0-140-62.7-140-140V140
			C0,62.7,62.7,0,140,0z"/>
	</g>
</g>
<g id="index2">
	<path id="path147-6-9-8-7-0-5-0-8-3" class="st1" d="M190,467c-39.9,0.9-57.8,47.7-28.3,84c4.3,5.3,4.7,8.3-3.1,3.2
		c-19.9-13.8-58.1-4.7-60,37.6c-2.4,52.2,67.6,67.2,80.8,11.7c0.7-5.9,5.3-5.7,4.2,2.6c-1.2,22.5-8,43.6-17.3,64.2h47.5
		c-9.3-20.5-16.1-41.6-17.3-64.2c-1.1-8.3,3.5-8.4,4.2-2.6c13.2,55.5,83.2,40.4,80.8-11.7c-2-42.3-40.1-51.4-60-37.6
		c-7.9,5.1-7.4,2-3.1-3.2C247.8,514.7,229.9,467.9,190,467L190,467L190,467z"/>
	<path class="st1" d="M98.5,390.6c0-94,141.7-134,141.7-220.7c0-39.5-21.5-65.3-60.6-65.3c-33.5,0-58,21-61.4,54.5
		c4.3-2.1,8.6-4.7,15.5-4.7c11.6,0,22.3,6.9,22.3,24.9c0,12.5-9,24.9-25.3,24.9c-17.6,0-27.1-12.9-27.1-37.4
		c0-47.7,40.8-76.9,85.9-76.9c46.8,0,91,26.6,91,77.3c0,90.6-127.5,111.2-158,188.1h90.2c37.8,0,52.4-13.7,57.5-55h11.2l-3.4,90.2
		L98.5,390.6z"/>
</g>
<g id="fili">
	<g class="st2">
		<g>
			<defs>
				<path id="SVGID_2_" d="M140,0h740c77.3,0,140,62.7,140,140v1140c0,77.3-62.7,140-140,140H140c-77.3,0-140-62.7-140-140V140
					C0,62.7,62.7,0,140,0z"/>
			</defs>
			<clipPath id="SVGID_3_">
				<use xlink:href="#SVGID_2_"  style="overflow:visible;"/>
			</clipPath>
			<g class="st3">
				<path id="path147-6-9-8-7-0-5-0-8-3-2" class="st1" d="M933.2,201.2c-255,5.8-369.4,304.5-180.5,536.5
					c27.4,33.8,30.2,53.3-20,20.8c-127.2-88.5-371-30.3-383.5,240.2c-15.4,333.3,432.2,429.3,516.2,74.9
					c4.4-37.4,33.6-36.5,26.6,16.5c-7.7,144-50.9,278.7-110.3,410h303.2c-59.4-131.3-102.7-265.9-110.3-410
					c-7-53.1,22.2-53.9,26.6-16.5c84,354.4,531.6,258.4,516.2-74.9c-12.5-270.5-256.3-328.6-383.5-240.2
					c-50.2,32.5-47.3,13.1-20-20.8c188.9-232,74.5-530.7-180.5-536.5L933.2,201.2L933.2,201.2z"/>
			</g>
		</g>
	</g>
</g>
<g id="FAT_2">
	<path class="st4" d="M794.5,987l-10.7,223H457.5c0-18.6,3.6-61.7,9.3-72.6c116.6-223.8,206.8-244.9,206.8-367.4
		c0-59.1-28.6-107.3-82.3-107.3c-40.8,0-77.3,32.9-92.3,74.3l1.4,1.7c7.9-5.9,18.6-8.4,29.3-8.4c27.2,0,47.9,27,47.9,58.3
		c0,41.4-22.9,68.4-54.4,68.4c-37.9,0-60.1-36.3-60.1-79.4c0-103.9,85.9-158.8,165.3-158.8c86.6,0,159.6,58.3,159.6,161.3
		c0,157.9-155.3,162.2-264.8,313.4H655c83,0,104.5-30.4,113.1-106.4L794.5,987z"/>
	<path class="st1" d="M794.5,967l-10.7,223H457.5c0-18.6,3.6-61.7,9.3-72.6c116.6-223.8,206.8-244.9,206.8-367.4
		c0-59.1-28.6-107.3-82.3-107.3c-40.8,0-77.3,32.9-92.3,74.3l1.4,1.7c7.9-5.9,18.6-8.4,29.3-8.4c27.2,0,47.9,27,47.9,58.3
		c0,41.4-22.9,68.4-54.4,68.4c-37.9,0-60.1-36.3-60.1-79.4c0-103.9,85.9-158.8,165.3-158.8c86.6,0,159.6,58.3,159.6,161.3
		c0,157.9-155.3,162.2-264.8,313.4H655c83,0,104.5-30.4,113.1-106.4L794.5,967z"/>
</g>
</svg>
