<svg xmlns="http://www.w3.org/2000/svg" xmlns:xlink="http://www.w3.org/1999/xlink" viewBox="0 0 1020 920"><defs><linearGradient id="Dégradé_sans_nom_216" x1="510" x2="510" y2="1420" gradientUnits="userSpaceOnUse"><stop offset="0" stop-color="#005484"/><stop offset="1" stop-color="#000013"/></linearGradient></defs><g id="cartes"><rect width="1020" height="1420" rx="140" fill="url(#Dégradé_sans_nom_216)"/></g><g id="index2"><path id="path6403-1" d="M189.98,467.029c21.966,36.274,45.074,71.531,73.952,101.648-28.878,30.116-51.986,65.373-73.952,101.648-21.965-36.275-45.074-71.532-73.953-101.648C144.906,538.56,168.014,503.3,189.98,467.029Z" fill="#fff"/><path d="M98.51,390.609c0-94.046,141.714-133.983,141.714-220.729,0-39.508-21.472-65.274-60.551-65.274-33.5,0-57.973,21.043-61.408,54.538,4.294-2.147,8.588-4.723,15.459-4.723,11.6,0,22.331,6.871,22.331,24.907,0,12.453-9.018,24.907-25.337,24.907-17.607,0-27.054-12.883-27.054-37.361,0-47.667,40.8-76.868,85.886-76.868,46.809,0,91.04,26.625,91.04,77.3,0,90.61-127.541,111.223-158.031,188.092H212.74c37.79,0,52.391-13.742,57.544-54.968h11.165l-3.435,90.181Z" fill="#fff"/></g><g id="FILI"><g opacity="0.1"><path d="M1020,1164.286V575.393C938.066,461.138,862.392,341.307,788.737,219.677,648.24,451.7,500.433,677.2,315.721,869.842,473.764,1034.66,604.785,1223.556,727.329,1420h122.82C904.553,1332.79,960.632,1247.073,1020,1164.286Z" fill="#fff"/></g></g><g id="FAT_2" data-name="FAT 2"><path d="M794.519,987l-10.733,222.983H457.5c0-18.582,3.579-61.658,9.3-72.639C583.432,913.521,673.591,892.405,673.591,769.934c0-59.125-28.622-107.269-82.288-107.269-40.786,0-77.279,32.941-92.3,74.328l1.431,1.689c7.871-5.912,18.6-8.446,29.337-8.446,27.191,0,47.942,27.028,47.942,58.279,0,41.388-22.9,68.416-54.382,68.416-37.924,0-60.106-36.319-60.106-79.4,0-103.889,85.866-158.79,165.292-158.79,86.581,0,159.567,58.279,159.567,161.324,0,157.946-155.274,162.17-264.753,313.359H654.987c83,0,104.47-30.407,113.057-106.424Z" fill="#090a0d"/><path d="M794.519,967l-10.733,222.983H457.5c0-18.582,3.579-61.659,9.3-72.639C583.432,893.52,673.591,872.4,673.591,749.932c0-59.124-28.622-107.268-82.288-107.268-40.786,0-77.279,32.941-92.3,74.328l1.431,1.689c7.871-5.912,18.6-8.446,29.337-8.446,27.191,0,47.942,27.028,47.942,58.279,0,41.387-22.9,68.416-54.382,68.416-37.924,0-60.106-36.32-60.106-79.4,0-103.89,85.866-158.791,165.292-158.791,86.581,0,159.567,58.28,159.567,161.325,0,157.946-155.274,162.169-264.753,313.358H654.987c83,0,104.47-30.407,113.057-106.423Z" fill="#fff"/></g></svg>
