<svg xmlns="http://www.w3.org/2000/svg" xmlns:xlink="http://www.w3.org/1999/xlink" viewBox="0 0 1020 920"><defs><linearGradient id="Dégradé_sans_nom_219" x1="510" x2="510" y2="1420" gradientUnits="userSpaceOnUse"><stop offset="0" stop-color="#4e515b"/><stop offset="0.9" stop-color="#090a0d"/></linearGradient></defs><g id="cartes"><rect width="1020" height="1420" rx="140" fill="url(#Dégradé_sans_nom_219)"/><rect width="1020" height="1420" rx="140" fill="url(#Dégradé_sans_nom_219)"/></g><g id="index2"><path id="path153-0-1-2-5-6-5-9-1-9" d="M189.98,467.03c43.816,55.724,90.7,87.792,91.477,131.266.264,14.078-8.273,38.006-35.007,42.586-17.344,2.957-41.223-9.562-41.722-35,.1-5.064-6.011-4.932-5.955,2.006.813,20.062,7.938,43.419,19.906,62.432h-57.4c11.968-19.013,19.089-42.37,19.905-62.432.1-6.938-6.031-7.07-5.954-2.006-.5,25.433-24.379,37.952-41.723,34.994C106.776,636.3,98.241,612.374,98.5,598.3c.783-43.474,47.661-75.542,91.476-131.267Z" fill="#fff"/><path d="M98.51,390.609c0-94.046,141.714-133.983,141.714-220.729,0-39.508-21.472-65.274-60.551-65.274-33.5,0-57.973,21.043-61.408,54.538,4.294-2.147,8.588-4.723,15.459-4.723,11.6,0,22.331,6.871,22.331,24.907,0,12.453-9.018,24.907-25.337,24.907-17.607,0-27.054-12.883-27.054-37.361,0-47.667,40.8-76.868,85.886-76.868,46.809,0,91.04,26.625,91.04,77.3,0,90.61-127.541,111.223-158.031,188.092H212.74c37.79,0,52.391-13.742,57.544-54.968h11.165l-3.435,90.181Z" fill="#fff"/></g><g id="FILI"><g opacity="0.1"><path d="M794.081,1420H880c75.375,0,137.324-60.371,139.906-135.145-18.065-62.149-28.714-124.527-31.067-182.574-.261-32.08,20.179-41.312,31.161-31.633V310.792c-29.036-33.842-58.212-69.052-87.178-105.89h0c-279.126,355-577.769,559.284-582.757,836.242-1.664,89.682,52.705,242.113,223.011,271.291,110.492,18.841,262.621-60.91,265.795-222.934-.486-32.258,38.583-31.421,37.935,12.781C872.7,1203.088,843.6,1316.953,794.081,1420Z" fill="#fff"/></g></g><g id="FAT_2" data-name="FAT 2"><path d="M794.519,987l-10.733,222.983H457.5c0-18.582,3.579-61.658,9.3-72.639C583.432,913.521,673.591,892.405,673.591,769.934c0-59.125-28.622-107.269-82.288-107.269-40.786,0-77.279,32.941-92.3,74.328l1.431,1.689c7.871-5.912,18.6-8.446,29.337-8.446,27.191,0,47.942,27.028,47.942,58.279,0,41.388-22.9,68.416-54.382,68.416-37.924,0-60.106-36.319-60.106-79.4,0-103.889,85.866-158.79,165.292-158.79,86.581,0,159.567,58.279,159.567,161.324,0,157.946-155.274,162.17-264.753,313.359H654.987c83,0,104.47-30.407,113.057-106.424Z" fill="#090a0d"/><path d="M794.519,967l-10.733,222.983H457.5c0-18.582,3.579-61.659,9.3-72.639C583.432,893.52,673.591,872.4,673.591,749.932c0-59.124-28.622-107.268-82.288-107.268-40.786,0-77.279,32.941-92.3,74.328l1.431,1.689c7.871-5.912,18.6-8.446,29.337-8.446,27.191,0,47.942,27.028,47.942,58.279,0,41.387-22.9,68.416-54.382,68.416-37.924,0-60.106-36.32-60.106-79.4,0-103.89,85.866-158.791,165.292-158.791,86.581,0,159.567,58.28,159.567,161.325,0,157.946-155.274,162.169-264.753,313.358H654.987c83,0,104.47-30.407,113.057-106.423Z" fill="#fff"/></g></svg>
