<svg xmlns="http://www.w3.org/2000/svg" xmlns:xlink="http://www.w3.org/1999/xlink" viewBox="0 0 1020 920"><defs><linearGradient id="Dégradé_sans_nom_208" x1="510" x2="510" y2="1420" gradientUnits="userSpaceOnUse"><stop offset="0" stop-color="#005539"/><stop offset="1" stop-color="#001205"/></linearGradient></defs><g id="cartes"><rect width="1020" height="1420" rx="140" fill="url(#Dégradé_sans_nom_208)"/></g><g id="index2"><path id="path147-6-9-8-7-0-5-0-8-3" d="M189.965,467.029c-39.92.9-57.821,47.662-28.256,83.973,4.289,5.3,4.731,8.335-3.123,3.248-19.906-13.848-58.073-4.745-60.028,37.591-2.414,52.164,67.646,67.194,80.8,11.725.691-5.852,5.266-5.718,4.163,2.588-1.2,22.547-7.967,43.62-17.269,64.17h47.456c-9.3-20.55-16.071-41.623-17.27-64.17-1.1-8.307,3.47-8.44,4.164-2.588,13.154,55.468,83.214,40.438,80.8-11.725-1.954-42.336-40.122-51.439-60.028-37.591-7.853,5.087-7.411,2.048-3.122-3.248,29.565-36.312,11.664-83.071-28.255-83.973h-.031Z" fill="#fff"/><path d="M172.373,395.762c-39.508,0-78.586-21.471-78.586-67.421,0-22.33,10.736-38.219,30.49-38.219,14.6,0,24.906,11.165,24.906,24.048,0,13.312-11.165,24.048-23.189,24.048a36.122,36.122,0,0,1-15.889-3.865c.859,33.926,32.207,46.809,61.839,46.809,47.237,0,70.427-29.631,70.427-75.151,0-28.772-11.595-63.986-47.238-63.986-9.018,0-18.466,2.577-27.054,2.577-4.724,0-10.736-1.289-10.736-7.73,0-6.012,6.441-8.589,13.742-8.589,6.871,0,12.024,1.718,18.465,1.718,31.778,0,47.667-34.784,47.667-62.7,0-36.932-18.465-62.7-57.973-62.7-27.913,0-57.115,12.454-60.121,43.8a25.031,25.031,0,0,1,12.883-3.436c12.454,0,21.043,9.018,21.043,22.76,0,15.889-10.737,25.337-25.337,25.337-13.742,0-24.907-13.742-24.907-33.5,0-38.649,35.213-69.568,79.445-69.568,45.949,0,95.334,22.76,95.334,75.151,0,36.072-30.919,59.261-63.127,67.421v.429c38.22,3.865,71.716,28.772,71.716,70C286.173,360.978,231.205,395.762,172.373,395.762Z" fill="#fff"/></g><g id="FILI"><g opacity="0.1"><path d="M974.571,1090.035c-7.048-53.073,22.164-53.924,26.6-16.534A387.656,387.656,0,0,0,1020,1132.31V215.678a298.021,298.021,0,0,0-86.59-14.493h-.195C678.17,206.943,563.8,505.688,752.691,737.672c27.4,33.84,30.224,53.257-19.951,20.753C605.563,669.954,361.718,728.113,349.229,998.59,333.8,1331.858,781.405,1427.881,865.446,1073.5c4.416-37.39,33.648-36.535,26.6,16.534-6.116,114.956-34.9,223.914-76.483,329.965H880c64.418,0,119.027-44.1,135.157-103.593C993.273,1243.061,978.713,1167.926,974.571,1090.035Z" fill="#fff"/></g></g><g id="FAT_2" data-name="FAT 2"><path d="M671.087,894.939c73.7,5.068,130.23,44.766,130.23,140.209s-81.572,174.839-195.345,174.839c-93.021,0-155.274-55.746-155.274-137.675,0-44.766,29.338-83.619,62.968-83.619,35.778,0,57.244,28.718,57.244,63.348,0,43.076-22.9,61.658-51.519,61.658-12.164,0-21.467-3.379-28.622-9.291,6.44,48.144,52.235,66.726,92.306,66.726,70.123,0,98.029-55.746,98.029-131.763,0-69.26-30.053-124.161-67.976-124.161-17.889,0-32.2,5.913-45.08,5.913-15.742,0-25.76-6.757-25.76-21.961,0-9.291,7.871-20.271,27.907-20.271,10.733,0,20.751,2.534,30.053,2.534,42.217,0,76.563-49.833,76.563-116.559S643.9,652.53,594.523,652.53c-37.924,0-64.4,14.359-85.15,54.056l1.431,1.69a55.37,55.37,0,0,1,24.329-6.758c27.906,0,48.657,25.34,48.657,56.591,0,38.008-19.32,65.036-57.959,65.036-31.484,0-56.528-27.872-56.528-73.482,0-94.6,83.719-141.054,154.558-141.054,93.021,0,167.438,64.192,167.438,149.5,0,83.618-55.812,127.539-120.212,135.986v.844Z" fill="#090a0d"/><path d="M671.087,874.938c73.7,5.068,130.23,44.765,130.23,140.209s-81.572,174.839-195.345,174.839c-93.021,0-155.274-55.746-155.274-137.675,0-44.766,29.338-83.619,62.968-83.619,35.778,0,57.244,28.718,57.244,63.347,0,43.077-22.9,61.659-51.519,61.659-12.164,0-21.467-3.379-28.622-9.291,6.44,48.144,52.235,66.726,92.306,66.726,70.123,0,98.029-55.746,98.029-131.763,0-69.26-30.053-124.161-67.976-124.161-17.889,0-32.2,5.913-45.08,5.913-15.742,0-25.76-6.757-25.76-21.961,0-9.291,7.871-20.271,27.907-20.271,10.733,0,20.751,2.534,30.053,2.534,42.217,0,76.563-49.833,76.563-116.559S643.9,632.529,594.523,632.529c-37.924,0-64.4,14.359-85.15,54.056l1.431,1.689a55.381,55.381,0,0,1,24.329-6.757c27.906,0,48.657,25.339,48.657,56.591,0,38.008-19.32,65.036-57.959,65.036-31.484,0-56.528-27.873-56.528-73.483,0-94.6,83.719-141.053,154.558-141.053,93.021,0,167.438,64.192,167.438,149.5,0,83.618-55.812,127.539-120.212,135.985v.845Z" fill="#fff"/></g></svg>
