<svg xmlns="http://www.w3.org/2000/svg" xmlns:xlink="http://www.w3.org/1999/xlink" viewBox="0 0 1020 920"><defs><linearGradient id="Dégradé_sans_nom_208" x1="510" x2="510" y2="1420" gradientUnits="userSpaceOnUse"><stop offset="0" stop-color="#005539"/><stop offset="1" stop-color="#001205"/></linearGradient></defs><g id="cartes"><rect width="1020" height="1420" rx="140" fill="url(#Dégradé_sans_nom_208)"/></g><g id="index2"><path id="path147-6-9-8-7-0-5-0-8-3" d="M189.965,467.029c-39.92.9-57.821,47.662-28.256,83.973,4.289,5.3,4.731,8.335-3.123,3.248-19.906-13.848-58.073-4.745-60.028,37.591-2.414,52.164,67.646,67.194,80.8,11.725.691-5.852,5.266-5.718,4.163,2.588-1.2,22.547-7.967,43.62-17.269,64.17h47.456c-9.3-20.55-16.071-41.623-17.27-64.17-1.1-8.307,3.47-8.44,4.164-2.588,13.154,55.468,83.214,40.438,80.8-11.725-1.954-42.336-40.122-51.439-60.028-37.591-7.853,5.087-7.411,2.048-3.122-3.248,29.565-36.312,11.664-83.071-28.255-83.973h-.031Z" fill="#fff"/><path d="M244.733,292.7h45.09v18.9h-45.09v28.343c0,24.048,10.306,33.5,36.072,33.5v14.6H160.564v-14.6c33.5,0,43.8-9.448,43.8-33.5V311.593H90.137V292.7L220.255,90.006h24.478Zm-40.367,0V141.538h-.859L107.314,292.7Z" fill="#fff"/></g><g id="FILI"><g opacity="0.1"><path d="M974.571,1090.035c-7.048-53.073,22.164-53.924,26.6-16.534A387.656,387.656,0,0,0,1020,1132.31V215.678a298.021,298.021,0,0,0-86.59-14.493h-.195C678.17,206.943,563.8,505.688,752.691,737.672c27.4,33.84,30.223,53.257-19.951,20.753C605.563,669.954,361.718,728.113,349.229,998.59,333.8,1331.858,781.405,1427.881,865.446,1073.5c4.416-37.39,33.648-36.535,26.6,16.534-6.117,114.956-34.9,223.914-76.484,329.965H880c64.418,0,119.027-44.1,135.157-103.593C993.273,1243.061,978.713,1167.926,974.571,1090.035Z" fill="#fff"/></g></g><g id="FAT_2" data-name="FAT 2"><path d="M543,1209.987V1176.2c69.408-3.378,78-19.426,78-74.327v-40.542H439.249l2.863-52.368L674.665,618.745h56.528v393.6h81.572v48.989H731.193v40.542c0,54.9,8.587,70.949,68.693,74.327v33.786Zm78-197.644V780.914h-1.431L480.751,1012.343Z" fill="#090a0d"/><path d="M543,1189.986V1156.2c69.408-3.378,78-19.426,78-74.327V1041.33H439.249l2.863-52.367,232.553-390.22h56.528v393.6h81.572v48.988H731.193v40.543c0,54.9,8.587,70.949,68.693,74.327v33.786Zm78-197.644V760.913h-1.431L480.751,992.342Z" fill="#fff"/></g></svg>
