<svg xmlns="http://www.w3.org/2000/svg" xmlns:xlink="http://www.w3.org/1999/xlink" viewBox="0 0 1020 920"><defs><linearGradient id="Dégradé_sans_nom_216" x1="510" x2="510" y2="1420" gradientUnits="userSpaceOnUse"><stop offset="0" stop-color="#005484"/><stop offset="1" stop-color="#000013"/></linearGradient></defs><g id="cartes"><rect width="1020" height="1420" rx="140" fill="url(#Dégradé_sans_nom_216)"/></g><g id="index2"><path id="path6403-1" d="M189.98,467.029c21.966,36.274,45.074,71.531,73.952,101.648-28.878,30.116-51.986,65.373-73.952,101.648-21.965-36.275-45.074-71.532-73.953-101.648C144.906,538.56,168.014,503.3,189.98,467.029Z" fill="#fff"/><path d="M244.733,292.7h45.09v18.9h-45.09v28.343c0,24.048,10.306,33.5,36.072,33.5v14.6H160.564v-14.6c33.5,0,43.8-9.448,43.8-33.5V311.593H90.137V292.7L220.255,90.006h24.478Zm-40.367,0V141.538h-.859L107.314,292.7Z" fill="#fff"/></g><g id="FILI"><g opacity="0.1"><path d="M1020,1164.286V575.393C938.066,461.138,862.392,341.307,788.737,219.677,648.24,451.7,500.433,677.2,315.721,869.842,473.764,1034.66,604.784,1223.556,727.329,1420h122.82C904.553,1332.79,960.632,1247.073,1020,1164.286Z" fill="#fff"/></g></g><g id="FAT_2" data-name="FAT 2"><path d="M543,1209.987V1176.2c69.408-3.378,78-19.426,78-74.327v-40.542H439.249l2.863-52.368L674.665,618.745h56.528v393.6h81.572v48.989H731.193v40.542c0,54.9,8.587,70.949,68.693,74.327v33.786Zm78-197.644V780.914h-1.431L480.751,1012.343Z" fill="#090a0d"/><path d="M543,1189.986V1156.2c69.408-3.378,78-19.426,78-74.327V1041.33H439.249l2.863-52.367,232.553-390.22h56.528v393.6h81.572v48.988H731.193v40.543c0,54.9,8.587,70.949,68.693,74.327v33.786Zm78-197.644V760.913h-1.431L480.751,992.342Z" fill="#fff"/></g></svg>
