<svg xmlns="http://www.w3.org/2000/svg" xmlns:xlink="http://www.w3.org/1999/xlink" viewBox="0 0 1020 920"><defs><linearGradient id="Dégradé_sans_nom_169" x1="510" x2="510" y2="1420" gradientUnits="userSpaceOnUse"><stop offset="0" stop-color="#98161b"/><stop offset="1" stop-color="#1d0000"/></linearGradient></defs><g id="cartes"><rect width="1020" height="1420" rx="140" fill="url(#Dégradé_sans_nom_169)"/></g><g id="index2"><path id="path9700-3-2" d="M189.98,670.325S212.593,637.9,243.1,599.78c20.408-25.51,36.722-53.133,38.24-76.926,1.739-27.18-14.729-54.447-44.543-55.769-29.8-1.32-41.891,20.957-46.815,39.324-4.924-18.367-17.019-40.644-46.815-39.324-29.814,1.322-46.283,28.589-44.543,55.769,1.517,23.793,17.832,51.416,38.239,76.926C167.366,637.9,189.98,670.325,189.98,670.325Z" fill="#fff"/><path d="M244.733,292.7h45.09v18.9h-45.09v28.343c0,24.048,10.306,33.5,36.072,33.5v14.6H160.564v-14.6c33.5,0,43.8-9.448,43.8-33.5V311.593H90.137V292.7L220.255,90.006h24.478Zm-40.367,0V141.538h-.859L107.314,292.7Z" fill="#fff"/></g><g id="FILI"><g opacity="0.1"><path d="M613.689,320.337c-175.986,7.8-273.2,168.753-262.926,329.186,8.952,140.444,105.258,303.5,225.714,454.077,99.846,124.773,185.369,239.205,241.754,316.4H880c77,0,140-63,140-140V354.78c-73.427,45.076-110.859,126.365-129.975,197.673C860.961,444.038,789.567,312.542,613.689,320.337Z" fill="#fff"/></g></g><g id="FAT_2" data-name="FAT 2"><path d="M543,1209.987V1176.2c69.408-3.378,78-19.426,78-74.327v-40.542H439.249l2.863-52.368L674.665,618.745h56.528v393.6h81.572v48.989H731.193v40.542c0,54.9,8.587,70.949,68.693,74.327v33.786Zm78-197.644V780.914h-1.431L480.751,1012.343Z" fill="#090a0d"/><path d="M543,1189.986V1156.2c69.408-3.378,78-19.426,78-74.327V1041.33H439.249l2.863-52.367,232.553-390.22h56.528v393.6h81.572v48.988H731.193v40.543c0,54.9,8.587,70.949,68.693,74.327v33.786Zm78-197.644V760.913h-1.431L480.751,992.342Z" fill="#fff"/></g></svg>
