<svg xmlns="http://www.w3.org/2000/svg" xmlns:xlink="http://www.w3.org/1999/xlink" viewBox="0 0 1020 920"><defs><linearGradient id="Dégradé_sans_nom_208" x1="510" x2="510" y2="1420" gradientUnits="userSpaceOnUse"><stop offset="0" stop-color="#005539"/><stop offset="1" stop-color="#001205"/></linearGradient></defs><g id="cartes"><rect width="1020" height="1420" rx="140" fill="url(#Dégradé_sans_nom_208)"/></g><g id="index2"><path id="path147-6-9-8-7-0-5-0-8-3" d="M189.965,467.029c-39.92.9-57.821,47.662-28.256,83.973,4.289,5.3,4.731,8.335-3.123,3.248-19.906-13.848-58.073-4.745-60.028,37.591-2.414,52.164,67.646,67.194,80.8,11.725.691-5.852,5.266-5.718,4.163,2.588-1.2,22.547-7.967,43.62-17.269,64.17h47.456c-9.3-20.55-16.071-41.623-17.27-64.17-1.1-8.307,3.47-8.44,4.164-2.588,13.154,55.468,83.214,40.438,80.8-11.725-1.954-42.336-40.122-51.439-60.028-37.591-7.853,5.087-7.411,2.048-3.122-3.248,29.565-36.312,11.664-83.071-28.255-83.973h-.031Z" fill="#fff"/><path d="M125.565,220.124l.858.859c13.313-15.03,33.926-23.619,59.692-23.619,51.532,0,96.193,37.79,96.193,93.616,0,56.686-55.4,102.206-111.653,102.206-39.937,0-73-26.2-73-67.851,0-23.619,11.165-36.931,29.2-36.931,13.742,0,23.619,9.877,23.619,23.189,0,18.037-12.024,24.907-24.049,24.907a28.829,28.829,0,0,1-13.312-3.435c0,32.207,27.484,45.52,56.256,45.52,49.814,0,72.574-35.214,72.574-82.881,0-40.8-18.036-83.739-66.133-83.739-31.348,0-50.673,15.889-54.108,44.661-.859,6.871-3.436,9.447-8.589,9.447s-6.871-3.006-6.871-7.3c0-7.3,2.147-15.03,3.006-22.76L122.558,90.006c23.19,4.294,47.239,9.447,80.3,9.447,24.049,0,40.8-3.006,63.986-9.447-7.73,39.507-59.261,49.814-87.175,49.814-16.748,0-32.207-3.436-45.52-6.871Z" fill="#fff"/></g><g id="FILI"><g opacity="0.1"><path d="M974.571,1090.035c-7.048-53.073,22.164-53.924,26.6-16.534A387.656,387.656,0,0,0,1020,1132.31V215.678a298.021,298.021,0,0,0-86.59-14.493h-.195C678.17,206.943,563.8,505.688,752.691,737.672c27.4,33.84,30.223,53.257-19.951,20.753C605.563,669.954,361.718,728.113,349.228,998.59,333.8,1331.858,781.405,1427.881,865.446,1073.5c4.416-37.39,33.648-36.535,26.6,16.534-6.117,114.956-34.9,223.914-76.484,329.965H880c64.418,0,119.027-44.1,135.157-103.593C993.273,1243.061,978.713,1167.926,974.571,1090.035Z" fill="#fff"/></g></g><g id="FAT_2" data-name="FAT 2"><path d="M504.722,618.745c47.226,11.825,94.453,20.271,143.11,20.271,39.355,0,83.719-4.224,120.212-20.271v16.892c0,84.464-68.693,126.7-153.127,126.7-32.915,0-63.684-3.379-88.013-13.514l-7.871,117.4c31.484-29.562,62.969-39.7,103.039-39.7,97.315,0,171.731,82.774,171.731,187.508,0,106.424-71.554,195.955-201.068,195.955-66.547,0-134.524-49.833-134.524-128.384,0-46.455,22.9-82.774,60.822-82.774,36.493,0,53.666,27.028,53.666,60.813,0,37.164-23.613,59.125-53.666,59.125a41.241,41.241,0,0,1-15.742-3.379l-1.431,1.689c12.88,32.1,47.226,59.125,79.426,59.125,60.822,0,92.306-64.193,92.306-174.839,0-81.929-30.053-130.918-75.848-130.918-48.658,0-82.289,30.407-88.013,73.483-2.147,16.048-7.156,25.339-17.173,25.339s-15.742-9.291-15.742-22.805c0-15.2,2.862-25.339,5.724-41.387Z" fill="#090a0d"/><path d="M504.722,598.743c47.226,11.825,94.453,20.272,143.11,20.272,39.355,0,83.719-4.224,120.212-20.272v16.893c0,84.463-68.693,126.7-153.127,126.7-32.915,0-63.684-3.379-88.013-13.514l-7.871,117.4c31.484-29.563,62.969-39.7,103.039-39.7,97.315,0,171.731,82.774,171.731,187.508,0,106.424-71.554,195.955-201.068,195.955-66.547,0-134.524-49.834-134.524-128.384,0-46.455,22.9-82.774,60.822-82.774,36.493,0,53.666,27.028,53.666,60.813,0,37.164-23.613,59.124-53.666,59.124a41.242,41.242,0,0,1-15.742-3.378l-1.431,1.689c12.88,32.1,47.226,59.124,79.426,59.124,60.822,0,92.306-64.192,92.306-174.838,0-81.93-30.053-130.918-75.848-130.918-48.658,0-82.289,30.407-88.013,73.483-2.147,16.048-7.156,25.339-17.173,25.339s-15.742-9.291-15.742-22.8c0-15.2,2.862-25.339,5.724-41.387Z" fill="#fff"/></g></svg>
