<?xml version="1.0" encoding="utf-8"?>
<!-- Generator: Adobe Illustrator 24.1.2, SVG Export Plug-In . SVG Version: 6.00 Build 0)  -->
<svg version="1.1" id="Calque_1" xmlns="http://www.w3.org/2000/svg" xmlns:xlink="http://www.w3.org/1999/xlink" x="0px" y="0px"
	 viewBox="0 0 1020 920" style="enable-background:new 0 0 1020 1420;" xml:space="preserve">
<style type="text/css">
	.st0{fill:url(#SVGID_1_);}
	.st1{fill:#FFFFFF;}
	.st2{opacity:0.1;}
	.st3{fill:#090A0D;}
</style>
<g id="cartes">

		<linearGradient id="SVGID_1_" gradientUnits="userSpaceOnUse" x1="510.5684" y1="1417.5591" x2="510.5684" y2="-2.4409" gradientTransform="matrix(1 0 0 -1 0 1417.5591)">
		<stop  offset="0" style="stop-color:#005484"/>
		<stop  offset="1" style="stop-color:#000013"/>
	</linearGradient>
	<path class="st0" d="M140.6,0h740c77.3,0,140,62.7,140,140v1140c0,77.3-62.7,140-140,140h-740c-77.3,0-140-62.7-140-140V140
		C0.6,62.7,63.2,0,140.6,0z"/>
</g>
<g id="index2">
	<path id="path6403-1" class="st1" d="M190.5,467c22,36.3,45.1,71.5,74,101.6c-28.9,30.1-52,65.4-74,101.6
		c-22-36.3-45.1-71.5-74-101.6C145.5,538.6,168.6,503.3,190.5,467z"/>
	<path class="st1" d="M126.1,220.1l0.9,0.9c13.3-15,33.9-23.6,59.7-23.6c51.5,0,96.2,37.8,96.2,93.6c0,56.7-55.4,102.2-111.7,102.2
		c-39.9,0-73-26.2-73-67.9c0-23.6,11.2-36.9,29.2-36.9c13.7,0,23.6,9.9,23.6,23.2c0,18-12,24.9-24,24.9c-4.6-0.1-9.2-1.2-13.3-3.4
		c0,32.2,27.5,45.5,56.3,45.5c49.8,0,72.6-35.2,72.6-82.9c0-40.8-18-83.7-66.1-83.7c-31.3,0-50.7,15.9-54.1,44.7
		c-0.9,6.9-3.4,9.4-8.6,9.4s-6.9-3-6.9-7.3c0-7.3,2.1-15,3-22.8l13.3-146c23.2,4.3,47.2,9.4,80.3,9.4c24,0,40.8-3,64-9.4
		c-7.7,39.5-59.3,49.8-87.2,49.8c-16.7,0-32.2-3.4-45.5-6.9L126.1,220.1z"/>
</g>
<g id="FILI">
	<g class="st2">
		<path class="st1" d="M1020.6,1164.3V575.4C938.6,461.1,863,341.3,789.3,219.7c-140.5,232-288.3,457.5-473,650.2
			c158,164.8,289.1,353.7,411.6,550.2h122.8C905.1,1332.8,961.2,1247.1,1020.6,1164.3z"/>
	</g>
</g>
<g id="FAT_2">
	<path class="st3" d="M505.3,618.7c47.2,11.8,94.5,20.3,143.1,20.3c39.4,0,83.7-4.2,120.2-20.3v16.9c0,84.5-68.7,126.7-153.1,126.7
		c-32.9,0-63.7-3.4-88-13.5l-7.9,117.4c31.5-29.6,63-39.7,103-39.7c97.3,0,171.7,82.8,171.7,187.5c0,106.4-71.6,196-201.1,196
		c-66.5,0-134.5-49.8-134.5-128.4c0-46.5,22.9-82.8,60.8-82.8c36.5,0,53.7,27,53.7,60.8c0,37.2-23.6,59.1-53.7,59.1
		c-5.4-0.1-10.8-1.2-15.7-3.4l-1.4,1.7c12.9,32.1,47.2,59.1,79.4,59.1c60.8,0,92.3-64.2,92.3-174.8c0-81.9-30.1-130.9-75.8-130.9
		c-48.7,0-82.3,30.4-88,73.5c-2.1,16-7.2,25.3-17.2,25.3s-15.7-9.3-15.7-22.8c0-15.2,2.9-25.3,5.7-41.4L505.3,618.7z"/>
	<path class="st1" d="M505.3,598.7c47.2,11.8,94.5,20.3,143.1,20.3c39.4,0,83.7-4.2,120.2-20.3v16.9c0,84.5-68.7,126.7-153.1,126.7
		c-32.9,0-63.7-3.4-88-13.5l-7.9,117.4c31.5-29.6,63-39.7,103-39.7c97.3,0,171.7,82.8,171.7,187.5c0,106.4-71.6,196-201.1,196
		c-66.5,0-134.5-49.8-134.5-128.4c0-46.5,22.9-82.8,60.8-82.8c36.5,0,53.7,27,53.7,60.8c0,37.2-23.6,59.1-53.7,59.1
		c-5.4-0.1-10.8-1.2-15.7-3.4l-1.4,1.7c12.9,32.1,47.2,59.1,79.4,59.1c60.8,0,92.3-64.2,92.3-174.8c0-81.9-30.1-130.9-75.8-130.9
		c-48.7,0-82.3,30.4-88,73.5c-2.1,16-7.2,25.3-17.2,25.3s-15.7-9.3-15.7-22.8c0-15.2,2.9-25.3,5.7-41.4L505.3,598.7z"/>
</g>
</svg>
