<svg xmlns="http://www.w3.org/2000/svg" xmlns:xlink="http://www.w3.org/1999/xlink" viewBox="0 0 1020 920"><defs><linearGradient id="Dégradé_sans_nom_219" x1="510" x2="510" y2="1420" gradientUnits="userSpaceOnUse"><stop offset="0" stop-color="#4e515b"/><stop offset="0.9" stop-color="#090a0d"/></linearGradient></defs><g id="cartes"><rect width="1020" height="1420" rx="140" fill="url(#Dégradé_sans_nom_219)"/></g><g id="index2"><path id="path153-0-1-2-5-6-5-9-1-9" d="M189.98,467.03c43.816,55.724,90.7,87.792,91.477,131.266.264,14.078-8.273,38.006-35.007,42.586-17.344,2.957-41.223-9.562-41.722-35,.1-5.064-6.011-4.932-5.955,2.006.813,20.062,7.938,43.419,19.906,62.432h-57.4c11.968-19.013,19.089-42.37,19.905-62.432.1-6.938-6.031-7.07-5.954-2.006-.5,25.433-24.379,37.952-41.723,34.994C106.776,636.3,98.241,612.374,98.5,598.3c.783-43.474,47.661-75.542,91.476-131.267Z" fill="#fff"/><path d="M125.565,220.124l.858.859c13.313-15.03,33.926-23.619,59.692-23.619,51.532,0,96.193,37.79,96.193,93.616,0,56.686-55.4,102.206-111.653,102.206-39.937,0-73-26.2-73-67.851,0-23.619,11.165-36.931,29.2-36.931,13.742,0,23.619,9.877,23.619,23.189,0,18.037-12.024,24.907-24.049,24.907a28.829,28.829,0,0,1-13.312-3.435c0,32.207,27.484,45.52,56.256,45.52,49.814,0,72.574-35.214,72.574-82.881,0-40.8-18.036-83.739-66.133-83.739-31.348,0-50.673,15.889-54.108,44.661-.859,6.871-3.436,9.447-8.589,9.447s-6.871-3.006-6.871-7.3c0-7.3,2.147-15.03,3.006-22.76L122.558,90.006c23.19,4.294,47.239,9.447,80.3,9.447,24.049,0,40.8-3.006,63.986-9.447-7.73,39.507-59.261,49.814-87.175,49.814-16.748,0-32.207-3.436-45.52-6.871Z" fill="#fff"/></g><g id="FILI"><g opacity="0.1"><path d="M350.061,1041.143c-1.664,89.682,52.7,242.113,223.011,271.291,110.492,18.841,262.622-60.91,265.795-222.934-.486-32.258,38.583-31.421,37.935,12.781-4.1,100.807-33.2,214.672-82.721,317.719H880c75.375,0,137.323-60.371,139.906-135.145-18.065-62.149-28.714-124.527-31.067-182.574-.261-32.08,20.178-41.312,31.161-31.633V310.792c-29.036-33.842-58.212-69.052-87.177-105.89h0C653.692,559.9,355.049,764.185,350.061,1041.143Z" fill="#fff"/></g></g><g id="FAT_2" data-name="FAT 2"><path d="M504.722,618.745c47.226,11.825,94.453,20.271,143.11,20.271,39.355,0,83.719-4.224,120.212-20.271v16.892c0,84.464-68.693,126.7-153.127,126.7-32.915,0-63.684-3.379-88.013-13.514l-7.871,117.4c31.484-29.562,62.969-39.7,103.039-39.7,97.315,0,171.731,82.774,171.731,187.508,0,106.424-71.554,195.955-201.068,195.955-66.547,0-134.524-49.833-134.524-128.384,0-46.455,22.9-82.774,60.822-82.774,36.493,0,53.666,27.028,53.666,60.813,0,37.164-23.613,59.125-53.666,59.125a41.241,41.241,0,0,1-15.742-3.379l-1.431,1.689c12.88,32.1,47.226,59.125,79.426,59.125,60.822,0,92.306-64.193,92.306-174.839,0-81.929-30.053-130.918-75.848-130.918-48.658,0-82.289,30.407-88.013,73.483-2.147,16.048-7.156,25.339-17.173,25.339s-15.742-9.291-15.742-22.805c0-15.2,2.862-25.339,5.724-41.387Z" fill="#090a0d"/><path d="M504.722,598.743c47.226,11.825,94.453,20.272,143.11,20.272,39.355,0,83.719-4.224,120.212-20.272v16.893c0,84.463-68.693,126.7-153.127,126.7-32.915,0-63.684-3.379-88.013-13.514l-7.871,117.4c31.484-29.563,62.969-39.7,103.039-39.7,97.315,0,171.731,82.774,171.731,187.508,0,106.424-71.554,195.955-201.068,195.955-66.547,0-134.524-49.834-134.524-128.384,0-46.455,22.9-82.774,60.822-82.774,36.493,0,53.666,27.028,53.666,60.813,0,37.164-23.613,59.124-53.666,59.124a41.242,41.242,0,0,1-15.742-3.378l-1.431,1.689c12.88,32.1,47.226,59.124,79.426,59.124,60.822,0,92.306-64.192,92.306-174.838,0-81.93-30.053-130.918-75.848-130.918-48.658,0-82.289,30.407-88.013,73.483-2.147,16.048-7.156,25.339-17.173,25.339s-15.742-9.291-15.742-22.8c0-15.2,2.862-25.339,5.724-41.387Z" fill="#fff"/></g></svg>
