<svg xmlns="http://www.w3.org/2000/svg" xmlns:xlink="http://www.w3.org/1999/xlink" viewBox="0 0 1020 920"><defs><linearGradient id="Dégradé_sans_nom_208" x1="510" x2="510" y2="1420" gradientUnits="userSpaceOnUse"><stop offset="0" stop-color="#005539"/><stop offset="1" stop-color="#001205"/></linearGradient></defs><g id="cartes"><rect width="1020" height="1420" rx="140" fill="url(#Dégradé_sans_nom_208)"/></g><g id="index2"><path id="path147-6-9-8-7-0-5-0-8-3" d="M189.965,467.029c-39.92.9-57.821,47.662-28.256,83.973,4.289,5.3,4.731,8.335-3.123,3.248-19.906-13.848-58.073-4.745-60.028,37.591-2.414,52.164,67.646,67.194,80.8,11.725.691-5.852,5.266-5.718,4.163,2.588-1.2,22.547-7.967,43.62-17.269,64.17h47.456c-9.3-20.55-16.071-41.623-17.27-64.17-1.1-8.307,3.47-8.44,4.164-2.588,13.154,55.468,83.214,40.438,80.8-11.725-1.954-42.336-40.122-51.439-60.028-37.591-7.853,5.087-7.411,2.048-3.122-3.248,29.565-36.312,11.664-83.071-28.255-83.973h-.031Z" fill="#fff"/><path d="M97.652,185.34l4.294-95.334H282.308V108.9c-52.391,76.868-85.886,140-85.886,217.293,0,12.024.858,24.907.858,36.5,0,18.466-8.589,27.913-20.612,27.913-17.178,0-24.049-11.165-24.049-35.213,0-77.728,62.7-168.338,103.923-230.177H181.391c-43.8,0-64.844,12.883-69.568,60.121Z" fill="#fff"/></g><g id="FILI"><g opacity="0.1"><path d="M974.571,1090.035c-7.048-53.073,22.164-53.924,26.6-16.534A387.656,387.656,0,0,0,1020,1132.31V215.678a298.021,298.021,0,0,0-86.59-14.493h-.195C678.17,206.943,563.8,505.688,752.691,737.672c27.4,33.84,30.223,53.257-19.951,20.753C605.564,669.954,361.718,728.113,349.228,998.59,333.8,1331.858,781.405,1427.881,865.446,1073.5c4.416-37.39,33.648-36.535,26.6,16.534-6.117,114.956-34.9,223.914-76.484,329.965H880c64.418,0,119.027-44.1,135.157-103.593C993.274,1243.061,978.713,1167.926,974.571,1090.035Z" fill="#fff"/></g></g><g id="FAT_2" data-name="FAT 2"><path d="M795.592,623.812v60.814c-68.692,123.316-128.8,211.158-128.8,430.762,0,62.5-14.311,94.6-57.244,94.6-47.226,0-57.244-43.076-57.244-93.754,0-108.958,92.3-256.768,178.887-380.929H604.541c-72.27,0-113.772,32.94-120.927,114.87H456.423l8.585-231.429Z" fill="#090a0d"/><path d="M795.592,603.811v60.814c-68.692,123.316-128.8,211.157-128.8,430.762,0,62.5-14.311,94.6-57.244,94.6-47.226,0-57.244-43.077-57.244-93.755,0-108.957,92.3-256.768,178.887-380.928H604.541c-72.27,0-113.772,32.94-120.927,114.869H456.423l8.585-231.429Z" fill="#fff"/></g></svg>
