<svg xmlns="http://www.w3.org/2000/svg" xmlns:xlink="http://www.w3.org/1999/xlink" viewBox="0 0 1020 920"><defs><linearGradient id="Dégradé_sans_nom_216" x1="510" x2="510" y2="1420" gradientUnits="userSpaceOnUse"><stop offset="0" stop-color="#005484"/><stop offset="1" stop-color="#000013"/></linearGradient></defs><g id="cartes"><rect width="1020" height="1420" rx="140" fill="url(#Dégradé_sans_nom_216)"/></g><g id="index2"><path id="path6403-1" d="M189.98,467.029c21.966,36.274,45.074,71.531,73.952,101.648-28.878,30.116-51.986,65.373-73.952,101.648-21.965-36.275-45.074-71.532-73.953-101.648C144.906,538.56,168.014,503.3,189.98,467.029Z" fill="#fff"/><path d="M97.652,185.34l4.294-95.334H282.308V108.9c-52.391,76.868-85.886,140-85.886,217.293,0,12.024.858,24.907.858,36.5,0,18.466-8.589,27.913-20.612,27.913-17.178,0-24.049-11.165-24.049-35.213,0-77.728,62.7-168.338,103.923-230.177H181.391c-43.8,0-64.844,12.883-69.568,60.121Z" fill="#fff"/></g><g id="FILI"><g opacity="0.1"><path d="M1020,1164.286V575.393C938.066,461.138,862.392,341.307,788.737,219.677,648.24,451.7,500.433,677.2,315.721,869.842,473.764,1034.66,604.784,1223.556,727.329,1420h122.82C904.553,1332.79,960.632,1247.073,1020,1164.286Z" fill="#fff"/></g></g><g id="FAT_2" data-name="FAT 2"><path d="M795.592,623.812v60.814c-68.692,123.316-128.8,211.158-128.8,430.762,0,62.5-14.311,94.6-57.244,94.6-47.226,0-57.244-43.076-57.244-93.754,0-108.958,92.3-256.768,178.887-380.929H604.541c-72.27,0-113.772,32.94-120.927,114.87H456.423l8.585-231.429Z" fill="#090a0d"/><path d="M795.592,603.811v60.814c-68.692,123.316-128.8,211.157-128.8,430.762,0,62.5-14.311,94.6-57.244,94.6-47.226,0-57.244-43.077-57.244-93.755,0-108.957,92.3-256.768,178.887-380.928H604.541c-72.27,0-113.772,32.94-120.927,114.869H456.423l8.585-231.429Z" fill="#fff"/></g></svg>
