<svg xmlns="http://www.w3.org/2000/svg" xmlns:xlink="http://www.w3.org/1999/xlink" viewBox="0 0 1020 920"><defs><linearGradient id="Dégradé_sans_nom_219" x1="510" x2="510" y2="1420" gradientUnits="userSpaceOnUse"><stop offset="0" stop-color="#4e515b"/><stop offset="0.9" stop-color="#090a0d"/></linearGradient></defs><g id="cartes"><rect width="1020" height="1420" rx="140" fill="url(#Dégradé_sans_nom_219)"/></g><g id="index2"><path id="path153-0-1-2-5-6-5-9-1-9" d="M189.98,467.03c43.816,55.724,90.7,87.792,91.477,131.266.264,14.078-8.273,38.006-35.007,42.586-17.344,2.957-41.223-9.562-41.722-35,.1-5.064-6.011-4.932-5.955,2.006.813,20.062,7.938,43.419,19.906,62.432h-57.4c11.968-19.013,19.089-42.37,19.905-62.432.1-6.938-6.031-7.07-5.954-2.006-.5,25.433-24.379,37.952-41.723,34.994C106.776,636.3,98.241,612.374,98.5,598.3c.783-43.474,47.661-75.542,91.476-131.267Z" fill="#fff"/><path d="M97.652,185.34l4.294-95.334H282.308V108.9c-52.391,76.868-85.886,140-85.886,217.293,0,12.024.858,24.907.858,36.5,0,18.466-8.589,27.913-20.612,27.913-17.178,0-24.049-11.165-24.049-35.213,0-77.728,62.7-168.338,103.923-230.177H181.391c-43.8,0-64.844,12.883-69.568,60.121Z" fill="#fff"/></g><g id="FILI"><g opacity="0.1"><path d="M350.061,1041.143c-1.664,89.682,52.7,242.113,223.011,271.291,110.492,18.841,262.622-60.91,265.795-222.934-.486-32.258,38.583-31.421,37.935,12.781-4.1,100.807-33.2,214.672-82.721,317.719H880c75.375,0,137.324-60.371,139.906-135.145-18.065-62.149-28.713-124.527-31.067-182.574-.261-32.08,20.178-41.312,31.161-31.633V310.792c-29.036-33.842-58.212-69.052-87.177-105.89h0C653.692,559.9,355.049,764.185,350.061,1041.143Z" fill="#fff"/></g></g><g id="FAT_2" data-name="FAT 2"><path d="M795.592,623.812v60.814c-68.692,123.316-128.8,211.158-128.8,430.762,0,62.5-14.311,94.6-57.244,94.6-47.226,0-57.244-43.076-57.244-93.754,0-108.958,92.3-256.768,178.887-380.929H604.541c-72.27,0-113.772,32.94-120.927,114.87H456.423l8.585-231.429Z" fill="#090a0d"/><path d="M795.592,603.811v60.814c-68.692,123.316-128.8,211.157-128.8,430.762,0,62.5-14.311,94.6-57.244,94.6-47.226,0-57.244-43.077-57.244-93.755,0-108.957,92.3-256.768,178.887-380.928H604.541c-72.27,0-113.772,32.94-120.927,114.869H456.423l8.585-231.429Z" fill="#fff"/></g></svg>
