<svg xmlns="http://www.w3.org/2000/svg" xmlns:xlink="http://www.w3.org/1999/xlink" viewBox="0 0 1020 920"><defs><linearGradient id="Dégradé_sans_nom_208" x1="510" x2="510" y2="1420" gradientUnits="userSpaceOnUse"><stop offset="0" stop-color="#005539"/><stop offset="1" stop-color="#001205"/></linearGradient></defs><g id="cartes"><rect width="1020" height="1420" rx="140" fill="url(#Dégradé_sans_nom_208)"/></g><g id="index2"><path id="path147-6-9-8-7-0-5-0-8-3" d="M189.965,467.029c-39.92.9-57.821,47.662-28.256,83.973,4.289,5.3,4.731,8.335-3.123,3.248-19.906-13.848-58.073-4.745-60.028,37.591-2.414,52.164,67.646,67.194,80.8,11.725.691-5.852,5.266-5.718,4.163,2.588-1.2,22.547-7.967,43.62-17.269,64.17h47.456c-9.3-20.55-16.071-41.623-17.27-64.17-1.1-8.307,3.47-8.44,4.164-2.588,13.154,55.468,83.214,40.438,80.8-11.725-1.954-42.336-40.122-51.439-60.028-37.591-7.853,5.087-7.411,2.048-3.122-3.248,29.565-36.312,11.664-83.071-28.255-83.973h-.031Z" fill="#fff"/><path d="M287.032,308.587c0,57.115-50.673,87.175-103.064,87.175-44.662,0-91.04-25.766-91.04-75.151,0-36.931,34.355-62.267,64.845-75.58-29.632-12.883-54.539-38.649-54.539-73.433,0-49.814,43.373-81.592,89.752-81.592,39.507,0,81.592,23.618,81.592,67.85,0,33.5-23.189,55.827-51.1,70.427C259.119,244.172,287.032,266.5,287.032,308.587ZM185.685,381.162c35.214,0,66.133-21.043,66.133-58.4,0-44.661-43.8-58.833-79.874-71.286-27.055,11.165-48.1,33.5-48.1,63.556C123.847,351.96,145.319,381.162,185.685,381.162Zm24.478-159.32c24.049-9.448,36.072-31.349,36.072-56.685,0-33.5-20.183-60.551-56.255-60.551-32.637,0-55.827,25.766-55.827,56.686C134.153,198.652,181.821,211.106,210.163,221.842Z" fill="#fff"/></g><g id="FILI"><g opacity="0.1"><path d="M974.571,1090.035c-7.048-53.073,22.164-53.924,26.6-16.534A387.656,387.656,0,0,0,1020,1132.31V215.678a298.021,298.021,0,0,0-86.59-14.493h-.195C678.17,206.943,563.8,505.688,752.691,737.672c27.4,33.84,30.223,53.257-19.951,20.753C605.564,669.954,361.718,728.113,349.228,998.59,333.8,1331.858,781.405,1427.881,865.446,1073.5c4.416-37.39,33.648-36.535,26.6,16.534-6.117,114.956-34.9,223.914-76.484,329.965H880c64.418,0,119.027-44.1,135.157-103.593C993.273,1243.061,978.713,1167.926,974.571,1090.035Z" fill="#fff"/></g></g><g id="FAT_2" data-name="FAT 2"><path d="M447.836,1067.244c0-70.1,47.942-116.559,99.461-137.675-56.528-31.251-83.719-73.483-83.719-148.655,0-103.89,81.572-172.3,163.861-172.3,70.838,0,155.274,42.232,155.274,140.209,0,63.347-39.356,104.734-88.013,120.782,64.4,34.63,109.479,74.328,109.479,164.7,0,108.113-81.572,175.684-190.336,175.684C525.115,1209.987,447.836,1154.241,447.836,1067.244ZM593.807,962.51c-5.724-3.379-11.448-9.291-19.319-9.291-15.027,0-49.373,40.542-49.373,101.356,0,76.017,37.208,121.627,93.737,121.627,37.923,0,80.856-33.786,80.856-91.221,0-45.61-17.888-67.57-59.39-93.754Zm32.916-320.116c-37.924,0-70.124,33.786-70.124,79.4,0,61.658,44.364,92.064,109.479,128.384,28.622-21.116,43.648-63.348,43.648-102.2C709.726,686.315,681.1,642.394,626.723,642.394Z" fill="#090a0d"/><path d="M447.836,1047.243c0-70.1,47.942-116.559,99.461-137.675-56.528-31.252-83.719-73.483-83.719-148.655,0-103.89,81.572-172.305,163.861-172.305,70.838,0,155.274,42.231,155.274,140.209,0,63.347-39.356,104.734-88.013,120.782,64.4,34.63,109.479,74.328,109.479,164.7,0,108.113-81.572,175.684-190.336,175.684C525.115,1189.986,447.836,1134.24,447.836,1047.243ZM593.807,942.508c-5.724-3.378-11.448-9.291-19.319-9.291-15.027,0-49.373,40.543-49.373,101.356,0,76.017,37.208,121.627,93.737,121.627,37.923,0,80.856-33.785,80.856-91.22,0-45.61-17.888-67.57-59.39-93.754Zm32.916-320.115c-37.924,0-70.124,33.785-70.124,79.4,0,61.658,44.364,92.064,109.479,128.383,28.622-21.115,43.648-63.347,43.648-102.2C709.726,666.314,681.1,622.393,626.723,622.393Z" fill="#fff"/></g></svg>
