<?xml version="1.0" encoding="utf-8"?>
<!-- Generator: Adobe Illustrator 24.1.2, SVG Export Plug-In . SVG Version: 6.00 Build 0)  -->
<svg version="1.1" id="Calque_1" xmlns="http://www.w3.org/2000/svg" xmlns:xlink="http://www.w3.org/1999/xlink" x="0px" y="0px"
	 viewBox="0 0 1020 920" style="enable-background:new 0 0 1020 1420;" xml:space="preserve">
<style type="text/css">
	.st0{fill:url(#SVGID_1_);}
	.st1{fill:#FFFFFF;}
	.st2{opacity:0.1;}
	.st3{fill:#090A0D;}
</style>
<g id="cartes">

		<linearGradient id="SVGID_1_" gradientUnits="userSpaceOnUse" x1="510" y1="1415.9906" x2="510" y2="-4.0093" gradientTransform="matrix(1 0 0 -1 0 1417.5591)">
		<stop  offset="0" style="stop-color:#98161B"/>
		<stop  offset="1" style="stop-color:#1D0000"/>
	</linearGradient>
	<path class="st0" d="M140,1.6h740c77.3,0,140,62.7,140,140v1140c0,77.3-62.7,140-140,140H140c-77.3,0-140-62.7-140-140v-1140
		C0,64.2,62.7,1.6,140,1.6z"/>
</g>
<g id="index2">
	<path id="path9700-3-2" class="st1" d="M190,671.9c0,0,22.6-32.4,53.1-70.5c20.4-25.5,36.7-53.1,38.2-76.9
		c1.7-27.2-14.7-54.4-44.5-55.8c-29.8-1.3-41.9,21-46.8,39.3c-4.9-18.4-17-40.6-46.8-39.3c-29.8,1.3-46.3,28.6-44.5,55.8
		c1.5,23.8,17.8,51.4,38.2,76.9C167.4,639.5,190,671.9,190,671.9z"/>
	<path class="st1" d="M287,310.2c0,57.1-50.7,87.2-103.1,87.2c-44.7,0-91-25.8-91-75.2c0-36.9,34.4-62.3,64.8-75.6
		c-29.6-12.9-54.5-38.6-54.5-73.4c0-49.8,43.4-81.6,89.8-81.6c39.5,0,81.6,23.6,81.6,67.9c0,33.5-23.2,55.8-51.1,70.4
		C259.1,245.7,287,268.1,287,310.2z M185.7,382.7c35.2,0,66.1-21,66.1-58.4c0-44.7-43.8-58.8-79.9-71.3
		c-27.1,11.2-48.1,33.5-48.1,63.6C123.8,353.5,145.3,382.7,185.7,382.7z M210.2,223.4c24-9.4,36.1-31.3,36.1-56.7
		c0-33.5-20.2-60.6-56.3-60.6c-32.6,0-55.8,25.8-55.8,56.7C134.2,200.2,181.8,212.7,210.2,223.4L210.2,223.4z"/>
</g>
<g id="FILI">
	<g class="st2">
		<path class="st1" d="M613.7,321.9c-176,7.8-273.2,168.8-262.9,329.2c9,140.4,105.3,303.5,225.7,454.1
			c99.8,124.8,185.4,239.2,241.8,316.4H880c77,0,140-63,140-140V356.3C946.6,401.4,909.1,482.7,890,554
			C861,445.6,789.6,314.1,613.7,321.9z"/>
	</g>
</g>
<g id="FAT_2">
	<path class="st3" d="M447.8,1068.8c0-70.1,47.9-116.6,99.5-137.7c-56.5-31.3-83.7-73.5-83.7-148.7c0-103.9,81.6-172.3,163.9-172.3
		c70.8,0,155.3,42.2,155.3,140.2c0,63.3-39.4,104.7-88,120.8c64.4,34.6,109.5,74.3,109.5,164.7c0,108.1-81.6,175.7-190.3,175.7
		C525.1,1211.6,447.8,1155.8,447.8,1068.8z M593.8,964.1c-5.7-3.4-11.4-9.3-19.3-9.3c-15,0-49.4,40.5-49.4,101.4
		c0,76,37.2,121.6,93.7,121.6c37.9,0,80.9-33.8,80.9-91.2c0-45.6-17.9-67.6-59.4-93.8L593.8,964.1z M626.7,644
		c-37.9,0-70.1,33.8-70.1,79.4c0,61.7,44.4,92.1,109.5,128.4c28.6-21.1,43.6-63.3,43.6-102.2C709.7,687.9,681.1,644,626.7,644z"/>
	<path class="st1" d="M447.8,1048.8c0-70.1,47.9-116.6,99.5-137.7c-56.5-31.3-83.7-73.5-83.7-148.7c0-103.9,81.6-172.3,163.9-172.3
		c70.8,0,155.3,42.2,155.3,140.2c0,63.3-39.4,104.7-88,120.8c64.4,34.6,109.5,74.3,109.5,164.7c0,108.1-81.6,175.7-190.3,175.7
		C525.1,1191.6,447.8,1135.8,447.8,1048.8z M593.8,944.1c-5.7-3.4-11.4-9.3-19.3-9.3c-15,0-49.4,40.5-49.4,101.4
		c0,76,37.2,121.6,93.7,121.6c37.9,0,80.9-33.8,80.9-91.2c0-45.6-17.9-67.6-59.4-93.8L593.8,944.1z M626.7,624
		c-37.9,0-70.1,33.8-70.1,79.4c0,61.7,44.4,92.1,109.5,128.4c28.6-21.1,43.6-63.3,43.6-102.2C709.7,667.9,681.1,624,626.7,624
		L626.7,624z"/>
</g>
</svg>
