<svg xmlns="http://www.w3.org/2000/svg" xmlns:xlink="http://www.w3.org/1999/xlink" viewBox="0 0 1020 920"><defs><linearGradient id="Dégradé_sans_nom_219" x1="510" x2="510" y2="1420" gradientUnits="userSpaceOnUse"><stop offset="0" stop-color="#4e515b"/><stop offset="0.9" stop-color="#090a0d"/></linearGradient></defs><g id="cartes"><rect width="1020" height="1420" rx="140" fill="url(#Dégradé_sans_nom_219)"/></g><g id="index2"><path id="path153-0-1-2-5-6-5-9-1-9" d="M189.98,467.03c43.816,55.724,90.7,87.792,91.477,131.266.264,14.078-8.273,38.006-35.007,42.586-17.344,2.957-41.223-9.562-41.722-35,.1-5.064-6.011-4.932-5.955,2.006.813,20.062,7.938,43.419,19.906,62.432h-57.4c11.968-19.013,19.089-42.37,19.905-62.432.1-6.938-6.031-7.07-5.954-2.006-.5,25.433-24.379,37.952-41.723,34.994C106.776,636.3,98.241,612.374,98.5,598.3c.783-43.474,47.661-75.542,91.476-131.267Z" fill="#fff"/><path d="M187.833,90.006c70,0,97.052,75.151,97.052,134.412,0,101.776-52.391,171.344-114.659,171.344-39.938,0-68.709-21.9-68.709-55.4,0-20.612,10.306-31.348,25.766-31.348,14.6,0,24.048,9.877,24.048,24.907,0,14.6-9.448,23.189-20.183,23.189a30.517,30.517,0,0,1-11.166-1.717c7.3,17.177,33.926,25.766,51.1,25.766,55.826,0,70-60.98,70-106.071,0-7.729-.429-15.889-.429-23.189H239.8c-10.737,23.619-32.638,33.925-60.122,33.925-50.673,0-84.6-46.808-84.6-90.61C95.075,140.249,129,90.006,187.833,90.006Zm53.249,96.622c0-67.85-24.048-82.022-52.82-82.022s-52.82,14.172-52.82,82.022c0,69.139,24.048,84.6,52.82,84.6S241.082,255.767,241.082,186.628Z" fill="#fff"/></g><g id="FILI"><g opacity="0.1"><path d="M350.061,1041.143c-1.664,89.682,52.7,242.113,223.011,271.291,110.492,18.841,262.622-60.91,265.795-222.934-.486-32.258,38.583-31.421,37.935,12.781-4.1,100.807-33.2,214.672-82.722,317.719H880c75.375,0,137.323-60.371,139.906-135.145-18.065-62.149-28.713-124.527-31.067-182.574-.261-32.08,20.178-41.312,31.161-31.633V310.792c-29.036-33.842-58.212-69.052-87.177-105.89h0C653.692,559.9,355.049,764.185,350.061,1041.143Z" fill="#fff"/></g></g><g id="FAT_2" data-name="FAT 2"><path d="M620.283,608.609c120.928,0,179.6,135.141,179.6,278.729,0,167.237-65.115,322.649-225.4,322.649-68.692,0-115.92-41.387-115.92-100.511,0-39.7,23.614-68.415,57.96-68.415,26.476,0,52.236,27.028,52.236,57.435,0,43.92-20.752,59.124-52.236,59.124v1.689c10.734,8.446,31.484,16.893,53.667,16.893,83,0,109.478-65.882,109.478-152.879V944.772h-1.431c-18.6,28.718-51.519,45.611-83,45.611-84.434,0-143.109-79.4-143.109-175.684C452.129,698.985,518.675,608.609,620.283,608.609ZM617.421,951.53c37.208,0,62.252-49.834,62.252-125.006,0-141.9-15.742-184.13-56.528-184.13s-50.8,50.678-50.8,146.122C572.341,916.055,589.514,951.53,617.421,951.53Z" fill="#090a0d"/><path d="M620.283,588.608c120.928,0,179.6,135.141,179.6,278.728,0,167.237-65.115,322.65-225.4,322.65-68.692,0-115.92-41.387-115.92-100.512,0-39.7,23.614-68.415,57.96-68.415,26.476,0,52.236,27.029,52.236,57.435,0,43.921-20.752,59.125-52.236,59.125v1.689c10.734,8.446,31.484,16.892,53.667,16.892,83,0,109.478-65.881,109.478-152.878V924.771h-1.431c-18.6,28.718-51.519,45.611-83,45.611-84.434,0-143.109-79.4-143.109-175.684C452.129,678.983,518.675,588.608,620.283,588.608Zm-2.862,342.92c37.208,0,62.252-49.833,62.252-125,0-141.9-15.742-184.13-56.528-184.13s-50.8,50.678-50.8,146.121C572.341,896.054,589.514,931.528,617.421,931.528Z" fill="#fff"/></g></svg>
