<svg xmlns="http://www.w3.org/2000/svg" xmlns:xlink="http://www.w3.org/1999/xlink" viewBox="0 0 1020 920"><defs><linearGradient id="Dégradé_sans_nom_208" x1="510" x2="510" y2="1420" gradientUnits="userSpaceOnUse"><stop offset="0" stop-color="#005539"/><stop offset="1" stop-color="#001205"/></linearGradient></defs><g id="cartes"><rect width="1020" height="1420" rx="140" fill="url(#Dégradé_sans_nom_208)"/></g><g id="index2"><path id="path147-6-9-8-7-0-5-0-8-3" d="M189.965,467.029c-39.92.9-57.821,47.662-28.256,83.973,4.289,5.3,4.731,8.335-3.123,3.248-19.906-13.848-58.073-4.745-60.028,37.591-2.414,52.164,67.646,67.194,80.8,11.725.691-5.852,5.266-5.718,4.163,2.588-1.2,22.547-7.967,43.62-17.269,64.17h47.456c-9.3-20.55-16.071-41.623-17.27-64.17-1.1-8.307,3.47-8.44,4.164-2.588,13.154,55.468,83.214,40.438,80.8-11.725-1.954-42.336-40.122-51.439-60.028-37.591-7.853,5.087-7.411,2.048-3.122-3.248,29.565-36.312,11.664-83.071-28.255-83.973h-.031Z" fill="#fff"/><path d="M41.4,387.174v-14.6c34.784,0,43.8-19.325,53.249-45.52L181.391,90.006H196.85L290.9,331.777c12.882,33.066,22.76,40.8,47.667,40.8v14.6H219.181v-14.6c32.207,0,33.926-3.436,33.926-15.889,0-9.018-12.454-43.373-24.049-68.28H127.712c-7.3,24.048-19.754,49.814-19.754,61.838,0,16.319,8.589,22.331,45.52,22.331v14.6ZM222.187,270.368,176.668,157.427,133.724,270.368Z" fill="#fff"/></g><g id="FILI"><g opacity="0.1"><path d="M933.41,201.185h-.195C678.17,206.943,563.8,505.688,752.691,737.672c27.4,33.84,30.224,53.257-19.951,20.753C605.563,669.954,361.718,728.113,349.229,998.59,333.8,1331.858,781.405,1427.881,865.446,1073.5c4.416-37.39,33.648-36.535,26.6,16.534-6.116,114.956-34.9,223.914-76.483,329.965H880c64.418,0,119.027-44.1,135.157-103.593-21.884-73.346-36.444-148.481-40.587-226.372-7.047-53.073,22.165-53.924,26.6-16.534A387.656,387.656,0,0,0,1020,1132.31V215.678A298.021,298.021,0,0,0,933.41,201.185Z" fill="#fff"/></g></g><g id="FAT_2" data-name="FAT 2"><path d="M354.1,1209.987V1176.2c53.666-11.824,70.839-37.163,95.883-107.268L608.834,618.745h37.924l183.181,500.866c15.026,40.543,30.768,53.212,67.976,56.59v33.786H639.6V1176.2h28.622c37.209,0,42.933-10.135,42.933-27.872,0-10.981-3.577-21.961-7.871-33.786l-35.062-97.132H510.8l-22.9,66.726a170.784,170.784,0,0,0-8.586,53.211c0,23.65,12.88,38.853,40.786,38.853h35.062v33.786ZM587.368,795.273,526.546,973.49H652.482Z" fill="#090a0d"/><path d="M354.1,1189.986V1156.2c53.666-11.825,70.839-37.164,95.883-107.268L608.834,598.743h37.924L829.939,1099.61c15.026,40.542,30.768,53.212,67.976,56.59v33.786H639.6V1156.2h28.622c37.209,0,42.933-10.135,42.933-27.873,0-10.98-3.577-21.96-7.871-33.785l-35.062-97.133H510.8l-22.9,66.726a170.791,170.791,0,0,0-8.586,53.212c0,23.65,12.88,38.853,40.786,38.853h35.062v33.786ZM587.368,775.271,526.546,953.489H652.482Z" fill="#fff"/></g></svg>
