<svg xmlns="http://www.w3.org/2000/svg" xmlns:xlink="http://www.w3.org/1999/xlink" viewBox="0 0 1020 920"><defs><linearGradient id="Dégradé_sans_nom_208" x1="510" x2="510" y2="1420" gradientUnits="userSpaceOnUse"><stop offset="0" stop-color="#005539"/><stop offset="1" stop-color="#001205"/></linearGradient></defs><g id="cartes"><rect width="1020" height="1420" rx="140" fill="url(#Dégradé_sans_nom_208)"/></g><g id="index2"><path id="path147-6-9-8-7-0-5-0-8-3" d="M189.965,467.029c-39.92.9-57.821,47.662-28.256,83.973,4.289,5.3,4.731,8.335-3.123,3.248-19.906-13.848-58.073-4.745-60.028,37.591-2.414,52.164,67.646,67.194,80.8,11.725.691-5.852,5.266-5.718,4.163,2.588-1.2,22.547-7.967,43.62-17.269,64.17h47.456c-9.3-20.55-16.071-41.623-17.27-64.17-1.1-8.307,3.47-8.44,4.164-2.588,13.154,55.468,83.214,40.438,80.8-11.725-1.954-42.336-40.122-51.439-60.028-37.591-7.853,5.087-7.411,2.048-3.122-3.248,29.565-36.312,11.664-83.071-28.255-83.973h-.031Z" fill="#fff"/><path d="M287.891,90.006v14.6c-34.784,0-42.084,7.73-42.084,28.343v186.8c0,45.09-29.2,70.856-88.034,70.856-42.514,0-65.7-27.484-65.7-57.973,0-17.607,10.736-35.643,28.772-35.643,19.325,0,29.2,6.871,29.2,25.336,0,15.03-11.166,25.337-23.19,25.337-6.871,0-12.882-.859-16.747-2.577,1.717,18.466,27.054,30.919,43.372,30.919,32.207,0,48.526-17.606,48.526-49.384V132.949c0-20.613-7.3-28.343-42.084-28.343v-14.6Z" fill="#fff"/></g><g id="FILI"><g opacity="0.1"><path d="M974.571,1090.035c-7.048-53.073,22.164-53.924,26.6-16.534A387.656,387.656,0,0,0,1020,1132.31V215.678a298.021,298.021,0,0,0-86.59-14.493h-.195C678.17,206.943,563.8,505.688,752.691,737.672c27.4,33.84,30.223,53.257-19.951,20.753C605.563,669.954,361.718,728.113,349.228,998.59,333.8,1331.858,781.405,1427.881,865.446,1073.5c4.416-37.39,33.648-36.535,26.6,16.534-6.117,114.956-34.9,223.914-76.484,329.965H880c64.418,0,119.027-44.1,135.157-103.593C993.273,1243.061,978.713,1167.926,974.571,1090.035Z" fill="#fff"/></g></g><g id="FAT_2" data-name="FAT 2"><path d="M756.236,1017.411c0,132.607-48.657,192.576-180.318,192.576-88.728,0-147.4-59.124-147.4-132.607,0-51.523,23.612-92.065,69.407-92.065,32.2,0,65.115,22.8,65.115,71.793,0,36.32-20.035,66.726-53.665,66.726-12.165,0-22.183-1.689-33.631-10.135,9.3,39.7,52.235,57.435,78.71,57.435,49.373,0,81.572-30.407,81.572-86.153V708.276c0-42.232-17.173-55.746-74.417-55.746V618.745H823.5V652.53c-50.09,0-67.263,13.514-67.263,55.746Z" fill="#090a0d"/><path d="M756.236,997.41c0,132.607-48.657,192.576-180.318,192.576-88.728,0-147.4-59.125-147.4-132.608,0-51.522,23.612-92.065,69.407-92.065,32.2,0,65.115,22.805,65.115,71.794,0,36.319-20.035,66.726-53.665,66.726-12.165,0-22.183-1.689-33.631-10.135,9.3,39.7,52.235,57.435,78.71,57.435,49.373,0,81.572-30.407,81.572-86.153V688.274c0-42.231-17.173-55.745-74.417-55.745V598.743H823.5v33.786c-50.09,0-67.263,13.514-67.263,55.745Z" fill="#fff"/></g></svg>
