<svg xmlns="http://www.w3.org/2000/svg" xmlns:xlink="http://www.w3.org/1999/xlink" viewBox="0 0 1020 920"><defs><linearGradient id="Dégradé_sans_nom_216" x1="510" x2="510" y2="1420" gradientUnits="userSpaceOnUse"><stop offset="0" stop-color="#005484"/><stop offset="1" stop-color="#000013"/></linearGradient></defs><g id="cartes"><rect width="1020" height="1420" rx="140" fill="url(#Dégradé_sans_nom_216)"/></g><g id="index2"><path id="path6403-1" d="M189.98,467.029c21.966,36.274,45.074,71.531,73.952,101.648-28.878,30.116-51.986,65.373-73.952,101.648-21.965-36.275-45.074-71.532-73.953-101.648C144.906,538.56,168.014,503.3,189.98,467.029Z" fill="#fff"/><path d="M287.891,90.006v14.6c-34.784,0-42.084,7.73-42.084,28.343v186.8c0,45.09-29.2,70.856-88.034,70.856-42.514,0-65.7-27.484-65.7-57.973,0-17.607,10.736-35.643,28.772-35.643,19.325,0,29.2,6.871,29.2,25.336,0,15.03-11.166,25.337-23.19,25.337-6.871,0-12.882-.859-16.747-2.577,1.717,18.466,27.054,30.919,43.372,30.919,32.207,0,48.526-17.606,48.526-49.384V132.949c0-20.613-7.3-28.343-42.084-28.343v-14.6Z" fill="#fff"/></g><g id="FILI"><g opacity="0.1"><path d="M1020,1164.286V575.393C938.066,461.138,862.392,341.307,788.737,219.677,648.24,451.7,500.433,677.2,315.721,869.842,473.764,1034.66,604.784,1223.556,727.329,1420h122.82C904.553,1332.79,960.632,1247.073,1020,1164.286Z" fill="#fff"/></g></g><g id="FAT_2" data-name="FAT 2"><path d="M756.236,1017.411c0,132.607-48.657,192.576-180.318,192.576-88.728,0-147.4-59.124-147.4-132.607,0-51.523,23.612-92.065,69.407-92.065,32.2,0,65.115,22.8,65.115,71.793,0,36.32-20.035,66.726-53.665,66.726-12.165,0-22.183-1.689-33.631-10.135,9.3,39.7,52.235,57.435,78.71,57.435,49.373,0,81.572-30.407,81.572-86.153V708.276c0-42.232-17.173-55.746-74.417-55.746V618.745H823.5V652.53c-50.09,0-67.263,13.514-67.263,55.746Z" fill="#090a0d"/><path d="M756.236,997.41c0,132.607-48.657,192.576-180.318,192.576-88.728,0-147.4-59.125-147.4-132.608,0-51.522,23.612-92.065,69.407-92.065,32.2,0,65.115,22.805,65.115,71.794,0,36.319-20.035,66.726-53.665,66.726-12.165,0-22.183-1.689-33.631-10.135,9.3,39.7,52.235,57.435,78.71,57.435,49.373,0,81.572-30.407,81.572-86.153V688.274c0-42.231-17.173-55.745-74.417-55.745V598.743H823.5v33.786c-50.09,0-67.263,13.514-67.263,55.745Z" fill="#fff"/></g></svg>
