<svg xmlns="http://www.w3.org/2000/svg" xmlns:xlink="http://www.w3.org/1999/xlink" viewBox="0 0 1020 920"><defs><linearGradient id="Dégradé_sans_nom_216" x1="510" x2="510" y2="1420" gradientUnits="userSpaceOnUse"><stop offset="0" stop-color="#005484"/><stop offset="1" stop-color="#000013"/></linearGradient></defs><g id="cartes"><rect width="1020" height="1420" rx="140" fill="url(#Dégradé_sans_nom_216)"/></g><g id="index2"><path id="path6403-1" d="M189.98,467.029c21.966,36.274,45.074,71.531,73.952,101.648-28.878,30.116-51.986,65.373-73.952,101.648-21.965-36.275-45.074-71.532-73.953-101.648C144.906,538.56,168.014,503.3,189.98,467.029Z" fill="#fff"/><path d="M93.357,132.949c0-20.613-7.3-28.343-41.225-28.343v-14.6H174.091v14.6c-29.631,0-36.932,7.73-36.932,28.343V253.19l92.758-104.781c12.454-13.742,18.9-21.472,18.9-33.067,0-8.159-11.594-10.736-35.214-10.736v-14.6H321.816v14.6c-27.913,0-42.514,14.6-56.685,30.061l-67.851,73,82.881,134.413c12.024,19.754,19.754,28.772,47.667,28.772v14.6H209.734v-14.6c16.748,0,28.772-1.717,28.772-9.447,0-12.454-9.448-21.9-17.607-35.643l-51.532-84.6-32.208,35.643v65.7c0,20.613,7.3,28.343,36.932,28.343v14.6H52.132v-14.6c33.925,0,41.225-7.73,41.225-28.343Z" fill="#fff"/></g><g id="FILI"><g opacity="0.1"><path d="M1020,1164.286V575.393C938.066,461.138,862.392,341.307,788.737,219.677,648.24,451.7,500.433,677.2,315.721,869.842,473.764,1034.66,604.785,1223.556,727.329,1420h122.82C904.553,1332.79,960.632,1247.073,1020,1164.286Z" fill="#fff"/></g></g><g id="FAT_2" data-name="FAT 2"><path d="M361.97,628.88H610.98v33.785c-41.5,0-58.674,13.515-58.674,55.746V899.162L701.855,726.013Q716.882,708.276,716.881,688c0-15.2-7.155-25.339-35.061-25.339H656.775V628.88H870.009v33.785c-55.1,8.447-66.546,13.515-95.168,45.611L663.216,832.436l158.136,308.291c12.164,24.494,32.915,35.474,68.693,35.474v33.786H645.327V1176.2c26.475-3.378,40.07-8.446,40.07-19.426s-5.724-22.805-107.332-227.206l-25.759,27.873v163.014c0,42.232,17.173,55.745,51.519,55.745v33.786H361.97V1176.2c52.95,0,70.124-13.513,70.124-55.745V718.411c0-42.231-17.174-55.746-70.124-55.746Z" fill="#090a0d"/><path d="M361.97,608.879H610.98v33.785c-41.5,0-58.674,13.514-58.674,55.746V879.161l149.549-173.15Q716.882,688.275,716.881,668c0-15.2-7.155-25.339-35.061-25.339H656.775V608.879H870.009v33.785c-55.1,8.446-66.546,13.514-95.168,45.61L663.216,812.435l158.136,308.291c12.164,24.494,32.915,35.474,68.693,35.474v33.786H645.327V1156.2c26.475-3.378,40.07-8.446,40.07-19.426s-5.724-22.8-107.332-227.206l-25.759,27.873v163.014c0,42.231,17.173,55.745,51.519,55.745v33.786H361.97V1156.2c52.95,0,70.124-13.514,70.124-55.745V698.41c0-42.232-17.174-55.746-70.124-55.746Z" fill="#fff"/></g></svg>
