<svg xmlns="http://www.w3.org/2000/svg" xmlns:xlink="http://www.w3.org/1999/xlink" viewBox="0 0 1020 920"><defs><linearGradient id="Dégradé_sans_nom_216" x1="510" x2="510" y2="1420" gradientUnits="userSpaceOnUse"><stop offset="0" stop-color="#005484"/><stop offset="1" stop-color="#000013"/></linearGradient></defs><g id="cartes"><rect width="1020" height="1420" rx="140" fill="url(#Dégradé_sans_nom_216)"/></g><g id="index2"><path id="path6403-1" d="M189.98,467.029c21.966,36.274,45.074,71.531,73.952,101.648-28.878,30.116-51.986,65.373-73.952,101.648-21.965-36.275-45.074-71.532-73.953-101.648C144.906,538.56,168.014,503.3,189.98,467.029Z" fill="#fff"/><path d="M311.692,379.444c0,42.084-18.032,72.145-56.724,72.145-25.169,0-45.079-19.325-45.079-48.956a66.526,66.526,0,0,1,.752-9.018c-4.508.43-7.889,1.289-10.894,1.718-3.005,0-5.635.429-9.767.429-72.126,0-122.464-73.433-122.464-152.878S117.854,90.006,189.98,90.006s122.463,73.433,122.463,152.878c0,57.544-26.295,111.653-67.993,136.56,2.629,18.036,7.513,42.084,27.423,42.084,19.158,0,27.046-23.619,29.3-42.084Zm-200.6-136.56c0,73.433,15.026,118.094,47.708,133.983l.751-.859c-5.634-5.582-13.523-16.318-13.523-35.213,0-26.625,19.91-41.226,41.322-41.226,31.18,0,43.951,23.619,52.592,62.268,19.158-19.754,28.925-60.121,28.925-118.953,0-93.187-24.793-138.278-78.887-138.278S111.092,149.7,111.092,242.884ZM160.3,345.519c0,21.042,16.153,35.643,33.809,35.643a42.42,42.42,0,0,0,17.656-3.865,99.22,99.22,0,0,0,4.508-29.631c0-18.895-12.021-33.5-30.053-33.5C169.318,314.17,160.3,328.341,160.3,345.519Z" fill="#fff"/></g><g id="FILI"><g opacity="0.1"><path d="M1020,1164.286V575.393C938.066,461.138,862.392,341.307,788.737,219.677,648.24,451.7,500.433,677.2,315.721,869.842,473.764,1034.66,604.785,1223.556,727.329,1420h122.82C904.553,1332.79,960.632,1247.073,1020,1164.286Z" fill="#fff"/></g></g><g id="FAT_2" data-name="FAT 2"><path d="M877.165,1158.757c0,96.288-44.364,167.237-121.643,167.237-67.978,0-104.471-40.542-107.333-121.627-7.871,1.689-15.026,1.689-22.182,1.689-135.239,0-251.157-138.519-251.157-300.688S490.768,604.679,626.007,604.679,877.165,743.2,877.165,905.368c0,114.869-57.96,217.914-140.247,267.748,15.742,37.163,30.051,56.59,57.243,56.59,35.778,0,48.657-30.407,50.089-70.949ZM509.373,905.368c0,96.288,11.448,170.615,37.924,214.536h1.431v-8.446c0-58.28,25.044-99.667,76.563-99.667,45.08,0,74.417,29.562,94.452,74.328,15.742-44.766,22.9-105.579,22.9-180.751,0-162.17-32.916-261.837-116.635-261.837S509.373,743.2,509.373,905.368Zm75.133,202.711c0,32.1,17.888,59.124,46.51,59.124a48.854,48.854,0,0,0,20.035-4.223c1.431-8.446,5.724-43.921,5.724-54.9,0-38.853-15.742-54.057-35.777-54.057C598.816,1054.022,584.506,1076.828,584.506,1108.079Z" fill="#090a0d"/><path d="M877.165,1138.756c0,96.288-44.364,167.237-121.643,167.237-67.978,0-104.471-40.543-107.333-121.627-7.871,1.689-15.026,1.689-22.182,1.689-135.239,0-251.157-138.519-251.157-300.689S490.768,584.677,626.007,584.677,877.165,723.2,877.165,885.366c0,114.87-57.96,217.915-140.247,267.748,15.742,37.164,30.051,56.591,57.243,56.591,35.778,0,48.657-30.407,50.089-70.949ZM509.373,885.366c0,96.288,11.448,170.616,37.924,214.537h1.431v-8.447c0-58.279,25.044-99.666,76.563-99.666,45.08,0,74.417,29.562,94.452,74.328,15.742-44.766,22.9-105.58,22.9-180.752,0-162.169-32.916-261.836-116.635-261.836S509.373,723.2,509.373,885.366Zm75.133,202.712c0,32.1,17.888,59.124,46.51,59.124a48.854,48.854,0,0,0,20.035-4.223c1.431-8.446,5.724-43.921,5.724-54.9,0-38.853-15.742-54.057-35.777-54.057C598.816,1034.021,584.506,1056.827,584.506,1088.078Z" fill="#fff"/></g></svg>
