<svg xmlns="http://www.w3.org/2000/svg" xmlns:xlink="http://www.w3.org/1999/xlink" viewBox="0 0 1020 920"><defs><linearGradient id="Dégradé_sans_nom_208" x1="510" x2="510" y2="1420" gradientUnits="userSpaceOnUse"><stop offset="0" stop-color="#005539"/><stop offset="1" stop-color="#001205"/></linearGradient></defs><g id="cartes"><rect width="1020" height="1420" rx="140" fill="url(#Dégradé_sans_nom_208)"/></g><g id="index2"><path id="path147-6-9-8-7-0-5-0-8-3" d="M189.965,467.029c-39.92.9-57.821,47.662-28.256,83.973,4.289,5.3,4.731,8.335-3.123,3.248-19.906-13.848-58.073-4.745-60.028,37.591-2.414,52.164,67.646,67.194,80.8,11.725.691-5.852,5.266-5.718,4.163,2.588-1.2,22.547-7.967,43.62-17.269,64.17h47.456c-9.3-20.55-16.071-41.623-17.27-64.17-1.1-8.307,3.47-8.44,4.164-2.588,13.154,55.468,83.214,40.438,80.8-11.725-1.954-42.336-40.122-51.439-60.028-37.591-7.853,5.087-7.411,2.048-3.122-3.248,29.565-36.312,11.664-83.071-28.255-83.973h-.031Z" fill="#fff"/><path d="M60.6,118.564c27,0,48.462-12.115,58.5-25.962h9.345V344.435c0,24.233,8.309,33.752,41.539,33.752V392.9H54.375V378.187c33.23,0,41.537-9.519,41.537-33.752V152.314c0-12.981-6.922-19.037-35.308-19.037Z" fill="#fff"/><path d="M325.585,244.049c0,93.464-34.615,154.044-76.152,154.044s-76.153-60.58-76.153-154.044S207.9,90.006,249.433,90.006,325.585,150.583,325.585,244.049Zm-35.307,0c0-105.148-13.845-139.331-40.845-139.331S208.588,138.9,208.588,244.049s13.846,139.332,40.845,139.332S290.278,349.2,290.278,244.049Z" fill="#fff"/></g><g id="FILI"><g opacity="0.1"><path d="M974.571,1090.035c-7.048-53.073,22.164-53.924,26.6-16.534A387.656,387.656,0,0,0,1020,1132.31V215.678a298.021,298.021,0,0,0-86.59-14.493h-.195C678.17,206.943,563.8,505.688,752.691,737.672c27.4,33.84,30.223,53.257-19.951,20.753C605.563,669.954,361.718,728.113,349.228,998.59,333.8,1331.858,781.405,1427.881,865.446,1073.5c4.416-37.39,33.648-36.535,26.6,16.534-6.117,114.956-34.9,223.914-76.484,329.965H880c64.418,0,119.027-44.1,135.157-103.593C993.273,1243.061,978.713,1167.926,974.571,1090.035Z" fill="#fff"/></g></g><g id="FAT_2" data-name="FAT 2"><path d="M523.988,1091.738V613.677h-38.2c-35.118,33.785-56.067,45.61-124.456,47.3v38.853c60.379,0,67.773,6.757,67.773,43.921v347.988c0,54.9-7.394,70.949-80.711,74.328v33.785h255.69v-33.785C531.382,1162.687,523.988,1146.639,523.988,1091.738Z" fill="#090a0d"/><path d="M747.742,608.609c-96.731,0-155.878,126.695-155.878,300.689s59.147,300.689,155.878,300.689,155.879-126.7,155.879-300.689S844.474,608.609,747.742,608.609Zm-.616,567.593c-44.361,0-56.683-106.424-56.683-266.9s14.171-266.9,56.683-266.9c44.361,0,57.916,106.424,57.916,266.9S791.487,1176.2,747.126,1176.2Z" fill="#090a0d"/><path d="M523.988,1071.737V593.676h-38.2c-35.118,33.785-56.067,45.61-124.456,47.3v38.853c60.379,0,67.773,6.757,67.773,43.921v347.988c0,54.9-7.394,70.949-80.711,74.328v33.785h255.69v-33.785C531.382,1142.686,523.988,1126.638,523.988,1071.737Z" fill="#fff"/><path d="M747.742,588.608c-96.731,0-155.878,126.694-155.878,300.689s59.147,300.689,155.878,300.689,155.879-126.7,155.879-300.689S844.474,588.608,747.742,588.608Zm-.616,567.592c-44.361,0-56.683-106.423-56.683-266.9s14.171-266.9,56.683-266.9c44.361,0,57.916,106.424,57.916,266.9S791.487,1156.2,747.126,1156.2Z" fill="#fff"/></g></svg>
