<svg xmlns="http://www.w3.org/2000/svg" xmlns:xlink="http://www.w3.org/1999/xlink" viewBox="0 0 1020 920"><defs><linearGradient id="Dégradé_sans_nom_216" x1="510" x2="510" y2="1420" gradientUnits="userSpaceOnUse"><stop offset="0" stop-color="#005484"/><stop offset="1" stop-color="#000013"/></linearGradient></defs><g id="cartes"><rect width="1020" height="1420" rx="140" fill="url(#Dégradé_sans_nom_216)"/></g><g id="index2"><path id="path6403-1" d="M189.98,467.029c21.966,36.274,45.074,71.531,73.952,101.648-28.878,30.116-51.986,65.373-73.952,101.648-21.965-36.275-45.074-71.532-73.953-101.648C144.906,538.56,168.014,503.3,189.98,467.029Z" fill="#fff"/><path d="M60.6,118.564c27,0,48.462-12.115,58.5-25.962h9.345V344.435c0,24.233,8.309,33.752,41.539,33.752V392.9H54.375V378.187c33.23,0,41.537-9.519,41.537-33.752V152.314c0-12.981-6.922-19.037-35.308-19.037Z" fill="#fff"/><path d="M325.585,244.049c0,93.464-34.615,154.044-76.152,154.044s-76.153-60.58-76.153-154.044S207.9,90.006,249.433,90.006,325.585,150.583,325.585,244.049Zm-35.307,0c0-105.148-13.845-139.331-40.845-139.331S208.588,138.9,208.588,244.049s13.846,139.332,40.845,139.332S290.278,349.2,290.278,244.049Z" fill="#fff"/></g><g id="FILI"><g opacity="0.1"><path d="M1020,1164.286V575.393C938.066,461.138,862.392,341.307,788.737,219.677,648.24,451.7,500.433,677.2,315.721,869.842,473.764,1034.66,604.784,1223.556,727.329,1420h122.82C904.553,1332.79,960.632,1247.073,1020,1164.286Z" fill="#fff"/></g></g><g id="FAT_2" data-name="FAT 2"><path d="M523.988,1091.738V613.677h-38.2c-35.118,33.785-56.067,45.61-124.456,47.3v38.853c60.379,0,67.773,6.757,67.773,43.921v347.988c0,54.9-7.394,70.949-80.711,74.328v33.785h255.69v-33.785C531.382,1162.687,523.988,1146.639,523.988,1091.738Z" fill="#090a0d"/><path d="M747.742,608.609c-96.731,0-155.878,126.695-155.878,300.689s59.147,300.689,155.878,300.689,155.879-126.7,155.879-300.689S844.474,608.609,747.742,608.609Zm-.616,567.593c-44.361,0-56.683-106.424-56.683-266.9s14.171-266.9,56.683-266.9c44.361,0,57.916,106.424,57.916,266.9S791.487,1176.2,747.126,1176.2Z" fill="#090a0d"/><path d="M523.988,1071.737V593.676h-38.2c-35.118,33.785-56.067,45.61-124.456,47.3v38.853c60.379,0,67.773,6.757,67.773,43.921v347.988c0,54.9-7.394,70.949-80.711,74.328v33.785h255.69v-33.785C531.382,1142.686,523.988,1126.638,523.988,1071.737Z" fill="#fff"/><path d="M747.742,588.608c-96.731,0-155.878,126.694-155.878,300.689s59.147,300.689,155.878,300.689,155.879-126.7,155.879-300.689S844.474,588.608,747.742,588.608Zm-.616,567.592c-44.361,0-56.683-106.423-56.683-266.9s14.171-266.9,56.683-266.9c44.361,0,57.916,106.424,57.916,266.9S791.487,1156.2,747.126,1156.2Z" fill="#fff"/></g></svg>
