<svg xmlns="http://www.w3.org/2000/svg" xmlns:xlink="http://www.w3.org/1999/xlink" viewBox="0 0 1020 1420"><defs><linearGradient id="Dégradé_sans_nom_208" x1="510" x2="510" y2="1420" gradientUnits="userSpaceOnUse"><stop offset="0" stop-color="#005539"/><stop offset="1" stop-color="#001205"/></linearGradient></defs><g id="cartes"><rect width="1020" height="1420" rx="140" fill="url(#Dégradé_sans_nom_208)"/></g><g id="index2"><path id="path147-6-9-8-7-0-5-0-8-3" d="M189.965,467.029c-39.92.9-57.821,47.662-28.256,83.973,4.289,5.3,4.731,8.335-3.123,3.248-19.906-13.848-58.073-4.745-60.028,37.591-2.414,52.164,67.646,67.194,80.8,11.725.691-5.852,5.266-5.718,4.163,2.588-1.2,22.547-7.967,43.62-17.269,64.17h47.456c-9.3-20.55-16.071-41.623-17.27-64.17-1.1-8.307,3.47-8.44,4.164-2.588,13.154,55.468,83.214,40.438,80.8-11.725-1.954-42.336-40.122-51.439-60.028-37.591-7.853,5.087-7.411,2.048-3.122-3.248,29.565-36.312,11.664-83.071-28.255-83.973h-.031Z" fill="#fff"/><path d="M98.51,390.609c0-94.046,141.714-133.983,141.714-220.729,0-39.508-21.472-65.274-60.551-65.274-33.5,0-57.973,21.043-61.408,54.538,4.294-2.147,8.588-4.723,15.459-4.723,11.6,0,22.331,6.871,22.331,24.907,0,12.453-9.018,24.907-25.337,24.907-17.607,0-27.054-12.883-27.054-37.361,0-47.667,40.8-76.868,85.886-76.868,46.809,0,91.04,26.625,91.04,77.3,0,90.61-127.541,111.223-158.031,188.092H212.74c37.79,0,52.391-13.742,57.544-54.968h11.165l-3.435,90.181Z" fill="#fff"/></g><g id="FILI"><g opacity="0.1"><path d="M974.571,1090.035c-7.048-53.073,22.164-53.924,26.6-16.534A387.656,387.656,0,0,0,1020,1132.31V215.678a298.021,298.021,0,0,0-86.59-14.493h-.195C678.17,206.943,563.8,505.688,752.691,737.672c27.4,33.84,30.224,53.257-19.951,20.753C605.563,669.954,361.718,728.113,349.229,998.59,333.8,1331.858,781.405,1427.881,865.446,1073.5c4.416-37.39,33.648-36.535,26.6,16.534-6.116,114.956-34.9,223.914-76.483,329.965H880c64.418,0,119.027-44.1,135.157-103.593C993.273,1243.061,978.713,1167.926,974.571,1090.035Z" fill="#fff"/></g></g><g id="FAT_2" data-name="FAT 2"><path d="M794.519,987l-10.733,222.983H457.5c0-18.582,3.579-61.658,9.3-72.639C583.432,913.521,673.591,892.405,673.591,769.934c0-59.125-28.622-107.269-82.288-107.269-40.786,0-77.279,32.941-92.3,74.328l1.431,1.689c7.871-5.912,18.6-8.446,29.337-8.446,27.191,0,47.942,27.028,47.942,58.279,0,41.388-22.9,68.416-54.382,68.416-37.924,0-60.106-36.319-60.106-79.4,0-103.889,85.866-158.79,165.292-158.79,86.581,0,159.567,58.279,159.567,161.324,0,157.946-155.274,162.17-264.753,313.359H654.987c83,0,104.47-30.407,113.057-106.424Z" fill="#090a0d"/><path d="M794.519,967l-10.733,222.983H457.5c0-18.582,3.579-61.659,9.3-72.639C583.432,893.52,673.591,872.4,673.591,749.932c0-59.124-28.622-107.268-82.288-107.268-40.786,0-77.279,32.941-92.3,74.328l1.431,1.689c7.871-5.912,18.6-8.446,29.337-8.446,27.191,0,47.942,27.028,47.942,58.279,0,41.387-22.9,68.416-54.382,68.416-37.924,0-60.106-36.32-60.106-79.4,0-103.89,85.866-158.791,165.292-158.791,86.581,0,159.567,58.28,159.567,161.325,0,157.946-155.274,162.169-264.753,313.358H654.987c83,0,104.47-30.407,113.057-106.423Z" fill="#fff"/></g></svg>
