<svg xmlns="http://www.w3.org/2000/svg" xmlns:xlink="http://www.w3.org/1999/xlink" viewBox="0 0 1020 1420"><defs><linearGradient id="Dégradé_sans_nom_219" x1="510" x2="510" y2="1420" gradientUnits="userSpaceOnUse"><stop offset="0" stop-color="#4e515b"/><stop offset="0.9" stop-color="#090a0d"/></linearGradient></defs><g id="cartes"><rect width="1020" height="1420" rx="140" fill="url(#Dégradé_sans_nom_219)"/></g><g id="index2"><path id="path153-0-1-2-5-6-5-9-1-9" d="M189.98,467.03c43.816,55.724,90.7,87.792,91.477,131.266.264,14.078-8.273,38.006-35.007,42.586-17.344,2.957-41.223-9.562-41.722-35,.1-5.064-6.011-4.932-5.955,2.006.813,20.062,7.938,43.419,19.906,62.432h-57.4c11.968-19.013,19.089-42.37,19.905-62.432.1-6.938-6.031-7.07-5.954-2.006-.5,25.433-24.379,37.952-41.723,34.994C106.776,636.3,98.241,612.374,98.5,598.3c.783-43.474,47.661-75.542,91.476-131.267Z" fill="#fff"/><path d="M172.373,395.762c-39.508,0-78.586-21.471-78.586-67.421,0-22.33,10.736-38.219,30.49-38.219,14.6,0,24.906,11.165,24.906,24.048,0,13.312-11.165,24.048-23.189,24.048a36.122,36.122,0,0,1-15.889-3.865c.859,33.926,32.207,46.809,61.839,46.809,47.237,0,70.427-29.631,70.427-75.151,0-28.772-11.595-63.986-47.238-63.986-9.018,0-18.466,2.577-27.054,2.577-4.724,0-10.736-1.289-10.736-7.73,0-6.012,6.441-8.589,13.742-8.589,6.871,0,12.024,1.718,18.465,1.718,31.778,0,47.667-34.784,47.667-62.7,0-36.932-18.465-62.7-57.973-62.7-27.913,0-57.115,12.454-60.121,43.8a25.031,25.031,0,0,1,12.883-3.436c12.454,0,21.043,9.018,21.043,22.76,0,15.889-10.737,25.337-25.337,25.337-13.742,0-24.907-13.742-24.907-33.5,0-38.649,35.213-69.568,79.445-69.568,45.949,0,95.334,22.76,95.334,75.151,0,36.072-30.919,59.261-63.127,67.421v.429c38.22,3.865,71.716,28.772,71.716,70C286.173,360.978,231.205,395.762,172.373,395.762Z" fill="#fff"/></g><g id="FILI"><g opacity="0.1"><path d="M350.061,1041.143c-1.664,89.682,52.705,242.113,223.011,271.291,110.492,18.841,262.621-60.91,265.795-222.934-.486-32.258,38.583-31.421,37.935,12.781-4.1,100.807-33.2,214.672-82.721,317.719H880c75.375,0,137.324-60.371,139.906-135.145-18.065-62.149-28.714-124.527-31.067-182.574-.261-32.08,20.179-41.312,31.161-31.633V310.792c-29.036-33.842-58.212-69.052-87.178-105.89h0C653.692,559.9,355.049,764.185,350.061,1041.143Z" fill="#fff"/></g></g><g id="FAT_2" data-name="FAT 2"><path d="M671.087,894.939c73.7,5.068,130.23,44.766,130.23,140.209s-81.572,174.839-195.345,174.839c-93.021,0-155.274-55.746-155.274-137.675,0-44.766,29.338-83.619,62.968-83.619,35.778,0,57.244,28.718,57.244,63.348,0,43.076-22.9,61.658-51.519,61.658-12.164,0-21.467-3.379-28.622-9.291,6.44,48.144,52.235,66.726,92.306,66.726,70.123,0,98.029-55.746,98.029-131.763,0-69.26-30.053-124.161-67.976-124.161-17.889,0-32.2,5.913-45.08,5.913-15.742,0-25.76-6.757-25.76-21.961,0-9.291,7.871-20.271,27.907-20.271,10.733,0,20.751,2.534,30.053,2.534,42.217,0,76.563-49.833,76.563-116.559S643.9,652.53,594.523,652.53c-37.924,0-64.4,14.359-85.15,54.056l1.431,1.69a55.37,55.37,0,0,1,24.329-6.758c27.906,0,48.657,25.34,48.657,56.591,0,38.008-19.32,65.036-57.959,65.036-31.484,0-56.528-27.872-56.528-73.482,0-94.6,83.719-141.054,154.558-141.054,93.021,0,167.438,64.192,167.438,149.5,0,83.618-55.812,127.539-120.212,135.986v.844Z" fill="#090a0d"/><path d="M671.087,874.938c73.7,5.068,130.23,44.765,130.23,140.209s-81.572,174.839-195.345,174.839c-93.021,0-155.274-55.746-155.274-137.675,0-44.766,29.338-83.619,62.968-83.619,35.778,0,57.244,28.718,57.244,63.347,0,43.077-22.9,61.659-51.519,61.659-12.164,0-21.467-3.379-28.622-9.291,6.44,48.144,52.235,66.726,92.306,66.726,70.123,0,98.029-55.746,98.029-131.763,0-69.26-30.053-124.161-67.976-124.161-17.889,0-32.2,5.913-45.08,5.913-15.742,0-25.76-6.757-25.76-21.961,0-9.291,7.871-20.271,27.907-20.271,10.733,0,20.751,2.534,30.053,2.534,42.217,0,76.563-49.833,76.563-116.559S643.9,632.529,594.523,632.529c-37.924,0-64.4,14.359-85.15,54.056l1.431,1.689a55.381,55.381,0,0,1,24.329-6.757c27.906,0,48.657,25.339,48.657,56.591,0,38.008-19.32,65.036-57.959,65.036-31.484,0-56.528-27.873-56.528-73.483,0-94.6,83.719-141.053,154.558-141.053,93.021,0,167.438,64.192,167.438,149.5,0,83.618-55.812,127.539-120.212,135.985v.845Z" fill="#fff"/></g></svg>
