<svg xmlns="http://www.w3.org/2000/svg" xmlns:xlink="http://www.w3.org/1999/xlink" viewBox="0 0 1020 1420"><defs><linearGradient id="Dégradé_sans_nom_219" x1="510" x2="510" y2="1420" gradientUnits="userSpaceOnUse"><stop offset="0" stop-color="#4e515b"/><stop offset="0.9" stop-color="#090a0d"/></linearGradient></defs><g id="cartes"><rect width="1020" height="1420" rx="140" fill="url(#Dégradé_sans_nom_219)"/></g><g id="index2"><path id="path153-0-1-2-5-6-5-9-1-9" d="M189.98,467.03c43.816,55.724,90.7,87.792,91.477,131.266.264,14.078-8.273,38.006-35.007,42.586-17.344,2.957-41.223-9.562-41.722-35,.1-5.064-6.011-4.932-5.955,2.006.813,20.062,7.938,43.419,19.906,62.432h-57.4c11.968-19.013,19.089-42.37,19.905-62.432.1-6.938-6.031-7.07-5.954-2.006-.5,25.433-24.379,37.952-41.723,34.994C106.776,636.3,98.241,612.374,98.5,598.3c.783-43.474,47.661-75.542,91.476-131.267Z" fill="#fff"/><path d="M244.733,292.7h45.09v18.9h-45.09v28.343c0,24.048,10.306,33.5,36.072,33.5v14.6H160.564v-14.6c33.5,0,43.8-9.448,43.8-33.5V311.593H90.137V292.7L220.255,90.006h24.478Zm-40.367,0V141.538h-.859L107.314,292.7Z" fill="#fff"/></g><g id="FILI"><g opacity="0.1"><path d="M350.061,1041.143c-1.664,89.682,52.705,242.113,223.011,271.291,110.492,18.841,262.622-60.91,265.795-222.934-.486-32.258,38.583-31.421,37.935,12.781-4.1,100.807-33.2,214.672-82.721,317.719H880c75.375,0,137.323-60.371,139.906-135.145-18.065-62.149-28.714-124.527-31.067-182.574-.261-32.08,20.178-41.312,31.161-31.633V310.792c-29.036-33.842-58.212-69.052-87.177-105.89h0C653.692,559.9,355.049,764.185,350.061,1041.143Z" fill="#fff"/></g></g><g id="FAT_2" data-name="FAT 2"><path d="M543,1209.987V1176.2c69.408-3.378,78-19.426,78-74.327v-40.542H439.249l2.863-52.368L674.665,618.745h56.528v393.6h81.572v48.989H731.193v40.542c0,54.9,8.587,70.949,68.693,74.327v33.786Zm78-197.644V780.914h-1.431L480.751,1012.343Z" fill="#090a0d"/><path d="M543,1189.986V1156.2c69.408-3.378,78-19.426,78-74.327V1041.33H439.249l2.863-52.367,232.553-390.22h56.528v393.6h81.572v48.988H731.193v40.543c0,54.9,8.587,70.949,68.693,74.327v33.786Zm78-197.644V760.913h-1.431L480.751,992.342Z" fill="#fff"/></g></svg>
