<svg xmlns="http://www.w3.org/2000/svg" xmlns:xlink="http://www.w3.org/1999/xlink" viewBox="0 0 1020 1420"><defs><linearGradient id="Dégradé_sans_nom_169" x1="510" x2="510" y2="1420" gradientUnits="userSpaceOnUse"><stop offset="0" stop-color="#98161b"/><stop offset="1" stop-color="#1d0000"/></linearGradient></defs><g id="cartes"><rect width="1020" height="1420" rx="140" fill="url(#Dégradé_sans_nom_169)"/></g><g id="index2"><path id="path9700-3-2" d="M189.98,670.325S212.593,637.9,243.1,599.78c20.408-25.51,36.722-53.133,38.24-76.926,1.739-27.18-14.729-54.447-44.543-55.769-29.8-1.32-41.891,20.957-46.815,39.324-4.924-18.367-17.019-40.644-46.815-39.324-29.814,1.322-46.283,28.589-44.543,55.769,1.517,23.793,17.832,51.416,38.239,76.926C167.366,637.9,189.98,670.325,189.98,670.325Z" fill="#fff"/><path d="M125.565,220.124l.858.859c13.313-15.03,33.926-23.619,59.692-23.619,51.532,0,96.193,37.79,96.193,93.616,0,56.686-55.4,102.206-111.653,102.206-39.937,0-73-26.2-73-67.851,0-23.619,11.165-36.931,29.2-36.931,13.742,0,23.619,9.877,23.619,23.189,0,18.037-12.024,24.907-24.049,24.907a28.829,28.829,0,0,1-13.312-3.435c0,32.207,27.484,45.52,56.256,45.52,49.814,0,72.574-35.214,72.574-82.881,0-40.8-18.036-83.739-66.133-83.739-31.348,0-50.673,15.889-54.108,44.661-.859,6.871-3.436,9.447-8.589,9.447s-6.871-3.006-6.871-7.3c0-7.3,2.147-15.03,3.006-22.76L122.558,90.006c23.19,4.294,47.239,9.447,80.3,9.447,24.049,0,40.8-3.006,63.986-9.447-7.73,39.507-59.261,49.814-87.175,49.814-16.748,0-32.207-3.436-45.52-6.871Z" fill="#fff"/></g><g id="FILI"><g opacity="0.1"><path d="M613.689,320.337c-175.986,7.8-273.2,168.753-262.926,329.186,8.952,140.444,105.258,303.5,225.714,454.077,99.846,124.773,185.369,239.205,241.754,316.4H880c77,0,140-63,140-140V354.78c-73.427,45.076-110.859,126.365-129.975,197.673C860.961,444.038,789.567,312.542,613.689,320.337Z" fill="#fff"/></g></g><g id="FAT_2" data-name="FAT 2"><path d="M504.722,618.745c47.226,11.825,94.453,20.271,143.11,20.271,39.355,0,83.719-4.224,120.212-20.271v16.892c0,84.464-68.693,126.7-153.127,126.7-32.915,0-63.684-3.379-88.013-13.514l-7.871,117.4c31.484-29.562,62.969-39.7,103.039-39.7,97.315,0,171.731,82.774,171.731,187.508,0,106.424-71.554,195.955-201.068,195.955-66.547,0-134.524-49.833-134.524-128.384,0-46.455,22.9-82.774,60.822-82.774,36.493,0,53.666,27.028,53.666,60.813,0,37.164-23.613,59.125-53.666,59.125a41.241,41.241,0,0,1-15.742-3.379l-1.431,1.689c12.88,32.1,47.226,59.125,79.426,59.125,60.822,0,92.306-64.193,92.306-174.839,0-81.929-30.053-130.918-75.848-130.918-48.658,0-82.289,30.407-88.013,73.483-2.147,16.048-7.156,25.339-17.173,25.339s-15.742-9.291-15.742-22.805c0-15.2,2.862-25.339,5.724-41.387Z" fill="#090a0d"/><path d="M504.722,598.743c47.226,11.825,94.453,20.272,143.11,20.272,39.355,0,83.719-4.224,120.212-20.272v16.893c0,84.463-68.693,126.7-153.127,126.7-32.915,0-63.684-3.379-88.013-13.514l-7.871,117.4c31.484-29.563,62.969-39.7,103.039-39.7,97.315,0,171.731,82.774,171.731,187.508,0,106.424-71.554,195.955-201.068,195.955-66.547,0-134.524-49.834-134.524-128.384,0-46.455,22.9-82.774,60.822-82.774,36.493,0,53.666,27.028,53.666,60.813,0,37.164-23.613,59.124-53.666,59.124a41.242,41.242,0,0,1-15.742-3.378l-1.431,1.689c12.88,32.1,47.226,59.124,79.426,59.124,60.822,0,92.306-64.192,92.306-174.838,0-81.93-30.053-130.918-75.848-130.918-48.658,0-82.289,30.407-88.013,73.483-2.147,16.048-7.156,25.339-17.173,25.339s-15.742-9.291-15.742-22.8c0-15.2,2.862-25.339,5.724-41.387Z" fill="#fff"/></g></svg>
