<svg xmlns="http://www.w3.org/2000/svg" xmlns:xlink="http://www.w3.org/1999/xlink" viewBox="0 0 1020 1420"><defs><linearGradient id="Dégradé_sans_nom_208" x1="510" x2="510" y2="1420" gradientUnits="userSpaceOnUse"><stop offset="0" stop-color="#005539"/><stop offset="1" stop-color="#001205"/></linearGradient></defs><g id="cartes"><rect width="1020" height="1420" rx="140" fill="url(#Dégradé_sans_nom_208)"/></g><g id="index2"><path id="path147-6-9-8-7-0-5-0-8-3" d="M189.965,467.029c-39.92.9-57.821,47.662-28.256,83.973,4.289,5.3,4.731,8.335-3.123,3.248-19.906-13.848-58.073-4.745-60.028,37.591-2.414,52.164,67.646,67.194,80.8,11.725.691-5.852,5.266-5.718,4.163,2.588-1.2,22.547-7.967,43.62-17.269,64.17h47.456c-9.3-20.55-16.071-41.623-17.27-64.17-1.1-8.307,3.47-8.44,4.164-2.588,13.154,55.468,83.214,40.438,80.8-11.725-1.954-42.336-40.122-51.439-60.028-37.591-7.853,5.087-7.411,2.048-3.122-3.248,29.565-36.312,11.664-83.071-28.255-83.973h-.031Z" fill="#fff"/><path d="M192.127,395.762c-70,0-97.052-75.151-97.052-134.412,0-101.776,52.391-171.344,114.659-171.344,26.195,0,58.4,16.748,58.4,46.808,0,15.03-10.307,27.484-25.767,27.484-14.6,0-24.048-9.877-24.048-24.049,0-13.312,8.16-22.33,19.754-22.33a41.712,41.712,0,0,1,7.3.429c-8.16-11.165-25.767-13.742-38.65-13.742-35.213,0-56.684,32.637-61.838,64.415-2.147,12.883-6.012,49.385-6.012,76.869h.859c12.883-27.913,31.778-44.232,64.415-44.232,46.808,0,80.734,45.091,80.734,88.893C284.885,345.519,250.959,395.762,192.127,395.762ZM138.877,300c0,55.826,24.048,81.163,52.821,81.163S244.517,366.99,244.517,300c0-70-24.048-83.74-52.819-83.74S138.877,242.884,138.877,300Z" fill="#fff"/></g><g id="FILI"><g opacity="0.1"><path d="M974.571,1090.035c-7.048-53.073,22.164-53.924,26.6-16.534A387.656,387.656,0,0,0,1020,1132.31V215.678a298.021,298.021,0,0,0-86.59-14.493h-.195C678.17,206.943,563.8,505.688,752.691,737.672c27.4,33.84,30.223,53.257-19.951,20.753C605.563,669.954,361.718,728.113,349.228,998.59,333.8,1331.858,781.405,1427.881,865.446,1073.5c4.416-37.39,33.648-36.535,26.6,16.534-6.117,114.956-34.9,223.914-76.484,329.965H880c64.418,0,119.027-44.1,135.157-103.593C993.274,1243.061,978.713,1167.926,974.571,1090.035Z" fill="#fff"/></g></g><g id="FAT_2" data-name="FAT 2"><path d="M718.313,660.976v-1.689c-10.733-8.446-31.484-16.893-45.795-16.893-77.279,0-102.323,81.085-102.323,231.43h1.431c18.6-28.718,54.381-45.611,87.3-45.611,85.866,0,143.11,79.4,143.11,175.684,0,115.714-60.106,206.09-168.869,206.09-124.5,0-183.181-121.627-183.181-278.729,0-168.926,89.444-322.649,211.8-322.649,67.261,0,114.488,41.387,114.488,100.511,0,39.7-23.613,68.415-57.96,68.415-26.475,0-52.235-27.028-52.235-57.434C666.078,676.18,686.829,660.976,718.313,660.976Zm-82.288,206.09c-50.088,0-65.83,67.571-65.83,144.432,0,119.094,11.448,164.7,56.528,164.7s55.1-50.678,55.1-153.723C681.82,907.609,671.8,867.066,636.025,867.066Z" fill="#090a0d"/><path d="M718.313,640.975v-1.689c-10.733-8.447-31.484-16.893-45.795-16.893-77.279,0-102.323,81.085-102.323,231.429h1.431c18.6-28.717,54.381-45.61,87.3-45.61,85.866,0,143.11,79.395,143.11,175.683,0,115.715-60.106,206.091-168.869,206.091-124.5,0-183.181-121.627-183.181-278.729,0-168.926,89.444-322.649,211.8-322.649,67.261,0,114.488,41.387,114.488,100.511,0,39.7-23.613,68.415-57.96,68.415-26.475,0-52.235-27.028-52.235-57.435C666.078,656.178,686.829,640.975,718.313,640.975Zm-82.288,206.09c-50.088,0-65.83,67.571-65.83,144.432,0,119.093,11.448,164.7,56.528,164.7s55.1-50.677,55.1-153.723C681.82,887.607,671.8,847.065,636.025,847.065Z" fill="#fff"/></g></svg>
