<svg xmlns="http://www.w3.org/2000/svg" xmlns:xlink="http://www.w3.org/1999/xlink" viewBox="0 0 1020 1420"><defs><linearGradient id="Dégradé_sans_nom_216" x1="510" x2="510" y2="1420" gradientUnits="userSpaceOnUse"><stop offset="0" stop-color="#005484"/><stop offset="1" stop-color="#000013"/></linearGradient></defs><g id="cartes"><rect width="1020" height="1420" rx="140" fill="url(#Dégradé_sans_nom_216)"/></g><g id="index2"><path id="path6403-1" d="M189.98,467.029c21.966,36.274,45.074,71.531,73.952,101.648-28.878,30.116-51.986,65.373-73.952,101.648-21.965-36.275-45.074-71.532-73.953-101.648C144.906,538.56,168.014,503.3,189.98,467.029Z" fill="#fff"/><path d="M192.127,395.762c-70,0-97.052-75.151-97.052-134.412,0-101.776,52.391-171.344,114.659-171.344,26.195,0,58.4,16.748,58.4,46.808,0,15.03-10.307,27.484-25.767,27.484-14.6,0-24.048-9.877-24.048-24.049,0-13.312,8.16-22.33,19.754-22.33a41.712,41.712,0,0,1,7.3.429c-8.16-11.165-25.767-13.742-38.65-13.742-35.213,0-56.684,32.637-61.838,64.415-2.147,12.883-6.012,49.385-6.012,76.869h.859c12.883-27.913,31.778-44.232,64.415-44.232,46.808,0,80.734,45.091,80.734,88.893C284.885,345.519,250.959,395.762,192.127,395.762ZM138.877,300c0,55.826,24.048,81.163,52.821,81.163S244.517,366.99,244.517,300c0-70-24.048-83.74-52.819-83.74S138.877,242.884,138.877,300Z" fill="#fff"/></g><g id="FILI"><g opacity="0.1"><path d="M1020,1164.286V575.393C938.066,461.138,862.392,341.307,788.737,219.677,648.24,451.7,500.433,677.2,315.721,869.842,473.764,1034.66,604.784,1223.556,727.329,1420h122.82C904.553,1332.79,960.632,1247.073,1020,1164.286Z" fill="#fff"/></g></g><g id="FAT_2" data-name="FAT 2"><path d="M718.313,660.976v-1.689c-10.733-8.446-31.484-16.893-45.795-16.893-77.279,0-102.323,81.085-102.323,231.43h1.431c18.6-28.718,54.381-45.611,87.3-45.611,85.866,0,143.11,79.4,143.11,175.684,0,115.714-60.106,206.09-168.869,206.09-124.5,0-183.181-121.627-183.181-278.729,0-168.926,89.444-322.649,211.8-322.649,67.261,0,114.488,41.387,114.488,100.511,0,39.7-23.613,68.415-57.96,68.415-26.475,0-52.235-27.028-52.235-57.434C666.078,676.18,686.829,660.976,718.313,660.976Zm-82.288,206.09c-50.088,0-65.83,67.571-65.83,144.432,0,119.094,11.448,164.7,56.528,164.7s55.1-50.678,55.1-153.723C681.82,907.609,671.8,867.066,636.025,867.066Z" fill="#090a0d"/><path d="M718.313,640.975v-1.689c-10.733-8.447-31.484-16.893-45.795-16.893-77.279,0-102.323,81.085-102.323,231.429h1.431c18.6-28.717,54.381-45.61,87.3-45.61,85.866,0,143.11,79.395,143.11,175.683,0,115.715-60.106,206.091-168.869,206.091-124.5,0-183.181-121.627-183.181-278.729,0-168.926,89.444-322.649,211.8-322.649,67.261,0,114.488,41.387,114.488,100.511,0,39.7-23.613,68.415-57.96,68.415-26.475,0-52.235-27.028-52.235-57.435C666.078,656.178,686.829,640.975,718.313,640.975Zm-82.288,206.09c-50.088,0-65.83,67.571-65.83,144.432,0,119.093,11.448,164.7,56.528,164.7s55.1-50.677,55.1-153.723C681.82,887.607,671.8,847.065,636.025,847.065Z" fill="#fff"/></g></svg>
