<svg xmlns="http://www.w3.org/2000/svg" xmlns:xlink="http://www.w3.org/1999/xlink" viewBox="0 0 1020 1420"><defs><linearGradient id="Dégradé_sans_nom_219" x1="510" x2="510" y2="1420" gradientUnits="userSpaceOnUse"><stop offset="0" stop-color="#4e515b"/><stop offset="0.9" stop-color="#090a0d"/></linearGradient></defs><g id="cartes"><rect width="1020" height="1420" rx="140" fill="url(#Dégradé_sans_nom_219)"/></g><g id="index2"><path id="path153-0-1-2-5-6-5-9-1-9" d="M189.98,467.03c43.816,55.724,90.7,87.792,91.477,131.266.264,14.078-8.273,38.006-35.007,42.586-17.344,2.957-41.223-9.562-41.722-35,.1-5.064-6.011-4.932-5.955,2.006.813,20.062,7.938,43.419,19.906,62.432h-57.4c11.968-19.013,19.089-42.37,19.905-62.432.1-6.938-6.031-7.07-5.954-2.006-.5,25.433-24.379,37.952-41.723,34.994C106.776,636.3,98.241,612.374,98.5,598.3c.783-43.474,47.661-75.542,91.476-131.267Z" fill="#fff"/><path d="M192.127,395.762c-70,0-97.052-75.151-97.052-134.412,0-101.776,52.391-171.344,114.659-171.344,26.195,0,58.4,16.748,58.4,46.808,0,15.03-10.307,27.484-25.767,27.484-14.6,0-24.048-9.877-24.048-24.049,0-13.312,8.16-22.33,19.754-22.33a41.712,41.712,0,0,1,7.3.429c-8.16-11.165-25.767-13.742-38.65-13.742-35.213,0-56.684,32.637-61.838,64.415-2.147,12.883-6.012,49.385-6.012,76.869h.859c12.883-27.913,31.778-44.232,64.415-44.232,46.808,0,80.734,45.091,80.734,88.893C284.885,345.519,250.959,395.762,192.127,395.762ZM138.877,300c0,55.826,24.048,81.163,52.821,81.163S244.517,366.99,244.517,300c0-70-24.048-83.74-52.819-83.74S138.877,242.884,138.877,300Z" fill="#fff"/></g><g id="FILI"><g opacity="0.1"><path d="M350.061,1041.143c-1.664,89.682,52.7,242.113,223.011,271.291,110.492,18.841,262.622-60.91,265.795-222.934-.486-32.258,38.583-31.421,37.935,12.781-4.1,100.807-33.2,214.672-82.721,317.719H880c75.375,0,137.323-60.371,139.906-135.145-18.065-62.149-28.713-124.527-31.067-182.574-.261-32.08,20.178-41.312,31.161-31.633V310.792c-29.036-33.842-58.212-69.052-87.177-105.89h0C653.692,559.9,355.049,764.185,350.061,1041.143Z" fill="#fff"/></g></g><g id="FAT_2" data-name="FAT 2"><path d="M718.313,660.976v-1.689c-10.733-8.446-31.484-16.893-45.795-16.893-77.279,0-102.323,81.085-102.323,231.43h1.431c18.6-28.718,54.381-45.611,87.3-45.611,85.866,0,143.11,79.4,143.11,175.684,0,115.714-60.106,206.09-168.869,206.09-124.5,0-183.181-121.627-183.181-278.729,0-168.926,89.444-322.649,211.8-322.649,67.261,0,114.488,41.387,114.488,100.511,0,39.7-23.613,68.415-57.96,68.415-26.475,0-52.235-27.028-52.235-57.434C666.078,676.18,686.829,660.976,718.313,660.976Zm-82.288,206.09c-50.088,0-65.83,67.571-65.83,144.432,0,119.094,11.448,164.7,56.528,164.7s55.1-50.678,55.1-153.723C681.82,907.609,671.8,867.066,636.025,867.066Z" fill="#090a0d"/><path d="M718.313,640.975v-1.689c-10.733-8.447-31.484-16.893-45.795-16.893-77.279,0-102.323,81.085-102.323,231.429h1.431c18.6-28.717,54.381-45.61,87.3-45.61,85.866,0,143.11,79.395,143.11,175.683,0,115.715-60.106,206.091-168.869,206.091-124.5,0-183.181-121.627-183.181-278.729,0-168.926,89.444-322.649,211.8-322.649,67.261,0,114.488,41.387,114.488,100.511,0,39.7-23.613,68.415-57.96,68.415-26.475,0-52.235-27.028-52.235-57.435C666.078,656.178,686.829,640.975,718.313,640.975Zm-82.288,206.09c-50.088,0-65.83,67.571-65.83,144.432,0,119.093,11.448,164.7,56.528,164.7s55.1-50.677,55.1-153.723C681.82,887.607,671.8,847.065,636.025,847.065Z" fill="#fff"/></g></svg>
