<svg xmlns="http://www.w3.org/2000/svg" xmlns:xlink="http://www.w3.org/1999/xlink" viewBox="0 0 1020 1420"><defs><linearGradient id="Dégradé_sans_nom_169" x1="510" x2="510" y2="1420" gradientUnits="userSpaceOnUse"><stop offset="0" stop-color="#98161b"/><stop offset="1" stop-color="#1d0000"/></linearGradient></defs><g id="cartes"><rect width="1020" height="1420" rx="140" fill="url(#Dégradé_sans_nom_169)"/></g><g id="index2"><path id="path9700-3-2" d="M189.98,670.325S212.593,637.9,243.1,599.78c20.408-25.51,36.722-53.133,38.24-76.926,1.739-27.18-14.729-54.447-44.543-55.769-29.8-1.32-41.891,20.957-46.815,39.324-4.924-18.367-17.019-40.644-46.815-39.324-29.814,1.322-46.283,28.589-44.543,55.769,1.517,23.793,17.832,51.416,38.239,76.926C167.366,637.9,189.98,670.325,189.98,670.325Z" fill="#fff"/><path d="M97.652,185.34l4.294-95.334H282.308V108.9c-52.391,76.868-85.886,140-85.886,217.293,0,12.024.858,24.907.858,36.5,0,18.466-8.589,27.913-20.612,27.913-17.178,0-24.049-11.165-24.049-35.213,0-77.728,62.7-168.338,103.923-230.177H181.391c-43.8,0-64.844,12.883-69.568,60.121Z" fill="#fff"/></g><g id="FILI"><g opacity="0.1"><path d="M613.689,320.337c-175.986,7.8-273.2,168.753-262.926,329.186,8.952,140.444,105.258,303.5,225.714,454.077,99.846,124.773,185.369,239.205,241.754,316.4H880c77,0,140-63,140-140V354.78c-73.427,45.076-110.859,126.365-129.975,197.673C860.961,444.038,789.567,312.542,613.689,320.337Z" fill="#fff"/></g></g><g id="FAT_2" data-name="FAT 2"><path d="M795.592,623.812v60.814c-68.692,123.316-128.8,211.158-128.8,430.762,0,62.5-14.311,94.6-57.244,94.6-47.226,0-57.244-43.076-57.244-93.754,0-108.958,92.3-256.768,178.887-380.929H604.541c-72.27,0-113.772,32.94-120.927,114.87H456.423l8.585-231.429Z" fill="#090a0d"/><path d="M795.592,603.811v60.814c-68.692,123.316-128.8,211.157-128.8,430.762,0,62.5-14.311,94.6-57.244,94.6-47.226,0-57.244-43.077-57.244-93.755,0-108.957,92.3-256.768,178.887-380.928H604.541c-72.27,0-113.772,32.94-120.927,114.869H456.423l8.585-231.429Z" fill="#fff"/></g></svg>
