<svg xmlns="http://www.w3.org/2000/svg" xmlns:xlink="http://www.w3.org/1999/xlink" viewBox="0 0 1020 1420"><defs><linearGradient id="Dégradé_sans_nom_219" x1="510" x2="510" y2="1420" gradientUnits="userSpaceOnUse"><stop offset="0" stop-color="#4e515b"/><stop offset="0.9" stop-color="#090a0d"/></linearGradient></defs><g id="cartes"><rect width="1020" height="1420" rx="140" fill="url(#Dégradé_sans_nom_219)"/></g><g id="index2"><path id="path153-0-1-2-5-6-5-9-1-9" d="M189.98,467.03c43.816,55.724,90.7,87.792,91.477,131.266.264,14.078-8.273,38.006-35.007,42.586-17.344,2.957-41.223-9.562-41.722-35,.1-5.064-6.011-4.932-5.955,2.006.813,20.062,7.938,43.419,19.906,62.432h-57.4c11.968-19.013,19.089-42.37,19.905-62.432.1-6.938-6.031-7.07-5.954-2.006-.5,25.433-24.379,37.952-41.723,34.994C106.776,636.3,98.241,612.374,98.5,598.3c.783-43.474,47.661-75.542,91.476-131.267Z" fill="#fff"/><path d="M287.032,308.587c0,57.115-50.673,87.175-103.064,87.175-44.662,0-91.04-25.766-91.04-75.151,0-36.931,34.355-62.267,64.845-75.58-29.632-12.883-54.539-38.649-54.539-73.433,0-49.814,43.373-81.592,89.752-81.592,39.507,0,81.592,23.618,81.592,67.85,0,33.5-23.189,55.827-51.1,70.427C259.119,244.172,287.032,266.5,287.032,308.587ZM185.685,381.162c35.214,0,66.133-21.043,66.133-58.4,0-44.661-43.8-58.833-79.874-71.286-27.055,11.165-48.1,33.5-48.1,63.556C123.847,351.96,145.319,381.162,185.685,381.162Zm24.478-159.32c24.049-9.448,36.072-31.349,36.072-56.685,0-33.5-20.183-60.551-56.255-60.551-32.637,0-55.827,25.766-55.827,56.686C134.153,198.652,181.821,211.106,210.163,221.842Z" fill="#fff"/></g><g id="FILI"><g opacity="0.1"><path d="M350.061,1041.143c-1.664,89.682,52.7,242.113,223.011,271.291,110.492,18.841,262.622-60.91,265.795-222.934-.486-32.258,38.583-31.421,37.935,12.781-4.1,100.807-33.2,214.672-82.722,317.719H880c75.375,0,137.324-60.371,139.906-135.145-18.065-62.149-28.713-124.527-31.067-182.574-.261-32.08,20.178-41.312,31.161-31.633V310.792c-29.036-33.842-58.212-69.052-87.177-105.89h0C653.692,559.9,355.049,764.185,350.061,1041.143Z" fill="#fff"/></g></g><g id="FAT_2" data-name="FAT 2"><path d="M447.836,1067.244c0-70.1,47.942-116.559,99.461-137.675-56.528-31.251-83.719-73.483-83.719-148.655,0-103.89,81.572-172.3,163.861-172.3,70.838,0,155.274,42.232,155.274,140.209,0,63.347-39.356,104.734-88.013,120.782,64.4,34.63,109.479,74.328,109.479,164.7,0,108.113-81.572,175.684-190.336,175.684C525.115,1209.987,447.836,1154.241,447.836,1067.244ZM593.807,962.51c-5.724-3.379-11.448-9.291-19.319-9.291-15.027,0-49.373,40.542-49.373,101.356,0,76.017,37.208,121.627,93.737,121.627,37.923,0,80.856-33.786,80.856-91.221,0-45.61-17.888-67.57-59.39-93.754Zm32.916-320.116c-37.924,0-70.124,33.786-70.124,79.4,0,61.658,44.364,92.064,109.479,128.384,28.622-21.116,43.648-63.348,43.648-102.2C709.726,686.315,681.1,642.394,626.723,642.394Z" fill="#090a0d"/><path d="M447.836,1047.243c0-70.1,47.942-116.559,99.461-137.675-56.528-31.252-83.719-73.483-83.719-148.655,0-103.89,81.572-172.305,163.861-172.305,70.838,0,155.274,42.231,155.274,140.209,0,63.347-39.356,104.734-88.013,120.782,64.4,34.63,109.479,74.328,109.479,164.7,0,108.113-81.572,175.684-190.336,175.684C525.115,1189.986,447.836,1134.24,447.836,1047.243ZM593.807,942.508c-5.724-3.378-11.448-9.291-19.319-9.291-15.027,0-49.373,40.543-49.373,101.356,0,76.017,37.208,121.627,93.737,121.627,37.923,0,80.856-33.785,80.856-91.22,0-45.61-17.888-67.57-59.39-93.754Zm32.916-320.115c-37.924,0-70.124,33.785-70.124,79.4,0,61.658,44.364,92.064,109.479,128.383,28.622-21.115,43.648-63.347,43.648-102.2C709.726,666.314,681.1,622.393,626.723,622.393Z" fill="#fff"/></g></svg>
