<svg xmlns="http://www.w3.org/2000/svg" xmlns:xlink="http://www.w3.org/1999/xlink" viewBox="0 0 1020 1420"><defs><linearGradient id="Dégradé_sans_nom_208" x1="510" x2="510" y2="1420" gradientUnits="userSpaceOnUse"><stop offset="0" stop-color="#005539"/><stop offset="1" stop-color="#001205"/></linearGradient></defs><g id="cartes"><rect width="1020" height="1420" rx="140" fill="url(#Dégradé_sans_nom_208)"/></g><g id="index2"><path id="path147-6-9-8-7-0-5-0-8-3" d="M189.965,467.029c-39.92.9-57.821,47.662-28.256,83.973,4.289,5.3,4.731,8.335-3.123,3.248-19.906-13.848-58.073-4.745-60.028,37.591-2.414,52.164,67.646,67.194,80.8,11.725.691-5.852,5.266-5.718,4.163,2.588-1.2,22.547-7.967,43.62-17.269,64.17h47.456c-9.3-20.55-16.071-41.623-17.27-64.17-1.1-8.307,3.47-8.44,4.164-2.588,13.154,55.468,83.214,40.438,80.8-11.725-1.954-42.336-40.122-51.439-60.028-37.591-7.853,5.087-7.411,2.048-3.122-3.248,29.565-36.312,11.664-83.071-28.255-83.973h-.031Z" fill="#fff"/><path d="M187.833,90.006c70,0,97.052,75.151,97.052,134.412,0,101.776-52.391,171.344-114.659,171.344-39.938,0-68.709-21.9-68.709-55.4,0-20.612,10.306-31.348,25.766-31.348,14.6,0,24.048,9.877,24.048,24.907,0,14.6-9.448,23.189-20.183,23.189a30.517,30.517,0,0,1-11.166-1.717c7.3,17.177,33.926,25.766,51.1,25.766,55.826,0,70-60.98,70-106.071,0-7.729-.429-15.889-.429-23.189H239.8c-10.737,23.619-32.638,33.925-60.122,33.925-50.673,0-84.6-46.808-84.6-90.61C95.075,140.249,129,90.006,187.833,90.006Zm53.249,96.622c0-67.85-24.048-82.022-52.82-82.022s-52.82,14.172-52.82,82.022c0,69.139,24.048,84.6,52.82,84.6S241.082,255.767,241.082,186.628Z" fill="#fff"/></g><g id="FILI"><g opacity="0.1"><path d="M974.571,1090.035c-7.048-53.073,22.164-53.924,26.6-16.534A387.656,387.656,0,0,0,1020,1132.31V215.678a298.021,298.021,0,0,0-86.59-14.493h-.195C678.17,206.943,563.8,505.688,752.691,737.672c27.4,33.84,30.223,53.257-19.951,20.753C605.563,669.954,361.718,728.113,349.228,998.59,333.8,1331.858,781.405,1427.881,865.446,1073.5c4.416-37.39,33.648-36.535,26.6,16.534-6.117,114.956-34.9,223.914-76.484,329.965H880c64.418,0,119.027-44.1,135.157-103.593C993.273,1243.061,978.713,1167.926,974.571,1090.035Z" fill="#fff"/></g></g><g id="FAT_2" data-name="FAT 2"><path d="M620.283,608.609c120.928,0,179.6,135.141,179.6,278.729,0,167.237-65.115,322.649-225.4,322.649-68.692,0-115.92-41.387-115.92-100.511,0-39.7,23.614-68.415,57.96-68.415,26.476,0,52.236,27.028,52.236,57.435,0,43.92-20.752,59.124-52.236,59.124v1.689c10.734,8.446,31.484,16.893,53.667,16.893,83,0,109.478-65.882,109.478-152.879V944.772h-1.431c-18.6,28.718-51.519,45.611-83,45.611-84.434,0-143.109-79.4-143.109-175.684C452.129,698.985,518.675,608.609,620.283,608.609ZM617.421,951.53c37.208,0,62.252-49.834,62.252-125.006,0-141.9-15.742-184.13-56.528-184.13s-50.8,50.678-50.8,146.122C572.341,916.055,589.514,951.53,617.421,951.53Z" fill="#090a0d"/><path d="M620.283,588.608c120.928,0,179.6,135.141,179.6,278.728,0,167.237-65.115,322.65-225.4,322.65-68.692,0-115.92-41.387-115.92-100.512,0-39.7,23.614-68.415,57.96-68.415,26.476,0,52.236,27.029,52.236,57.435,0,43.921-20.752,59.125-52.236,59.125v1.689c10.734,8.446,31.484,16.892,53.667,16.892,83,0,109.478-65.881,109.478-152.878V924.771h-1.431c-18.6,28.718-51.519,45.611-83,45.611-84.434,0-143.109-79.4-143.109-175.684C452.129,678.983,518.675,588.608,620.283,588.608Zm-2.862,342.92c37.208,0,62.252-49.833,62.252-125,0-141.9-15.742-184.13-56.528-184.13s-50.8,50.678-50.8,146.121C572.341,896.054,589.514,931.528,617.421,931.528Z" fill="#fff"/></g></svg>
