<svg xmlns="http://www.w3.org/2000/svg" xmlns:xlink="http://www.w3.org/1999/xlink" viewBox="0 0 1020 1420"><defs><linearGradient id="Dégradé_sans_nom_169" x1="510" x2="510" y2="1420" gradientUnits="userSpaceOnUse"><stop offset="0" stop-color="#98161b"/><stop offset="1" stop-color="#1d0000"/></linearGradient></defs><g id="cartes"><rect width="1020" height="1420" rx="140" fill="url(#Dégradé_sans_nom_169)"/></g><g id="index2"><path id="path9700-3-2" d="M189.98,670.325S212.593,637.9,243.1,599.78c20.408-25.51,36.722-53.133,38.24-76.926,1.739-27.18-14.729-54.447-44.543-55.769-29.8-1.32-41.891,20.957-46.815,39.324-4.924-18.367-17.019-40.644-46.815-39.324-29.814,1.322-46.283,28.589-44.543,55.769,1.517,23.793,17.832,51.416,38.239,76.926C167.366,637.9,189.98,670.325,189.98,670.325Z" fill="#fff"/><path d="M187.833,90.006c70,0,97.052,75.151,97.052,134.412,0,101.776-52.391,171.344-114.659,171.344-39.938,0-68.709-21.9-68.709-55.4,0-20.612,10.306-31.348,25.766-31.348,14.6,0,24.048,9.877,24.048,24.907,0,14.6-9.448,23.189-20.183,23.189a30.517,30.517,0,0,1-11.166-1.717c7.3,17.177,33.926,25.766,51.1,25.766,55.826,0,70-60.98,70-106.071,0-7.729-.429-15.889-.429-23.189H239.8c-10.737,23.619-32.638,33.925-60.122,33.925-50.673,0-84.6-46.808-84.6-90.61C95.075,140.249,129,90.006,187.833,90.006Zm53.249,96.622c0-67.85-24.048-82.022-52.82-82.022s-52.82,14.172-52.82,82.022c0,69.139,24.048,84.6,52.82,84.6S241.082,255.767,241.082,186.628Z" fill="#fff"/></g><g id="FILI"><g opacity="0.1"><path d="M613.689,320.337c-175.986,7.8-273.2,168.753-262.926,329.186,8.952,140.444,105.258,303.5,225.714,454.077,99.846,124.773,185.369,239.205,241.754,316.4H880c77,0,140-63,140-140V354.78c-73.427,45.076-110.859,126.365-129.975,197.673C860.961,444.038,789.567,312.542,613.689,320.337Z" fill="#fff"/></g></g><g id="FAT_2" data-name="FAT 2"><path d="M620.283,608.609c120.928,0,179.6,135.141,179.6,278.729,0,167.237-65.115,322.649-225.4,322.649-68.692,0-115.92-41.387-115.92-100.511,0-39.7,23.614-68.415,57.96-68.415,26.476,0,52.236,27.028,52.236,57.435,0,43.92-20.752,59.124-52.236,59.124v1.689c10.734,8.446,31.484,16.893,53.667,16.893,83,0,109.478-65.882,109.478-152.879V944.772h-1.431c-18.6,28.718-51.519,45.611-83,45.611-84.434,0-143.109-79.4-143.109-175.684C452.129,698.985,518.675,608.609,620.283,608.609ZM617.421,951.53c37.208,0,62.252-49.834,62.252-125.006,0-141.9-15.742-184.13-56.528-184.13s-50.8,50.678-50.8,146.122C572.341,916.055,589.514,951.53,617.421,951.53Z" fill="#090a0d"/><path d="M620.283,588.608c120.928,0,179.6,135.141,179.6,278.728,0,167.237-65.115,322.65-225.4,322.65-68.692,0-115.92-41.387-115.92-100.512,0-39.7,23.614-68.415,57.96-68.415,26.476,0,52.236,27.029,52.236,57.435,0,43.921-20.752,59.125-52.236,59.125v1.689c10.734,8.446,31.484,16.892,53.667,16.892,83,0,109.478-65.881,109.478-152.878V924.771h-1.431c-18.6,28.718-51.519,45.611-83,45.611-84.434,0-143.109-79.4-143.109-175.684C452.129,678.983,518.675,588.608,620.283,588.608Zm-2.862,342.92c37.208,0,62.252-49.833,62.252-125,0-141.9-15.742-184.13-56.528-184.13s-50.8,50.678-50.8,146.121C572.341,896.054,589.514,931.528,617.421,931.528Z" fill="#fff"/></g></svg>
