<svg xmlns="http://www.w3.org/2000/svg" xmlns:xlink="http://www.w3.org/1999/xlink" viewBox="0 0 1020 1420"><defs><linearGradient id="Dégradé_sans_nom_216" x1="510" x2="510" y2="1420" gradientUnits="userSpaceOnUse"><stop offset="0" stop-color="#005484"/><stop offset="1" stop-color="#000013"/></linearGradient></defs><g id="cartes"><rect width="1020" height="1420" rx="140" fill="url(#Dégradé_sans_nom_216)"/></g><g id="index2"><path id="path6403-1" d="M189.98,467.029c21.966,36.274,45.074,71.531,73.952,101.648-28.878,30.116-51.986,65.373-73.952,101.648-21.965-36.275-45.074-71.532-73.953-101.648C144.906,538.56,168.014,503.3,189.98,467.029Z" fill="#fff"/><path d="M41.4,387.174v-14.6c34.784,0,43.8-19.325,53.249-45.52L181.391,90.006H196.85L290.9,331.777c12.882,33.066,22.76,40.8,47.667,40.8v14.6H219.181v-14.6c32.207,0,33.926-3.436,33.926-15.889,0-9.018-12.454-43.373-24.049-68.28H127.712c-7.3,24.048-19.754,49.814-19.754,61.838,0,16.319,8.589,22.331,45.52,22.331v14.6ZM222.187,270.368,176.668,157.427,133.724,270.368Z" fill="#fff"/></g><g id="FILI"><g opacity="0.1"><path d="M1020,1164.286V575.393C938.066,461.138,862.392,341.307,788.737,219.677,648.24,451.7,500.433,677.2,315.721,869.842,473.764,1034.66,604.785,1223.556,727.329,1420h122.82C904.553,1332.79,960.632,1247.073,1020,1164.286Z" fill="#fff"/></g></g><g id="FAT_2" data-name="FAT 2"><path d="M354.1,1209.987V1176.2c53.666-11.824,70.839-37.163,95.883-107.268L608.834,618.745h37.924l183.181,500.866c15.026,40.543,30.768,53.212,67.976,56.59v33.786H639.6V1176.2h28.622c37.209,0,42.933-10.135,42.933-27.872,0-10.981-3.577-21.961-7.871-33.786l-35.062-97.132H510.8l-22.9,66.726a170.784,170.784,0,0,0-8.586,53.211c0,23.65,12.88,38.853,40.786,38.853h35.062v33.786ZM587.368,795.273,526.546,973.49H652.482Z" fill="#090a0d"/><path d="M354.1,1189.986V1156.2c53.666-11.825,70.839-37.164,95.883-107.268L608.834,598.743h37.924L829.939,1099.61c15.026,40.542,30.768,53.212,67.976,56.59v33.786H639.6V1156.2h28.622c37.209,0,42.933-10.135,42.933-27.873,0-10.98-3.577-21.96-7.871-33.785l-35.062-97.133H510.8l-22.9,66.726a170.791,170.791,0,0,0-8.586,53.212c0,23.65,12.88,38.853,40.786,38.853h35.062v33.786ZM587.368,775.271,526.546,953.489H652.482Z" fill="#fff"/></g></svg>
