<svg xmlns="http://www.w3.org/2000/svg" xmlns:xlink="http://www.w3.org/1999/xlink" viewBox="0 0 1020 1420"><defs><linearGradient id="Dégradé_sans_nom_169" x1="510" x2="510" y2="1420" gradientUnits="userSpaceOnUse"><stop offset="0" stop-color="#98161b"/><stop offset="1" stop-color="#1d0000"/></linearGradient></defs><g id="cartes"><rect width="1020" height="1420" rx="140" fill="url(#Dégradé_sans_nom_169)"/></g><g id="index2"><path id="path9700-3-2" d="M189.98,670.325S212.593,637.9,243.1,599.78c20.408-25.51,36.722-53.133,38.24-76.926,1.739-27.18-14.729-54.447-44.543-55.769-29.8-1.32-41.891,20.957-46.815,39.324-4.924-18.367-17.019-40.644-46.815-39.324-29.814,1.322-46.283,28.589-44.543,55.769,1.517,23.793,17.832,51.416,38.239,76.926C167.366,637.9,189.98,670.325,189.98,670.325Z" fill="#fff"/><path d="M41.4,387.174v-14.6c34.784,0,43.8-19.325,53.249-45.52L181.391,90.006H196.85L290.9,331.777c12.882,33.066,22.76,40.8,47.667,40.8v14.6H219.181v-14.6c32.207,0,33.926-3.436,33.926-15.889,0-9.018-12.454-43.373-24.049-68.28H127.712c-7.3,24.048-19.754,49.814-19.754,61.838,0,16.319,8.589,22.331,45.52,22.331v14.6ZM222.187,270.368,176.668,157.427,133.724,270.368Z" fill="#fff"/></g><g id="FILI"><g opacity="0.1"><path d="M613.689,320.337c-175.986,7.8-273.2,168.753-262.926,329.186,8.952,140.444,105.258,303.5,225.714,454.077,99.846,124.773,185.369,239.205,241.754,316.4H880c77,0,140-63,140-140V354.78c-73.427,45.076-110.859,126.365-129.975,197.673C860.961,444.038,789.567,312.542,613.689,320.337Z" fill="#fff"/></g></g><g id="FAT_2" data-name="FAT 2"><path d="M354.1,1209.987V1176.2c53.666-11.824,70.839-37.163,95.883-107.268L608.834,618.745h37.924l183.181,500.866c15.026,40.543,30.768,53.212,67.976,56.59v33.786H639.6V1176.2h28.622c37.209,0,42.933-10.135,42.933-27.872,0-10.981-3.577-21.961-7.871-33.786l-35.062-97.132H510.8l-22.9,66.726a170.784,170.784,0,0,0-8.586,53.211c0,23.65,12.88,38.853,40.786,38.853h35.062v33.786ZM587.368,795.273,526.546,973.49H652.482Z" fill="#090a0d"/><path d="M354.1,1189.986V1156.2c53.666-11.825,70.839-37.164,95.883-107.268L608.834,598.743h37.924L829.939,1099.61c15.026,40.542,30.768,53.212,67.976,56.59v33.786H639.6V1156.2h28.622c37.209,0,42.933-10.135,42.933-27.873,0-10.98-3.577-21.96-7.871-33.785l-35.062-97.133H510.8l-22.9,66.726a170.791,170.791,0,0,0-8.586,53.212c0,23.65,12.88,38.853,40.786,38.853h35.062v33.786ZM587.368,775.271,526.546,953.489H652.482Z" fill="#fff"/></g></svg>
