<svg xmlns="http://www.w3.org/2000/svg" xmlns:xlink="http://www.w3.org/1999/xlink" viewBox="0 0 1020 1420"><defs><linearGradient id="Dégradé_sans_nom_219" x1="510" x2="510" y2="1420" gradientUnits="userSpaceOnUse"><stop offset="0" stop-color="#4e515b"/><stop offset="0.9" stop-color="#090a0d"/></linearGradient></defs><g id="cartes"><rect width="1020" height="1420" rx="140" fill="url(#Dégradé_sans_nom_219)"/></g><g id="index2"><path id="path153-0-1-2-5-6-5-9-1-9" d="M189.98,467.03c43.816,55.724,90.7,87.792,91.477,131.266.264,14.078-8.273,38.006-35.007,42.586-17.344,2.957-41.223-9.562-41.722-35,.1-5.064-6.011-4.932-5.955,2.006.813,20.062,7.938,43.419,19.906,62.432h-57.4c11.968-19.013,19.089-42.37,19.905-62.432.1-6.938-6.031-7.07-5.954-2.006-.5,25.433-24.379,37.952-41.723,34.994C106.776,636.3,98.241,612.374,98.5,598.3c.783-43.474,47.661-75.542,91.476-131.267Z" fill="#fff"/><path d="M41.4,387.174v-14.6c34.784,0,43.8-19.325,53.249-45.52L181.391,90.006H196.85L290.9,331.777c12.882,33.066,22.76,40.8,47.667,40.8v14.6H219.181v-14.6c32.207,0,33.926-3.436,33.926-15.889,0-9.018-12.454-43.373-24.049-68.28H127.712c-7.3,24.048-19.754,49.814-19.754,61.838,0,16.319,8.589,22.331,45.52,22.331v14.6ZM222.187,270.368,176.668,157.427,133.724,270.368Z" fill="#fff"/></g><g id="FILI"><g opacity="0.1"><path d="M350.061,1041.143c-1.664,89.682,52.705,242.113,223.011,271.291,110.492,18.841,262.621-60.91,265.795-222.934-.486-32.258,38.583-31.421,37.935,12.781-4.1,100.807-33.2,214.672-82.721,317.719H880c75.375,0,137.324-60.371,139.906-135.145-18.065-62.149-28.714-124.527-31.067-182.574-.261-32.08,20.179-41.312,31.161-31.633V310.792c-29.036-33.842-58.212-69.052-87.178-105.89h0C653.692,559.9,355.049,764.185,350.061,1041.143Z" fill="#fff"/></g></g><g id="FAT_2" data-name="FAT 2"><path d="M354.1,1209.987V1176.2c53.666-11.824,70.839-37.163,95.883-107.268L608.834,618.745h37.924l183.181,500.866c15.026,40.543,30.768,53.212,67.976,56.59v33.786H639.6V1176.2h28.622c37.209,0,42.933-10.135,42.933-27.872,0-10.981-3.577-21.961-7.871-33.786l-35.062-97.132H510.8l-22.9,66.726a170.784,170.784,0,0,0-8.586,53.211c0,23.65,12.88,38.853,40.786,38.853h35.062v33.786ZM587.368,795.273,526.546,973.49H652.482Z" fill="#090a0d"/><path d="M354.1,1189.986V1156.2c53.666-11.825,70.839-37.164,95.883-107.268L608.834,598.743h37.924L829.939,1099.61c15.026,40.542,30.768,53.212,67.976,56.59v33.786H639.6V1156.2h28.622c37.209,0,42.933-10.135,42.933-27.873,0-10.98-3.577-21.96-7.871-33.785l-35.062-97.133H510.8l-22.9,66.726a170.791,170.791,0,0,0-8.586,53.212c0,23.65,12.88,38.853,40.786,38.853h35.062v33.786ZM587.368,775.271,526.546,953.489H652.482Z" fill="#fff"/></g></svg>
