<svg xmlns="http://www.w3.org/2000/svg" viewBox="0 0 1020 1420"><g id="DOS_ROUGE" data-name="DOS ROUGE"><rect x="826.63" y="151.575" width="116.788" height="116.788" transform="translate(110.747 687.303) rotate(-45)" fill="#090a0d"/><path d="M677.556,334.855q41.157,41.16,82.572,82.591l82.469-82.47L760.016,252.4Z" fill="#090a0d"/><path d="M259.958,167.569l82.494-82.495C329.331,72.016,318.064,60.656,307.558,50h-95.2L177.375,84.989C204.941,112.557,232.783,140.4,259.958,167.569Z" fill="#090a0d"/><path d="M52.384,710.011l82.582,82.581,23.958-23.958L100.784,710l58.441-58.231-24.286-24.313Z" fill="#090a0d"/><polygon points="969.997 377.523 969.997 292.43 927.45 334.977 969.997 377.523" fill="#090a0d"/><path d="M384.917,627.493h.129l-.064-.064Z" fill="#090a0d"/><path d="M177.365,585.03l42.417,42.463h80.282L342.558,585l-82.576-82.587Z" fill="#090a0d"/><path d="M427.408,585l42.487,42.49H550.08l42.483-42.483-82.576-82.586Z" fill="#090a0d"/><path d="M635.129,377.282,552.414,460l82.575,82.587L717.7,459.872Q676.31,418.463,635.129,377.282Z" fill="#090a0d"/><polygon points="760.016 167.542 842.597 84.961 807.64 50.003 712.392 50.003 677.435 84.961 760.016 167.542" fill="#090a0d"/><path d="M177.387,334.992c28.905,28.9,56.647,56.634,82.592,82.57l82.581-82.58c-25.14-25.125-53.119-53.093-82.6-82.565Z" fill="#090a0d"/><path d="M52.428,459.951l79,79.092,3.532,3.536,82.59-82.59c-25.941-25.933-53.693-53.677-82.592-82.571Z" fill="#090a0d"/><path d="M302.409,459.986c26.663,26.668,54.3,54.3,82.575,82.587l82.58-82.579L384.99,377.405Z" fill="#090a0d"/><path d="M134.948,127.416,52.373,209.991c27.888,27.887,55.578,55.576,82.584,82.578L217.531,210C190.357,182.825,162.515,154.984,134.948,127.416Z" fill="#090a0d"/><path d="M302.388,209.991c29.48,29.472,57.46,57.44,82.6,82.564l82.668-82.667q-41.646-41.6-82.64-82.523Z" fill="#090a0d"/><path d="M802.544,459.883q41.247,41.27,82.553,82.609l82.508-82.508L885.024,377.4Z" fill="#090a0d"/><path d="M427.416,334.979l82.574,82.588,82.71-82.71q-41.509-41.5-82.6-82.562Z" fill="#090a0d"/><path d="M552.526,209.869q41.07,41.04,82.6,82.562l82.462-82.463-82.581-82.581Z" fill="#090a0d"/><path d="M969.259,126.769a88.031,88.031,0,0,0-29.011-54.606l-12.8,12.8Z" fill="#090a0d"/><path d="M885,1042.62l82.575-82.575L885,877.463,802.42,960.038Z" fill="#090a0d"/><path d="M717.562,1210.059q-40.83-40.737-82.656-82.507l-82.483,82.483q41.594,41.589,82.584,82.579Z" fill="#090a0d"/><polygon points="259.984 1252.458 177.403 1335.039 212.36 1369.997 307.608 1369.997 342.565 1335.039 259.984 1252.458" fill="#090a0d"/><path d="M842.574,1085.046l-82.581-82.581-82.66,82.661q41.789,41.731,82.656,82.506Z" fill="#090a0d"/><path d="M467.569,1210.035l-82.583-82.579-82.575,82.575,82.581,82.582Z" fill="#090a0d"/><path d="M967.621,709.984q-41.184-41.226-82.541-82.621l-24.356,24.355L919.216,710l-58.168,58.661L885,792.609Z" fill="#090a0d"/><path d="M592.455,1085.15q-40.977-40.938-82.607-82.556l-82.436,82.436L510,1167.609Z" fill="#090a0d"/><path d="M842.569,835.036l-41.527-41.529H718.936l-41.522,41.521,82.58,82.583Z" fill="#090a0d"/><path d="M717.567,960.038l-82.58-82.583-82.713,82.713q41.6,41.59,82.607,82.555Z" fill="#090a0d"/><polygon points="969.997 1127.571 969.997 1042.477 927.45 1085.024 969.997 1127.571" fill="#090a0d"/><path d="M677.414,585.013l42.476,42.48H800.1l42.575-42.575q-41.288-41.319-82.553-82.609Z" fill="#090a0d"/><path d="M970,877.613V792.461l-42.576,42.576Z" fill="#090a0d"/><path d="M970,627.468V542.445l-42.491,42.492Q948.767,606.216,970,627.468Z" fill="#090a0d"/><path d="M634.934,627.493h.108l-.055-.054Z" fill="#090a0d"/><path d="M760.012,1252.462l-82.583,82.583c13,13.01,24.291,24.3,34.942,34.952H807.64l34.942-34.942C817.6,1310.072,791.1,1283.561,760.012,1252.462Z" fill="#090a0d"/><path d="M967.6,1210.031l-82.581-82.581-82.585,82.586c31.088,31.1,57.591,57.61,82.57,82.592Z" fill="#090a0d"/><path d="M940.23,1347.853a88.03,88.03,0,0,0,29.029-54.623l-41.826,41.827Z" fill="#090a0d"/><path d="M510,1252.461l-82.578,82.579L462.376,1370h95.248l34.957-34.957Z" fill="#090a0d"/><path d="M510.08,167.462l82.5-82.5L557.624,50H462.376L427.44,84.939Q468.413,125.838,510.08,167.462Z" fill="#090a0d"/><path d="M50,792.482v85.073L92.54,835.018Q71.29,813.769,50,792.482Z" fill="#090a0d"/><path d="M50,292.472v85.051L92.531,335Q71.509,313.976,50,292.472Z" fill="#090a0d"/><path d="M342.559,1085.03l-82.583-82.579L177.4,1085.024l82.581,82.581Z" fill="#090a0d"/><path d="M50.74,1293.23a88.037,88.037,0,0,0,29.012,54.607l12.8-12.8Z" fill="#090a0d"/><path d="M88.98,581.445,50,542.423v85.116l42.534-42.534Z" fill="#090a0d"/><path d="M467.418,960.171q-41.1-41.1-82.571-82.591L302.4,960.024q41.46,41.46,82.583,82.58Z" fill="#090a0d"/><rect x="76.583" y="1151.638" width="116.788" height="116.788" transform="translate(-816.087 449.851) rotate(-45)" fill="#090a0d"/><path d="M79.726,72.187A88.035,88.035,0,0,0,50.74,126.77L92.524,84.987Z" fill="#090a0d"/><path d="M342.432,835.142q-20.787-20.8-41.606-41.635H218.9l-41.511,41.511,82.582,82.58Z" fill="#090a0d"/><path d="M217.549,960.025l-82.583-82.58L52.4,960.016l82.582,82.581Z" fill="#090a0d"/><polygon points="50.003 1042.477 50.003 1127.571 92.55 1085.024 50.003 1042.477" fill="#090a0d"/><path d="M509.845,917.744l82.717-82.717-41.518-41.52H468.92l-41.647,41.647Q468.717,876.615,509.845,917.744Z" fill="#090a0d"/><path d="M759.994,917.611l-82.58-82.583-42.427,42.427,82.58,82.583Z" fill="#501216"/><path d="M384.982,627.429l.064.064H469.9L427.408,585Z" fill="#501216"/><polygon points="885.023 1127.45 967.604 1210.031 969.997 1207.639 969.997 1127.571 927.45 1085.024 885.023 1127.45" fill="#501216"/><path d="M634.083,793.507H551.044l41.518,41.52Z" fill="#501216"/><path d="M842.574,1085.046,885,1042.62,802.42,960.038l-42.427,42.427Z" fill="#501216"/><path d="M134.961,377.418c28.9,28.894,56.651,56.638,82.592,82.571l42.426-42.427c-25.945-25.936-53.687-53.671-82.592-82.57Z" fill="#501216"/><path d="M259.982,502.413,342.558,585l42.426-42.427c-28.28-28.283-55.912-55.919-82.575-82.587Z" fill="#501216"/><path d="M134.957,292.569c-27.006-27-54.7-54.691-82.584-82.578L50,212.361v80.111Q71.476,313.944,92.531,335Z" fill="#501216"/><path d="M885.008,1292.628c-24.979-24.982-51.482-51.493-82.57-82.592l-42.426,42.426c31.087,31.1,57.591,57.61,82.57,82.593Z" fill="#501216"/><path d="M467.418,960.171l42.427-42.427q-41.1-41.1-82.572-82.59L384.847,877.58Q426.291,919.043,467.418,960.171Z" fill="#501216"/><path d="M92.537,585.005l42.426-42.426-3.532-3.536-79-79.092L50,462.376v80.047L88.98,581.445Z" fill="#501216"/><path d="M384.067,793.507H300.826q20.817,20.834,41.606,41.635Z" fill="#501216"/><path d="M893.23,1369.259a87.855,87.855,0,0,0,47-21.406l-12.8-12.8Z" fill="#501216"/><path d="M634.881,1042.723q-40.977-40.936-82.607-82.555l-42.426,42.426q41.6,41.59,82.607,82.556Z" fill="#501216"/><path d="M759.989,1167.632q-40.83-40.737-82.656-82.506l-42.427,42.426q41.789,41.732,82.656,82.507Z" fill="#501216"/><path d="M134.939,627.456l24.286,24.313,24.362-24.276h36.2L177.365,585.03Z" fill="#501216"/><path d="M259.975,917.6l-82.582-82.58-42.427,42.427,82.583,82.58Z" fill="#501216"/><path d="M642.477,1370h69.894c-10.651-10.653-21.937-21.942-34.942-34.952Z" fill="#501216"/><path d="M134.966,792.592,52.384,710.011,50,712.392v80.09q21.285,21.287,42.537,42.536Z" fill="#501216"/><path d="M635.007,1292.614q-40.978-40.976-82.584-82.579L510,1252.461l82.584,82.579Z" fill="#501216"/><path d="M384.985,1042.6q-41.113-41.112-82.583-82.58l-42.426,42.427,82.583,82.579Z" fill="#501216"/><path d="M510,1167.609l-82.584-82.579-42.426,42.426,82.583,82.579Z" fill="#501216"/><polygon points="134.977 1042.597 52.395 960.016 50.003 962.408 50.003 1042.477 92.55 1085.024 134.977 1042.597" fill="#501216"/><polygon points="392.461 1369.997 462.376 1369.997 427.419 1335.04 392.461 1369.997" fill="#501216"/><rect x="167.48" y="1089.134" width="60" height="116.788" transform="translate(-753.585 475.744) rotate(-45)" fill="#501216"/><rect x="292.488" y="1214.142" width="60" height="116.788" transform="translate(-805.365 600.752) rotate(-45)" fill="#501216"/><polygon points="142.445 1369.997 212.36 1369.997 177.403 1335.039 142.445 1369.997" fill="#501216"/><path d="M134.977,1292.613,52.4,1210.031,50,1212.424v69.365a89.041,89.041,0,0,0,.737,11.441l41.81,41.809Z" fill="#501216"/><path d="M885.023,127.387l82.582,82.581L970,207.576V138.211a88.888,88.888,0,0,0-.738-11.442L927.45,84.961Z" fill="#501216"/><polygon points="877.555 50.003 807.64 50.003 842.597 84.961 877.555 50.003" fill="#501216"/><rect x="792.52" y="214.079" width="60" height="116.788" transform="translate(48.244 661.416) rotate(-45)" fill="#501216"/><rect x="667.512" y="89.071" width="60" height="116.787" transform="translate(100.024 536.408) rotate(-45)" fill="#501216"/><polygon points="885.024 377.403 967.605 459.984 969.997 457.592 969.997 377.523 927.45 334.977 885.024 377.403" fill="#501216"/><polygon points="627.539 50.003 557.624 50.003 592.581 84.961 627.539 50.003" fill="#501216"/><path d="M510.1,252.3q41.068,41.04,82.6,82.562l42.427-42.426q-41.511-41.5-82.6-82.562Z" fill="#501216"/><path d="M385.014,127.365q40.971,40.9,82.64,82.523l42.426-42.426q-41.646-41.6-82.64-82.523Z" fill="#501216"/><path d="M760.118,502.309q41.247,41.269,82.553,82.609L885.1,542.492q-41.286-41.319-82.553-82.609Z" fill="#501216"/><path d="M635.129,377.282q41.157,41.159,82.573,82.59l42.426-42.426q-41.393-41.409-82.572-82.591Z" fill="#501216"/><path d="M885.08,627.363q41.337,41.376,82.541,82.621L970,707.608v-80.14q-21.228-21.25-42.491-42.531Z" fill="#501216"/><path d="M342.452,85.074,377.523,50H307.558C318.064,60.656,329.331,72.016,342.452,85.074Z" fill="#501216"/><path d="M259.962,252.417c29.479,29.472,57.458,57.44,82.6,82.565l42.426-42.427c-25.138-25.124-53.118-53.092-82.6-82.564Z" fill="#501216"/><path d="M509.987,502.424l82.576,82.586,42.426-42.426L552.414,460Z" fill="#501216"/><path d="M927.421,835.037,885,877.463l82.581,82.582L970,957.624V877.613Z" fill="#501216"/><path d="M634.987,627.439l.055.054H719.89l-42.476-42.48Z" fill="#501216"/><path d="M126.77,50.741A87.853,87.853,0,0,0,79.726,72.187l12.8,12.8Z" fill="#501216"/><path d="M384.99,377.405l82.574,82.589,42.426-42.427-82.574-82.588Z" fill="#501216"/><path d="M177.375,84.989l-42.427,42.427c27.567,27.568,55.409,55.409,82.583,82.579l42.427-42.426C232.783,140.4,204.941,112.557,177.375,84.989Z" fill="#501216"/><path d="M885,792.609l-23.947-23.948-24.635,24.846H801.042l41.527,41.529Z" fill="#501216"/><path d="M138.211,1370h4.234l34.958-34.958,82.581-82.581,42.427-42.427,82.575-82.575,42.426-42.426,82.436-82.436,42.426-42.426,82.713-82.713,42.427-42.427,41.522-41.521H836.413l24.635-24.846L919.216,710l-58.492-58.282,24.356-24.355,42.426-42.426L970,542.445V457.592l-2.392,2.392L885.1,542.492l-42.426,42.426L800.1,627.493H634.934l.053-.054,42.427-42.426,82.7-82.7,42.426-42.426,82.48-82.48,42.426-42.426L970,292.43V207.576l-2.392,2.392L885.023,292.55,842.6,334.976l-82.469,82.47L717.7,459.872l-82.713,82.712L592.563,585.01,550.08,627.493H384.917l.065-.064L427.408,585l82.579-82.579L552.414,460l82.715-82.715,42.427-42.427,82.46-82.46,42.426-42.427,82.581-82.581L927.45,84.961l12.8-12.8A87.868,87.868,0,0,0,881.789,50h-4.234L842.6,84.961l-82.581,82.581-42.427,42.426-82.462,82.463L592.7,334.857l-82.71,82.71-42.426,42.427-82.58,82.579L342.558,585l-42.494,42.493H183.587l-24.362,24.276L100.784,710l58.14,58.634-23.958,23.958L92.54,835.018,50,877.555v84.853l2.392-2.392,82.571-82.571,42.427-42.427L218.9,793.507H384.067l-41.635,41.635L259.975,917.6l-42.426,42.427L134.977,1042.6,92.55,1085.024,50,1127.571v84.853l2.392-2.393,82.582-82.581,42.426-42.426,82.573-82.573L302.4,960.024l82.445-82.444,42.426-42.426,41.647-41.647H634.083l-41.521,41.52-82.717,82.717-42.427,42.427L384.985,1042.6l-42.426,42.426-82.575,82.575-42.426,42.426-82.581,82.582L92.55,1335.039l-12.8,12.8A87.868,87.868,0,0,0,138.211,1370ZM791.725,681.363c-.49,8.324-3.841,15.5-8.928,22.163,5.11-3.28,10.425-6.109,16.568-6.1,12.667,0,22.948,10.79,22.948,24.087S812.032,745.6,799.365,745.6c-10.193-.756-18.552-6.554-26.519-13.382,1.433,18.025,4.373,28.139,21.426,32.121H768.781V657.272C781.449,657.274,791.725,668.066,791.725,681.363ZM700.8,655.686V671.2H680.691v93.113H663.618V671.2H643.511V655.686Zm-50.351,93.09v15.518h-42.9V655.665h17.073v93.111Zm-181.376-93.1v93.114H494.9v15.518H452V655.673Zm-50.348,0v93.114h25.827v15.518h-42.9V655.673ZM391.507,764.305H374.435V655.673h17.072ZM205.814,704.176s32.74-35.979,35.353-46.547c.026-.1.051-.2.069-.308v106.97H217.317c6.1-1.422,10.277-3.685,13.183-6.879a42.978,42.978,0,0,0,2.32-3.655c.826-1.5,1.487-2.868,2.038-4.144a53.215,53.215,0,0,0,2.112-10.685,5.2,5.2,0,0,0-1-2.564s-18.872,19.245-34.412.372C190.826,721.938,205.814,704.176,205.814,704.176ZM331.4,721.01l-5.278,9.927v33.368H309.056V655.673h17.067v47.333l22.349-47.333h17.071L341.8,704.093l23.745,60.212H348.007Zm203.662,43.306V671.2H514.952V655.686h57.29V671.2H552.133v93.113Zm45.27,0V655.686h17.073v108.63Z" fill="#98161b"/><polygon points="884.995 792.609 842.569 835.036 759.994 917.611 717.567 960.038 634.881 1042.723 592.455 1085.15 509.996 1167.609 467.569 1210.035 384.992 1292.613 342.565 1335.039 307.608 1369.997 392.461 1369.997 427.419 1335.04 509.997 1252.461 552.423 1210.035 634.906 1127.552 677.333 1085.126 759.993 1002.465 802.42 960.038 884.995 877.463 927.421 835.037 969.997 792.461 969.997 707.608 967.621 709.984 884.995 792.609" fill="#98161b"/><polygon points="885.001 1042.62 842.574 1085.046 759.989 1167.632 717.562 1210.059 635.007 1292.614 592.581 1335.04 557.624 1369.997 642.477 1369.997 677.429 1335.045 760.012 1252.462 802.438 1210.036 885.023 1127.45 927.45 1085.024 969.997 1042.477 969.997 957.624 967.576 960.045 885.001 1042.62" fill="#98161b"/><path d="M885.008,1292.628l-42.426,42.427L807.64,1370h74.149a89.04,89.04,0,0,0,11.441-.738l34.2-34.2,41.826-41.827a88.861,88.861,0,0,0,.738-11.441v-74.15l-2.393,2.392Z" fill="#98161b"/><path d="M134.948,127.416l42.427-42.427L212.36,50H138.211a89.04,89.04,0,0,0-11.441.738L92.524,84.987,50.74,126.77A89.041,89.041,0,0,0,50,138.211v74.15l2.37-2.37Z" fill="#98161b"/><polygon points="134.961 377.418 177.387 334.992 259.962 252.417 302.388 209.991 385.014 127.365 427.44 84.939 462.376 50.003 377.523 50.003 342.452 85.074 259.958 167.569 217.531 209.995 134.957 292.569 92.531 334.995 50.003 377.523 50.003 462.376 52.428 459.951 134.961 377.418" fill="#98161b"/><polygon points="134.939 627.456 177.365 585.03 259.982 502.413 302.409 459.986 384.99 377.405 427.416 334.979 510.1 252.295 552.526 209.869 635.008 127.387 677.435 84.961 712.392 50.003 627.539 50.003 592.581 84.961 510.08 167.462 467.654 209.888 384.986 292.555 342.56 334.982 259.979 417.562 217.553 459.989 134.963 542.579 92.537 585.005 50.003 627.539 50.003 712.392 52.384 710.011 134.939 627.456" fill="#98161b"/><path d="M1020,1280V140C1020,63,957,0,880,0H140C63,0,0,63,0,140V1280c0,77,63,140,140,140H880C957,1420,1020,1357,1020,1280ZM50.74,1293.23A89.041,89.041,0,0,1,50,1281.789V138.211a89.041,89.041,0,0,1,.737-11.441,88.266,88.266,0,0,1,76.03-76.029A89.04,89.04,0,0,1,138.211,50H881.789a88.237,88.237,0,0,1,87.47,76.766A88.888,88.888,0,0,1,970,138.211V1281.789a88.05,88.05,0,0,1-29.767,66.064,87.855,87.855,0,0,1-47,21.406,89.04,89.04,0,0,1-11.441.738H138.211A88.239,88.239,0,0,1,50.74,1293.23Z" fill="#fff"/><polygon points="365.543 764.305 341.798 704.093 365.543 655.673 348.472 655.673 326.123 703.006 326.123 655.673 309.056 655.673 309.056 764.305 326.123 764.305 326.123 730.937 331.401 721.01 348.007 764.305 365.543 764.305" fill="#fff"/><rect x="374.435" y="655.673" width="17.072" height="108.632" fill="#fff"/><polygon points="401.658 764.305 444.555 764.305 444.555 748.787 418.728 748.787 418.728 655.673 401.658 655.673 401.658 764.305" fill="#fff"/><polygon points="607.553 655.665 607.553 764.294 650.452 764.294 650.452 748.776 624.626 748.776 624.626 655.665 607.553 655.665" fill="#fff"/><polygon points="452.003 764.305 494.901 764.305 494.901 748.787 469.076 748.787 469.076 655.673 452.003 655.673 452.003 764.305" fill="#fff"/><polygon points="552.133 671.203 572.242 671.203 572.242 655.686 514.952 655.686 514.952 671.203 535.063 671.203 535.063 764.316 552.133 764.316 552.133 671.203" fill="#fff"/><polygon points="643.511 671.203 663.618 671.203 663.618 764.316 680.691 764.316 680.691 671.203 700.803 671.203 700.803 655.686 643.511 655.686 643.511 671.203" fill="#fff"/><rect x="580.333" y="655.686" width="17.072" height="108.631" fill="#fff"/><path d="M235.969,736.364a5.2,5.2,0,0,1,1,2.564,53.215,53.215,0,0,1-2.112,10.685c-.551,1.276-1.212,2.646-2.038,4.144a42.978,42.978,0,0,1-2.32,3.655c-2.906,3.194-7.079,5.457-13.183,6.879h23.919V657.321c-.018.105-.043.206-.069.308-2.613,10.568-35.353,46.547-35.353,46.547s-14.988,17.762-4.257,32.56C217.1,755.609,235.969,736.364,235.969,736.364Z" fill="#fff"/><path d="M768.781,764.335h25.491c-17.053-3.982-19.993-14.1-21.426-32.121,7.967,6.828,16.326,12.626,26.519,13.382,12.667,0,22.948-10.792,22.948-24.088s-10.281-24.087-22.948-24.087c-6.143,0-11.458,2.825-16.568,6.1,5.087-6.658,8.438-13.839,8.928-22.163,0-13.3-10.276-24.089-22.944-24.091Z" fill="#fff"/></g></svg>
