<svg xmlns="http://www.w3.org/2000/svg" xmlns:xlink="http://www.w3.org/1999/xlink" viewBox="0 0 1020 1420"><defs><linearGradient id="Dégradé_sans_nom_219" x1="510" x2="510" y2="1420" gradientUnits="userSpaceOnUse"><stop offset="0" stop-color="#4e515b"/><stop offset="0.9" stop-color="#090a0d"/></linearGradient></defs><g id="cartes"><rect width="1020" height="1420" rx="140" fill="url(#Dégradé_sans_nom_219)"/></g><g id="index2"><path id="path153-0-1-2-5-6-5-9-1-9" d="M189.98,467.03c43.816,55.724,90.7,87.792,91.477,131.266.264,14.078-8.273,38.006-35.007,42.586-17.344,2.957-41.223-9.562-41.722-35,.1-5.064-6.011-4.932-5.955,2.006.813,20.062,7.938,43.419,19.906,62.432h-57.4c11.968-19.013,19.089-42.37,19.905-62.432.1-6.938-6.031-7.07-5.954-2.006-.5,25.433-24.379,37.952-41.723,34.994C106.776,636.3,98.241,612.374,98.5,598.3c.783-43.474,47.661-75.542,91.476-131.267Z" fill="#fff"/><path d="M287.891,90.006v14.6c-34.784,0-42.084,7.73-42.084,28.343v186.8c0,45.09-29.2,70.856-88.034,70.856-42.514,0-65.7-27.484-65.7-57.973,0-17.607,10.736-35.643,28.772-35.643,19.325,0,29.2,6.871,29.2,25.336,0,15.03-11.166,25.337-23.19,25.337-6.871,0-12.882-.859-16.747-2.577,1.717,18.466,27.054,30.919,43.372,30.919,32.207,0,48.526-17.606,48.526-49.384V132.949c0-20.613-7.3-28.343-42.084-28.343v-14.6Z" fill="#fff"/></g><g id="FILI"><g opacity="0.1"><path d="M350.061,1041.143c-1.664,89.682,52.7,242.113,223.011,271.291,110.492,18.841,262.622-60.91,265.795-222.934-.486-32.258,38.583-31.421,37.935,12.781-4.1,100.807-33.2,214.672-82.721,317.719H880c75.375,0,137.323-60.371,139.906-135.145-18.065-62.149-28.714-124.527-31.067-182.574-.261-32.08,20.178-41.312,31.161-31.633V310.792c-29.036-33.842-58.212-69.052-87.177-105.89h0C653.692,559.9,355.049,764.185,350.061,1041.143Z" fill="#fff"/></g></g><g id="FAT_2" data-name="FAT 2"><path d="M756.236,1017.411c0,132.607-48.657,192.576-180.318,192.576-88.728,0-147.4-59.124-147.4-132.607,0-51.523,23.612-92.065,69.407-92.065,32.2,0,65.115,22.8,65.115,71.793,0,36.32-20.035,66.726-53.665,66.726-12.165,0-22.183-1.689-33.631-10.135,9.3,39.7,52.235,57.435,78.71,57.435,49.373,0,81.572-30.407,81.572-86.153V708.276c0-42.232-17.173-55.746-74.417-55.746V618.745H823.5V652.53c-50.09,0-67.263,13.514-67.263,55.746Z" fill="#090a0d"/><path d="M756.236,997.41c0,132.607-48.657,192.576-180.318,192.576-88.728,0-147.4-59.125-147.4-132.608,0-51.522,23.612-92.065,69.407-92.065,32.2,0,65.115,22.805,65.115,71.794,0,36.319-20.035,66.726-53.665,66.726-12.165,0-22.183-1.689-33.631-10.135,9.3,39.7,52.235,57.435,78.71,57.435,49.373,0,81.572-30.407,81.572-86.153V688.274c0-42.231-17.173-55.745-74.417-55.745V598.743H823.5v33.786c-50.09,0-67.263,13.514-67.263,55.745Z" fill="#fff"/></g></svg>
