<svg xmlns="http://www.w3.org/2000/svg" xmlns:xlink="http://www.w3.org/1999/xlink" viewBox="0 0 1020 1420"><defs><linearGradient id="Dégradé_sans_nom_169" x1="510" x2="510" y2="1420" gradientUnits="userSpaceOnUse"><stop offset="0" stop-color="#98161b"/><stop offset="1" stop-color="#1d0000"/></linearGradient></defs><g id="cartes"><rect width="1020" height="1420" rx="140" fill="url(#Dégradé_sans_nom_169)"/></g><g id="index2"><path id="path9700-3-2" d="M189.98,670.325S212.593,637.9,243.1,599.78c20.408-25.51,36.722-53.133,38.24-76.926,1.739-27.18-14.729-54.447-44.543-55.769-29.8-1.32-41.891,20.957-46.815,39.324-4.924-18.367-17.019-40.644-46.815-39.324-29.814,1.322-46.283,28.589-44.543,55.769,1.517,23.793,17.832,51.416,38.239,76.926C167.366,637.9,189.98,670.325,189.98,670.325Z" fill="#fff"/><path d="M93.357,132.949c0-20.613-7.3-28.343-41.225-28.343v-14.6H174.091v14.6c-29.631,0-36.932,7.73-36.932,28.343V253.19l92.758-104.781c12.454-13.742,18.9-21.472,18.9-33.067,0-8.159-11.594-10.736-35.214-10.736v-14.6H321.816v14.6c-27.913,0-42.514,14.6-56.685,30.061l-67.851,73,82.881,134.413c12.024,19.754,19.754,28.772,47.667,28.772v14.6H209.734v-14.6c16.748,0,28.772-1.717,28.772-9.447,0-12.454-9.448-21.9-17.607-35.643l-51.532-84.6-32.208,35.643v65.7c0,20.613,7.3,28.343,36.932,28.343v14.6H52.132v-14.6c33.925,0,41.225-7.73,41.225-28.343Z" fill="#fff"/></g><g id="FILI"><g opacity="0.1"><path d="M613.689,320.337c-175.986,7.8-273.2,168.753-262.926,329.186,8.952,140.444,105.258,303.5,225.714,454.077,99.846,124.773,185.369,239.205,241.754,316.4H880c77,0,140-63,140-140V354.78c-73.427,45.076-110.859,126.365-129.975,197.673C860.961,444.038,789.567,312.542,613.689,320.337Z" fill="#fff"/></g></g><g id="FAT_2" data-name="FAT 2"><path d="M361.97,628.88H610.98v33.785c-41.5,0-58.674,13.515-58.674,55.746V899.162L701.855,726.013Q716.882,708.276,716.881,688c0-15.2-7.155-25.339-35.061-25.339H656.775V628.88H870.009v33.785c-55.1,8.447-66.546,13.515-95.168,45.611L663.216,832.436l158.136,308.291c12.164,24.494,32.915,35.474,68.693,35.474v33.786H645.327V1176.2c26.475-3.378,40.07-8.446,40.07-19.426s-5.724-22.805-107.332-227.206l-25.759,27.873v163.014c0,42.232,17.173,55.745,51.519,55.745v33.786H361.97V1176.2c52.95,0,70.124-13.513,70.124-55.745V718.411c0-42.231-17.174-55.746-70.124-55.746Z" fill="#090a0d"/><path d="M361.97,608.879H610.98v33.785c-41.5,0-58.674,13.514-58.674,55.746V879.161l149.549-173.15Q716.882,688.275,716.881,668c0-15.2-7.155-25.339-35.061-25.339H656.775V608.879H870.009v33.785c-55.1,8.446-66.546,13.514-95.168,45.61L663.216,812.435l158.136,308.291c12.164,24.494,32.915,35.474,68.693,35.474v33.786H645.327V1156.2c26.475-3.378,40.07-8.446,40.07-19.426s-5.724-22.8-107.332-227.206l-25.759,27.873v163.014c0,42.231,17.173,55.745,51.519,55.745v33.786H361.97V1156.2c52.95,0,70.124-13.514,70.124-55.745V698.41c0-42.232-17.174-55.746-70.124-55.746Z" fill="#fff"/></g></svg>
