<svg xmlns="http://www.w3.org/2000/svg" xmlns:xlink="http://www.w3.org/1999/xlink" viewBox="0 0 1020 1420"><defs><linearGradient id="Dégradé_sans_nom_219" x1="510" x2="510" y2="1420" gradientUnits="userSpaceOnUse"><stop offset="0" stop-color="#4e515b"/><stop offset="0.9" stop-color="#090a0d"/></linearGradient></defs><g id="cartes"><rect width="1020" height="1420" rx="140" fill="url(#Dégradé_sans_nom_219)"/></g><g id="index2"><path id="path153-0-1-2-5-6-5-9-1-9" d="M189.98,467.03c43.816,55.724,90.7,87.792,91.477,131.266.264,14.078-8.273,38.006-35.007,42.586-17.344,2.957-41.223-9.562-41.722-35,.1-5.064-6.011-4.932-5.955,2.006.813,20.062,7.938,43.419,19.906,62.432h-57.4c11.968-19.013,19.089-42.37,19.905-62.432.1-6.938-6.031-7.07-5.954-2.006-.5,25.433-24.379,37.952-41.723,34.994C106.776,636.3,98.241,612.374,98.5,598.3c.783-43.474,47.661-75.542,91.476-131.267Z" fill="#fff"/><path d="M93.357,132.949c0-20.613-7.3-28.343-41.225-28.343v-14.6H174.091v14.6c-29.631,0-36.932,7.73-36.932,28.343V253.19l92.758-104.781c12.454-13.742,18.9-21.472,18.9-33.067,0-8.159-11.594-10.736-35.214-10.736v-14.6H321.816v14.6c-27.913,0-42.514,14.6-56.685,30.061l-67.851,73,82.881,134.413c12.024,19.754,19.754,28.772,47.667,28.772v14.6H209.734v-14.6c16.748,0,28.772-1.717,28.772-9.447,0-12.454-9.448-21.9-17.607-35.643l-51.532-84.6-32.208,35.643v65.7c0,20.613,7.3,28.343,36.932,28.343v14.6H52.132v-14.6c33.925,0,41.225-7.73,41.225-28.343Z" fill="#fff"/></g><g id="FILI"><g opacity="0.1"><path d="M350.061,1041.143c-1.664,89.682,52.705,242.113,223.011,271.291,110.492,18.841,262.621-60.91,265.795-222.934-.486-32.258,38.583-31.421,37.935,12.781-4.1,100.807-33.2,214.672-82.721,317.719H880c75.375,0,137.324-60.371,139.906-135.145-18.065-62.149-28.714-124.527-31.067-182.574-.261-32.08,20.179-41.312,31.161-31.633V310.792c-29.036-33.842-58.212-69.052-87.178-105.89h0C653.692,559.9,355.049,764.185,350.061,1041.143Z" fill="#fff"/></g></g><g id="FAT_2" data-name="FAT 2"><path d="M361.97,628.88H610.98v33.785c-41.5,0-58.674,13.515-58.674,55.746V899.162L701.855,726.013Q716.882,708.276,716.881,688c0-15.2-7.155-25.339-35.061-25.339H656.775V628.88H870.009v33.785c-55.1,8.447-66.546,13.515-95.168,45.611L663.216,832.436l158.136,308.291c12.164,24.494,32.915,35.474,68.693,35.474v33.786H645.327V1176.2c26.475-3.378,40.07-8.446,40.07-19.426s-5.724-22.805-107.332-227.206l-25.759,27.873v163.014c0,42.232,17.173,55.745,51.519,55.745v33.786H361.97V1176.2c52.95,0,70.124-13.513,70.124-55.745V718.411c0-42.231-17.174-55.746-70.124-55.746Z" fill="#090a0d"/><path d="M361.97,608.879H610.98v33.785c-41.5,0-58.674,13.514-58.674,55.746V879.161l149.549-173.15Q716.882,688.275,716.881,668c0-15.2-7.155-25.339-35.061-25.339H656.775V608.879H870.009v33.785c-55.1,8.446-66.546,13.514-95.168,45.61L663.216,812.435l158.136,308.291c12.164,24.494,32.915,35.474,68.693,35.474v33.786H645.327V1156.2c26.475-3.378,40.07-8.446,40.07-19.426s-5.724-22.8-107.332-227.206l-25.759,27.873v163.014c0,42.231,17.173,55.745,51.519,55.745v33.786H361.97V1156.2c52.95,0,70.124-13.514,70.124-55.745V698.41c0-42.232-17.174-55.746-70.124-55.746Z" fill="#fff"/></g></svg>
