<svg xmlns="http://www.w3.org/2000/svg" xmlns:xlink="http://www.w3.org/1999/xlink" viewBox="0 0 1020 1420"><defs><linearGradient id="Dégradé_sans_nom_208" x1="510" x2="510" y2="1420" gradientUnits="userSpaceOnUse"><stop offset="0" stop-color="#005539"/><stop offset="1" stop-color="#001205"/></linearGradient></defs><g id="cartes"><rect width="1020" height="1420" rx="140" fill="url(#Dégradé_sans_nom_208)"/></g><g id="index2"><path id="path147-6-9-8-7-0-5-0-8-3" d="M189.965,467.029c-39.92.9-57.821,47.662-28.256,83.973,4.289,5.3,4.731,8.335-3.123,3.248-19.906-13.848-58.073-4.745-60.028,37.591-2.414,52.164,67.646,67.194,80.8,11.725.691-5.852,5.266-5.718,4.163,2.588-1.2,22.547-7.967,43.62-17.269,64.17h47.456c-9.3-20.55-16.071-41.623-17.27-64.17-1.1-8.307,3.47-8.44,4.164-2.588,13.154,55.468,83.214,40.438,80.8-11.725-1.954-42.336-40.122-51.439-60.028-37.591-7.853,5.087-7.411,2.048-3.122-3.248,29.565-36.312,11.664-83.071-28.255-83.973h-.031Z" fill="#fff"/><path d="M311.692,379.444c0,42.084-18.032,72.145-56.724,72.145-25.169,0-45.079-19.325-45.079-48.956a66.526,66.526,0,0,1,.752-9.018c-4.508.43-7.889,1.289-10.894,1.718-3.005,0-5.635.429-9.767.429-72.126,0-122.464-73.433-122.464-152.878S117.854,90.006,189.98,90.006s122.463,73.433,122.463,152.878c0,57.544-26.295,111.653-67.993,136.56,2.629,18.036,7.513,42.084,27.423,42.084,19.158,0,27.046-23.619,29.3-42.084Zm-200.6-136.56c0,73.433,15.026,118.094,47.708,133.983l.751-.859c-5.634-5.582-13.523-16.318-13.523-35.213,0-26.625,19.91-41.226,41.322-41.226,31.18,0,43.951,23.619,52.592,62.268,19.158-19.754,28.925-60.121,28.925-118.953,0-93.187-24.793-138.278-78.887-138.278S111.092,149.7,111.092,242.884ZM160.3,345.519c0,21.042,16.153,35.643,33.809,35.643a42.42,42.42,0,0,0,17.656-3.865,99.22,99.22,0,0,0,4.508-29.631c0-18.895-12.021-33.5-30.053-33.5C169.318,314.17,160.3,328.341,160.3,345.519Z" fill="#fff"/></g><g id="FILI"><g opacity="0.1"><path d="M974.57,1090.035c-7.047-53.073,22.165-53.924,26.6-16.534A387.656,387.656,0,0,0,1020,1132.31V215.678a298.021,298.021,0,0,0-86.59-14.493h-.195C678.17,206.943,563.8,505.688,752.691,737.672c27.4,33.84,30.224,53.257-19.951,20.753C605.563,669.954,361.718,728.113,349.228,998.59,333.8,1331.858,781.405,1427.881,865.446,1073.5c4.416-37.39,33.648-36.535,26.6,16.534-6.116,114.956-34.9,223.914-76.483,329.965H880c64.418,0,119.027-44.1,135.157-103.593C993.273,1243.061,978.713,1167.926,974.57,1090.035Z" fill="#fff"/></g></g><g id="FAT_2" data-name="FAT 2"><path d="M877.165,1158.757c0,96.288-44.364,167.237-121.643,167.237-67.978,0-104.471-40.542-107.333-121.627-7.871,1.689-15.026,1.689-22.182,1.689-135.239,0-251.157-138.519-251.157-300.688S490.768,604.679,626.007,604.679,877.165,743.2,877.165,905.368c0,114.869-57.96,217.914-140.247,267.748,15.742,37.163,30.051,56.59,57.243,56.59,35.778,0,48.657-30.407,50.089-70.949ZM509.373,905.368c0,96.288,11.448,170.615,37.924,214.536h1.431v-8.446c0-58.28,25.044-99.667,76.563-99.667,45.08,0,74.417,29.562,94.452,74.328,15.742-44.766,22.9-105.579,22.9-180.751,0-162.17-32.916-261.837-116.635-261.837S509.373,743.2,509.373,905.368Zm75.133,202.711c0,32.1,17.888,59.124,46.51,59.124a48.854,48.854,0,0,0,20.035-4.223c1.431-8.446,5.724-43.921,5.724-54.9,0-38.853-15.742-54.057-35.777-54.057C598.816,1054.022,584.506,1076.828,584.506,1108.079Z" fill="#090a0d"/><path d="M877.165,1138.756c0,96.288-44.364,167.237-121.643,167.237-67.978,0-104.471-40.543-107.333-121.627-7.871,1.689-15.026,1.689-22.182,1.689-135.239,0-251.157-138.519-251.157-300.689S490.768,584.677,626.007,584.677,877.165,723.2,877.165,885.366c0,114.87-57.96,217.915-140.247,267.748,15.742,37.164,30.051,56.591,57.243,56.591,35.778,0,48.657-30.407,50.089-70.949ZM509.373,885.366c0,96.288,11.448,170.616,37.924,214.537h1.431v-8.447c0-58.279,25.044-99.666,76.563-99.666,45.08,0,74.417,29.562,94.452,74.328,15.742-44.766,22.9-105.58,22.9-180.752,0-162.169-32.916-261.836-116.635-261.836S509.373,723.2,509.373,885.366Zm75.133,202.712c0,32.1,17.888,59.124,46.51,59.124a48.854,48.854,0,0,0,20.035-4.223c1.431-8.446,5.724-43.921,5.724-54.9,0-38.853-15.742-54.057-35.777-54.057C598.816,1034.021,584.506,1056.827,584.506,1088.078Z" fill="#fff"/></g></svg>
