<svg xmlns="http://www.w3.org/2000/svg" xmlns:xlink="http://www.w3.org/1999/xlink" viewBox="0 0 1020 1420"><defs><linearGradient id="Dégradé_sans_nom_169" x1="510" x2="510" y2="1420" gradientUnits="userSpaceOnUse"><stop offset="0" stop-color="#98161b"/><stop offset="1" stop-color="#1d0000"/></linearGradient></defs><g id="cartes"><rect width="1020" height="1420" rx="140" fill="url(#Dégradé_sans_nom_169)"/></g><g id="index2"><path id="path9700-3-2" d="M189.98,670.325S212.593,637.9,243.1,599.78c20.408-25.51,36.722-53.133,38.24-76.926,1.739-27.18-14.729-54.447-44.543-55.769-29.8-1.32-41.891,20.957-46.815,39.324-4.924-18.367-17.019-40.644-46.815-39.324-29.814,1.322-46.283,28.589-44.543,55.769,1.517,23.793,17.832,51.416,38.239,76.926C167.366,637.9,189.98,670.325,189.98,670.325Z" fill="#fff"/><path d="M60.6,118.564c27,0,48.462-12.115,58.5-25.962h9.345V344.435c0,24.233,8.309,33.752,41.539,33.752V392.9H54.375V378.187c33.23,0,41.537-9.519,41.537-33.752V152.314c0-12.981-6.922-19.037-35.308-19.037Z" fill="#fff"/><path d="M325.585,244.049c0,93.464-34.615,154.044-76.152,154.044s-76.153-60.58-76.153-154.044S207.9,90.006,249.433,90.006,325.585,150.583,325.585,244.049Zm-35.307,0c0-105.148-13.845-139.331-40.845-139.331S208.588,138.9,208.588,244.049s13.846,139.332,40.845,139.332S290.278,349.2,290.278,244.049Z" fill="#fff"/></g><g id="FILI"><g opacity="0.1"><path d="M613.689,320.337c-175.986,7.8-273.2,168.753-262.926,329.186,8.952,140.444,105.258,303.5,225.714,454.077,99.846,124.773,185.369,239.205,241.754,316.4H880c77,0,140-63,140-140V354.78c-73.427,45.076-110.859,126.365-129.975,197.673C860.961,444.038,789.567,312.542,613.689,320.337Z" fill="#fff"/></g></g><g id="FAT_2" data-name="FAT 2"><path d="M523.988,1091.738V613.677h-38.2c-35.118,33.785-56.067,45.61-124.456,47.3v38.853c60.379,0,67.773,6.757,67.773,43.921v347.988c0,54.9-7.394,70.949-80.711,74.328v33.785h255.69v-33.785C531.382,1162.687,523.988,1146.639,523.988,1091.738Z" fill="#090a0d"/><path d="M747.742,608.609c-96.731,0-155.878,126.695-155.878,300.689s59.147,300.689,155.878,300.689,155.879-126.7,155.879-300.689S844.474,608.609,747.742,608.609Zm-.616,567.593c-44.361,0-56.683-106.424-56.683-266.9s14.171-266.9,56.683-266.9c44.361,0,57.916,106.424,57.916,266.9S791.487,1176.2,747.126,1176.2Z" fill="#090a0d"/><path d="M523.988,1071.737V593.676h-38.2c-35.118,33.785-56.067,45.61-124.456,47.3v38.853c60.379,0,67.773,6.757,67.773,43.921v347.988c0,54.9-7.394,70.949-80.711,74.328v33.785h255.69v-33.785C531.382,1142.686,523.988,1126.638,523.988,1071.737Z" fill="#fff"/><path d="M747.742,588.608c-96.731,0-155.878,126.694-155.878,300.689s59.147,300.689,155.878,300.689,155.879-126.7,155.879-300.689S844.474,588.608,747.742,588.608Zm-.616,567.592c-44.361,0-56.683-106.423-56.683-266.9s14.171-266.9,56.683-266.9c44.361,0,57.916,106.424,57.916,266.9S791.487,1156.2,747.126,1156.2Z" fill="#fff"/></g></svg>
