<svg xmlns="http://www.w3.org/2000/svg" xmlns:xlink="http://www.w3.org/1999/xlink" viewBox="0 0 1020 1420"><defs><linearGradient id="Dégradé_sans_nom_219" x1="510" x2="510" y2="1420" gradientUnits="userSpaceOnUse"><stop offset="0" stop-color="#4e515b"/><stop offset="0.9" stop-color="#090a0d"/></linearGradient></defs><g id="cartes"><rect width="1020" height="1420" rx="140" fill="url(#Dégradé_sans_nom_219)"/></g><g id="index2"><path id="path153-0-1-2-5-6-5-9-1-9" d="M189.98,467.03c43.816,55.724,90.7,87.792,91.477,131.266.264,14.078-8.273,38.006-35.007,42.586-17.344,2.957-41.223-9.562-41.722-35,.1-5.064-6.011-4.932-5.955,2.006.813,20.062,7.938,43.419,19.906,62.432h-57.4c11.968-19.013,19.089-42.37,19.905-62.432.1-6.938-6.031-7.07-5.954-2.006-.5,25.433-24.379,37.952-41.723,34.994C106.776,636.3,98.241,612.374,98.5,598.3c.783-43.474,47.661-75.542,91.476-131.267Z" fill="#fff"/><path d="M60.6,118.564c27,0,48.462-12.115,58.5-25.962h9.345V344.435c0,24.233,8.309,33.752,41.539,33.752V392.9H54.375V378.187c33.23,0,41.537-9.519,41.537-33.752V152.314c0-12.981-6.922-19.037-35.308-19.037Z" fill="#fff"/><path d="M325.585,244.049c0,93.464-34.615,154.044-76.152,154.044s-76.153-60.58-76.153-154.044S207.9,90.006,249.433,90.006,325.585,150.583,325.585,244.049Zm-35.307,0c0-105.148-13.845-139.331-40.845-139.331S208.588,138.9,208.588,244.049s13.846,139.332,40.845,139.332S290.278,349.2,290.278,244.049Z" fill="#fff"/></g><g id="FILI"><g opacity="0.1"><path d="M350.061,1041.143c-1.664,89.682,52.7,242.113,223.011,271.291,110.492,18.841,262.622-60.91,265.795-222.934-.486-32.258,38.583-31.421,37.935,12.781-4.1,100.807-33.2,214.672-82.721,317.719H880c75.375,0,137.323-60.371,139.906-135.145-18.065-62.149-28.714-124.527-31.067-182.574-.261-32.08,20.178-41.312,31.161-31.633V310.792c-29.036-33.842-58.212-69.052-87.177-105.89h0C653.692,559.9,355.049,764.185,350.061,1041.143Z" fill="#fff"/></g></g><g id="FAT_2" data-name="FAT 2"><path d="M523.988,1091.738V613.677h-38.2c-35.118,33.785-56.067,45.61-124.456,47.3v38.853c60.379,0,67.773,6.757,67.773,43.921v347.988c0,54.9-7.394,70.949-80.711,74.328v33.785h255.69v-33.785C531.382,1162.687,523.988,1146.639,523.988,1091.738Z" fill="#090a0d"/><path d="M747.742,608.609c-96.731,0-155.878,126.695-155.878,300.689s59.147,300.689,155.878,300.689,155.879-126.7,155.879-300.689S844.474,608.609,747.742,608.609Zm-.616,567.593c-44.361,0-56.683-106.424-56.683-266.9s14.171-266.9,56.683-266.9c44.361,0,57.916,106.424,57.916,266.9S791.487,1176.2,747.126,1176.2Z" fill="#090a0d"/><path d="M523.988,1071.737V593.676h-38.2c-35.118,33.785-56.067,45.61-124.456,47.3v38.853c60.379,0,67.773,6.757,67.773,43.921v347.988c0,54.9-7.394,70.949-80.711,74.328v33.785h255.69v-33.785C531.382,1142.686,523.988,1126.638,523.988,1071.737Z" fill="#fff"/><path d="M747.742,588.608c-96.731,0-155.878,126.694-155.878,300.689s59.147,300.689,155.878,300.689,155.879-126.7,155.879-300.689S844.474,588.608,747.742,588.608Zm-.616,567.592c-44.361,0-56.683-106.423-56.683-266.9s14.171-266.9,56.683-266.9c44.361,0,57.916,106.424,57.916,266.9S791.487,1156.2,747.126,1156.2Z" fill="#fff"/></g></svg>
