<svg xmlns="http://www.w3.org/2000/svg" viewBox="0 0 250 250"><g id="JETONS"><path d="M125,5A120,120,0,1,0,245,124.99,120.127,120.127,0,0,0,125,5Z" fill="#ededed"/><path d="M125,233.5h-.118a1,1,0,0,1,0-2H125c3.235,0,6.5-.148,9.7-.438a1,1,0,0,1,.18,1.993C131.617,233.35,128.291,233.5,125,233.5Zm-10.03-.464c-.031,0-.062,0-.094,0-3.321-.308-6.658-.775-9.92-1.388a1,1,0,1,1,.369-1.964c3.2.6,6.477,1.057,9.736,1.36a1,1,0,0,1-.091,2Zm29.655-1.33a1,1,0,0,1-.18-1.983c3.219-.6,6.44-1.35,9.572-2.239a1,1,0,0,1,.547,1.924c-3.193.906-6.475,1.674-9.756,2.281A.952.952,0,0,1,144.622,231.706Zm-49.143-2.324a1.048,1.048,0,0,1-.275-.038c-3.2-.917-6.4-1.994-9.494-3.2a1,1,0,0,1,.727-1.863c3.037,1.184,6.172,2.24,9.317,3.141a1,1,0,0,1-.275,1.961ZM163.7,226.3a1,1,0,0,1-.361-1.933c3.046-1.179,6.072-2.515,9-3.972a1,1,0,1,1,.893,1.79c-2.98,1.485-6.064,2.846-9.166,4.047A1,1,0,0,1,163.7,226.3ZM77,222.183a1.01,1.01,0,0,1-.447-.1c-2.974-1.49-5.914-3.138-8.739-4.9a1,1,0,1,1,1.057-1.7c2.773,1.726,5.659,3.343,8.578,4.8A1,1,0,0,1,77,222.183Zm104.449-4.726a1,1,0,0,1-.527-1.851c2.772-1.715,5.5-3.586,8.114-5.557a1,1,0,1,1,1.205,1.595c-2.662,2.009-5.443,3.914-8.266,5.664A1,1,0,0,1,181.453,217.457ZM60.169,211.705a1,1,0,0,1-.6-.2c-2.653-2.013-5.243-4.17-7.7-6.412a1,1,0,1,1,1.35-1.477c2.409,2.2,4.951,4.32,7.556,6.295a1,1,0,0,1-.606,1.8Zm137.114-6.194a1,1,0,0,1-.672-1.74c2.417-2.2,4.76-4.536,6.963-6.945a1,1,0,0,1,1.477,1.35c-2.245,2.454-4.632,4.834-7.095,7.074A.992.992,0,0,1,197.283,205.511ZM45.531,198.329a1,1,0,0,1-.74-.327c-2.245-2.465-4.4-5.059-6.4-7.708a1,1,0,1,1,1.6-1.205c1.965,2.6,4.079,5.146,6.283,7.567a1,1,0,0,1-.739,1.673Zm165.137-7.451a1,1,0,0,1-.8-1.6c1.979-2.606,3.856-5.331,5.58-8.1a1,1,0,0,1,1.7,1.058c-1.757,2.819-3.669,5.594-5.684,8.249A1,1,0,0,1,210.668,190.878ZM33.575,182.505a1,1,0,0,1-.851-.473c-1.755-2.831-3.4-5.774-4.882-8.75a1,1,0,1,1,1.79-.892c1.456,2.92,3.069,5.809,4.792,8.587a1,1,0,0,1-.849,1.528Zm187.581-8.456a.987.987,0,0,1-.448-.107,1,1,0,0,1-.445-1.342c1.467-2.924,2.811-5.946,4-8.981a1,1,0,0,1,1.863.727c-1.207,3.093-2.577,6.171-4.072,9.151A1,1,0,0,1,221.156,174.049ZM24.723,164.757a1,1,0,0,1-.933-.639c-1.2-3.1-2.274-6.3-3.183-9.5a1,1,0,0,1,1.924-.547c.892,3.142,1.943,6.278,3.124,9.323a1,1,0,0,1-.932,1.362Zm203.643-9.177a1.016,1.016,0,0,1-.276-.039,1,1,0,0,1-.685-1.236c.9-3.137,1.661-6.356,2.265-9.568a1,1,0,0,1,1.965.369c-.615,3.274-1.393,6.554-2.309,9.749A1,1,0,0,1,228.366,155.58ZM19.3,145.683a1,1,0,0,1-.982-.817c-.607-3.265-1.068-6.6-1.372-9.922a1,1,0,1,1,1.993-.181c.3,3.256.75,6.533,1.345,9.738a1,1,0,0,1-.8,1.166A.96.96,0,0,1,19.3,145.683Zm212.73-9.587c-.031,0-.062,0-.093,0a1,1,0,0,1-.9-1.089c.3-3.244.461-6.549.467-9.822a1,1,0,0,1,1-1h0a1,1,0,0,1,1,1c-.006,3.334-.166,6.7-.474,10A1,1,0,0,1,232.033,136.1ZM17.5,125.94h0a1,1,0,0,1-1-1c0-3.335.157-6.7.462-10.006a1,1,0,1,1,1.991.184c-.3,3.244-.451,6.549-.453,9.822A1,1,0,0,1,17.5,125.94Zm214.568-9.672a1,1,0,0,1-1-.91c-.292-3.253-.742-6.53-1.333-9.741a1,1,0,1,1,1.966-.363c.6,3.271,1.061,6.611,1.359,9.925a1,1,0,0,1-.907,1.086Q232.111,116.268,232.066,116.268ZM19.324,106.2a1.153,1.153,0,0,1-.184-.016,1,1,0,0,1-.8-1.167c.612-3.275,1.384-6.555,2.3-9.751a1,1,0,1,1,1.923.548c-.894,3.137-1.653,6.357-2.254,9.57A1,1,0,0,1,19.324,106.2Zm209.143-9.427a1,1,0,0,1-.961-.727c-.89-3.145-1.936-6.282-3.113-9.326A1,1,0,0,1,226.258,86c1.2,3.1,2.267,6.3,3.172,9.5a1,1,0,0,1-.69,1.234A.947.947,0,0,1,228.467,96.771Zm-203.7-9.64a.985.985,0,0,1-.362-.069,1,1,0,0,1-.57-1.294c1.205-3.1,2.572-6.178,4.061-9.156a1,1,0,0,1,1.789.9c-1.462,2.922-2.8,5.945-3.985,8.986A1,1,0,0,1,24.763,87.131Zm196.558-8.858a1,1,0,0,1-.9-.554c-1.45-2.915-3.059-5.807-4.782-8.594a1,1,0,0,1,1.7-1.051c1.755,2.839,3.4,5.784,4.872,8.754a1,1,0,0,1-.894,1.445ZM33.631,69.4a1,1,0,0,1-.848-1.528c1.756-2.825,3.666-5.6,5.675-8.255a1,1,0,0,1,1.594,1.207c-1.972,2.6-3.846,5.331-5.571,8.1A1,1,0,0,1,33.631,69.4Zm177.256-7.992a1,1,0,0,1-.8-.4c-1.963-2.6-4.074-5.153-6.274-7.573a1,1,0,1,1,1.48-1.345c2.24,2.465,4.391,5.06,6.392,7.715a1,1,0,0,1-.8,1.6ZM45.605,53.591a1,1,0,0,1-.739-1.674c2.244-2.458,4.628-4.841,7.086-7.083A1,1,0,0,1,53.3,46.312c-2.414,2.2-4.754,4.54-6.956,6.953A1,1,0,0,1,45.605,53.591Zm151.942-6.86a1,1,0,0,1-.676-.262c-2.41-2.208-4.95-4.329-7.549-6.3a1,1,0,1,1,1.21-1.592c2.648,2.012,5.235,4.172,7.691,6.421a1,1,0,0,1-.676,1.737ZM60.26,40.227a1,1,0,0,1-.6-1.8c2.656-2.009,5.435-3.918,8.26-5.672a1,1,0,1,1,1.054,1.7c-2.772,1.722-5.5,3.595-8.107,5.568A1,1,0,0,1,60.26,40.227Zm121.5-5.494a1,1,0,0,1-.528-.151c-2.777-1.733-5.66-3.353-8.573-4.815a1,1,0,1,1,.9-1.788c2.967,1.491,5.905,3.141,8.733,4.906a1,1,0,0,1-.53,1.848ZM77.109,29.766a1,1,0,0,1-.448-1.895c2.979-1.488,6.061-2.854,9.162-4.059a1,1,0,0,1,.724,1.866C83.5,26.859,80.479,28.2,77.555,29.66A1,1,0,0,1,77.109,29.766Zm86.931-3.932a1.015,1.015,0,0,1-.364-.068c-3.041-1.189-6.174-2.249-9.312-3.151a1,1,0,0,1,.552-1.922c3.2.918,6.39,2,9.489,3.209a1,1,0,0,1-.365,1.932ZM95.593,22.586a1,1,0,0,1-.273-1.962c3.2-.91,6.479-1.681,9.752-2.291a1,1,0,0,1,.366,1.967c-3.212.6-6.432,1.354-9.571,2.248A1,1,0,0,1,95.593,22.586Zm49.391-2.224a1.084,1.084,0,0,1-.187-.017c-3.2-.6-6.473-1.066-9.734-1.374a1,1,0,1,1,.187-1.991c3.323.314,6.66.785,9.918,1.4a1,1,0,0,1-.184,1.982Zm-29.9-1.409a1,1,0,0,1-.091-2c3.3-.3,6.67-.457,10-.457h.247a1,1,0,0,1,0,2h-.258c-3.262,0-6.566.151-9.81.449C115.145,18.952,115.114,18.953,115.084,18.953Z" fill="#c6c6c6"/><path d="M75.592,62.5H124.85a75.438,75.438,0,0,1,23.835,3.8,57.982,57.982,0,0,1,20.3,11.564,56.553,56.553,0,0,1,14.125,19.509q5.3,11.743,5.3,27.632,0,16.066-6.091,27.807a59.526,59.526,0,0,1-15.713,19.42A67.018,67.018,0,0,1,145.242,183.7a74.614,74.614,0,0,1-23.04,3.8H75.592Zm38.842,104.873a78.849,78.849,0,0,0,19.686-2.383,46.844,46.844,0,0,0,16.153-7.416,35.181,35.181,0,0,0,10.858-13.064Q165.1,136.476,165.1,125q0-11.3-3.532-19.422a33.807,33.807,0,0,0-9.8-13.153,40.91,40.91,0,0,0-14.83-7.416,70.036,70.036,0,0,0-18.8-2.383h-20.3v84.746Z"/></g></svg>
