<svg xmlns="http://www.w3.org/2000/svg" viewBox="0 0 250 250"><g id="JETONS"><path d="M125,245A120,120,0,1,0,5,124.99,120.13,120.13,0,0,0,125,245Z" fill="#fff"/><path d="M125,245A120,120,0,1,0,5,124.99,120.13,120.13,0,0,0,125,245ZM33.146,198.587a117.391,117.391,0,0,1-21.722-42.61l2.715-.737h0l18.642-5.052a94.488,94.488,0,0,0,17.6,34.575Zm16.832-60.176h0a.093.093,0,0,1,0,.024.014.014,0,0,0,0,.012c0,.024.007.048.01.074a.019.019,0,0,1,0,.014.049.049,0,0,1,0,.02s0,.017.007.019a.132.132,0,0,0,0,.029.033.033,0,0,1,0,.019c0,.006,0,.012,0,.018a.063.063,0,0,1,0,.023.047.047,0,0,0,.007.022.066.066,0,0,0,0,.024l0,.016v.024a.011.011,0,0,1,.008.012c0,.009.007.025.007.033v.015c0,.011.006.017.006.027v.01a.066.066,0,0,1,.007.036v.009a.051.051,0,0,1,.007.03l.006.008a.16.16,0,0,0,.007.041v0a.1.1,0,0,0,.008.036v0c0,.027.008.055.012.079v.006a.086.086,0,0,1,.006.038h0c0,.016,0,.028.005.043h0a.143.143,0,0,1,.007.037l0,0a.306.306,0,0,0,.014.082v0a.341.341,0,0,1,.013.082l.007,0a.374.374,0,0,0,.013.084c.007.041.017.082.028.122a.594.594,0,0,0,.012.086h0c.007.027.01.054.018.082.042.225.09.447.136.671a.334.334,0,0,1,.013.083v0a.518.518,0,0,1,.019.08h0a.109.109,0,0,1,.007.04l0,0a.358.358,0,0,0,.017.078v.007a.71.71,0,0,1,.017.08v0a.329.329,0,0,0,.01.037v0c0,.011.005.026.005.038l.007.006v.032l.008.01a.08.08,0,0,0,.006.036v.007c0,.012.007.019.007.03v.01a.174.174,0,0,1,.013.036v.007a.1.1,0,0,0,.007.03v.012a.128.128,0,0,1,.007.03l0,.009a.125.125,0,0,0,.007.031.05.05,0,0,1,0,.015c0,.006,0,.016,0,.023a.024.024,0,0,1,0,.015.121.121,0,0,1,.006.034l0,.013a.083.083,0,0,1,.006.021c0,.007.005.012.005.018a.082.082,0,0,0,.006.025.038.038,0,0,0,0,.022.045.045,0,0,1,0,.018.129.129,0,0,0,.007.021v.016a.076.076,0,0,1,0,.033.015.015,0,0,1,.008.016.026.026,0,0,0,.007.02v.013a.236.236,0,0,1,.009.043l0,.008c0,.008,0,.014,0,.023l.005.008c.006.028.009.053.016.079,0,0,.005,0,.005.009a.518.518,0,0,0,.015.081v0c.083.377.173.754.264,1.132l-2.655.641c-.44-1.825-.82-3.694-1.129-5.549l2.7-.447c.043.274.09.546.14.818v.006C49.971,138.373,49.973,138.393,49.978,138.411Zm-.19,10.571,2.6-.835c.186.582.38,1.158.579,1.732v0a.108.108,0,0,0,.007.027v.006a.285.285,0,0,1,.017.042.014.014,0,0,1,0,.011.043.043,0,0,1,.006.022l.007.01a.114.114,0,0,0,.01.036l0,.013a.024.024,0,0,1,.007.018.027.027,0,0,1,.006.017c.008.01.008.019.015.029a.024.024,0,0,0,.006.019.017.017,0,0,0,.007.016.022.022,0,0,0,.007.019.034.034,0,0,0,0,.017.158.158,0,0,1,.01.031l.006.012c0,.01.006.017.006.027l0,.009a.365.365,0,0,0,.014.035l0,.006c0,.012.007.018.009.031v.008c0,.014.011.025.015.037h0c0,.011.01.023.016.036v0c.007.027.02.051.027.077l0,0c.007.026.018.051.024.077l0,0q.361,1.005.747,1.994v0c.011.025.02.052.031.076v.006a.5.5,0,0,1,.025.071c.008,0,.008.006.008.008a.319.319,0,0,1,.013.037h0a.188.188,0,0,1,.014.034l.005.012c0,.009.007.016.007.025l.008.011a.162.162,0,0,1,.009.03.047.047,0,0,1,.006.015c0,.007,0,.014.007.02s.011.017.011.027l0,.015c.007.007.007.015.014.023V153a.761.761,0,0,1,.031.076l0,0c.027.071.053.143.087.217L51.7,154.308C51.007,152.564,50.36,150.771,49.788,148.982Zm6.876,15.5c-.94-1.628-1.842-3.309-2.664-5l2.456-1.2c.04.075.074.151.113.229h0a.415.415,0,0,1,.038.076l0,0c.01.023.024.049.034.073l0,.007a.259.259,0,0,0,.017.033l.016.037,0,.007c.006.009.013.023.02.032v0a.336.336,0,0,1,.016.033s0,.006,0,.008.01.022.016.033h0a.09.09,0,0,0,.017.032l.006.013a.086.086,0,0,0,.014.025v.009c.006.01.014.02.021.031a.015.015,0,0,0,0,.012c0,.007.008.014.008.024s.007.007.011.012.009.018.012.029,0,.009.007.012l.011.021a.015.015,0,0,0,.007.012.311.311,0,0,0,.012.03l.007.013a.063.063,0,0,0,.013.02c0,.007,0,.01.008.017s.006.019.013.027.007.01.007.016.005.008.005.016a.06.06,0,0,1,.011.014.083.083,0,0,0,.016.029.025.025,0,0,0,.008.017l.006.015.009.018.015.027c0,.006,0,.012.009.017s0,.009.006.014.008.012.008.019a.043.043,0,0,1,.013.026c.007.006.007.012.012.018a.02.02,0,0,0,.007.013.045.045,0,0,1,.007.019l.006.009c.008.012.015.026.021.037a.022.022,0,0,0,0,.013l.011.018,0,.013a.214.214,0,0,0,.02.032c0,.006,0,.008.008.013a.024.024,0,0,0,.007.02s.006.006.006.014.009.019.017.03,0,.01.007.013a.163.163,0,0,0,.009.019l.007.011.014.034a.01.01,0,0,1,.006.01.058.058,0,0,1,.01.023.005.005,0,0,1,0,.006.13.13,0,0,0,.02.039.009.009,0,0,1,.006.008c0,.009.007.014.014.022l0,.009c.008.012.014.026.021.038l0,.007.011.023,0,.007c.011.014.014.028.024.038l0,.01a.063.063,0,0,0,.013.02v.01c.006.012.014.024.02.039l.007.008a.165.165,0,0,1,.009.022l0,.008a.226.226,0,0,1,.024.043l0,0c0,.009.006.014.009.021l0,.01a.189.189,0,0,0,.027.043v0c0,.006.008.013.014.02v.009a.619.619,0,0,1,.036.067l0,.009a.38.38,0,0,1,.038.068l0,.011a.23.23,0,0,1,.035.063.025.025,0,0,1,.008.012l.01.018v0c.007.015.018.03.024.043l.006.011.011.022,0,0a.158.158,0,0,0,.023.042v.009c.007.007.007.014.013.021s0,0,.008,0,.013.027.016.041l.006.008a.077.077,0,0,1,.01.023l0,0a.172.172,0,0,0,.023.042l0,.009a.139.139,0,0,1,.011.021l0,.006c.01.014.015.029.022.039s0,.009.008.009.006.014.006.022.007.008.007.009l.02.035,0,.01a.06.06,0,0,0,.014.021l0,.009a.339.339,0,0,0,.02.038l.006.007c0,.008.007.015.014.022v.006a.1.1,0,0,0,.023.04l0,.009a.15.15,0,0,0,.014.02l0,.01c.007.012.013.027.02.039l0,.007a.106.106,0,0,1,.011.021l.007.009a.449.449,0,0,0,.023.041v0c.007.007.007.012.015.019s0,.007,0,.011a.688.688,0,0,1,.035.066l.006.008c.01.023.024.046.034.069l.006.007a.383.383,0,0,1,.037.069l0,.006c.013.024.027.047.041.069v0c.012.024.026.047.039.072v0c.017.025.03.048.044.071l0,0c.254.464.517.926.78,1.387Zm6.356,9.353c-1.162-1.475-2.288-3.011-3.343-4.562l2.256-1.537q.463.679.94,1.347c.066.094.134.185.2.28v0c.034.044.067.091.1.135v0c.032.046.067.095.1.137v0c.034.047.068.092.1.137v0c.017.022.03.045.05.068v0a.79.79,0,0,1,.05.068l0,0c.015.022.03.045.047.066v0c.017.019.033.043.053.065h0c.014.023.035.047.047.07h0c.016.021.03.043.049.067l0,0,.045.067h0a.051.051,0,0,1,.017.024h0a.189.189,0,0,1,.034.043v0a.067.067,0,0,1,.019.022.434.434,0,0,1,.034.044h0a.131.131,0,0,1,.017.022v0a.433.433,0,0,0,.037.044h0a.075.075,0,0,1,.015.023h0a.455.455,0,0,1,.031.044l0,0a.067.067,0,0,0,.016.018l0,.008a.133.133,0,0,1,.03.036v.006a.139.139,0,0,1,.021.021v0a.289.289,0,0,0,.035.041v0a.082.082,0,0,1,.012.02l.007,0c.006.013.02.028.026.041l.008,0c.007.009.007.016.012.022l0,0a.714.714,0,0,0,.051.064l0,0,.03.043h0a.139.139,0,0,1,.021.021v.006c.012.014.019.026.032.039v0a.073.073,0,0,1,.014.02l.007.007a.157.157,0,0,0,.032.04h0c.007.007.007.015.015.019s.006.008.006.009a.662.662,0,0,0,.047.061l.007.008a.406.406,0,0,1,.025.041h0a.028.028,0,0,1,.014.02l.014.009a.613.613,0,0,1,.039.056.029.029,0,0,1,.011.012.114.114,0,0,1,.023.031l.007.008c.006.006.013.011.013.017s.006.007.006.01a.435.435,0,0,1,.031.035l0,.007a.131.131,0,0,0,.013.016s.008.008.01.013l.01.015a.067.067,0,0,1,.016.024.068.068,0,0,0,.018.015c0,.006.006.009.006.014s.008.01.014.015a.107.107,0,0,0,.02.022c0,.008.006.01.01.016s.006.01.011.013a.032.032,0,0,0,.013.016.049.049,0,0,0,.017.024c0,.007.009.01.009.016s.006.01.013.013.006.01.014.014a.108.108,0,0,0,.016.026l.01.013a.058.058,0,0,0,.013.015s.008.01.01.014.013.018.018.026,0,.007.012.012.007.011.013.016.007.009.007.014a.11.11,0,0,1,.021.023c.007.006.007.01.01.013a.033.033,0,0,0,.016.017.026.026,0,0,0,.006.013l.021.026s.007.006.007.012.012.012.019.018.007.007.007.012.014.018.021.027l.006.006a.131.131,0,0,1,.017.022.021.021,0,0,0,.009.013.148.148,0,0,1,.021.027l0,0a.124.124,0,0,1,.023.024s0,.007.007.009.014.02.021.03l0,0a.183.183,0,0,1,.021.026l.007.007c.007.011.017.022.023.03s.014.018.02.029l.007,0ZM60.949,78.907c1.1-1.523,2.267-3.025,3.47-4.467l2.1,1.751q-1.755,2.1-3.353,4.314Zm5.738,99.237L68.7,176.3c.04.04.08.086.12.125h0c.035.043.073.085.113.126h0c.02.022.04.043.061.064h0c.019.022.039.041.055.061h0a.567.567,0,0,0,.053.062h0a.692.692,0,0,0,.06.061v0l.057.06h0a.73.73,0,0,1,.056.059l0,0c.021.021.037.04.058.062h0c.023.019.039.039.06.06v0c.02.022.037.039.06.06v0c.021.02.037.04.053.057l0,0c.019.021.035.04.055.06h0a.808.808,0,0,0,.057.06v0l.06.061h0c.021.021.038.041.058.062q1.355,1.424,2.778,2.778l-1.882,1.981C69.284,180.892,67.947,179.532,66.687,178.144Zm49.264,64.214a116.912,116.912,0,0,1-45.942-13.277l1.324-2.5h0l9.02-17.032a94.317,94.317,0,0,0,37.262,10.769ZM74.884,185.936l1.733-2.108c.868.71,1.741,1.4,2.635,2.071h0c.025.019.048.036.067.052a.6.6,0,0,1,.067.052l.006,0c.021.014.04.032.063.048l0,0,.06.046a.024.024,0,0,0,.013.007c.019.016.04.03.06.046l.007.006.02.012.006.007c.014.007.02.018.034.024a.022.022,0,0,0,.01.009l.016.014a.011.011,0,0,1,.009,0l.03.023a.032.032,0,0,0,.014.008l.014.012c.01,0,.013.01.021.013a.1.1,0,0,0,.019.016l.017.012.013.01.017.014a.085.085,0,0,0,.026.015.024.024,0,0,0,.013.009.03.03,0,0,0,.015.012.063.063,0,0,0,.023.017c0,.006.009.007.013.012a.156.156,0,0,0,.017.015c.007,0,.007,0,.013.008l.03.018s0,.006.007.007.016.012.019.015.011.007.011.008l.033.022.007.006a.168.168,0,0,0,.023.018l.009.006a.311.311,0,0,1,.028.023h0a.211.211,0,0,1,.031.021l.007,0c.02.016.038.03.063.048h0c.02.017.047.034.067.05h0c.216.16.437.317.657.474l-1.583,2.228C77.845,188.289,76.338,187.133,74.884,185.936Zm9.22,6.553,1.418-2.336q1.17.708,2.358,1.375l0,0a.133.133,0,0,1,.035.019h0l.038.02v0a.084.084,0,0,1,.033.019H88c.015.007.021.012.035.018l0,0a.181.181,0,0,1,.031.018h.007l.033.02.008,0a.111.111,0,0,0,.03.019l0,0,.037.017,0,.005a.089.089,0,0,1,.026.014c.007,0,.007,0,.015,0s.019.012.032.018v0a.2.2,0,0,1,.03.017l.01,0a.255.255,0,0,0,.033.017s0,0,.008,0,.016.011.022.014l.015.007c.009,0,.016.01.03.017l.005,0c.007,0,.02.009.027.014s.008.006.014.007l.019.012.02.01.021.012.012.007.02.011a.134.134,0,0,0,.024.012l.016.011.018.008a.05.05,0,0,0,.017.01.113.113,0,0,0,.025.012.05.05,0,0,0,.018.011c.007,0,.01.007.017.008l.013.009c.01.006.019.008.027.013s.01.007.016.011l.017.008a.046.046,0,0,0,.016.008c.01.007.024.012.035.02l.009,0a.243.243,0,0,1,.02.014l.006,0,.048.023a.033.033,0,0,0,.023.01s0,0,.009.007l.067.037,0,0c.434.233.868.464,1.3.687l-1.247,2.433C87.37,194.4,85.712,193.464,84.1,192.489Zm10.065,5.168,1.069-2.513c1.669.71,3.376,1.363,5.1,1.957l-.887,2.584C97.677,199.077,95.9,198.394,94.169,197.657Zm10.7,3.671.7-2.645q.921.245,1.861.467c.023,0,.053.014.08.019h0c.026.006.054.012.08.02h.006a.353.353,0,0,1,.04.008.226.226,0,0,0,.041.009v0a.245.245,0,0,1,.039.008v0c.017,0,.028.007.04.008h.007a.122.122,0,0,0,.034.01l.007,0,.04.007v0a.084.084,0,0,1,.032.007l.014,0c.014,0,.02,0,.034.007h0a.129.129,0,0,0,.039.008l.01,0,.03.005.007,0a.093.093,0,0,1,.032.009h.015l.026,0,.014,0,.033,0c.007,0,.007,0,.013,0l.019,0,.021,0,.02.006a.156.156,0,0,1,.027.006l.02,0,.016,0a.12.12,0,0,0,.017.006.2.2,0,0,1,.033.008.032.032,0,0,1,.017,0,.056.056,0,0,1,.021,0h.013c.024.007.049.013.073.018l.011,0c.025,0,.053.009.078.016l.007,0,.081.019h0a.068.068,0,0,1,.028.007h0a.755.755,0,0,1,.081.018h.007q1.076.234,2.161.44l-.5,2.686C108.548,202.224,106.691,201.806,104.873,201.328Zm16.763,2.529c-1.881-.08-3.78-.226-5.642-.441l.307-2.716c.077.008.154.018.227.028h.006c.027,0,.057.007.087.008h0c.03.005.06.006.088.01l.006,0h.022l.011,0c.016,0,.034,0,.05,0h0l.023,0h.013l.024,0,.016,0,.03,0,.018,0h.023l.017,0h.023a.086.086,0,0,0,.027,0h.012a.159.159,0,0,1,.028,0h.013l.033,0h.014l.025,0h.015a.226.226,0,0,0,.033,0h0a.175.175,0,0,0,.04,0h.007a.167.167,0,0,1,.033,0l.007,0a.26.26,0,0,0,.04,0h.006l.033,0h.007l.081.009.006,0h.041c.013,0,.025,0,.038,0h0a.23.23,0,0,1,.04.005h.005c.025,0,.055,0,.083.006h0c1.354.131,2.722.226,4.095.283Zm3.365.07v-2.733h.72l.017,0h.213l.034,0h.16l.02,0h.194l.079,0h.133c.028,0,.053,0,.083,0h.038l.088,0h0c.028,0,.058,0,.088,0s.081,0,.123,0h0c.784-.02,1.564-.054,2.344-.1h0c.03,0,.056,0,.086,0h0a.08.08,0,0,1,.026,0h.01l.077,0,.013,0h.04c.007,0,.02,0,.03,0h.078l.03,0h.016a.057.057,0,0,0,.024,0h.057a.191.191,0,0,1,.032,0h.007a.167.167,0,0,0,.033,0h.007a.189.189,0,0,0,.041,0h0l.037,0h0l.464-.033.194,2.725C128.786,203.858,126.885,203.927,125,203.927Zm7.574,38.528-1.427-22.067a94.821,94.821,0,0,0,37.434-10.306l8.824,17.165h0l1.294,2.523A117.007,117.007,0,0,1,132.575,242.455Zm3.321-42.036c.846-.121,1.694-.26,2.534-.41.03-.007.053-.009.086-.014h0l.08-.014.007,0a.187.187,0,0,0,.037-.007h0a.207.207,0,0,0,.041-.007h0a.353.353,0,0,1,.04-.008h.006l.077-.015,0,0,.08-.013.007,0a.3.3,0,0,0,.036-.006h0a.251.251,0,0,0,.039-.007h.006a.133.133,0,0,1,.03-.006h.01a.124.124,0,0,1,.037-.008l0,0c.014,0,.02,0,.035,0h.009c.013,0,.027,0,.036-.007h0a.341.341,0,0,1,.037-.008l.011,0,.03,0h.007a.111.111,0,0,1,.035-.008l.011,0,.026,0c.007,0,.011,0,.013,0a.1.1,0,0,0,.035-.007h.012l.028,0,.013,0a.116.116,0,0,0,.033-.006l.007,0a.125.125,0,0,0,.03,0h.013a.275.275,0,0,0,.03-.008h.007a.144.144,0,0,0,.033-.008l.013,0c.01,0,.021,0,.027,0l.013,0a.143.143,0,0,0,.035-.006l.012,0a.111.111,0,0,1,.024,0h.017c.009,0,.02-.006.03-.007l.015,0,.021-.006a.037.037,0,0,0,.017,0,.067.067,0,0,0,.022,0,.047.047,0,0,0,.021-.006l.026,0,.013,0,.025,0,.015,0c.011,0,.021,0,.03-.007l.018,0s.016,0,.02,0l.015,0a.084.084,0,0,0,.03-.006l.021,0a.072.072,0,0,1,.02,0l.017,0a.089.089,0,0,1,.023,0,.167.167,0,0,0,.024-.006l.02,0,.016,0c.007,0,.014,0,.02-.007a.056.056,0,0,0,.02,0l.03,0,.018,0h.019s.006,0,.015-.006a.082.082,0,0,0,.031-.007h.014a.094.094,0,0,0,.023-.006l.018,0a.061.061,0,0,1,.025-.007.038.038,0,0,0,.021,0l.019,0,.02,0,.021-.007a.12.12,0,0,1,.023,0,.064.064,0,0,1,.024,0,.042.042,0,0,1,.015,0,.078.078,0,0,1,.021,0,.043.043,0,0,1,.017,0l.03-.006a.037.037,0,0,1,.02,0,.052.052,0,0,1,.017,0,.044.044,0,0,1,.02,0,.063.063,0,0,1,.026-.007l.02,0a.041.041,0,0,1,.02-.006l.014,0a.126.126,0,0,1,.026-.006.058.058,0,0,0,.021,0l.022-.006.017,0,.021,0,.012-.006.035,0a.027.027,0,0,1,.015,0l.024-.006.013,0,.033-.007.013,0,.021,0,.019,0,.027-.007.014,0a.146.146,0,0,0,.026-.006l.013,0a.121.121,0,0,0,.028,0l.012,0a.217.217,0,0,0,.035-.007l.013,0,.027,0,.01,0,.035-.007h0l.585,2.669c-1.834.4-3.708.738-5.572,1Zm10.671-2.332q2.631-.777,5.178-1.736l.963,2.556c-1.76.664-3.567,1.267-5.368,1.8Zm10.221-3.843q2.485-1.143,4.878-2.462l1.321,2.391c-1.651.909-3.352,1.767-5.056,2.554Zm9.566-5.269.284-.188h0l.07-.046c.009-.007.024-.015.037-.024l.033-.023v0a.517.517,0,0,0,.067-.043l.007,0a.217.217,0,0,0,.034-.022h0c.012-.007.019-.013.032-.02l.008,0a.1.1,0,0,1,.032-.02v0c.011-.005.02-.013.034-.019l0,0a.326.326,0,0,1,.034-.022l0,0c.008-.007.021-.014.028-.02l.007-.005a.185.185,0,0,0,.033-.021l0,0,.03-.019.007-.005a.19.19,0,0,1,.034-.02v0a.1.1,0,0,0,.026-.017l.014-.006a.26.26,0,0,1,.03-.02l0,0a.22.22,0,0,1,.028-.018l.009-.006a.166.166,0,0,0,.03-.022h.008a.071.071,0,0,1,.023-.018l.01-.007a.112.112,0,0,0,.03-.02l0,0a.093.093,0,0,0,.027-.019l.014,0a.093.093,0,0,1,.023-.019l.009-.007a.279.279,0,0,0,.028-.016s.006-.007.012-.008a.156.156,0,0,0,.02-.016.03.03,0,0,1,.015-.006.06.06,0,0,1,.023-.018l.009-.007a.146.146,0,0,1,.028-.014l.006-.008c.007-.007.019-.013.026-.019s.007,0,.014-.01a.071.071,0,0,0,.02-.012c.007,0,.01,0,.012-.009a.232.232,0,0,1,.028-.016l.009-.008.021-.015.017-.012.02-.012a.083.083,0,0,1,.016-.012c.007,0,.009-.006.016-.009l.021-.016.02-.012.012-.011c.008,0,.015-.007.015-.011l.023-.014.018-.012c0-.005.012-.007.019-.011s.006-.007.013-.011a.083.083,0,0,0,.021-.015.05.05,0,0,1,.019-.011.057.057,0,0,1,.015-.012l.011-.007c.015-.009.024-.017.034-.024l.011,0a.069.069,0,0,1,.015-.014l.015-.007c.009-.008.023-.017.035-.026l0,0a.136.136,0,0,1,.021-.01l.006-.008c.024-.014.04-.028.064-.043l.008-.007a.59.59,0,0,0,.06-.042l.007-.005a.661.661,0,0,1,.068-.044l.006,0a.6.6,0,0,1,.06-.043l.007-.008a.536.536,0,0,0,.066-.043l.007-.007c.02-.013.04-.027.068-.043v0l.069-.046h0c.023-.016.044-.034.067-.048l.007,0,.065-.05h0c.021-.015.046-.032.067-.049h0l.139-.1v0a.9.9,0,0,0,.094-.063v0c.187-.131.374-.265.561-.4h0c.046-.032.093-.067.136-.1h0c.019-.016.043-.034.066-.05h0a.359.359,0,0,0,.07-.051h0c.021-.018.045-.032.068-.051h0c.022-.017.047-.033.067-.048l0,0a.81.81,0,0,1,.071-.051h0c.02-.017.042-.031.065-.049l0,0c.023-.017.043-.035.063-.048l0,0c.024-.016.045-.033.068-.05h0c.023-.018.043-.032.067-.049l0,0,.063-.048.008,0a.451.451,0,0,1,.06-.048l.007,0a.162.162,0,0,1,.019-.017l.006,0a.342.342,0,0,0,.038-.028l0,0,.02-.016,0,0c.013-.011.025-.019.039-.029l.006,0a.106.106,0,0,0,.021-.016h0c.014-.01.026-.021.039-.029l.008-.006c.007,0,.013-.01.02-.015l.007,0c.012-.008.023-.021.033-.027l.007-.007c.006,0,.006,0,.013-.007l1.644,2.182c-1.5,1.131-3.059,2.223-4.635,3.245Zm10.512-4.524-1.8-2.058c.545-.471,1.079-.952,1.609-1.441.4-.376.807-.752,1.2-1.136v0c.02-.016.039-.037.06-.056h0c.021-.021.041-.04.058-.059l.006,0a.179.179,0,0,0,.033-.035l.006,0c.008-.008.015-.012.015-.019l.006,0c.014-.011.026-.024.037-.034l0,0a.051.051,0,0,0,.016-.017l.011-.006c.006-.009.019-.018.026-.029l.007-.008a.055.055,0,0,0,.018-.016s.009-.006.009-.011l.02-.018.02-.015s.006-.009.013-.014l.013-.013a.047.047,0,0,1,.014-.014l.02-.02s.006-.008.011-.01l.016-.018c.007,0,.007,0,.012-.01a.22.22,0,0,0,.02-.023s.007-.007.01-.008.014-.014.025-.022l0,0a.2.2,0,0,1,.025-.026l0-.006a.3.3,0,0,0,.025-.024l0,0a.242.242,0,0,0,.027-.028v0c.194-.189.388-.379.574-.571l1.941,1.926C179.67,181.914,178.284,183.218,176.866,184.451Zm7.969-8.025-2.07-1.781c.013-.016.023-.031.037-.046a.475.475,0,0,0,.053-.062c.007,0,.007,0,.007-.009a.074.074,0,0,0,.025-.03l.011-.009c0-.006.01-.01.012-.017s.007-.006.011-.011l.019-.023s.007-.01.015-.014a.046.046,0,0,1,.013-.016l.009-.012a.113.113,0,0,1,.019-.019c0-.006.009-.013.012-.021s.007-.008.013-.012.007-.011.014-.015l.01-.011c0-.009.015-.018.023-.029l.007-.01a.121.121,0,0,0,.016-.016s0-.008.01-.009.012-.019.02-.029l.007-.007.02-.023.006-.007c.007-.01.015-.019.024-.03l0,0a.082.082,0,0,0,.02-.027c.007,0,.007,0,.007-.006l.026-.027v0a.105.105,0,0,0,.027-.029v0a.184.184,0,0,0,.028-.029l0,0a.185.185,0,0,0,.023-.03l0,0a.392.392,0,0,0,.025-.032.291.291,0,0,0,.024-.031l.006,0a.757.757,0,0,1,.053-.062v0c.037-.044.071-.085.108-.131h0c.183-.216.366-.436.546-.656a.457.457,0,0,1,.053-.067c.021-.021.035-.044.054-.067h0c.019-.022.034-.042.054-.065a.479.479,0,0,1,.053-.066v0c.021-.022.033-.044.053-.065h0a.575.575,0,0,1,.054-.066v0c.016-.019.034-.042.053-.062v0a.52.52,0,0,0,.053-.063v0c.021-.02.034-.045.053-.065v0c.02-.021.035-.044.055-.064v0c.02-.02.035-.044.053-.066h0c.019-.022.033-.042.053-.065h0c.019-.024.033-.044.053-.067h0l.054-.067v0c.016-.021.033-.043.053-.066q.66-.839,1.3-1.7l2.195,1.633C187.251,173.518,186.063,175,184.835,176.426Zm2.5-95.222h0c-.014-.024-.034-.046-.047-.07s-.032-.046-.05-.07h0c-.014-.023-.03-.042-.047-.067h0c-.02-.025-.033-.045-.05-.069h0a.292.292,0,0,0-.048-.066v-.006a.416.416,0,0,1-.045-.064l0,0c-.017-.024-.03-.043-.047-.064l0-.006c-.013-.021-.03-.042-.045-.063l-.007-.005c-.008-.015-.014-.021-.021-.035s-.013-.02-.023-.031l0,0c-.017-.022-.029-.04-.047-.061,0-.005,0-.008-.007-.01s-.01-.018-.016-.027l0,0a.313.313,0,0,0-.02-.03c-.006,0-.006-.006-.006-.008a.1.1,0,0,1-.019-.028l-.005,0c-.006-.01-.016-.02-.023-.032s0,0-.007-.007l-.016-.027,0,0a.286.286,0,0,0-.019-.03.008.008,0,0,1-.006-.008c-.007-.01-.014-.016-.02-.024l-.008-.007a.29.29,0,0,0-.019-.029l-.007-.009a.164.164,0,0,1-.016-.026l0-.005c-.007-.008-.017-.02-.027-.03v-.007c-.007-.007-.013-.018-.02-.025l-.007-.009c-.006-.009-.014-.015-.021-.026l0-.009a.165.165,0,0,1-.019-.025l-.007-.007c0-.01-.012-.019-.019-.03l-.006-.009a.163.163,0,0,0-.017-.022l-.007-.009-.021-.029-.006-.008c-.007-.007-.014-.017-.019-.023s0-.006,0-.007-.015-.022-.022-.03l0-.01c-.011,0-.011-.013-.018-.021s-.007-.008-.007-.01l-.023-.028-.006-.009-.017-.023s0,0-.007-.006a.135.135,0,0,0-.019-.031l-.006-.008a.164.164,0,0,1-.021-.025v0l-.026-.032,0,0a.1.1,0,0,0-.017-.025c-.007,0-.007,0-.007-.009l-.023-.03,0,0-.02-.028-.007-.008c-.007-.009-.013-.022-.02-.03l0,0c-.01-.01-.014-.019-.024-.029l0-.006c0-.01-.016-.021-.023-.032h0c-.007-.011-.017-.022-.024-.031l0,0a.118.118,0,0,0-.024-.034.166.166,0,0,1-.022-.032l-.008,0a.532.532,0,0,0-.046-.063V79.3a.53.53,0,0,1-.051-.064h0a.539.539,0,0,0-.051-.067v0c-.017-.022-.03-.044-.049-.067h0c-.1-.127-.187-.248-.286-.373l2.17-1.664c1.143,1.492,2.247,3.045,3.279,4.611l-2.281,1.5C188.239,82.515,187.789,81.853,187.33,81.2Zm4.255,86.147-2.3-1.47c.014-.024.027-.045.044-.07l0,0c.012-.021.026-.042.039-.063a.009.009,0,0,1,.008-.009.072.072,0,0,1,.015-.027l0-.008a.2.2,0,0,0,.019-.03l.006-.009c0-.006.01-.016.015-.022l.009-.014a.171.171,0,0,0,.014-.027l.009-.014.007-.012a.17.17,0,0,0,.023-.034l0-.01c.007,0,.007-.013.013-.016s.006-.006.006-.009c.013-.023.028-.046.041-.067l.007,0a.506.506,0,0,1,.04-.068v0c.512-.821,1.014-1.649,1.493-2.489h0c.017-.023.03-.048.045-.072l0,0c.013-.024.027-.047.041-.07l0-.007.01-.022h0a.331.331,0,0,1,.024-.042l.006-.01a.064.064,0,0,1,.014-.021s0-.008,0-.01.011-.023.014-.03.006-.013.011-.016a.118.118,0,0,1,.01-.019.093.093,0,0,1,.013-.022s.007-.009.007-.018l.012-.018.007-.013c.007-.012.014-.02.021-.03v-.011a.1.1,0,0,0,.016-.021s0-.009.007-.013a.1.1,0,0,1,.017-.03l.006-.007a.042.042,0,0,1,.014-.026c0-.006,0-.007.006-.01a.558.558,0,0,1,.037-.067l0,0a.527.527,0,0,1,.041-.072h0c.185-.337.372-.673.556-1.01l2.4,1.3C193.563,164.128,192.6,165.765,191.585,167.351Zm2.9-11.072v0a.23.23,0,0,0,.015-.032s0,0,0-.007.01-.022.013-.032l0,0a.2.2,0,0,1,.017-.036v0c.007-.01.011-.024.018-.036h0a.349.349,0,0,1,.019-.039h0c.006-.014.008-.024.013-.037l0,0a.375.375,0,0,0,.03-.073l.007,0q.411-.934.807-1.88h0a.344.344,0,0,1,.014-.037h0a.2.2,0,0,1,.019-.039v0a.335.335,0,0,0,.014-.038v0a.142.142,0,0,0,.016-.036h0l.016-.038v-.006a.121.121,0,0,0,.018-.036.081.081,0,0,0,.012-.035l0-.007c.01-.023.02-.049.03-.071l0-.009a.135.135,0,0,0,.014-.032v0a.071.071,0,0,0,.014-.034l.006-.011a.146.146,0,0,1,.014-.028v-.009a.132.132,0,0,0,.012-.031l.008-.011.008-.027a.009.009,0,0,0,0-.009.085.085,0,0,1,.013-.031.02.02,0,0,1,.007-.015c0-.007,0-.014,0-.02s.007-.01.007-.016a.073.073,0,0,1,.014-.03.015.015,0,0,1,.007-.015.031.031,0,0,1,.007-.02.035.035,0,0,1,.006-.017.091.091,0,0,1,.014-.029.029.029,0,0,1,0-.014.024.024,0,0,1,.01-.018s0-.013.007-.016a.078.078,0,0,1,.006-.023c0-.007.007-.015.011-.024l0-.016c.006-.005.006-.012.01-.02s0-.007,0-.013a.154.154,0,0,0,.017-.034l0-.012a.06.06,0,0,0,.007-.02l.006-.012a.344.344,0,0,0,.014-.037l.006-.01c0-.008.007-.016.007-.023l.008-.007a.2.2,0,0,1,.015-.047v0a.125.125,0,0,0,.01-.027v0c.014-.024.02-.051.034-.079h0c.22-.549.43-1.105.633-1.66l2.565.942c-.651,1.764-1.371,3.526-2.144,5.242Zm7.762-14.99c-.391,1.84-.846,3.688-1.367,5.5l-2.623-.755q.558-1.959,1.02-3.964h0a.264.264,0,0,1,.012-.04v0c0-.012.008-.028.008-.041s.006-.022.01-.037v-.006c0-.025.013-.051.016-.075,0,0,0-.006,0-.013a.122.122,0,0,1,.01-.031v0c0-.014,0-.027,0-.036v-.014a.033.033,0,0,0,.008-.027l0-.01c0-.01.007-.024.01-.034v-.014a.039.039,0,0,0,.007-.023l0-.013c0-.012.008-.027.011-.035v-.016c0-.007.007-.01.007-.018v-.019a.02.02,0,0,0,.008-.019c0-.011,0-.021,0-.028s0-.013,0-.019,0-.016.007-.02a.02.02,0,0,1,0-.014.245.245,0,0,1,.006-.043l0-.007c0-.007,0-.016,0-.023s0,0,0-.01c.006-.024.009-.053.016-.079v-.005l.02-.08V141.2c.033-.158.071-.318.1-.479Zm-1.743-5.947c.06-.415.113-.829.161-1.248,0-.038.01-.078.012-.117v0c.007-.029.007-.057.013-.083v-.009c0-.007.005-.015.005-.026v-.008a.275.275,0,0,0,0-.041l0-.014a.034.034,0,0,0,0-.021v-.016a.068.068,0,0,1,.006-.029v-.042a.032.032,0,0,0,0-.018c0-.006,0-.012,0-.02a.152.152,0,0,1,0-.028l0-.019v-.017a.033.033,0,0,1,0-.02l0-.022v-.022a.145.145,0,0,1,.007-.026v-.039s0-.007,0-.014a.194.194,0,0,0,0-.034v-.014a.111.111,0,0,0,.007-.023v-.017a.105.105,0,0,1,0-.03.014.014,0,0,1,0-.013v-.041a.137.137,0,0,0,0-.03l0-.007a.158.158,0,0,1,0-.038v-.009a.08.08,0,0,0,0-.029v-.011a.279.279,0,0,0,.007-.038V133.1a.183.183,0,0,1,0-.032l0-.011v-.034a.125.125,0,0,0,.007-.04v-.041l.007-.008v-.044a.112.112,0,0,0,.006-.035v-.006c0-.026.007-.054.007-.079v-.007a.274.274,0,0,1,.008-.037v0a.255.255,0,0,1,0-.038v-.008c0-.009,0-.022,0-.032v-.007a.113.113,0,0,1,.007-.039v-.041l0-.007c.005-.024.005-.053.01-.078v-.048a.105.105,0,0,0,.007-.04v0a.111.111,0,0,1,0-.036v-.008c0-.022,0-.052.009-.08v-.045a.257.257,0,0,0,.008-.04v0a.206.206,0,0,1,0-.036v-.006c0-.028,0-.052.011-.082v-.005a.527.527,0,0,1,.007-.079v-.007a.211.211,0,0,1,0-.036v0a.1.1,0,0,0,0-.04h0c0-.013,0-.029,0-.041l0,0a.31.31,0,0,1,.007-.082v-.006a.782.782,0,0,1,.007-.081v-.04l0,0a.418.418,0,0,1,.007-.08v-.009c0-.024,0-.053.005-.079l0,0V131.4h0c0-.025.006-.056.006-.082v0a.571.571,0,0,0,.007-.084h0c.04-.441.07-.885.1-1.327l2.727.173c-.123,1.878-.313,3.775-.567,5.632Zm15.445,64.383-17.133-14.068a95.031,95.031,0,0,0,18.048-34.393l21.348,6.087A117.364,117.364,0,0,1,215.947,199.725ZM225.922,64.39a116.967,116.967,0,0,1,15.786,45.2l-2.785.364h0l-19.261,2.534a94.521,94.521,0,0,0-12.79-36.63Zm-21.989,60.031-2.731.02c-.01-1.191-.047-2.377-.107-3.551h0a.865.865,0,0,1-.006-.125v0a.53.53,0,0,1-.008-.082v-.041h0c0-.019,0-.029,0-.043h0v-.047a.713.713,0,0,0-.005-.079v-.047c0-.014,0-.026,0-.038v-.007c0-.013,0-.02,0-.031V120.3l0,0c0-.01,0-.024,0-.036v-.049c0-.014,0-.026,0-.037l0-.009v-.074l0-.006c0-.012,0-.024,0-.036v-.051a.09.09,0,0,0-.008-.036v-.05a.255.255,0,0,0,0-.038.13.13,0,0,1,0-.038v-.05a.161.161,0,0,1-.007-.037V119.7c0-.015,0-.028,0-.039h0c0-.015,0-.028,0-.041v0a.211.211,0,0,0,0-.035v-.007c0-.014,0-.024,0-.04v0a.113.113,0,0,0,0-.039v0c0-.027,0-.058,0-.082v0c-.013-.137-.023-.283-.034-.422l2.721-.212C203.836,120.636,203.919,122.538,203.933,124.421Zm-.887-11.277-2.7.408c-.03-.2-.062-.411-.1-.617h0c0-.029-.007-.059-.013-.084v0a.215.215,0,0,0-.006-.029v0a.408.408,0,0,0-.007-.052v-.007a.149.149,0,0,1-.008-.023v-.009c0-.014,0-.027-.006-.04l0-.013a.033.033,0,0,0,0-.021v-.017a.03.03,0,0,0-.007-.019.162.162,0,0,0,0-.032l0-.015v-.021c0-.006,0-.013-.007-.017a.089.089,0,0,0,0-.028l0-.013c0-.01,0-.02,0-.031l0-.011c0-.011,0-.019,0-.029l0-.011a.227.227,0,0,0,0-.035v-.012a.128.128,0,0,0-.008-.029v-.008a.1.1,0,0,0-.007-.037v-.009a.085.085,0,0,0-.006-.031v-.008c0-.012-.007-.028-.007-.038v0c0-.01-.007-.025-.007-.037l0-.005a.49.49,0,0,0-.013-.081v-.006a.1.1,0,0,1,0-.035v0a.531.531,0,0,1-.015-.083h0c-.005-.025-.011-.053-.018-.081v0c0-.028-.007-.054-.012-.081q-.321-1.811-.721-3.593l2.665-.605C202.412,109.411,202.766,111.284,203.046,113.144Zm-2.494-11.037-2.618.8c-.113-.378-.226-.753-.347-1.126v0a.513.513,0,0,1-.027-.078v-.008a.239.239,0,0,1-.026-.075l0-.007a.182.182,0,0,1-.007-.025l0-.009c-.006-.012-.006-.024-.013-.038v-.014a.025.025,0,0,1-.006-.02.015.015,0,0,1-.007-.015.045.045,0,0,1-.01-.023c0-.008,0-.015-.007-.025s0-.012-.006-.017,0-.013-.008-.02a.03.03,0,0,1,0-.014c-.007-.011-.007-.021-.014-.032v-.013a.208.208,0,0,1-.01-.024l0-.012c0-.011-.007-.021-.009-.033l0-.012c-.007-.008-.007-.018-.014-.026v-.011c-.006-.011-.006-.024-.013-.036v0a.077.077,0,0,1-.01-.033l0-.006a.208.208,0,0,0-.015-.039h0a.229.229,0,0,0-.012-.037v-.006c-.007-.023-.02-.053-.028-.076v-.005c-.366-1.095-.752-2.177-1.166-3.249l2.554-.979C199.388,98.506,200.005,100.309,200.552,102.107Zm-4.059-10.564-2.474,1.164c-.2-.427-.4-.853-.614-1.272h0c-.013-.026-.022-.051-.036-.076h0c-.007-.012-.009-.023-.016-.034l0-.007c-.007-.011-.01-.02-.017-.033l0-.007c0-.008-.01-.018-.017-.029v0a.18.18,0,0,1-.017-.034l-.006-.01c0-.011-.007-.015-.01-.023l-.007-.013a.06.06,0,0,1-.013-.03.016.016,0,0,1-.007-.016c-.008,0-.008-.011-.01-.016l-.01-.017a.086.086,0,0,0-.013-.021c0-.01-.007-.017-.007-.024a.013.013,0,0,1-.006-.013c-.007-.006-.007-.013-.015-.021l0-.008c-.007-.014-.011-.024-.017-.037l-.006-.009c-.007-.009-.007-.015-.014-.023v0a.512.512,0,0,0-.023-.05h0q-.769-1.53-1.607-3.027l2.384-1.335C194.822,88.152,195.692,89.844,196.493,91.543ZM149.021,12.626h0l.586-2.748A117.075,117.075,0,0,1,193.42,29.211l-1.656,2.315h0L180.474,47.32a94.616,94.616,0,0,0-35.508-15.689ZM184.079,72.7l-2.044,1.812q-1.81-2.041-3.768-3.956l1.914-1.953C181.52,69.915,182.834,71.294,184.079,72.7ZM169.937,63.49l1.613-2.2c1.52,1.107,3.015,2.288,4.445,3.5l-1.763,2.086q-.942-.794-1.9-1.552l0-.007a.536.536,0,0,0-.068-.046v-.007a.52.52,0,0,1-.059-.046l-.007-.007c-.023-.013-.04-.034-.062-.047l0-.006a.491.491,0,0,1-.063-.047l-.007-.007a.507.507,0,0,0-.064-.047s0,0-.007-.006-.039-.03-.06-.048l0-.006a.426.426,0,0,1-.06-.047l-.007-.006c-.02-.015-.041-.03-.06-.047,0,0-.006,0-.006-.007a.253.253,0,0,1-.06-.046s-.008,0-.008,0a.065.065,0,0,1-.02-.015h0l-.04-.03-.01-.008s-.01-.009-.016-.016h0a.228.228,0,0,1-.041-.033h0c-.023-.02-.047-.033-.067-.05l0,0c-.023-.018-.043-.033-.063-.05l-.008,0c-.019-.014-.039-.035-.06-.048l-.005-.007c-.02-.012-.044-.032-.067-.046v0Q170.636,64,169.937,63.49Zm-6.084-4.025v0a.32.32,0,0,0-.036-.019h0c-.013-.011-.02-.015-.026-.021l-.01,0c-.009-.005-.024-.012-.034-.019h0a.313.313,0,0,1-.03-.02l-.007-.006a.1.1,0,0,1-.029-.017l-.011,0a.059.059,0,0,0-.023-.013c-.006-.007-.006-.007-.013-.009l-.028-.018s0,0-.012-.008a.043.043,0,0,1-.02-.012.016.016,0,0,1-.014-.007.05.05,0,0,1-.019-.013c-.007,0-.014-.007-.02-.007a.191.191,0,0,0-.021-.014c-.007-.007-.014-.007-.014-.009l-.019-.01a.041.041,0,0,0-.023-.013c0-.007-.011-.007-.018-.014a.035.035,0,0,1-.016-.007l-.012-.007a.13.13,0,0,1-.03-.019c-.007,0-.011-.007-.014-.007s-.014-.006-.021-.013-.006,0-.013-.008a.071.071,0,0,0-.03-.015s-.01,0-.01-.007-.013-.01-.02-.01l-.01-.006a.262.262,0,0,1-.043-.028h0a.177.177,0,0,1-.024-.012h0c-.027-.014-.046-.03-.074-.044v0a.629.629,0,0,1-.073-.04h0q-1.155-.671-2.335-1.3l1.282-2.411c1.66.88,3.3,1.834,4.9,2.836l-1.453,2.313c-.01-.006-.025-.013-.037-.021a.166.166,0,0,1-.034-.025q-.669-.417-1.346-.821h0c-.015-.007-.024-.014-.035-.019l0-.005c-.007-.006-.02-.013-.03-.02l-.007,0-.034-.02h0A.247.247,0,0,0,163.853,59.465Zm-6.969-6.676-1.107,2.5q-.93-.415-1.881-.808h0l-.08-.03h0a.8.8,0,0,0-.076-.03h0c-.026-.013-.049-.023-.074-.033h0a.391.391,0,0,0-.035-.018h-.006c-.007,0-.019-.009-.034-.015h-.006c-.014-.008-.02-.008-.032-.015l-.007-.006a.173.173,0,0,1-.034-.009l-.007,0a.16.16,0,0,0-.03-.013l-.01,0a.112.112,0,0,0-.032-.009l-.008-.008a.141.141,0,0,0-.027-.009.017.017,0,0,0-.014,0,.067.067,0,0,0-.032-.012c0-.005,0-.005-.007-.005a.081.081,0,0,0-.028-.013l-.012,0a.124.124,0,0,0-.033-.015l-.008,0a.153.153,0,0,0-.025-.011l-.014-.007-.027-.01-.013,0c-.006-.008-.017-.008-.026-.013l-.015-.008c-.006,0-.016-.007-.025-.007l-.007-.006-.034-.01s-.007,0-.013-.007a.119.119,0,0,0-.027-.009h-.007a.06.06,0,0,0-.032-.014.013.013,0,0,0-.014-.007l-.02-.009a.023.023,0,0,0-.014,0,.143.143,0,0,0-.033-.015l-.013,0c-.007,0-.015-.008-.019-.008l-.015-.007c-.006-.006-.023-.006-.034-.013l-.012,0a.136.136,0,0,0-.02-.011c-.007,0-.01,0-.014-.007a.11.11,0,0,1-.033-.012h-.013c-.007-.008-.015-.008-.021-.014H152.7a.244.244,0,0,0-.034-.014.02.02,0,0,0-.014-.006.037.037,0,0,0-.019-.007c-.007,0-.011-.008-.013-.008s-.021,0-.028-.012a.022.022,0,0,1-.019-.007.051.051,0,0,1-.02-.006l-.014-.007a.052.052,0,0,1-.024-.007l-.023-.01c-.007,0-.013,0-.02-.011a.056.056,0,0,1-.017,0l-.018-.01a.037.037,0,0,1-.02-.007l-.024-.011-.016,0c-.007,0-.011-.007-.02-.01s-.015,0-.021-.011a.038.038,0,0,1-.024-.007c-.006,0-.013,0-.016,0s-.009,0-.016-.007a.025.025,0,0,1-.018-.007.172.172,0,0,1-.03-.011l-.016-.005s-.017-.007-.017-.01a.022.022,0,0,1-.02-.008c-.006,0-.02-.007-.026-.007a.031.031,0,0,0-.02-.005.029.029,0,0,0-.014-.007.027.027,0,0,0-.02-.006c-.006-.005-.02-.007-.026-.014a.024.024,0,0,1-.017-.006.022.022,0,0,1-.02-.008.018.018,0,0,1-.017-.007c-.006,0-.014,0-.021,0l-.025-.01-.014-.008a.068.068,0,0,0-.02,0c-.007-.007-.014-.007-.019-.01a.291.291,0,0,0-.028-.01c-.007,0-.009,0-.016-.008s-.011-.007-.016-.007a.117.117,0,0,1-.02-.005.149.149,0,0,0-.028-.011l-.019-.007-.014-.007c-.009,0-.014,0-.02-.01a.04.04,0,0,1-.024-.006c-.01,0-.013-.007-.023-.007l-.013-.007a.087.087,0,0,1-.019-.005c-.008,0-.018-.007-.023-.011a.233.233,0,0,1-.025-.007s-.01,0-.013-.01a.048.048,0,0,1-.02,0c-.007-.005-.013-.005-.02-.011s-.02-.007-.027-.007l-.013-.007a.049.049,0,0,0-.02,0,.035.035,0,0,0-.02-.007.166.166,0,0,1-.027-.013c-.006,0-.014,0-.016-.005s-.014,0-.02-.01a.059.059,0,0,1-.017,0,.072.072,0,0,0-.03-.011l-.014-.007a.049.049,0,0,0-.019-.005.025.025,0,0,0-.018-.007c-.009-.006-.019-.006-.025-.011l-.017-.006c-.007,0-.018,0-.024-.01a.024.024,0,0,1-.013,0c-.006,0-.021-.006-.027-.011s-.009,0-.014-.006a.047.047,0,0,1-.025-.007c-.008,0-.008-.006-.015-.006a.047.047,0,0,1-.026-.011l-.013,0a.1.1,0,0,0-.027-.01L151.1,53.4l-.023-.005s-.007,0-.013,0-.017-.01-.027-.014-.012-.006-.017-.006a.071.071,0,0,1-.023-.006c-.007,0-.007,0-.013-.007l-.03-.011-.017,0a.04.04,0,0,0-.021-.007.016.016,0,0,0-.012-.007c-.007-.006-.02-.006-.03-.014l-.014,0a.08.08,0,0,1-.023-.01c-.006,0-.006,0-.013,0a.106.106,0,0,0-.033-.01.017.017,0,0,0-.014-.006c-.006,0-.013-.007-.023-.007l-.011-.008a.177.177,0,0,0-.032-.009l0,0,.926-2.57C153.4,51.322,155.162,52.029,156.884,52.789ZM140.732,47.64c1.84.374,3.694.821,5.5,1.328L145.5,51.6c-.287-.081-.575-.16-.861-.233h0a.306.306,0,0,0-.041-.01.111.111,0,0,0-.04-.011l0,0a.1.1,0,0,1-.034-.01h-.007a.314.314,0,0,0-.04-.013h0a.1.1,0,0,0-.036-.007l-.007,0c-.01,0-.027-.007-.037-.011a.18.18,0,0,0-.035-.007l-.011-.007a.584.584,0,0,1-.075-.019h-.009a.1.1,0,0,0-.033-.006l0-.005a.167.167,0,0,1-.04-.01h-.007a.127.127,0,0,0-.03-.009s0,0-.01,0-.02-.007-.034-.007l-.007,0a.1.1,0,0,1-.032-.01h-.007l-.041-.011h0a.064.064,0,0,1-.033-.01h-.013a.066.066,0,0,0-.032-.009v0a.124.124,0,0,1-.04-.007l-.007,0a.237.237,0,0,0-.034-.008l-.007,0a.151.151,0,0,0-.033-.007c-.007,0-.007,0-.014,0s-.021,0-.025-.007l-.011,0a.094.094,0,0,0-.038-.01l-.007,0a.089.089,0,0,1-.03-.006h-.009a.166.166,0,0,0-.036-.01l0,0a.136.136,0,0,0-.035-.007H143.6c-.023-.007-.051-.013-.074-.021l-.009,0c-.008-.005-.028-.007-.033-.011h0c-.009,0-.025-.007-.036-.007l-.007,0a.17.17,0,0,0-.037-.01h0c-.013-.005-.025-.007-.039-.011l0,0c-.009,0-.023-.006-.037-.006h0c-.025-.008-.053-.015-.08-.021h0c-.028-.007-.055-.014-.081-.019h0l-.083-.021c-.955-.233-1.914-.451-2.882-.646Zm-11.218-1.447c1.877.108,3.774.281,5.631.52l-.349,2.712c-.271-.038-.545-.07-.814-.1h-.008a.749.749,0,0,0-.086-.007h0a.156.156,0,0,0-.03-.007h0a.407.407,0,0,1-.049-.005h-.011a.03.03,0,0,1-.019-.005l-.016,0h-.03a.034.034,0,0,1-.02,0c-.008,0-.015,0-.021,0h-.017c-.007,0-.013,0-.02,0l-.023,0a.064.064,0,0,1-.026,0h-.021l-.013,0a.11.11,0,0,1-.026,0h-.014a.083.083,0,0,0-.033,0l-.014,0a.059.059,0,0,1-.026,0h-.015c-.009,0-.022,0-.032,0l-.009,0h-.041c-.027-.007-.051-.007-.076-.012h-.047a.147.147,0,0,0-.041-.007h0a.24.24,0,0,1-.04-.006h-.007a.774.774,0,0,1-.08-.008h0c-1.224-.133-2.463-.23-3.708-.3ZM125,56.61A68.388,68.388,0,1,1,56.61,125,68.461,68.461,0,0,1,125,56.61ZM68.2,70.23c1.307-1.353,2.678-2.674,4.075-3.93L74.1,68.332q-1.261,1.134-2.471,2.324h0l-.06.058,0,0a.727.727,0,0,1-.056.055l-.008.006c-.02.02-.036.039-.052.053l-.008.007c-.019.021-.036.037-.053.053s-.006,0-.006.011c-.02.017-.037.032-.054.049l-.013.011-.01.013a.1.1,0,0,1-.022.02c0,.006-.008.011-.015.015s-.011.01-.013.014-.007.009-.013.012l-.019.021-.015.014s-.006.009-.013.014l-.01.011a.173.173,0,0,0-.023.021l-.014.012-.013.016-.013.011-.02.024-.01.006a.042.042,0,0,1-.023.02s0,.008-.008.009a.194.194,0,0,1-.022.025l-.008.006c-.007.01-.012.013-.019.022s0,.006-.011.008-.016.018-.023.028h0c-.006.009-.021.017-.027.026v0a.168.168,0,0,0-.033.029.177.177,0,0,1-.027.028l0,.006c-.017.015-.036.038-.057.055l0,0-.058.058v0l-.6.611Zm8.413-7.564C78.1,61.513,79.64,60.4,81.2,59.355l1.521,2.271c-.555.373-1.109.754-1.651,1.141h0c-.02.012-.046.033-.066.047h0c-.024.02-.044.032-.064.046l-.005,0c-.021.018-.048.035-.068.051h0a.806.806,0,0,1-.067.046l-.006.008a.313.313,0,0,0-.03.02h-.005a.115.115,0,0,1-.032.023v0c-.013.008-.023.018-.034.026l0,0a.093.093,0,0,0-.03.02s0,0-.008.008a.127.127,0,0,1-.026.015l-.006,0-.03.023-.007,0a.243.243,0,0,1-.028.02l0,0c-.011.01-.021.017-.03.024l-.011.006c-.006.007-.012.015-.019.015a.019.019,0,0,1-.014.006.159.159,0,0,1-.027.024l-.01.006a.072.072,0,0,0-.02.017l-.01.007a.053.053,0,0,0-.025.019.026.026,0,0,0-.015.006.069.069,0,0,1-.023.017l-.007.007c-.011,0-.015.013-.03.02l-.006.007a.117.117,0,0,0-.028.016s0,.008-.007.008-.015.013-.025.02l-.007.006-.028.017,0,.006a.109.109,0,0,0-.027.024l-.013,0a.25.25,0,0,0-.023.018l-.008.005-.03.025-.007,0a.044.044,0,0,1-.025.017s0,0-.007.011a.108.108,0,0,0-.03.019l0,0L80,63.534l-.008.006-.032.024-.006,0c-.007.007-.015.013-.021.02s-.007,0-.009.007a.228.228,0,0,0-.03.021l-.007,0c-.008,0-.014.01-.028.018l-.006,0a.061.061,0,0,1-.03.023l0,.005-.026.019-.008.006a.16.16,0,0,1-.032.02v.008a.2.2,0,0,0-.03.019l-.007,0-.03.024h0a.16.16,0,0,0-.03.023l-.01,0a.6.6,0,0,1-.06.048l0,0c-.023.017-.042.035-.067.051l0,0-.068.051h0a.406.406,0,0,1-.066.046l0,.008a.532.532,0,0,0-.065.045h0c-.341.261-.678.515-1.014.778Zm9.4-6.289c1.634-.931,3.322-1.814,5.016-2.628l1.181,2.468c-.075.035-.148.069-.218.1l0,0c-.141.067-.278.133-.414.2h0c-.024.014-.05.026-.077.04h0a.566.566,0,0,0-.074.036h-.007a.622.622,0,0,1-.073.037h0c-.024.014-.05.028-.074.04h0a.7.7,0,0,1-.073.034l-.007.007a.079.079,0,0,0-.021.01l0,0-.041.02c-.008,0-.008,0-.008.008s-.019.006-.026.006l0,0a.478.478,0,0,1-.042.023l-.007,0-.02.009c-.007,0-.007,0-.007.005a.236.236,0,0,0-.044.023l-.007,0c-.005.005-.016.005-.023.01l-.007.007c-.012,0-.025.007-.04.013,0,.005-.006.008-.006.008a.138.138,0,0,1-.023.009l-.009.008c-.01,0-.021.01-.035.015s0,.005-.012.007-.013.008-.021.008l-.013.01a.157.157,0,0,1-.026.012l-.018.011s-.01.008-.016.008a.024.024,0,0,1-.014.006c-.012,0-.02.013-.026.013s-.014.006-.02.013-.01,0-.017.006-.009.007-.015.01a.048.048,0,0,0-.015,0,.117.117,0,0,1-.034.016l-.012.007c-.007,0-.014.008-.02.01l-.014.007c-.006.006-.016.013-.026.021h-.014a.107.107,0,0,1-.021.013l-.013.006a.1.1,0,0,1-.032.013l-.007.007c-.01.006-.021.006-.028.013s-.005,0-.005.008a.178.178,0,0,1-.037.013l-.006.006a.1.1,0,0,0-.028.013l-.007,0c-.01.007-.023.009-.035.017l-.007,0c-.007.007-.021.011-.03.018l0,0a.578.578,0,0,0-.074.038h0c-.026.013-.05.025-.073.039h-.006c-.02.014-.05.027-.074.041h0c-.884.46-1.754.933-2.62,1.427ZM96.224,51.5c1.75-.686,3.543-1.32,5.337-1.881l.814,2.611q-2.622.816-5.155,1.811Zm27.628-5.423.039,2.736c-.337,0-.674.007-1.007.019h-.126a.224.224,0,0,1-.051,0h-.03a.02.02,0,0,0-.014,0h-.113a.041.041,0,0,0-.021,0h-.065l-.02,0h-.1a.088.088,0,0,1-.037,0h-.04l-.007,0h-.085a.1.1,0,0,0-.035,0h-.006c-.026,0-.057,0-.083,0-1.211.045-2.418.12-3.612.218l-.233-2.719C120.069,46.193,121.97,46.1,123.852,46.072Zm-11.272.968.429,2.7c-.387.063-.771.127-1.157.2h0a.7.7,0,0,0-.086.015h-.007c-.027,0-.053.009-.08.013h-.007a.04.04,0,0,1-.026.006h0c-.017,0-.03.006-.047.011h-.011a.09.09,0,0,1-.023,0s-.009.007-.014.007a.076.076,0,0,0-.035.006H111.5a.056.056,0,0,0-.021.008h-.02a.046.046,0,0,0-.025.007h-.021a.07.07,0,0,0-.019.006h-.018a.032.032,0,0,1-.019.007.1.1,0,0,0-.023,0c-.007,0-.018,0-.028,0a.047.047,0,0,1-.015.006h-.017l-.023.007h-.025c-.012.008-.012.008-.023.008s-.013,0-.017,0a.044.044,0,0,1-.02,0,.044.044,0,0,0-.026.007l-.02,0a.031.031,0,0,0-.019,0,.049.049,0,0,0-.021,0,.028.028,0,0,1-.017,0,.056.056,0,0,0-.03.007h-.02a.108.108,0,0,1-.021.005h-.015a.067.067,0,0,1-.028.007.019.019,0,0,0-.017.007h-.023l-.015.006h-.028l-.012.008-.03,0a.025.025,0,0,1-.018.005.035.035,0,0,0-.019.006h-.013a.3.3,0,0,1-.035.007l-.016,0a.051.051,0,0,1-.024,0l-.013,0h-.033c-.007.007-.009.007-.014.007a.057.057,0,0,0-.025.008H110.6a.076.076,0,0,0-.026.006h-.019a.155.155,0,0,1-.023.007.062.062,0,0,0-.018,0,.03.03,0,0,1-.02.005l-.018,0c-.009,0-.022,0-.03.008l-.015,0a.038.038,0,0,0-.024.008h-.014c-.009,0-.022,0-.032,0s-.013,0-.017.005a.062.062,0,0,1-.02,0l-.016.008h-.028c-.007,0-.013,0-.019.006a.024.024,0,0,0-.02.007h-.021l-.02,0a.056.056,0,0,1-.023.008c-.01,0-.013,0-.024,0s-.013,0-.013.007h-.023a.085.085,0,0,0-.017.008.183.183,0,0,0-.032,0l-.014,0c-.007,0-.014.008-.02.008h-.019a.077.077,0,0,1-.028.007c-.007,0-.013,0-.02,0a.046.046,0,0,1-.02,0,.053.053,0,0,1-.02.007.078.078,0,0,0-.021,0c-.007,0-.016,0-.026,0a.037.037,0,0,1-.02.007.024.024,0,0,0-.016,0,.027.027,0,0,1-.017,0,.071.071,0,0,0-.03,0,.034.034,0,0,0-.02.005.044.044,0,0,1-.016,0,.108.108,0,0,0-.017,0,.041.041,0,0,1-.023,0c-.007,0-.02,0-.027.006a.074.074,0,0,0-.021.007h-.017l-.02,0s-.01,0-.012,0a.151.151,0,0,1-.037.006c-.006,0-.006.007-.014.007h-.02c-.007,0-.012.008-.012.008s-.028,0-.041,0h-.012a.023.023,0,0,1-.02.008l-.015,0a.555.555,0,0,0-.073.017h-.012a.289.289,0,0,1-.073.013l-.008.008a.1.1,0,0,0-.027,0l0,.005a.186.186,0,0,0-.05.009H109.2c-.009,0-.019,0-.025,0l-.007,0a.778.778,0,0,0-.081.017h-.007q-.714.156-1.429.321l-.623-2.662C108.854,47.7,110.726,47.334,112.58,47.04ZM101.708,9.605l.554,2.755h0l3.814,19.057A94.3,94.3,0,0,0,70.4,46.647L59.318,30.766h0L57.7,28.439A117.129,117.129,0,0,1,101.708,9.605ZM57.8,83.611l2.321,1.436a.2.2,0,0,1-.021.036v0q-1.3,2.1-2.463,4.3a.624.624,0,0,1-.038.071l0,.006a.186.186,0,0,1-.018.034l0,0a.1.1,0,0,1-.015.032s0,.006-.007.007a.062.062,0,0,1-.014.032s0,0-.007.008a.114.114,0,0,1-.013.028l-.006.01a.084.084,0,0,1-.013.025.044.044,0,0,1-.008.017l-.01.02a.033.033,0,0,1-.01.017s-.007.011-.007.017a.054.054,0,0,0-.012.027c-.007.007-.007.009-.007.012s-.006.017-.014.021l-.007.011c0,.005-.006.01-.011.018L55,88.53C55.873,86.865,56.817,85.21,57.8,83.611ZM52.562,93.638l2.5,1.085c-.291.675-.577,1.353-.85,2.033v0c0,.008-.007.017-.007.025l0,0a.274.274,0,0,0-.019.049h0c0,.006-.007.017-.011.026l0,.007a.413.413,0,0,1-.017.045v0a.076.076,0,0,0-.011.022l0,.014a.04.04,0,0,0-.014.025c0,.006-.007.015-.007.021a.02.02,0,0,0-.007.018.031.031,0,0,0-.009.018.028.028,0,0,1-.006.015c0,.009-.008.023-.011.03a.023.023,0,0,0-.006.016.04.04,0,0,0-.007.02s-.006.01-.006.015a.209.209,0,0,1-.015.03.03.03,0,0,1,0,.013l-.01.022s0,.011-.007.014a.169.169,0,0,1-.013.03v.015c-.008.006-.008.015-.014.023v.012c-.007.01-.009.021-.016.031l0,.007a.089.089,0,0,1-.011.031l0,.01a.109.109,0,0,0-.013.034.1.1,0,0,0-.014.037l0,.008a.119.119,0,0,0-.013.034h0a.066.066,0,0,1-.013.037v.006a.08.08,0,0,0-.014.036v0c-.007.013-.013.024-.02.039v0a.171.171,0,0,1-.013.038h0a.163.163,0,0,0-.013.039h0c-.271.7-.529,1.413-.78,2.128L50.5,98.907C51.114,97.135,51.808,95.36,52.562,93.638Zm-3.753,10.675,2.639.718c-.473,1.748-.89,3.524-1.24,5.32l-2.682-.524C47.886,107.983,48.317,106.128,48.809,104.313Zm-2.17,11.105,2.715.331c-.161,1.283-.281,2.575-.374,3.875v.007a.378.378,0,0,1-.006.082v.037a.144.144,0,0,1-.007.053v.089s0,.006-.007.007v.06a.058.058,0,0,0,0,.024v.023a.078.078,0,0,1,0,.022v.041a.026.026,0,0,1,0,.018c0,.008,0,.022,0,.031v.051c0,.01,0,.024,0,.037v.01c0,.009,0,.02,0,.031v.008c0,.024,0,.053,0,.078l0,.006v.04c0,.016,0,.025,0,.042v0a.249.249,0,0,1,0,.04c-.013.243-.028.488-.04.731l-2.728-.136C46.253,119.179,46.413,117.282,46.639,115.418Zm2.175,11.241v.124l0,.014v.082c0,.012,0,.023,0,.032v.178h0c0,.015,0,.027,0,.039v.007a.713.713,0,0,1,0,.082v.044c0,.028,0,.056,0,.083v0q.075,2.4.3,4.766l-2.722.254c-.173-1.868-.286-3.77-.326-5.653Zm-21.6-61.941L43.668,74.9a94.5,94.5,0,0,0-13.262,36.46l-19.141-2.748h0l-2.768-.4A116.9,116.9,0,0,1,24.8,63.226l2.407,1.492Z" fill="#b3b3b3"/></g></svg>
