<svg id="CENTRE" xmlns="http://www.w3.org/2000/svg" viewBox="0 0 1920 1080"><g id="_5" data-name="5"><path d="M1000.687,472.971a13.218,13.218,0,0,1,13.217,13.217V593.812a13.218,13.218,0,0,1-13.217,13.217H930.826a13.217,13.217,0,0,1-13.217-13.217V486.188a13.217,13.217,0,0,1,13.217-13.217h69.861m0-2H930.826a15.234,15.234,0,0,0-15.217,15.217V593.812a15.234,15.234,0,0,0,15.217,15.217h69.861a15.234,15.234,0,0,0,15.217-15.217V486.188a15.234,15.234,0,0,0-15.217-15.217Z" fill="#3aaa35"/><path d="M1110.694,472.971a13.218,13.218,0,0,1,13.217,13.217V593.812a13.218,13.218,0,0,1-13.217,13.217h-69.861a13.217,13.217,0,0,1-13.217-13.217V486.188a13.217,13.217,0,0,1,13.217-13.217h69.861m0-2h-69.861a15.234,15.234,0,0,0-15.217,15.217V593.812a15.234,15.234,0,0,0,15.217,15.217h69.861a15.234,15.234,0,0,0,15.217-15.217V486.188a15.234,15.234,0,0,0-15.217-15.217Z" fill="#3aaa35"/><path d="M1220.7,472.971a13.218,13.218,0,0,1,13.217,13.217V593.812a13.218,13.218,0,0,1-13.217,13.217H1150.84a13.217,13.217,0,0,1-13.217-13.217V486.188a13.217,13.217,0,0,1,13.217-13.217H1220.7m0-2H1150.84a15.234,15.234,0,0,0-15.217,15.217V593.812a15.234,15.234,0,0,0,15.217,15.217H1220.7a15.234,15.234,0,0,0,15.217-15.217V486.188a15.234,15.234,0,0,0-15.217-15.217Z" fill="#3aaa35"/><path d="M780.673,472.971a13.217,13.217,0,0,1,13.217,13.217V593.812a13.217,13.217,0,0,1-13.217,13.217H710.812A13.218,13.218,0,0,1,697.6,593.812V486.188a13.218,13.218,0,0,1,13.217-13.217h69.861m0-2H710.812A15.235,15.235,0,0,0,695.6,486.188V593.812a15.235,15.235,0,0,0,15.217,15.217h69.861a15.234,15.234,0,0,0,15.217-15.217V486.188a15.234,15.234,0,0,0-15.217-15.217Z" fill="#3aaa35"/><path d="M890.68,472.971A13.218,13.218,0,0,1,903.9,486.188V593.812a13.218,13.218,0,0,1-13.217,13.217H820.819A13.218,13.218,0,0,1,807.6,593.812V486.188a13.218,13.218,0,0,1,13.217-13.217H890.68m0-2H820.819A15.235,15.235,0,0,0,805.6,486.188V593.812a15.235,15.235,0,0,0,15.217,15.217H890.68A15.234,15.234,0,0,0,905.9,593.812V486.188a15.234,15.234,0,0,0-15.217-15.217Z" fill="#3aaa35"/></g></svg>
