<svg id="CARTES_JOUEUR" data-name="CARTES JOUEUR" xmlns="http://www.w3.org/2000/svg" viewBox="0 0 1920 1080"><path d="M945.8,748.492a13.218,13.218,0,0,1,13.217,13.217V869.333A13.218,13.218,0,0,1,945.8,882.55H875.94a13.217,13.217,0,0,1-13.217-13.217V761.709a13.217,13.217,0,0,1,13.217-13.217H945.8m0-2H875.94a15.234,15.234,0,0,0-15.217,15.217V869.333A15.234,15.234,0,0,0,875.94,884.55H945.8a15.235,15.235,0,0,0,15.217-15.217V761.709A15.234,15.234,0,0,0,945.8,746.492Z" fill="#3aaa35"/><path d="M1044.06,748.492a13.217,13.217,0,0,1,13.217,13.217V869.333a13.217,13.217,0,0,1-13.217,13.217H974.2a13.218,13.218,0,0,1-13.217-13.217V761.709A13.218,13.218,0,0,1,974.2,748.492h69.861m0-2H974.2a15.234,15.234,0,0,0-15.217,15.217V869.333A15.235,15.235,0,0,0,974.2,884.55h69.861a15.234,15.234,0,0,0,15.217-15.217V761.709a15.234,15.234,0,0,0-15.217-15.217Z" fill="#3aaa35"/></svg>
